<svg width="1145" height="405" viewBox="0 0 1145 405" fill="none" xmlns="http://www.w3.org/2000/svg">
<path d="M199.545 191.323C268.315 242.636 350.753 235.595 341.248 289.811C331.742 344.027 210.1 421.53 111.685 384.193C13.2706 346.855 -35.806 111.281 36.5542 66.0477C108.914 20.814 130.776 140.009 199.545 191.323Z" stroke="#6A9360" stroke-width="4"/>
<path d="M193.874 198.297C248.485 238.984 313.951 233.401 306.403 276.389C298.854 319.377 202.256 380.829 124.103 351.224C45.9502 321.619 6.97762 134.833 64.4401 98.9668C121.903 63.101 139.263 157.611 193.874 198.297Z" stroke="#6A9360" stroke-width="3"/>
<path d="M187.069 206.667C224.69 234.601 269.788 230.768 264.588 260.282C259.388 289.796 192.843 331.987 139.004 311.661C85.1657 291.335 58.3179 163.094 97.9032 138.47C137.488 113.845 149.448 178.733 187.069 206.667Z" stroke="#6A9360" stroke-width="2"/>
<path d="M179.778 215.634C199.195 229.905 222.471 227.946 219.788 243.024C217.104 258.102 182.758 279.656 154.97 269.273C127.182 258.889 113.325 193.374 133.756 180.794C154.188 168.215 160.36 201.364 179.778 215.634Z" stroke="#6A9360"/>
<path d="M219.068 317.364H331.455V356H385.205V317.364H413.045V273.045H385.205V123.273H314.409L219.068 273.5V317.364ZM332.591 273.045H274.977V271.227L330.773 182.818H332.591V273.045ZM645.943 317.364H758.33V356H812.08V317.364H839.92V273.045H812.08V123.273H741.284L645.943 273.5V317.364ZM759.466 273.045H701.852V271.227L757.648 182.818H759.466V273.045Z" fill="white"/>
<circle cx="528.5" cy="227.5" r="113.5" fill="#223051"/>
<circle cx="615.5" cy="169.5" r="55.5" fill="#FFBA5F"/>
<path d="M720.555 25.2812C694 69 769.522 111.236 824.445 184.5C879.368 257.764 907.797 314.367 980.008 325C1052.22 335.633 1137.31 283.669 1142.55 213.68C1147.8 143.69 1019.2 81.6034 937.211 45C855.222 8.39654 747.109 -18.4375 720.555 25.2812Z" stroke="#E26C56" stroke-width="4"/>
<path d="M768.123 56.9933C747.632 90.7547 805.91 123.371 848.293 179.949C890.675 236.526 912.613 280.237 968.336 288.448C1024.06 296.66 1089.72 256.531 1093.77 202.482C1097.81 148.434 998.579 100.488 935.311 72.2209C872.042 43.9542 788.615 23.2318 768.123 56.9933Z" stroke="#E26C56" stroke-width="3"/>
<path d="M831.455 99.1424C819.036 119.669 854.356 139.5 880.042 173.899C905.729 208.298 919.024 234.875 952.796 239.867C986.567 244.86 1026.36 220.461 1028.82 187.6C1031.27 154.738 971.125 125.587 932.78 108.401C894.436 91.2147 843.874 78.6155 831.455 99.1424Z" stroke="#E26C56" stroke-width="2"/>
<path d="M876.274 129.249C869.568 140.323 888.641 151.021 902.512 169.578C916.382 188.136 923.562 202.473 941.798 205.166C960.035 207.859 981.525 194.697 982.849 176.969C984.173 159.241 951.696 143.515 930.99 134.244C910.284 124.972 882.981 118.175 876.274 129.249Z" stroke="#E26C56"/>
</svg>
