<svg width="32" height="32" viewBox="0 0 32 32" fill="none" xmlns="http://www.w3.org/2000/svg">
<path d="M7.15689 26C6.99702 25.9997 6.83895 25.9662 6.69275 25.9015C6.54654 25.8368 6.41539 25.7424 6.30764 25.6242C6.19794 25.5071 6.11423 25.3681 6.062 25.2163C6.00977 25.0646 5.9902 24.9035 6.00458 24.7436L6.2869 21.6385L19.3287 8.59767L23.4045 12.6733L10.3661 25.713L7.26175 25.9954C7.22689 25.9986 7.1919 26.0001 7.15689 26ZM24.218 11.8584L20.1434 7.78277L22.5875 5.33805C22.6945 5.23088 22.8216 5.14587 22.9615 5.08786C23.1014 5.02986 23.2513 5 23.4027 5C23.5542 5 23.7041 5.02986 23.844 5.08786C23.9839 5.14587 24.111 5.23088 24.218 5.33805L26.662 7.78277C26.7692 7.88981 26.8542 8.01693 26.9122 8.15686C26.9702 8.29679 27 8.44677 27 8.59825C27 8.74972 26.9702 8.89971 26.9122 9.03963C26.8542 9.17956 26.7692 9.30668 26.662 9.41373L24.2191 11.8573L24.218 11.8584Z" fill="white"/>
</svg>
