<svg width="713" height="493" viewBox="0 0 713 493" fill="none" xmlns="http://www.w3.org/2000/svg">
<path d="M356.5 493C553.39 493 713 482.63 713 469.838C713 457.046 553.39 446.676 356.5 446.676C159.61 446.676 0 457.046 0 469.838C0 482.63 159.61 493 356.5 493Z" fill="#CCCCCC"/>
<path d="M247.708 442.901C241.177 451.074 239.012 460.346 240.92 470.534C241.911 475.848 244.993 479.293 250.9 478.597C256.881 477.901 256.074 473.1 255.67 469.288C254.606 459.1 257.211 450.377 264.843 443.341C264.733 443.268 264.66 443.231 264.55 443.158C260.294 442.901 256.074 442.425 251.891 441.618C250.497 441.985 249.102 442.461 247.708 442.901Z" fill="#00001A"/>
<path d="M283.409 445.906C283.263 447.372 283.006 448.875 283.006 450.341C283.006 455.691 285.941 458.917 291.005 459.503C296.032 460.089 296.839 455.691 297.829 452.137C298.637 449.278 299.04 446.273 299.627 443.341H299.591C294.821 443.414 290.014 443.451 285.244 443.487C284.584 444.11 283.96 444.917 283.409 445.906Z" fill="#00001A"/>
<path d="M468.557 442.901C475.089 451.074 477.253 460.346 475.345 470.534C474.355 475.848 471.273 479.293 465.365 478.597C459.385 477.901 460.192 473.1 460.595 469.288C461.659 459.1 459.054 450.377 451.422 443.341C451.532 443.268 451.606 443.231 451.716 443.158C455.972 442.901 460.192 442.425 464.375 441.618C465.769 441.985 467.163 442.461 468.557 442.901Z" fill="#00001A"/>
<path d="M432.856 445.906C433.003 447.372 433.26 448.875 433.26 450.341C433.26 455.691 430.325 458.917 425.261 459.503C420.234 460.089 419.427 455.691 418.436 452.137C417.629 449.278 417.225 446.273 416.638 443.341H416.675C421.445 443.414 426.252 443.451 431.022 443.487C431.682 444.11 432.269 444.917 432.856 445.906Z" fill="#00001A"/>
<path d="M550.418 271.751C544.29 254.819 528.586 247.196 511.414 252.657C509.983 253.097 508.589 253.537 506.644 254.16C506.717 242.579 505.69 231.584 501.544 221.139C496.223 207.689 487.124 197.537 474.575 190.391C452.303 177.747 426.619 170.051 401.705 164.553C374.516 158.543 346.226 158.36 319.001 164.15C292.142 169.831 265.724 176.721 241.691 190.391C229.142 197.537 220.042 207.689 214.722 221.139C210.612 231.584 209.548 242.579 209.622 254.16C207.677 253.537 206.246 253.097 204.852 252.657C187.68 247.196 171.976 254.783 165.848 271.751C162.216 281.866 163.133 292.311 164.968 302.499C171.095 336.363 183.314 368.174 199.605 398.299C207.677 413.215 219.785 428.278 235.159 436.121C239.452 438.283 243.966 439.859 248.589 440.959C249.69 441.215 250.79 441.435 251.928 441.655C256.074 442.461 260.33 442.901 264.586 443.194C270.898 443.597 277.245 443.597 283.373 443.524C283.997 443.524 284.62 443.524 285.207 443.487C289.977 443.451 294.784 443.377 299.554 443.341C319.074 443.121 338.594 442.791 358.151 442.498C377.671 442.791 397.228 443.084 416.748 443.341C421.518 443.414 426.325 443.451 431.095 443.487C431.719 443.487 432.343 443.487 432.93 443.524C439.057 443.561 445.405 443.597 451.716 443.194C455.972 442.938 460.192 442.461 464.375 441.655C465.475 441.435 466.613 441.215 467.714 440.959C472.374 439.859 476.887 438.32 481.143 436.121C496.517 428.278 508.662 413.215 516.698 398.299C532.989 368.137 545.207 336.363 551.335 302.499C553.133 292.311 554.05 281.866 550.418 271.751Z" fill="#003688"/>
<path d="M465.439 317.086C450.615 305.725 433.59 300.814 415.244 298.835C396.237 296.746 377.194 295.903 358.151 295.719C339.108 295.903 320.065 296.746 301.058 298.835C282.712 300.85 265.65 305.761 250.864 317.086C243.599 295.39 236.187 273.803 215.125 260.683C216.923 264.018 218.428 267.426 218.831 271.055C220.519 286.007 222.317 300.96 223.455 315.986C224.335 327.75 225.252 339.551 227.307 351.169C228.335 357.033 229.692 362.86 231.453 368.577C232.848 373.048 234.315 377.373 237.251 381.111C243.268 388.661 253.432 392.179 262.715 393.572C278.786 395.991 295.114 396.137 311.332 395.074C315.368 394.818 358.188 393.132 358.188 393.645C358.188 393.132 401.007 394.781 405.044 395.074C421.261 396.137 437.553 395.991 453.661 393.572C462.944 392.179 473.071 388.661 479.125 381.111C482.097 377.373 483.565 373.085 484.922 368.577C486.683 362.86 488.004 357.07 489.068 351.169C491.123 339.551 492.004 327.75 492.921 315.986C494.059 300.997 495.856 286.007 497.544 271.055C497.948 267.426 499.452 263.981 501.25 260.683C480.115 273.803 472.704 295.39 465.439 317.086Z" fill="#14265D"/>
<path d="M479.382 335.153C477.364 330.682 474.649 326.504 471.42 322.803C470.209 321.41 468.925 320.091 467.567 318.881C453.734 306.128 433.407 300.813 415.207 298.798C396.201 296.709 377.158 295.866 358.115 295.683C339.071 295.866 320.028 296.709 301.022 298.798C282.859 300.777 262.532 306.128 248.662 318.881C247.305 320.127 246.02 321.447 244.81 322.803C241.581 326.504 238.865 330.682 236.847 335.153C233.141 343.436 231.674 352.782 232.811 361.797C233.985 370.849 237.434 379.095 245.507 383.933C254.239 389.137 264.66 389.797 274.567 389.504C280.658 389.32 286.712 388.771 292.803 388.624C300.325 388.441 307.81 388.881 315.332 388.771C322.854 388.661 330.339 387.964 337.861 387.708C344.612 387.488 351.327 387.231 358.078 387.048C364.829 387.231 371.581 387.488 378.295 387.708C385.817 387.964 393.302 388.661 400.824 388.771C408.346 388.881 415.831 388.441 423.353 388.624C429.444 388.771 435.498 389.32 441.589 389.504C451.533 389.797 461.916 389.137 470.649 383.933C478.758 379.095 482.207 370.886 483.345 361.797C484.555 352.782 483.088 343.436 479.382 335.153Z" fill="#051448"/>
<path d="M345.456 156.014C344.025 155.061 342.667 153.962 341.42 152.826C338.631 150.223 336.283 147.182 334.118 144.03C333.934 144.396 333.788 144.726 333.641 145.093C330.852 151.726 332.357 159.349 334.558 166.202C336.026 170.783 337.75 175.401 338.704 180.092C340.612 177.893 342.117 175.291 343.181 172.579C343.438 171.92 343.658 171.297 343.878 170.637C345.346 165.909 345.676 160.925 345.456 156.014Z" fill="#230F0D"/>
<path d="M418.913 166.129C413.41 160.412 405.631 156.967 401.154 150.407C395.394 141.977 396.531 130.836 397.448 120.685C398.402 110.533 398.476 99.0617 391.431 91.6953C387.798 87.9205 382.515 85.8681 377.305 85.9781C377.231 86.9309 376.938 87.8838 376.424 88.7634C375.837 89.7529 374.92 90.4859 373.855 90.9623C375.727 91.512 377.341 92.8314 378.515 94.444C379.91 96.3863 380.717 98.6586 381.451 100.931C383.872 108.7 385.34 116.836 385.047 124.972C384.716 133.108 382.515 141.245 378.038 148.061C376.02 151.14 373.378 153.925 370.37 156.087C369.819 161.805 369.819 167.558 372.021 172.763C372.241 173.276 372.461 173.752 372.718 174.228C376.754 181.778 384.826 183.721 392.238 186.872C401.521 190.83 410.988 195.375 417.703 203.108C418.473 203.987 419.207 204.904 419.867 205.856C423.977 201.092 426.545 195.045 427.022 188.815C427.683 180.532 424.637 172.103 418.913 166.129Z" fill="#4D1300"/>
<path d="M370.37 156.051C367.031 158.433 363.178 160.009 359.105 160.192C354.262 160.412 349.529 158.689 345.493 155.977C345.713 160.925 345.346 165.872 343.878 170.6C343.658 171.26 343.438 171.92 343.181 172.543C347.4 176.354 353.198 178.406 358.922 178.296C363.802 178.187 368.535 176.684 372.755 174.192C372.498 173.715 372.278 173.239 372.058 172.726C369.819 167.522 369.819 161.768 370.37 156.051Z" fill="#F7B89C"/>
<path d="M345.456 156.014C345.456 156.014 352.134 166.825 359.729 166.202C367.324 165.579 370.37 156.087 370.37 156.087L345.456 156.014Z" fill="#E6E6E6"/>
<path d="M381.451 100.931C380.754 98.6586 379.946 96.3497 378.515 94.444C377.341 92.8681 375.727 91.5121 373.855 90.9623C372.535 91.5854 371.03 91.8419 369.599 91.8053C366.994 91.7686 364.426 91.0356 361.82 90.9623C356.133 90.7791 350.446 94.0775 347.731 99.0617C342.851 108.041 347.694 119.695 343.841 129.15C341.603 134.648 336.723 138.679 334.118 143.957C336.283 147.108 338.631 150.15 341.42 152.752C342.667 153.925 344.025 154.988 345.456 155.941C349.529 158.653 354.225 160.375 359.069 160.155C363.178 159.972 366.994 158.396 370.333 156.014C373.342 153.888 375.947 151.066 378.002 147.988C382.478 141.208 384.68 133.035 385.01 124.899C385.34 116.836 383.872 108.7 381.451 100.931Z" fill="#F7B89C"/>
<path d="M411.575 193.213C407.649 191.673 402.035 190.647 392.275 186.872C387.211 184.893 380.203 181.302 372.755 174.229C368.535 176.721 363.802 178.223 358.922 178.333C353.198 178.443 347.364 176.391 343.181 172.579C342.117 175.328 340.612 177.893 338.704 180.092C339.181 182.401 339.438 184.747 339.365 187.129C339.108 196.511 333.017 205.563 324.248 208.935C315.478 212.27 304.581 209.375 299.04 201.825C298.783 201.459 298.527 201.092 298.27 200.689C295.481 203.877 293.023 207.322 291.041 211.024C290.418 212.16 289.831 213.333 289.317 214.506C286.382 221.212 285.061 228.469 283.703 235.652C282.712 240.783 281.685 250.385 280.584 255.516C330.742 255.516 380.864 255.516 431.022 255.516C429.921 210.108 420.418 196.694 411.575 193.213Z" fill="#FFB700"/>
<path d="M294.344 182.768C294.491 179.836 294.931 176.904 296.142 174.192C299.554 166.459 308.58 162.244 311.736 154.438C313.093 151.103 313.203 147.621 312.8 144.103C310.635 147.768 308.397 151.286 305.205 154.072C302.012 156.893 298.123 158.726 294.49 160.961C287.556 165.249 281.465 171.37 278.603 178.993C275.741 186.652 276.585 195.888 281.905 202.082C284.18 204.684 287.079 206.663 289.464 209.155C290.014 209.741 290.528 210.364 291.005 211.024C292.986 207.322 295.444 203.877 298.233 200.689C294.931 195.485 294.014 188.998 294.344 182.768Z" fill="#4D1300"/>
<path d="M365.747 114.161C366.003 113.905 366.26 113.758 366.554 113.648C366.847 113.575 367.141 113.538 367.434 113.501L368.315 113.391L369.196 113.318L370.076 113.281L370.957 113.318L371.837 113.391L372.718 113.501C373.892 113.685 375.03 113.905 376.167 114.271C377.268 114.637 378.369 115.114 379.359 115.737L379.213 116.03C378.075 115.774 376.974 115.517 375.874 115.297C374.773 115.077 373.672 114.894 372.571 114.784L371.727 114.711L370.883 114.674L370.04 114.637H369.196H368.352L367.508 114.674C366.957 114.711 366.407 114.821 365.783 114.454L365.747 114.161Z" fill="#24110F"/>
<path d="M352.721 114.491C352.097 114.857 351.547 114.747 350.996 114.711L350.152 114.674H349.308H348.465L347.621 114.711L346.777 114.747L345.933 114.821C344.832 114.931 343.731 115.114 342.631 115.334C341.53 115.554 340.429 115.81 339.292 116.067L339.145 115.774C340.135 115.151 341.2 114.674 342.337 114.308C343.438 113.941 344.612 113.721 345.786 113.538L346.667 113.428L347.547 113.355L348.428 113.318L349.308 113.355L350.189 113.428L351.07 113.538C351.363 113.575 351.657 113.611 351.95 113.685C352.244 113.795 352.501 113.941 352.758 114.198L352.721 114.491Z" fill="#24110F"/>
<path d="M360.867 128.527C361.454 128.967 361.967 129.444 362.444 129.957C362.664 130.213 362.921 130.47 363.141 130.8C363.362 131.093 363.545 131.496 363.655 131.899C363.765 132.266 363.839 132.779 363.582 133.292C363.508 133.402 363.435 133.512 363.325 133.622C363.215 133.695 363.105 133.805 362.995 133.841C362.775 133.951 362.591 134.025 362.371 134.061C362.004 134.135 361.637 134.171 361.307 134.171C360.977 134.208 360.646 134.245 360.316 134.428C360.463 134.061 360.793 133.841 361.123 133.622C361.454 133.438 361.784 133.292 362.077 133.182C362.371 133.035 362.518 132.889 362.518 132.779C362.554 132.669 362.554 132.449 362.481 132.156C362.444 131.899 362.334 131.642 362.187 131.349C362.041 131.093 361.857 130.763 361.71 130.47C361.344 129.883 361.05 129.224 360.867 128.527Z" fill="#E28569"/>
<path d="M353.418 142.601C353.785 142.454 354.078 142.454 354.372 142.491C354.665 142.527 354.922 142.601 355.216 142.637L356.06 142.784L356.904 142.894L357.748 143.004L358.591 143.077L359.435 143.114H360.279C361.417 143.114 362.554 143.04 363.692 142.857C364.829 142.711 365.967 142.491 367.104 142.271L367.214 142.601C366.187 143.224 365.049 143.627 363.875 143.92C362.701 144.213 361.49 144.36 360.316 144.433H359.399L358.481 144.396L357.564 144.323L356.683 144.213L355.803 144.03L354.922 143.81C354.629 143.7 354.335 143.663 354.078 143.517C353.821 143.37 353.565 143.187 353.344 142.894L353.418 142.601Z" fill="#CC6750"/>
<path d="M356.72 146.852C356.83 146.669 356.94 146.559 357.05 146.522C357.161 146.449 357.307 146.449 357.417 146.412C357.674 146.375 357.931 146.339 358.188 146.302C358.702 146.229 359.215 146.229 359.729 146.266C360.756 146.302 361.784 146.412 362.738 146.852L362.701 147.108C361.674 147.255 360.72 147.218 359.729 147.292L358.261 147.365L357.527 147.402C357.271 147.402 357.05 147.475 356.757 147.182L356.72 146.852Z" fill="#E6E6E6"/>
<path d="M354.519 319.541C351.583 317.562 348.905 314.74 345.603 314.227C343.768 313.934 341.897 314.41 340.062 314.63C334.815 315.217 329.421 313.421 325.018 309.756C322.78 307.887 321.606 306.164 318.854 305.285C316.176 304.442 313.35 304.222 310.562 304.332C310.085 304.369 309.608 304.369 309.167 304.442C308.36 304.552 307.59 304.772 306.892 305.211C305.938 305.798 305.131 306.714 304.434 307.74C302.746 310.196 301.646 313.348 301.389 316.536C309.204 317.416 316.909 319.834 324.431 322.766C327.697 324.049 330.926 325.442 334.008 327.237C335.035 327.824 336.063 328.483 337.053 329.143C342.997 330.719 349.088 331.415 355.179 331.232C356.94 331.196 358.922 331.159 360.169 332.735C361.013 333.798 361.307 335.337 361.527 336.803C361.637 337.499 361.71 338.232 361.82 338.928C363.875 338.855 365.93 338.599 368.021 338.232C369.489 333.358 370.92 328.447 372.388 323.573C372.424 323.426 372.461 323.279 372.535 323.133C366.297 323.939 360.096 323.316 354.519 319.541Z" fill="#DA7760"/>
<path d="M310.598 304.332C313.35 304.222 316.176 304.405 318.891 305.285C321.643 306.164 322.78 307.887 325.055 309.756C329.458 313.421 334.852 315.216 340.099 314.63C341.934 314.41 343.805 313.934 345.639 314.227C348.942 314.74 351.62 317.599 354.556 319.541C360.133 323.316 366.334 323.939 372.535 323.133C372.755 322.473 372.975 321.813 373.379 321.337C374.002 320.567 374.92 320.311 375.764 320.054C381.011 318.625 386.221 317.159 391.468 315.73C393.743 310.929 397.595 307.227 401.742 304.991C406.768 302.316 412.235 301.51 417.703 300.997C417.372 300.484 417.042 300.007 416.712 299.494H303.517C302.6 300.923 301.646 302.316 300.582 303.672C303.444 303.965 306.305 304.258 309.167 304.442C309.644 304.368 310.121 304.332 310.598 304.332Z" fill="#642A1F"/>
<path d="M468.924 326.651C467.934 309.939 454.871 302.866 443.277 300.923C435.535 299.604 427.646 300.154 419.83 300.813C419.097 300.887 418.363 300.923 417.666 300.997C412.199 301.51 406.731 302.316 401.705 304.991C397.558 307.19 393.742 310.929 391.431 315.73C386.184 317.159 380.974 318.625 375.727 320.054C374.883 320.274 373.965 320.567 373.342 321.337C372.938 321.813 372.681 322.473 372.498 323.133C372.461 323.279 372.388 323.426 372.351 323.572C370.883 328.447 369.452 333.358 367.985 338.232C379.249 336.29 390.734 331.342 401.778 334.347C403.649 334.86 405.631 335.703 406.658 337.756C407.539 339.515 407.539 341.75 407.465 343.839C407.355 347.248 407.245 350.729 406.364 353.954C405.521 356.96 403.869 359.745 401.558 360.991C415.611 362.164 429.811 360.991 443.607 357.436C450.945 355.567 458.577 352.708 463.641 345.745C467.383 340.651 469.328 333.578 468.924 326.651Z" fill="#4D1300"/>
<path d="M406.695 337.755C405.668 335.74 403.686 334.86 401.815 334.347C390.734 331.342 379.286 336.29 368.022 338.232C365.967 338.598 363.875 338.855 361.821 338.928C362.591 344.462 363.068 350.07 363.178 355.713C363.178 355.86 363.178 356.043 363.178 356.19C373.856 356.996 384.496 359.452 395.027 361.357C397.045 361.724 399.136 362.054 401.044 361.247C401.228 361.174 401.375 361.064 401.558 360.991C403.87 359.745 405.521 356.96 406.365 353.954C407.282 350.729 407.392 347.248 407.465 343.839C407.576 341.75 407.612 339.515 406.695 337.755Z" fill="#F69D7D"/>
<path d="M363.178 355.713C363.068 350.069 362.591 344.462 361.82 338.928C361.71 338.232 361.637 337.499 361.527 336.803C361.307 335.337 361.013 333.797 360.169 332.735C358.922 331.159 356.94 331.195 355.179 331.232C349.088 331.415 342.997 330.682 337.053 329.143C336.026 328.483 335.035 327.824 334.008 327.237C330.926 325.441 327.66 324.049 324.431 322.766C316.909 319.798 309.204 317.415 301.389 316.536C301.646 313.347 302.783 310.159 304.434 307.74C305.131 306.714 305.938 305.798 306.892 305.211C307.626 304.772 308.397 304.588 309.167 304.442C306.305 304.258 303.443 303.965 300.581 303.672C286.602 302.206 272.622 300.117 258.973 303.599C255.303 304.515 251.671 305.871 248.442 308.253C239.269 314.997 236.187 327.494 241.727 339.258C244.553 345.232 248.956 349.74 253.689 353.258C267.999 363.959 285.391 366.268 301.976 364.912C309.461 364.289 316.836 362.75 324.174 361.101C324.651 361.027 325.128 360.954 325.605 360.881C337.053 359.158 348.611 359.122 360.133 359.012C361.197 359.012 362.408 358.865 362.958 357.692C363.141 357.253 363.215 356.74 363.215 356.226C363.215 356.043 363.215 355.86 363.178 355.713Z" fill="#4D1300"/>
<path d="M301.389 316.499C300.765 316.499 300.141 316.463 299.517 316.426C298.893 316.389 298.27 316.353 297.646 316.389H296.692L295.738 316.426C295.114 316.426 294.49 316.463 293.867 316.499C291.372 316.646 288.913 316.902 286.492 317.379C285.281 317.635 284.07 317.892 282.896 318.258L282.015 318.515L281.135 318.808C280.841 318.918 280.547 318.991 280.254 319.101L279.373 319.431C277.062 320.274 274.823 321.337 272.695 322.583L271.925 321.3L273.429 320.457L274.97 319.688C275.484 319.431 276.034 319.211 276.548 318.991C277.062 318.772 277.612 318.552 278.162 318.368C280.327 317.562 282.529 316.976 284.767 316.536C287.005 316.096 289.28 315.876 291.555 315.803C293.83 315.73 296.105 315.876 298.343 316.206C296.068 316.243 293.83 316.389 291.628 316.646C289.39 316.902 287.189 317.232 285.024 317.745C282.859 318.258 280.731 318.918 278.676 319.724C278.162 319.944 277.649 320.128 277.135 320.347L275.631 321.044L274.163 321.777L272.695 322.583C272.328 322.766 271.888 322.656 271.668 322.29C271.485 321.923 271.595 321.484 271.961 321.3C274.163 320.018 276.511 318.955 278.896 318.112L279.814 317.819C280.107 317.709 280.437 317.635 280.731 317.525L281.648 317.269L282.565 317.049C283.813 316.756 285.061 316.499 286.308 316.316C288.803 315.913 291.335 315.73 293.867 315.766C294.49 315.766 295.114 315.803 295.775 315.84L296.729 315.913L297.683 315.986C298.306 316.023 298.93 316.133 299.554 316.206C300.141 316.316 300.765 316.426 301.389 316.499Z" fill="#270000"/>
<path d="M391.284 315.803C395.761 313.934 400.31 312.248 405.007 311.002C407.355 310.379 409.74 309.829 412.125 309.353C414.51 308.876 416.932 308.473 419.354 308.253C421.812 308.033 424.27 307.997 426.729 308.29C427.976 308.436 429.187 308.656 430.398 308.95C431.609 309.279 432.783 309.682 433.92 310.196C435.058 310.709 436.159 311.295 437.186 311.991C438.213 312.688 439.204 313.457 440.121 314.3C441.039 315.18 441.846 316.096 442.616 317.086C443.35 318.075 444.011 319.175 444.561 320.274L443.46 320.86C442.8 319.541 441.993 318.295 441.075 317.159C440.158 316.023 439.131 314.96 437.993 314.007C436.856 313.054 435.608 312.211 434.324 311.478C433.664 311.112 433.003 310.782 432.306 310.489C431.976 310.342 431.609 310.196 431.242 310.049L430.178 309.646C430.545 309.719 430.912 309.792 431.279 309.902C431.645 310.012 432.012 310.086 432.379 310.232C432.746 310.342 433.113 310.452 433.48 310.599C433.847 310.745 434.177 310.855 434.544 311.038C435.938 311.662 437.296 312.431 438.544 313.347C439.791 314.264 440.929 315.326 441.956 316.499C442.983 317.672 443.864 318.955 444.598 320.311C444.781 320.604 444.671 321.007 444.341 321.154C444.047 321.337 443.644 321.227 443.497 320.897V320.86C441.259 316.719 437.626 313.421 433.333 311.552C432.269 311.075 431.168 310.672 430.031 310.379C428.894 310.086 427.719 309.866 426.582 309.719C424.234 309.426 421.849 309.426 419.464 309.609C417.079 309.792 414.694 310.122 412.309 310.525C409.924 310.929 407.575 311.405 405.227 311.918C402.879 312.468 400.531 313.054 398.219 313.714C397.045 314.044 395.907 314.374 394.733 314.74L391.284 315.803Z" fill="#270000"/>
<path d="M407.539 255.516C406.842 253.976 405.557 246.463 405.007 244.704C404.493 242.945 404.016 241.076 403.649 239.17C403.246 237.264 402.952 235.285 402.695 233.27C402.475 231.254 402.292 229.238 402.255 227.149C402.585 229.092 402.916 231.034 403.246 232.94C403.576 234.846 403.943 236.715 404.31 238.584C404.677 240.453 405.08 242.285 405.521 244.154C405.924 246.024 407.098 253.647 407.539 255.516Z" fill="#FF8E00"/>
<path d="M313.02 255.516C313.497 253.353 316.689 237.008 317.203 234.882C317.717 232.757 318.194 230.631 318.634 228.505C319.074 226.38 319.478 224.254 319.845 222.128C320.248 220.003 320.579 217.841 320.982 215.678C321.312 217.841 321.386 220.039 321.276 222.238C321.166 224.437 320.872 226.6 320.432 228.762C319.992 230.924 319.368 233.05 318.561 235.175C317.79 237.228 314.231 253.536 313.02 255.516Z" fill="#FF8E00"/>
<path d="M363.288 69.9259C354.629 67.1773 341.677 66.7375 334.925 73.9573C329.752 79.4913 329.825 88.0671 326.523 94.8471C322.303 103.496 312.653 109.067 310.085 118.376C307.81 126.658 311.846 135.564 312.8 144.066C313.204 147.621 313.094 151.103 311.736 154.401C308.544 162.244 299.554 166.422 296.142 174.155C294.968 176.831 294.527 179.799 294.344 182.731C294.014 188.925 294.931 195.448 298.233 200.652C298.49 201.019 298.747 201.422 299.004 201.788C304.544 209.338 315.442 212.27 324.211 208.898C332.981 205.563 339.071 196.474 339.328 187.092C339.402 184.71 339.145 182.365 338.668 180.056C337.714 175.365 335.989 170.747 334.522 166.166C332.357 159.312 330.852 151.689 333.604 145.056C333.751 144.69 333.935 144.323 334.081 143.993C336.687 138.716 341.567 134.648 343.805 129.187C347.657 119.732 342.814 108.077 347.694 99.0984C350.409 94.0775 356.06 90.8157 361.784 90.999C364.389 91.0723 366.957 91.8053 369.563 91.8419C370.994 91.8786 372.535 91.5854 373.819 90.999C374.883 90.5226 375.764 89.7896 376.387 88.8001C376.901 87.9205 377.195 86.9676 377.268 86.0147C377.855 79.308 368.535 71.6118 363.288 69.9259Z" fill="#4D1300"/>
<path d="M309.534 224.914C314.781 235.285 319.808 245.767 324.651 256.322C324.908 256.872 324.651 257.495 324.101 257.751C323.587 258.008 322.964 257.788 322.707 257.275C317.386 246.976 311.846 236.825 306.122 226.746C305.608 225.83 305.902 224.621 306.856 224.107C307.773 223.594 308.984 223.888 309.498 224.84C309.498 224.84 309.498 224.877 309.534 224.914Z" fill="#003688"/>
<path d="M442.763 304.002H276.511C274.016 304.002 271.778 302.353 271.118 299.934L259.963 260.72C259.229 258.118 261.174 255.552 263.889 255.552H455.422C458.137 255.552 460.082 258.118 459.348 260.72L448.193 299.934C447.496 302.353 445.258 304.002 442.763 304.002Z" fill="#B3B3B3"/>
<path d="M455.385 255.516H263.853C261.358 255.516 259.486 257.751 259.817 260.133H459.421C459.752 257.715 457.917 255.516 455.385 255.516Z" fill="#666666"/>
<path d="M461.256 272.374C462.32 270.835 461.733 268.636 460.449 267.28C459.752 266.547 458.871 265.997 457.954 265.594L456.669 270.102C454.358 270.395 452.046 270.798 449.735 271.275C448.671 271.494 447.606 271.751 446.726 272.374C445.845 272.997 445.258 274.133 445.552 275.159C445.809 276.076 446.689 276.955 446.322 277.798C446.139 278.165 445.772 278.421 445.552 278.788C444.891 279.997 446.616 281.39 446.249 282.709C446.029 283.589 444.965 284.065 444.708 284.945C444.378 286.264 445.992 287.4 445.772 288.756C445.662 289.452 445.001 290.002 444.928 290.698C444.855 291.431 445.442 292.128 446.139 292.421C446.836 292.714 447.606 292.714 448.377 292.677C449.001 292.677 449.625 292.604 450.285 292.531C452.23 292.274 454.101 291.578 454.761 289.856C455.055 289.049 455.055 288.096 455.642 287.51C455.972 287.144 456.486 286.96 456.816 286.594C457.623 285.604 456.743 284.065 457.22 282.856C457.66 281.829 458.981 281.426 459.568 280.473C460.706 278.678 458.724 276.149 459.678 274.243C460.045 273.547 460.779 273.07 461.256 272.374Z" fill="#F69D7D"/>
<path d="M324.541 249.982C323.697 249.029 322.854 248.039 321.716 247.453C319.368 246.317 316.579 247.27 313.974 246.976C312.286 246.793 310.672 246.06 308.984 246.17C307.113 246.28 305.388 247.38 304.177 248.809C303.59 249.469 301.058 254.746 300.618 255.516H326.193C325.899 255.149 324.798 250.311 324.541 249.982Z" fill="#F69D7D"/>
<path d="M108.535 336.363C99.9858 349.85 101.013 367.624 101.564 383.09V470.718H105.49C105.49 462.252 105.49 453.786 105.49 445.32C105.49 429.524 105.49 413.692 105.49 397.896C105.49 381.734 103.141 362.457 110.737 347.724C117.745 334.091 131.688 331.745 145.777 332.148V327.164H116.644C113.599 329.949 110.737 332.918 108.535 336.363Z" fill="#733328"/>
<path d="M108.535 336.363C110.737 332.918 113.599 329.949 116.607 327.164H103.912C98.7015 330.206 95.069 335.63 93.8949 341.64C92.9776 346.221 92.8675 350.912 93.0143 355.604V468.738L101.197 470.718H101.564V383.09C101.013 367.624 99.9857 349.85 108.535 336.363Z" fill="#4D1300"/>
<path d="M207.126 341.677C205.952 335.63 202.283 330.243 197.11 327.201H184.414C187.423 329.986 190.321 332.955 192.486 336.4C201.036 349.886 200.008 367.661 199.458 383.127V470.754H199.825L208.007 468.775V355.64C208.154 350.949 208.007 346.258 207.126 341.677Z" fill="#4D1300"/>
<path d="M192.486 336.363C190.285 332.918 187.423 329.949 184.414 327.164H155.281V332.148C169.334 331.745 183.277 334.091 190.322 347.724C197.917 362.457 195.569 381.734 195.569 397.896C195.569 413.692 195.569 429.524 195.569 445.32C195.569 453.786 195.569 462.252 195.569 470.718H199.495V383.09C200.008 367.624 201.036 349.85 192.486 336.363Z" fill="#733328"/>
<path d="M204.705 319.981H155.244H145.741H96.3165C94.3352 319.981 92.7207 321.594 92.7207 323.573C92.7207 325.552 94.3352 327.164 96.3165 327.164H103.912H116.607H145.741H155.244H184.377H197.073H204.668C206.65 327.164 208.264 325.552 208.264 323.573C208.301 321.594 206.686 319.981 204.705 319.981Z" fill="#FFB700"/>
<path d="M158.876 319.981H158.987C162.326 312.724 165.114 305.175 165.371 297.259C165.444 295.243 165.188 292.971 164.087 291.358H130.257C129.156 292.971 128.936 295.243 128.972 297.259C129.229 305.175 132.018 312.688 135.357 319.981H149.373H158.876Z" fill="#4D1300"/>
<path d="M171.682 293.227C170.398 292.384 168.893 292.054 167.389 292.054C166.472 292.054 165.555 292.201 164.674 292.421C165.224 293.777 165.408 295.389 165.371 296.892C166.619 296.892 167.866 297.075 168.93 297.588C171.645 298.871 172.526 301.95 171.572 304.405C170.508 307.3 167.096 310.672 163.426 311.442C163.096 311.515 162.766 311.552 162.399 311.552C161.775 313.311 161.078 315.07 160.344 316.829C161.335 316.792 162.362 316.719 163.353 316.682C163.977 316.646 164.601 316.609 165.224 316.426C169.554 315.143 173.553 309.426 174.838 304.625C175.902 300.52 174.911 295.389 171.682 293.227Z" fill="#FFB700"/>
<path d="M133.009 277.505C131.761 275.636 130.514 273.73 128.789 272.227C128.092 271.641 127.064 271.091 126.331 271.641C125.89 271.971 125.78 272.594 125.78 273.144C125.854 274.866 127.028 276.332 128.129 277.651C131.871 282.196 135.65 286.777 139.393 291.322H141.851C139.063 286.63 136.017 282.086 133.009 277.505Z" fill="#FFB700"/>
<path d="M362.811 284.248C367.837 284.248 371.911 282.821 371.911 281.06C371.911 279.299 367.837 277.871 362.811 277.871C357.785 277.871 353.711 279.299 353.711 281.06C353.711 282.821 357.785 284.248 362.811 284.248Z" fill="#E6E6E6"/>
<path d="M448.23 299.934H271.081V306.274H448.23V299.934Z" fill="#333333"/>
<path d="M348.611 122.627C349.726 122.627 350.629 121.446 350.629 119.988C350.629 118.531 349.726 117.35 348.611 117.35C347.497 117.35 346.593 118.531 346.593 119.988C346.593 121.446 347.497 122.627 348.611 122.627Z" fill="#4D1300"/>
<path d="M370.553 123.47C371.668 123.47 372.571 122.288 372.571 120.831C372.571 119.374 371.668 118.192 370.553 118.192C369.439 118.192 368.535 119.374 368.535 120.831C368.535 122.288 369.439 123.47 370.553 123.47Z" fill="#4D1300"/>
</svg>
