<svg width="597" height="385" viewBox="0 0 597 385" fill="none" xmlns="http://www.w3.org/2000/svg">
<g clip-path="url(#clip0_24_2)">
<path d="M340.8 116.3C316.5 112.9 293.5 103.4 273.6 88.9999C243.9 67.4999 181.8 30.8999 122.6 49.0999C40.9 74.1999 40.5 147 61.8 186.5C83.1 226 234 341.7 429.7 323.3C604.8 306.8 638.9 118.3 545.5 84.0999C464.5 54.4999 436.9 129.9 340.8 116.3Z" fill="#FFE901" fill-opacity="0.29"/>
<path d="M138.2 261.1C138.2 261.1 126 255.5 121.2 265.2C116.4 274.9 133.9 284.9 143.4 282C152.9 279.2 151.2 264.9 138.2 261.1Z" fill="#FFF9B5"/>
<path d="M331.2 85.9999C331.2 85.9999 317.9 81.7999 314.2 92.3999C310.5 103 329.8 111 339.2 106.8C348.6 102.7 345 88.1999 331.2 85.9999Z" fill="#EAD5B9"/>
<path d="M313 384.6C412.632 384.6 493.4 376.631 493.4 366.8C493.4 356.969 412.632 349 313 349C213.368 349 132.6 356.969 132.6 366.8C132.6 376.631 213.368 384.6 313 384.6Z" fill="#FFF9B5"/>
<path d="M414.2 340.3C412.1 342.4 409.8 344.5 407.2 346.4C394.7 356 377.3 362.9 354.3 365.2C236.5 377 197.6 321.7 188.1 236.7C183.9 198.8 193.8 173.8 206.1 157.7C207.4 156 208.7 154.4 210 153C210.7 152.2 211.5 151.3 212.3 150.5C228.2 134.3 251.1 126.6 273.6 130.3C291.3 133.2 307.4 142.7 320.5 161.6C341.4 191.8 321.6 217.8 381.3 219.6C427 221 455.9 298.6 414.2 340.3Z" fill="#003986"/>
<g opacity="0.5">
<g opacity="0.5">
<path opacity="0.5" d="M233.9 156.7C233.9 156.7 220 186.5 236.1 241.2C252.2 295.9 273.5 291.6 287.2 291.6C311.2 291.6 359.9 269 369.4 251.1C378.9 233.2 361 232.2 327.3 229.6C293.7 227 268.6 144.9 233.9 156.7Z" fill="#13131A"/>
</g>
</g>
<path d="M264.1 314.6C263.8 314.6 263.6 314.5 263.4 314.3C263 313.9 263 313.3 263.4 312.9C275.4 301.5 286.9 294.7 294.4 291.1C302.6 287.1 307.8 285.9 308.1 285.9C308.6 285.8 309.2 286.1 309.3 286.7C309.4 287.2 309.1 287.8 308.5 287.9C308.3 288 287.3 293 264.8 314.4C264.6 314.5 264.3 314.6 264.1 314.6Z" fill="#1F2E5B"/>
<path d="M268 301.2C267.7 301.2 267.4 301 267.2 300.8C266.9 300.3 267 299.7 267.5 299.4C268 299.1 279.2 291.7 296.5 289.8C297 289.7 297.5 290.1 297.6 290.7C297.7 291.2 297.3 291.7 296.7 291.8C279.9 293.6 268.7 301 268.6 301.1C268.4 301.1 268.2 301.2 268 301.2Z" fill="#1F2E5B"/>
<path d="M231.7 218.4C231.2 218.4 230.8 218 230.7 217.5C229.2 205.9 224.3 197.1 220.3 191.7C216 185.8 212.1 182.7 212 182.7C211.6 182.4 211.5 181.7 211.8 181.3C212.1 180.9 212.8 180.8 213.2 181.1C213.4 181.2 217.4 184.4 221.8 190.5C225.9 196.1 231.1 205.3 232.6 217.3C232.7 217.8 232.3 218.3 231.7 218.4C231.8 218.4 231.8 218.4 231.7 218.4Z" fill="#1F2E5B"/>
<path d="M414.2 340.3C412.1 342.4 409.8 344.5 407.2 346.4C392.7 355.1 375 360.8 355.5 363.1C349.5 363.8 343.4 364.1 337.3 364.1C320.5 364.1 303.6 361.5 287.7 356.3C246.4 342.9 216.5 314.3 203.7 275.6C196.7 254.4 193.2 233.8 193.4 214.4C193.6 198.8 196.1 184 200.9 170.2C202.5 165.6 204.2 161.5 206 157.8C207.3 156.1 208.6 154.5 209.9 153.1C210.6 152.3 211.4 151.4 212.2 150.6C209.1 156 205.7 162.8 202.8 171.1C195.4 192.4 189.9 227.7 205.6 275C218.2 313 247.5 341.1 288.2 354.3C331.4 368.3 381.4 362.6 412.6 340.2C413.2 339.9 413.8 339.9 414.2 340.3Z" fill="#1F2E5B"/>
<path d="M241.5 122.3C241.5 122.3 225.2 105.7 248.9 94.0001C272.6 82.3001 300.5 100.2 305.1 113.2C309.6 126.3 241.5 122.3 241.5 122.3Z" fill="#FC8E01"/>
<path d="M269.7 110.9C269.6 110.9 269.4 110.9 269.3 110.7C262.8 105.2 252 105.7 251.9 105.7C251.6 105.7 251.3 105.4 251.3 105.1C251.3 104.8 251.5 104.5 251.9 104.4C252.4 104.4 263.3 103.9 270.2 109.7C270.5 109.9 270.5 110.3 270.3 110.6C270.1 110.8 269.9 110.9 269.7 110.9Z" fill="#D2582C"/>
<path d="M253.9 111.7C253.7 111.7 253.5 111.6 253.3 111.4C253.1 111.1 253.3 110.7 253.6 110.6C253.9 110.4 261.4 106.5 266.7 107.7C267 107.8 267.2 108.1 267.2 108.5C267.1 108.8 266.8 109 266.4 109C261.5 107.9 254.2 111.7 254.2 111.8C254.1 111.7 254 111.7 253.9 111.7Z" fill="#D2582C"/>
<path d="M417.7 330.3L426 345.7C426 345.7 436.3 348.1 448.4 349C466.9 350.4 472.4 347.5 473.7 351.6C474.7 354.8 460.6 362.1 454.1 363.3C447.6 364.5 433.3 370.3 424.1 371.3C414.9 372.3 410.8 360.7 408.7 356.5C406.6 352.3 400 338.3 400 338.3L417.7 330.3Z" fill="#F69D84"/>
<path d="M466.6 355.7C466.6 356.9 466.4 358 465.8 358.9C465.7 359 465.6 359.2 465.5 359.3C462.2 362.9 449.1 364.7 449.1 364.7C450.1 363.7 450.6 362.3 450.8 360.7C451.2 356.5 449.2 351.2 448.4 349.1C448.2 348.5 448 348.2 448 348.2C450.3 347.7 452.4 347.4 454.4 347.2C456.3 347.1 458 347.1 459.5 347.1C462.2 347.2 463.8 347.5 463.8 347.5C463.8 347.5 464.3 348.2 464.8 349.4C465.5 351 466.5 353.5 466.6 355.7Z" fill="#DB8047"/>
<path d="M461 353.2L456.5 353.7C456.5 353.7 455.9 351.5 455.2 349.4C454.9 348.6 454.6 347.8 454.4 347.2C456.3 347.1 458 347.1 459.5 347.1C459.8 347.7 460.1 348.5 460.4 349.5C460.6 350.6 460.9 352 461 353.2Z" fill="#311F1A"/>
<path d="M472.2 353.9C472.2 353.9 429.8 367.3 424.1 368.3C418.4 369.3 415.3 368.2 415.3 368.2C415.3 368.2 415.5 370.5 416 372.7C416.6 375.3 419.2 376.8 421.8 376C433.2 372.5 470.7 360.8 473.2 358.7C476.2 356.3 475.5 353.7 472.2 353.9Z" fill="#DB8047"/>
<path d="M378.6 326.8L378.1 340.6C378.1 340.6 385.7 347.9 395.7 355C410.9 365.7 417.1 366 416.1 370.2C415.3 373.5 399.5 372.6 393.3 370.2C387.1 367.9 371.9 365.6 363.4 361.7C354.9 357.9 357.4 345.7 357.7 341.1C358 336.5 358.7 326 358.7 326L378.6 326.8Z" fill="#F69D84"/>
<path d="M407.7 369.9C407.1 370.9 406.4 371.8 405.4 372.2C405.2 372.3 405.1 372.3 404.9 372.4C400.2 373.8 388 368.6 388 368.6C389.4 368.3 390.6 367.3 391.5 366C394 362.6 395 357 395.3 354.8C395.4 354.2 395.4 353.8 395.4 353.8C397.6 354.5 399.6 355.4 401.4 356.2C403.1 357.1 404.6 357.9 405.8 358.7C408 360.2 409.3 361.3 409.3 361.3C409.3 361.3 409.3 362.2 409.2 363.4C409.2 365.3 408.8 368 407.7 369.9Z" fill="#DB8047"/>
<path d="M404.2 364.9L400.1 363C400.1 363 400.7 360.8 401.2 358.7C401.4 357.8 401.5 357 401.6 356.3C403.3 357.2 404.8 358 406 358.8C405.9 359.5 405.8 360.3 405.5 361.3C405.2 362.5 404.8 363.8 404.2 364.9Z" fill="#311F1A"/>
<path d="M413.5 371.3C413.5 371.3 370.2 361.1 364.7 359.1C359.3 357 357.2 354.5 357.2 354.5C357.2 354.5 356.2 356.6 355.5 358.7C354.7 361.2 356.2 363.9 358.8 364.5C370.4 367.3 408.6 376.4 411.9 375.9C415.7 375.4 416.4 372.8 413.5 371.3Z" fill="#DB8047"/>
<path d="M393.4 217.1C382.4 208.6 342.9 212.1 311.9 216.5C311 230.5 315.3 218.9 312.7 232.7C351.3 234.7 362.2 237.7 362.2 237.7C362.2 237.7 356.4 269.2 356.7 282.3C357 295.4 352.3 333.5 352.3 333.5L380.2 338.8C380.2 338.7 409.1 229.2 393.4 217.1Z" fill="#311F1A"/>
<path d="M381.6 332.6C381.5 332.6 381.3 332.6 381.2 332.6L353.7 327C353.3 326.9 353 326.5 353.1 326.1C353.2 325.7 353.6 325.4 354 325.5L381.5 331.1C381.9 331.2 382.2 331.6 382.1 332C382.1 332.3 381.9 332.5 381.6 332.6Z" fill="#26120C"/>
<path d="M359 327.2C358.9 327.2 358.7 327.3 358.6 327.2C358.2 327.1 357.9 326.7 358 326.3C358 326.2 361 312.3 361.1 289.8C361.3 267.2 368.2 233.5 368.3 233.1C368.4 232.7 368.8 232.4 369.2 232.5C369.6 232.6 369.9 233 369.8 233.4C369.7 233.7 362.8 267.3 362.7 289.8C362.5 312.4 359.6 326.5 359.5 326.6C359.5 327 359.3 327.2 359 327.2Z" fill="#26120C"/>
<path d="M378.6 135.3C377.6 133.9 378.3 131.1 378.1 128.8C377.8 125.8 378.2 121.3 379.1 118.8C380.5 115.1 385.1 104.3 388.1 103C391.2 101.7 387.9 111.4 387.3 113.3C386.7 115.3 387 116.9 387 116.9C387 116.9 396.2 95.4001 398.7 94.7001C401.2 94.0001 397.3 106.7 396.2 109.9C396.2 109.9 404 94.1001 405.8 94.1001C409.3 94.2001 401.2 112 401.2 112C401.2 112 408.4 99.0001 410.5 100.3C412.7 101.6 404.9 115.5 404.9 115.5C404.9 115.5 410.9 107.7 413.2 108C415.5 108.3 404.3 125.5 402.2 128C400.2 130.4 395.2 137.5 392 140.2C389.8 142 381.8 139.6 378.6 135.3Z" fill="#F69D84"/>
<path d="M403.7 121.1C403.9 120.9 404 120.5 403.8 120.2C399.3 113.8 391.6 113 391.3 113C390.9 113 390.6 113.2 390.6 113.6C390.6 114 390.8 114.3 391.2 114.3C391.3 114.3 398.6 115.1 402.8 121C402.9 121.3 403.3 121.4 403.7 121.1Z" fill="#FF7C66"/>
<path d="M391.4 132.1C391.6 131.9 391.7 131.6 391.6 131.4C388.9 124.1 393.3 119.8 393.3 119.7C393.6 119.5 393.6 119 393.3 118.8C393.1 118.5 392.6 118.5 392.4 118.8C392.2 119 387.3 123.7 390.4 131.9C390.5 132.2 390.9 132.4 391.2 132.3C391.3 132.2 391.3 132.2 391.4 132.1Z" fill="#FF7C66"/>
<path d="M317.4 120.2L317.5 120.3L317.6 120.6L317.9 121.3C318.1 121.8 318.4 122.3 318.6 122.8C319.1 123.8 319.6 124.9 320.1 126C321.2 128.1 322.3 130.2 323.6 132.3C324.2 133.3 324.9 134.3 325.5 135.4C326.2 136.4 326.8 137.4 327.5 138.4C328.2 139.4 328.9 140.3 329.6 141.3C330.3 142.3 331.1 143.2 331.8 144.1C337.8 151.5 344.8 157.8 352.6 162.6C353.1 162.9 353.6 163.2 354.1 163.5C354.6 163.8 355.1 164.1 355.6 164.4L356 164.6C355.8 164.5 355.7 164.4 355.5 164.3C355.1 164.1 354.7 164 354.3 163.9C353.9 163.8 353.4 163.7 353 163.7C352.6 163.7 352.2 163.7 351.8 163.7C351.1 163.7 350.6 163.9 350.3 164C350 164.1 349.9 164.2 349.9 164.2C349.9 164.2 350.3 164 350.8 163.6C351.3 163.2 352 162.7 352.6 162C353.3 161.3 354 160.6 354.7 159.8C356.2 158.2 357.6 156.3 359.1 154.4C362 150.5 364.8 146.2 367.6 141.8C369 139.6 370.3 137.3 371.7 135.1C372.4 134 373 132.8 373.7 131.7L375.6 128.4L398.8 138.9L398.4 140L398 141L397.2 143.1C396.6 144.5 396.1 145.8 395.5 147.1C394.3 149.8 393.1 152.4 391.7 155.1C389.1 160.4 386.2 165.6 382.8 170.8C381.1 173.4 379.2 176 377.1 178.6C376 179.9 374.9 181.2 373.6 182.5C372.3 183.8 370.9 185.2 369.3 186.5C367.6 187.8 365.8 189.2 363.3 190.5C362.1 191.1 360.6 191.7 359 192.2C357.4 192.7 355.5 193.1 353.4 193.2C352.4 193.3 351.3 193.2 350.2 193.1C349.1 193 348 192.8 346.9 192.5C345.8 192.2 344.7 191.8 343.7 191.4C343.2 191.2 342.7 190.9 342.2 190.7L341.7 190.4C341 190 340.3 189.6 339.6 189.2C338.9 188.8 338.2 188.4 337.5 188C336.1 187.2 334.7 186.3 333.4 185.4C332.1 184.5 330.7 183.5 329.5 182.6C328.2 181.6 326.9 180.6 325.7 179.6C324.5 178.6 323.2 177.5 322.1 176.4C317.3 172.1 313 167.3 309.2 162.2C307.3 159.7 305.5 157.1 303.8 154.4C302.1 151.7 300.5 149 299.1 146.2C298.4 144.8 297.7 143.4 297 142C296.3 140.6 295.7 139.1 295.1 137.7C294.5 136.2 293.9 134.7 293.4 133.2C293.1 132.4 292.9 131.7 292.6 130.9C292.5 130.5 292.3 130.1 292.2 129.7L291.8 128.2L317.4 120.2Z" fill="#FC8E01"/>
<path d="M356.4 175.4C356.1 175.5 355.7 175.4 355.5 175C352.9 169.9 351.8 163.5 351.7 163.2C351.6 162.8 351.9 162.4 352.3 162.3C352.7 162.2 353.1 162.5 353.2 162.9C353.2 163 354.4 169.4 356.9 174.3C357.1 174.7 356.9 175.1 356.6 175.3C356.5 175.4 356.4 175.4 356.4 175.4Z" fill="#CE3E2A"/>
<path d="M350.6 171.2C350.5 171.2 350.3 171.3 350.2 171.2C349.8 171.1 349.6 170.7 349.7 170.3C349.8 170.1 351.1 164.9 351.9 163.3C352.1 162.9 352.5 162.8 352.9 163C353.3 163.2 353.4 163.6 353.2 164C352.5 165.5 351.2 170.7 351.1 170.8C351 170.9 350.9 171.1 350.6 171.2Z" fill="#CE3E2A"/>
<path d="M393.3 151.1C393.1 151.2 392.9 151.1 392.7 151C385.3 146.1 370 139.5 369.9 139.4C369.5 139.2 369.3 138.8 369.5 138.4C369.7 138 370.1 137.8 370.5 138C370.7 138.1 386 144.7 393.6 149.7C393.9 149.9 394 150.4 393.8 150.7C393.6 151 393.5 151.1 393.3 151.1Z" fill="#D2582C"/>
<path d="M317.6 120.7C319.6 126.7 316.3 141.2 319.5 166.8C319.7 168.7 320 170.6 320.3 172.6C320.6 174.5 320.9 176.4 321.3 178.4C321.6 180.3 322 182.2 322.4 184.2C322.8 185.9 323.1 187.7 323.6 189.5C324 191.4 324.5 193.3 325 195.2C325.1 195.8 325.3 196.3 325.5 197C325.5 197.2 325.6 197.3 325.6 197.5C325.6 197.6 325.7 197.8 325.7 197.9C325.7 198 325.8 198.1 325.8 198.2C325.8 198.3 325.8 198.4 325.9 198.4C325.9 198.5 326 198.7 326 198.8V198.9C326 199.1 326.1 199.2 326.1 199.4V199.5C326.1 199.7 326.2 199.8 326.2 200C326.4 200.7 326.6 201.5 326.8 202.3C326.9 202.5 326.9 202.7 327 202.9C327.1 203.2 327.1 203.4 327.2 203.7C327.3 204.2 327.5 204.8 327.6 205.3C327.7 205.6 327.7 205.8 327.8 206.1C328 206.7 328.1 207.3 328.3 207.9C328.3 208 328.4 208.1 328.4 208.2C328.8 209.6 329.2 211.1 329.6 212.6C329.8 213.3 330 214 330.2 214.7C330.4 215.5 330.7 216.4 330.9 217.2C331.3 218.4 331.6 219.7 332 221C332.2 221.5 332.3 222.1 332.5 222.6C332.6 223.1 332.8 223.6 332.9 224C333.1 224.6 333.2 225.1 333.4 225.7C333.5 226.1 333.6 226.5 333.7 226.8C333.8 227 333.8 227.3 333.9 227.5C334 228 334.2 228.4 334.3 228.9C334.4 229.4 334.6 229.8 334.7 230.3C334.8 230.6 334.9 230.9 335 231.3C335.1 231.6 335.2 231.9 335.3 232.2C335.3 232.3 335.3 232.4 335.4 232.4C335.5 232.6 335.5 232.7 335.6 232.9C335.7 233.2 335.8 233.6 335.9 233.9C336 234.3 336.1 234.7 336.3 235C337.3 238 338.3 240.9 339.2 243.3C332.4 251.1 321 257.9 307.5 261.9L300 257L293.7 264.9C280.5 266.8 266.4 266.1 253.4 261.3C249.1 252.5 242 220.3 240 210.6C239.6 208.7 239.2 206.8 238.9 204.8C237.3 195.5 236.5 186.1 235.9 176.2C235.9 175.7 235.8 175.1 235.8 174.6C235.8 174.5 235.8 174.5 235.8 174.4C235.2 166.1 224.3 141.5 225.4 132.6C227.6 115.1 238.8 119.7 248.8 117C252.1 116.1 254.9 115 257.2 113.8C258.2 113.3 259 112.8 259.8 112.4C260.1 112.2 260.4 112 260.7 111.8C263.8 109.8 265.5 108.1 265.5 108.1L288.4 105.7C290.7 108.4 293.3 109.9 296.1 110.9C296.4 111 296.7 111.1 297 111.2C297.5 111.3 297.9 111.5 298.4 111.6C306.5 114 315 112.9 317.6 120.7Z" fill="#FC8E01"/>
<path d="M260.2 243.8C259.9 243.8 259.7 243.6 259.6 243.4C247.1 209.8 240.6 151.8 240.5 151.2C240.5 150.9 240.7 150.5 241.1 150.5C241.4 150.5 241.8 150.7 241.8 151.1C241.9 151.7 248.3 209.5 260.8 243C260.9 243.3 260.8 243.7 260.4 243.8C260.4 243.8 260.3 243.8 260.2 243.8Z" fill="#D2582C"/>
<path d="M282.3 120.1C282.5 120.8 281.7 121.8 280.4 122.2C279.1 122.6 277.8 122.4 277.6 121.7C277.4 121 278.2 120 279.5 119.6C280.8 119.1 282.1 119.4 282.3 120.1Z" fill="#B11722"/>
<path d="M292.5 117.5C292.7 118.2 291.9 119.2 290.6 119.6C289.3 120 288 119.8 287.8 119.1C287.6 118.4 288.4 117.4 289.7 117C291 116.5 292.3 116.8 292.5 117.5Z" fill="#B11722"/>
<path d="M295.4 123C295.1 123 294.9 122.8 294.8 122.5C294.7 122.2 294.9 121.8 295.3 121.7C304.1 119.4 304.7 114.1 304.7 113.9C304.7 113.6 305 113.3 305.4 113.3C305.7 113.3 306 113.6 306 114C306 114.3 305.4 120.4 295.7 122.9C295.5 123 295.5 123 295.4 123Z" fill="#D2582C"/>
<path d="M309 178.3C297.2 178.3 287 175.3 280.2 172.5C271.7 169.1 266.4 165.3 266.4 165.3C266.1 165.1 266.1 164.7 266.3 164.4C266.5 164.1 266.9 164.1 267.2 164.3C267.3 164.3 272.4 168 280.8 171.4C288.5 174.5 300.6 177.9 314.4 176.8C314.7 176.8 315 177 315.1 177.4C315.1 177.7 314.9 178 314.5 178.1C312.6 178.2 310.8 178.3 309 178.3Z" fill="#D2582C"/>
<path d="M273.4 200.4C273.4 200.4 301.5 193.2 319 193L324.4 216.2C324.4 216.2 296.7 220.9 279.1 223.9L273.4 200.4Z" fill="#D2582C"/>
<path d="M257.6 128.4C252.2 128.4 248.1 126.9 245.2 125.3C240.7 122.8 238.5 119.8 238.4 119.6C238.2 119.3 238.3 118.9 238.6 118.7C238.9 118.5 239.3 118.6 239.5 118.9C239.5 118.9 241.6 121.9 245.9 124.2C249.8 126.4 256.4 128.4 265.6 126C265.9 125.9 266.3 126.1 266.4 126.4C266.5 126.7 266.3 127.1 266 127.2C262.9 128.1 260.1 128.4 257.6 128.4Z" fill="#D2582C"/>
<path d="M329.6 212.7C329.2 211.2 328.8 209.7 328.4 208.3C328.7 209.7 329.1 211.2 329.6 212.7Z" fill="#26120C"/>
<path d="M327.5 205.3C327.4 204.8 327.2 204.2 327.1 203.7C327.2 204.3 327.4 204.8 327.5 205.3Z" fill="#26120C"/>
<path d="M321.4 175.4H321.3C320.9 175.5 320.5 175.2 320.5 174.8C319.1 164.3 317.6 151.9 317.5 148.4C317.5 148 317.8 147.6 318.2 147.6C318.6 147.6 319 147.9 319 148.3C319.1 151.8 320.7 164.1 322 174.6C321.9 174.9 321.7 175.3 321.4 175.4Z" fill="#D2582C"/>
<path d="M294 58.6001C294 58.6001 301.3 64.3001 296.5 73.0001C296.5 73.0001 293.9 62.8001 294 58.6001Z" fill="#26120C"/>
<path d="M265 97.8001C265 97.8001 260.3 102.4 259.3 99.0001C258.3 95.6001 260 93.9001 260 93.9001C260 93.9001 254.9 98.8001 254.8 95.1001C254.7 91.4001 257.4 88.1001 257.4 88.1001C257.4 88.1001 252.7 84.7001 254.2 79.1001C255.7 73.6001 255.9 69.5001 254.4 65.0001C252.9 60.5001 253.6 55.8001 255.8 53.8001C259.1 50.8001 263.8 51.3001 263.8 51.3001C263.8 51.3001 266.3 43.0001 275.8 43.3001C285.2 43.5001 290.7 36.2001 295.5 38.1001C300.3 40.0001 305.7 55.7001 292.9 60.4001C292.9 60.5001 267.5 77.5001 265 97.8001Z" fill="#441A05"/>
<path d="M288.9 102.3L289.5 108.3C288.9 108.9 288.2 109.5 287.5 110C277.8 117.3 265.8 110.8 265.8 110.8L263.6 90.1001L285.8 100.9L288.9 102.3Z" fill="#F69D84"/>
<path d="M288.9 101.8L289.6 108.3C289 108.9 288.3 109.5 287.6 110C278.4 107.4 271 98.8 271 98.8L285.9 100.8L288.9 101.8Z" fill="#4D2012"/>
<path d="M293.6 75.1001C293.6 75.1001 296.6 70.7001 298.9 74.5001C301.2 78.3001 300.6 86.6001 295.3 85.8001L293.6 75.1001Z" fill="#FF7C66"/>
<path d="M298.7 88.7C298.7 88.7 300 101 287.2 102.3C274.4 103.6 264.7 94.5 264.2 94.1L263.8 91.5L261.7 78.1L260.6 70.9C260.6 70.9 257.6 58.1 269.7 54.5C278.5 51.8 287.1 52.4 291.8 56.7C292 56.8 292.1 57 292.2 57.1C293.7 58.6 294.8 60.5 295.3 62.9L297 75.8L297.4 79L298.7 88.7Z" fill="#F69D84"/>
<path d="M261.6 78.2002C261.6 78.2002 264.5 79.1002 265.8 82.6002C267.7 82.4002 269 80.6002 268.7 78.7002C268.5 77.6002 268.2 76.3002 267.9 74.8002C267 70.4002 265.6 69.0002 268.1 66.2002C270.7 63.4002 268.3 61.8002 270.6 59.8002C273.2 57.6002 279.5 61.5002 284.2 60.5002C289.7 59.4002 289.3 55.6002 294.1 59.9002C294.1 59.9002 292.8 53.4002 286.5 51.7002C280.2 49.9002 262.5 51.5002 259.8 59.9002C257.2 68.4002 261.6 78.2002 261.6 78.2002Z" fill="#441A05"/>
<path d="M271.8 68.9C272.7 70.4 274.5 70.9 276 70C276.9 69.5 277.9 69 279 68.7C280.6 68.2 281.4 66.5 280.8 65C280.7 65 274.3 65.1 271.8 68.9Z" fill="#26120C"/>
<path d="M295.5 66.2001C295 67.7001 293.4 68.5001 291.9 68.1001C291 67.8001 290 67.6001 288.9 67.4001C287.4 67.2001 286.3 65.8001 286.5 64.3001C286.5 64.4001 292.4 63.2001 295.5 66.2001Z" fill="#26120C"/>
<path d="M280.4 79.2001C280.5 80.1001 278.7 81.0001 276.4 81.3001C274.1 81.5001 272.2 81.0001 272.1 80.1001C272 79.2001 273.8 78.3001 276.1 78.0001C278.4 77.8001 280.3 78.3001 280.4 79.2001Z" fill="#FF7C66"/>
<path d="M297.4 79.1001C297.1 79.2001 296.8 79.2001 296.4 79.3001C294.1 79.5001 292.2 79.0001 292.1 78.1001C292 77.2001 293.8 76.3001 296.1 76.0001C296.4 76.0001 296.7 76.0001 297 75.9001L297.4 79.1001Z" fill="#FF7C66"/>
<path d="M280.6 74.2002C280.7 75.4002 280.3 76.5002 279.6 76.6002C278.9 76.7002 278.2 75.7002 278.1 74.5002C278 73.3002 278.4 72.2002 279.1 72.1002C279.9 72.0002 280.5 73.0002 280.6 74.2002Z" fill="#26120C"/>
<path d="M293 72.9001C293.1 74.1001 292.7 75.2001 292 75.3001C291.3 75.4001 290.6 74.4001 290.5 73.2001C290.4 72.0001 290.8 70.9001 291.5 70.8001C292.2 70.7001 292.9 71.7001 293 72.9001Z" fill="#26120C"/>
<path d="M289 85.7001C284.5 86.2001 280.4 82.7001 280.3 82.6001C280.1 82.4001 280.1 82.1001 280.2 81.9001C280.4 81.7001 280.7 81.7001 280.9 81.8001C281.2 82.0001 287.5 87.4001 292.7 82.8001C292.9 82.6001 293.2 82.6001 293.4 82.8001C293.6 83.0001 293.6 83.3001 293.4 83.5001C292 84.9001 290.5 85.5001 289 85.7001Z" fill="#26120C"/>
<path d="M267.7 88.8C267.7 88.9 266.4 92.9 264.2 94.2L263.8 91.6C263.8 91.6 265.8 91 267.7 88.8Z" fill="#26120C"/>
<path d="M264.5 80.4C264.5 80.4 258.9 74.3 255.8 79.9C253.3 84.5 260.1 95.1 265.6 90.6L264.5 80.4Z" fill="#F69D84"/>
<path d="M264.7 88.7C264.4 88.7 264.2 88.6 264.1 88.3C263 83.3 258.6 82 258.5 82C258.2 81.9 258.1 81.6 258.1 81.4C258.2 81.1 258.5 81 258.7 81C258.9 81.1 263.9 82.5 265.1 88.1C265.2 88.4 265.1 88.6 264.7 88.7C264.8 88.7 264.7 88.7 264.7 88.7Z" fill="#26120C"/>
<path d="M259.7 86.1001C259.6 86.1001 259.4 86.1001 259.3 86.0001C259.1 85.8001 259.1 85.5001 259.3 85.3001C259.5 85.1001 261.2 83.5001 262.7 83.7001C263 83.7001 263.2 84.0001 263.1 84.3001C263.1 84.6001 262.8 84.8001 262.5 84.7001C261.6 84.6001 260.4 85.6001 260 86.0001C259.9 86.1001 259.8 86.1001 259.7 86.1001Z" fill="#26120C"/>
<path d="M286.3 79.9001C286 79.9001 285.8 79.7001 285.7 79.4001C285.7 79.1001 285.9 78.9001 286.2 78.8001C288.1 78.6001 288.8 77.5001 289.1 77.1001C286.6 73.1001 284.2 69.1001 284.2 69.1001C284.1 68.9001 284.1 68.5001 284.4 68.4001C284.6 68.3001 285 68.3001 285.1 68.6001C285.1 68.6001 287.7 72.8001 290.2 76.8001C290.3 76.9001 290.3 77.1001 290.2 77.2001C290.1 77.4001 289.3 79.6001 286.3 79.9001Z" fill="#26120C"/>
<g opacity="0.5">
<g opacity="0.5">
<g opacity="0.5">
<path opacity="0.5" d="M286.6 75.9C286.7 77.6 283.9 79.2 280.4 79.4C276.9 79.6 273.9 78.4 273.8 76.7C273.7 75 276.5 73.4 280 73.2C283.5 72.9 286.5 74.1 286.6 75.9Z" fill="white"/>
</g>
</g>
</g>
<g opacity="0.5">
<g opacity="0.5">
<g opacity="0.5">
<path opacity="0.5" d="M303 75.2C303.1 76.9 300.3 78.5 296.8 78.7C293.3 78.9 290.3 77.7 290.2 76C290.1 74.3 292.9 72.7 296.4 72.5C299.9 72.2 302.9 73.5 303 75.2Z" fill="white"/>
</g>
</g>
</g>
<path d="M290.2 75.8999C290.1 75.8999 290 75.8999 290 75.7999C288.7 74.5999 286.9 75.7999 286.8 75.7999C286.6 75.8999 286.4 75.8999 286.3 75.6999C286.2 75.4999 286.2 75.2999 286.4 75.1999C287.2 74.6999 289.1 73.9999 290.5 75.1999C290.7 75.2999 290.7 75.5999 290.5 75.6999C290.4 75.8999 290.3 75.8999 290.2 75.8999Z" fill="#26120C"/>
<path d="M260.2 77.7C260.1 77.7 260 77.7 259.9 77.6C259.8 77.4 259.8 77.2 260 77.1C265.7 72.7 273.6 75.9 274 76C274.2 76.1 274.3 76.3 274.2 76.5C274.1 76.7 273.9 76.8 273.7 76.7C273.6 76.7 265.8 73.6 260.5 77.7C260.3 77.6 260.3 77.7 260.2 77.7Z" fill="#26120C"/>
<path d="M249.6 251.2C249.6 251.2 251.4 302.8 313.7 282.3C347 271.3 361.7 262.9 361.7 262.9C361.7 262.9 372.2 292 377.8 303.9C383.4 315.8 399.1 344.9 399.1 344.9L426 338.3C426 338.3 394.7 229.4 375.4 224.8C356.1 220.2 332.9 227.5 292 236.8C292 236.7 256.3 242.1 249.6 251.2Z" fill="#351F19"/>
<path d="M399.9 335C399.6 335.1 399.2 335 399 334.7C390.3 320.7 381.7 299.4 374.8 282.3C371.9 275.1 369.4 268.9 367.3 264.3C364.5 258 363.3 256.8 362.9 256.6C361 255.8 354.6 258.6 346.6 262.3C335 267.6 317.4 275.5 297 279.7C286.5 281.9 277.5 280.5 270 275.5C256.8 266.6 253.5 249.8 253.4 249.1C253.3 248.7 253.6 248.3 254 248.2C254.4 248.1 254.8 248.4 254.9 248.8C254.9 249 258.2 265.7 270.9 274.2C278 278.9 286.7 280.3 296.7 278.2C317 274 334.4 266.1 346 260.9C355.3 256.7 361 254.1 363.5 255.2C365.8 256.2 369.5 265 376.3 281.8C383.2 298.8 391.8 320 400.4 334C400.6 334.4 400.5 334.8 400.2 335C400 335 400 335 399.9 335Z" fill="#26120C"/>
<path d="M422.8 329.9L395.6 337.1C395.2 337.2 394.8 337 394.7 336.6C394.6 336.2 394.8 335.8 395.2 335.7L422.4 328.5C422.8 328.4 423.2 328.6 423.3 329C423.4 329.3 423.2 329.7 422.8 329.9Z" fill="#26120C"/>
<path d="M310.8 239L393.2 231.2C393.4 231.2 393.5 231 393.5 230.9L392.5 220.7C392.5 220.5 392.3 220.4 392.2 220.4L309.8 228.2C309.6 228.2 309.5 228.4 309.5 228.5L310.5 238.7C310.5 238.9 310.6 239 310.8 239Z" fill="#26120C"/>
<path d="M402.1 230.4C405.2 230.1 407.8 227.7 408.3 224.7L418.3 165.1C418.9 161.5 415.9 158.2 412.2 158.6L375 162.1C372.5 162.3 370.5 164.2 370 166.7L357.6 234.6L402.1 230.4Z" fill="#26120C"/>
<path d="M378 218.3L377.3 221L379.8 220.8L379.4 224L376.5 224.2L375.7 227.2L372.4 227.5L373.2 224.5L371.1 224.7L370.3 227.7L367 228L367.8 225L365.3 225.2L365.7 222L368.6 221.8L369.3 219.1L366.8 219.3L367.2 216.1L370.1 215.9L370.9 212.9L374.2 212.6L373.4 215.6L375.5 215.4L376.3 212.4L379.6 212.1L378.8 215.1L381.3 214.9L380.9 218.1L378 218.3ZM374.6 218.6L372.5 218.8L371.8 221.5L373.9 221.3L374.6 218.6Z" fill="#E05042"/>
<path d="M413.8 174.9C412.9 178.8 409.4 182.2 405.9 182.5C402.4 182.8 400.3 179.9 401.2 176C402.1 172.1 405.6 168.7 409.1 168.4C412.5 168.1 414.6 171 413.8 174.9Z" fill="#F4AD4B"/>
<path d="M406.7 174.2C406.5 175 406.1 175.6 405.8 175.7C405.5 175.7 405.4 175.1 405.6 174.3C405.8 173.5 406.2 172.9 406.5 172.8C406.8 172.8 406.9 173.4 406.7 174.2Z" fill="#26120C"/>
<path d="M410 173.9C409.8 174.7 409.4 175.3 409.1 175.4C408.8 175.4 408.7 174.8 408.9 174C409.1 173.2 409.5 172.6 409.8 172.5C410.1 172.5 410.2 173.1 410 173.9Z" fill="#26120C"/>
<path d="M406.7 178.8C404 179 404 176.1 404 176C404 175.8 404.1 175.7 404.3 175.6C404.5 175.6 404.6 175.6 404.6 175.8C404.6 175.9 404.6 178.3 406.8 178.1C409.1 177.9 410.1 175.4 410.2 175.3C410.3 175.1 410.4 175 410.6 175C410.7 175 410.8 175.2 410.7 175.3C410.7 175.5 409.4 178.6 406.7 178.8Z" fill="#26120C"/>
<path d="M370.1 166.6L357.9 234L353.7 234.4L365.9 167C366.4 164.5 368.4 162.6 370.9 162.4L375.1 162C372.6 162.3 370.6 164.1 370.1 166.6Z" fill="#26120C"/>
<path d="M358.3 233.5H358.2C357.9 233.4 357.6 233.1 357.7 232.8L369.8 165.6C369.9 165.3 370.2 165 370.5 165.1C370.8 165.2 371.1 165.5 371 165.8L358.9 233C358.8 233.3 358.5 233.5 358.3 233.5Z" fill="#564C54"/>
<path d="M383.6 197.6C383.1 201.3 385.7 204.1 389.3 203.7C392.9 203.4 396.3 200.1 396.8 196.3C397.3 192.6 394.7 189.8 391.1 190.2C387.5 190.6 384.1 193.9 383.6 197.6Z" fill="#564C54"/>
<path d="M331.6 213.8C331.6 213.8 350.9 209.5 357.7 212.7L355.3 225C355.3 225 344.4 224.2 341.9 225.5C339.4 226.8 339.2 231.7 329.4 231.9L331.6 213.8Z" fill="#F69D84"/>
<path d="M329.4 211.4L327.1 211L322.5 210.3C319.5 209.8 316.4 209.3 313.4 208.7C307.4 207.6 301.3 206.4 295.5 205C292.6 204.3 289.7 203.6 286.8 202.8C284 202 281.2 201.2 278.5 200.3C275.9 199.4 273.3 198.5 271.2 197.5C270.2 197 269.2 196.5 268.6 196.1L268.5 196C268.2 195.4 267.8 194.9 267.5 194.3C266.9 193.2 266.2 192 265.7 190.8C264.5 188.5 263.5 186 262.5 183.5C260.6 178.5 259.2 173.3 258.2 168C257.7 165.3 257.3 162.6 257 159.9C256.7 157.2 256.5 154.4 256.4 151.6C256.3 148.8 256.3 146.1 256.4 143.3C256.5 141.9 256.5 140.6 256.6 139.3C256.7 138.6 256.7 138 256.8 137.4L256.9 136.5L257 135.9L225.7 131L225.6 131.6L225.5 132L225.4 132.8L225.2 134.2C225.1 135.1 225 136.1 225 137C224.9 138.8 224.8 140.6 224.7 142.4C224.6 146 224.7 149.5 224.8 153.1C225.2 160.2 226.1 167.3 227.7 174.3C228.1 176.1 228.5 177.8 229 179.6C229.5 181.3 230 183.1 230.5 184.8C231.6 188.3 232.9 191.7 234.3 195.1C235.6 198.2 237.1 201.2 238.7 204.2C238.8 204.5 239 204.7 239.1 205C240 206.6 240.9 208.2 241.9 209.8C242.4 210.6 242.9 211.4 243.4 212.1L243.8 212.7L244 213L244.4 213.6C245.1 214.6 245.8 215.4 246.5 216.1C247.2 216.8 247.8 217.4 248.5 218C249.1 218.5 249.7 219 250.3 219.4C251.5 220.2 252.6 220.9 253.6 221.5C255.1 222.3 256.5 223 257.8 223.6C258.4 223.8 258.9 224.1 259.5 224.3C261.4 225.1 263.1 225.7 264.9 226.3C266.7 226.9 268.4 227.4 270.1 227.8C273.5 228.7 276.8 229.5 280.1 230.2C283.4 230.9 286.7 231.5 289.9 232C296.4 233.1 302.9 233.9 309.3 234.6C312.5 234.9 315.8 235.3 319 235.5C320.6 235.6 322.2 235.8 323.9 235.9L326.3 236.1L328.8 236.3L331.2 211.9L329.4 211.4ZM268.1 195.7C268 195.7 268 195.6 268.1 195.7C268.1 195.7 268.2 195.7 268.4 195.9L268.5 196C268.3 195.9 268.1 195.8 268.1 195.7Z" fill="#FC8E01"/>
<path d="M258.2 223.5C256.9 222.9 255.5 222.2 254 221.4C252.9 220.8 251.8 220.1 250.7 219.3C250.1 218.9 249.5 218.4 248.9 217.9C248.3 217.4 247.6 216.8 246.9 216C246.2 215.3 245.5 214.5 244.8 213.5L244.4 212.9L244.2 212.6L243.8 212C243.3 211.2 242.8 210.5 242.3 209.7C241.3 208.1 240.4 206.5 239.5 204.9C239.4 204.6 239.2 204.4 239.1 204.1C239.2 204.1 239.3 204 239.3 204C239.2 204 259.4 204.3 258.2 223.5Z" fill="#D2582C"/>
<path d="M300.3 234.2C300.2 234.2 300.1 234.2 300 234.2C299.7 234.2 274.4 231.7 260.2 225.1C245.9 218.4 239.2 205.6 238.9 205C238.7 204.6 238.9 204.2 239.2 204C239.6 203.8 240 204 240.2 204.3C240.3 204.4 247 217.2 260.8 223.7C274.8 230.3 299.9 232.7 300.1 232.7C300.5 232.7 300.8 233.1 300.8 233.5C300.8 233.8 300.6 234.1 300.3 234.2Z" fill="#D2582C"/>
<path d="M259.5 205C259.2 205.1 259 205 258.8 204.8C258.5 204.5 258.5 204 258.8 203.7C262.3 200 267.4 196.2 267.6 196.1C267.9 195.9 268.4 195.9 268.6 196.3C268.8 196.6 268.8 197.1 268.4 197.3C268.3 197.3 263.2 201.1 259.8 204.8C259.7 204.9 259.6 204.9 259.5 205Z" fill="#D2582C"/>
<path d="M267.8 197.7C264.7 198.4 260.8 199.6 260.8 199.6C260.4 199.7 260 199.5 259.9 199.1C259.8 198.7 260 198.3 260.4 198.2C260.6 198.1 264.5 196.9 267.5 196.2C267.9 196.1 268.3 196.4 268.4 196.8C268.4 197.2 268.2 197.6 267.8 197.7Z" fill="#D2582C"/>
<path d="M261.1 179.4C261.1 179.4 261 179.4 261.1 179.4C260.7 179.5 260.3 179.3 260.1 178.9C259.8 177.9 253.1 155.1 253.1 143.6C253.1 143.2 253.4 142.8 253.9 142.8C254.3 142.8 254.7 143.1 254.7 143.6C254.7 154.9 261.6 178.2 261.6 178.5C261.7 178.8 261.4 179.2 261.1 179.4Z" fill="#D2582C"/>
<path d="M254.6 150.7C254.4 150.8 254.2 150.7 254 150.6C253.6 150.4 253.5 149.9 253.8 149.6L256.3 145.7C256.5 145.3 257 145.2 257.3 145.5C257.7 145.7 257.8 146.2 257.5 146.5L255 150.4C254.9 150.5 254.7 150.6 254.6 150.7Z" fill="#D2582C"/>
<path d="M317.5 235.1C317.4 235.1 317.3 235.1 317.2 235.1C316.8 235.1 316.5 234.7 316.5 234.3L319.1 210.6C319.1 210.2 319.5 209.9 319.9 209.9C320.3 209.9 320.6 210.3 320.6 210.7L318 234.4C318 234.8 317.8 235 317.5 235.1Z" fill="#D2582C"/>
<path d="M297.9 197.6C297.6 197.6 297.4 197.4 297.3 197.2C290 175.5 279.6 121.5 279.4 121C279.3 120.7 279.6 120.3 279.9 120.3C280.2 120.2 280.6 120.5 280.6 120.8C280.7 121.3 291.2 175.2 298.4 196.8C298.5 197.1 298.3 197.5 298 197.6C298 197.5 297.9 197.6 297.9 197.6Z" fill="white"/>
<path d="M313.4 195.5C313.1 195.5 312.8 195.3 312.8 195C308.4 162.7 289.9 119.3 289.7 118.9C289.6 118.6 289.7 118.2 290 118.1C290.3 118 290.7 118.1 290.8 118.4C291 118.8 309.5 162.4 313.9 194.8C314 195.1 313.8 195.4 313.4 195.5Z" fill="white"/>
<path d="M268.8 279.6C267.5 279.6 266 279.1 264.6 278.2C259.3 274.9 252.8 264.8 250.4 249.7C250.3 249.4 250.6 249 250.9 249C251.2 248.9 251.6 249.2 251.6 249.5C253.9 264.2 260.1 273.9 265.2 277.1C266.9 278.2 268.6 278.5 269.9 278.1C271 277.8 271.9 277 272.5 275.8C276.9 267.5 269.2 242.3 269.1 242C269 241.7 269.2 241.3 269.5 241.2C269.8 241.1 270.2 241.3 270.3 241.6C270.6 242.7 278.2 267.5 273.6 276.3C272.8 277.8 271.7 278.8 270.3 279.2C269.8 279.6 269.3 279.6 268.8 279.6Z" fill="#26120C"/>
<path d="M234.2 359.6C234 360.3 233.8 361 233.6 361.7C232.1 366.2 229.4 369.8 225.8 371.3C211.9 376.9 198.8 375 172.2 374.4C145.6 373.8 125.9 366.7 128.3 344.8C128.5 343.1 128.8 341.5 129.3 340C129.9 338 130.7 336.2 131.6 334.6C132.7 332.7 134 331 135.5 329.6C143 322 154.2 319.5 164.3 323C174.2 326.4 191.8 328.1 210.1 328.4C229.7 328.7 237.1 347 234.2 359.6Z" fill="#F4AD4B"/>
<path d="M234.2 359.6C234 360.3 233.8 361 233.6 361.7C228.9 365.8 220 368.4 207.1 369.4C203.1 369.7 198.6 369.9 193.8 369.9C182.7 369.9 169.8 369 155.7 367.4C143.8 366 135.7 361.8 131.7 354.9C128.7 349.8 128.6 344.2 129.1 340C129.7 338 130.5 336.2 131.4 334.6C130.4 337.8 128.1 346.8 132.5 354.4C136.3 360.9 144.1 365 155.7 366.4C197.7 371.3 226.2 368.8 234.2 359.6Z" fill="#D57635"/>
<path d="M154.7 332.5C146.5 333.2 140.5 340.6 141.8 348.7C141.8 348.9 141.9 349 141.9 349.2C143.7 358 155.5 357.7 188.4 358.1C214.2 358.3 227.4 349.1 220.6 337.7C215.1 328.6 172.1 331.1 154.7 332.5Z" fill="#D57635"/>
<path d="M216.9 339.2C204.9 354.1 156 355 149.6 343.8C146.5 338.4 147.3 331.4 149 325.7C149.2 325.1 149.4 324.5 149.6 323.9C151.4 318.8 153.6 315 153.6 315C153.6 315 153.4 320.3 171.4 318.4C173.5 318.2 175.8 318.1 178.3 318.1C178.8 318.1 179.2 318.1 179.7 318.1C199.2 318.7 227.2 326.3 216.9 339.2Z" fill="#26120C"/>
<path d="M177.6 330.3C174.8 333.5 169.9 334.6 163.4 333.7C163.3 333.7 163.1 333.7 163 333.6C154.9 332.3 150.9 328.5 149 325.6C149.2 325 149.4 324.4 149.6 323.8C151 326.5 154.6 331 163.6 332.3C169.6 333.1 174.1 332.1 176.6 329.3C178.9 326.8 179.5 322.9 178.3 318C178.8 318 179.2 318 179.7 318C180.8 323.3 180.1 327.5 177.6 330.3Z" fill="#F4AD4B"/>
<path d="M210.1 328.3C210.1 328.3 221.6 327.5 222.9 321.7C224.3 315.9 197.9 321 195 309.1C192.1 297.2 203.7 287.7 207.5 291.1C212 295.2 202.2 297 201.6 303.1C201.2 308.2 204.3 312.9 214.1 313.6C223.9 314.3 228.3 315.8 228.2 320.4C228.2 325.4 220.2 330.5 215.4 330.8C210.7 331.1 210.1 328.3 210.1 328.3Z" fill="#26120C"/>
<path d="M159.7 310.5C159.7 310.5 156.3 306.1 150.7 303.1C149.9 302.7 148.9 303.3 149 304.2L150.1 314.4C150.1 314.4 158.1 315.1 159.7 310.5Z" fill="#26120C"/>
<path d="M152.1 313.2C151.7 310.9 151.5 308.5 151 305.8C151 305.8 157 309.4 157.3 311.3C157.3 311.3 154 313.8 152.1 313.2Z" fill="#564C54"/>
<path d="M170.1 311C170.1 311 174.8 308.2 180.9 307.4C181.9 307.3 182.6 308.3 182.2 309.2L178 317.6C178 317.6 169.9 315.8 170.1 311Z" fill="#26120C"/>
<path d="M176.2 316.2C177.5 314.2 178.4 312 179.9 309.7C179.9 309.7 173 310.8 172 312.5C172 312.5 174.2 316.1 176.2 316.2Z" fill="#564C54"/>
<path d="M155.3 310.7C155.3 310.7 148.2 311.8 148.7 320.1C149.2 328.4 157.3 329.3 157.3 329.3C157.3 329.3 158.7 332 163.7 333.1C166.9 333.8 171.7 333.6 172.9 331.2C172.9 331.2 179.8 328.7 179.8 322.5C179.7 315.6 171.4 307.2 155.3 310.7Z" fill="#26120C"/>
<path d="M148.1 330.4C148.1 330.4 151 342.2 153.4 344.6C155.8 347 158.5 348.4 161.8 348.8C167.3 349.5 166.2 353.1 164.6 354.3C162.7 355.7 159.4 354.9 154.4 354.9C150.1 354.9 146 354 144.5 351.2C143 348.4 143.1 339.9 144.7 335.2C145.7 332.3 147 330.8 148.1 330.4Z" fill="#26120C"/>
<path d="M184.7 331.1C184.7 331.1 181.8 342.9 179.4 345.3C177 347.7 174.3 348.9 171 349.5C166.9 350.1 167.3 354 168.2 355C169.8 356.8 173.4 355.6 178.4 355.6C182.7 355.6 187.9 353.9 189.3 351C190.8 348.2 189.6 340.6 188.1 335.9C187.1 333.1 185.7 331.5 184.7 331.1Z" fill="#26120C"/>
<path d="M208.9 328.8C208.9 328.8 216.5 327 219 332.7C222.9 341.7 219.8 346.9 209.5 348.3C199.2 349.7 187.5 351.7 196.3 344.4C205.2 337.1 208.9 328.8 208.9 328.8Z" fill="#26120C"/>
<path d="M167.8 324.1C167.8 324.1 164.7 323.8 163.9 324.2C162.5 324.8 164.7 327.4 166.1 327.6C167.5 327.8 168.9 326.2 168.9 325.1C168.9 324 167.8 324.1 167.8 324.1Z" fill="#564C54"/>
<path d="M169.4 321.8C169.3 321.7 169.1 321.9 169.2 322C169.8 322.7 170.9 323.7 172.5 323.4C173.8 323.1 174.2 322.2 174.4 321.5C174.4 321.3 174.2 321.2 174.1 321.4C173.8 322 173.1 322.6 171.9 322.6C171 322.6 170 322.2 169.4 321.8Z" fill="#564C54"/>
<path d="M157.5 321.1C157.4 321 157.2 321.1 157.3 321.3C157.8 322.1 158.7 323.3 160.3 323.2C161.6 323.2 162.2 322.4 162.5 321.7C162.6 321.5 162.4 321.4 162.2 321.5C161.8 322 161 322.5 159.8 322.3C158.9 322.3 158 321.6 157.5 321.1Z" fill="#564C54"/>
<g filter="url(#filter0_d_24_2)">
<path d="M479.6 3.4C479.6 6 479.6 6 479.6 6V75.2C479.6 77.1 478.1 78.6 476.2 78.6H354.6C352.7 78.6 351.2 77.1 351.2 75.2V3.4C351.2 1.5 352.7 0 354.6 0H476.2C478.1 0 479.6 1.5 479.6 3.4Z" fill="white"/>
</g>
<path d="M404.8 44.1001C404.8 49.9001 402.6 55.2001 399 59.3001C394.9 63.9001 388.9 66.8001 382.2 66.8001C369.7 66.8001 359.6 56.7001 359.6 44.2001C359.6 41.1001 360.2 38.1001 361.4 35.5001L382.3 44.2001L381.2 21.6001C381.6 21.6001 381.9 21.6001 382.3 21.6001C394.7 21.5001 404.8 31.6001 404.8 44.1001Z" fill="#003986"/>
<path d="M378.9 17.8C372.1 18.1 366.2 21.4 362.2 26.4C360.9 28 359.9 29.8001 359.1 31.7001L380 40.4001L378.9 17.8Z" fill="#003986"/>
<path d="M459.3 28.5H456.2V31.6H459.3V28.5Z" fill="#1D2B58"/>
<path d="M472.5 30.5H461.4V29.8H472.5V30.5C472.6 30.5 472.5 30.5 472.5 30.5Z" fill="#E8D2FF"/>
<path d="M459.3 23H456.2V26.1H459.3V23Z" fill="#1D2B58"/>
<path d="M472.5 24.9H461.4V24.2H472.5V24.9C472.6 24.9 472.5 24.9 472.5 24.9Z" fill="#E8D2FF"/>
<path d="M459.3 34.1001H456.2V37.2001H459.3V34.1001Z" fill="#1D2B58"/>
<path d="M472.5 36H461.4V35.3H472.5V36C472.6 36 472.5 36 472.5 36Z" fill="#E8D2FF"/>
<path d="M472.2 46.9001H456.6C456.4 46.9001 456.2 46.7001 456.2 46.5001C456.2 46.3001 456.4 46.1001 456.6 46.1001H472.2C472.4 46.1001 472.6 46.3001 472.6 46.5001C472.6 46.7001 472.4 46.9001 472.2 46.9001Z" fill="#E8D2FF"/>
<path d="M472.2 50.1H456.6C456.4 50.1 456.2 49.9001 456.2 49.7001C456.2 49.5001 456.4 49.3 456.6 49.3H472.2C472.4 49.3 472.6 49.5001 472.6 49.7001C472.6 49.9001 472.4 50.1 472.2 50.1Z" fill="#E8D2FF"/>
<path d="M472.2 53.3H456.6C456.4 53.3 456.2 53.1 456.2 52.9C456.2 52.7 456.4 52.5 456.6 52.5H472.2C472.4 52.5 472.6 52.7 472.6 52.9C472.6 53.1 472.4 53.3 472.2 53.3Z" fill="#E8D2FF"/>
<path d="M472.2 56.5002H456.6C456.4 56.5002 456.2 56.3002 456.2 56.1002C456.2 55.9002 456.4 55.7002 456.6 55.7002H472.2C472.4 55.7002 472.6 55.9002 472.6 56.1002C472.6 56.3002 472.4 56.5002 472.2 56.5002Z" fill="#E8D2FF"/>
<path d="M472.2 59.7001H456.6C456.4 59.7001 456.2 59.5001 456.2 59.3001C456.2 59.1001 456.4 58.9001 456.6 58.9001H472.2C472.4 58.9001 472.6 59.1001 472.6 59.3001C472.6 59.5001 472.4 59.7001 472.2 59.7001Z" fill="#E8D2FF"/>
<path d="M472.2 62.9001H456.6C456.4 62.9001 456.2 62.7001 456.2 62.5001C456.2 62.3001 456.4 62.1001 456.6 62.1001H472.2C472.4 62.1001 472.6 62.3001 472.6 62.5001C472.6 62.7001 472.4 62.9001 472.2 62.9001Z" fill="#E8D2FF"/>
<path d="M472.2 66.1H456.6C456.4 66.1 456.2 65.9 456.2 65.7C456.2 65.5 456.4 65.3 456.6 65.3H472.2C472.4 65.3 472.6 65.5 472.6 65.7C472.6 65.9 472.4 66.1 472.2 66.1Z" fill="#E8D2FF"/>
<path d="M479.6 3.4C479.6 6 479.6 6 479.6 6V9.4H351.2V3.4C351.2 1.5 352.7 0 354.6 0H476.2C478.1 0 479.6 1.5 479.6 3.4Z" fill="#003986"/>
<path d="M466.1 4.7001C466.1 5.6001 465.4 6.3001 464.5 6.3001C463.6 6.3001 462.9 5.6001 462.9 4.7001C462.9 3.8001 463.6 3.1001 464.5 3.1001C465.4 3.1001 466.1 3.8001 466.1 4.7001Z" fill="#E8D2FF"/>
<path d="M471.2 4.7001C471.2 5.6001 470.5 6.3001 469.6 6.3001C468.7 6.3001 468 5.6001 468 4.7001C468 3.8001 468.7 3.1001 469.6 3.1001C470.5 3.1001 471.2 3.8001 471.2 4.7001Z" fill="#B98FE5"/>
<path d="M476.1 4.7001C476.1 5.6001 475.4 6.3001 474.5 6.3001C473.6 6.3001 472.9 5.6001 472.9 4.7001C472.9 3.8001 473.6 3.1001 474.5 3.1001C475.4 3.1001 476.1 3.8001 476.1 4.7001Z" fill="#7D529A"/>
<path d="M404.8 44.1C404.8 49.9 402.6 55.2 399 59.3L382.2 44.1L381.1 21.5C381.5 21.5 381.8 21.5 382.2 21.5C394.7 21.5 404.8 31.6 404.8 44.1Z" fill="#1D2B58"/>
<path d="M434.1 38.3999H426.9V69.2999H434.1V38.3999Z" fill="#003986"/>
<path d="M426.9 61.0999C429.5 60.2999 431.8 58.8999 434.1 57.3999V69.2999H426.9V61.0999Z" fill="#1D2B58"/>
<path d="M422.3 47H415.1V69.3H422.3V47Z" fill="#003986"/>
<path d="M421 61.6001C421.4 61.7001 421.9 61.7001 422.3 61.7001V69.2001H415.1V61.8001C416.4 61.4001 418.2 61.2001 421 61.6001Z" fill="#1D2B58"/>
<path d="M445.8 29.2H438.6V69.3H445.8V29.2Z" fill="#003986"/>
<path d="M445.8 51.0999V69.1999H438.6V54.1999C441.2 52.4999 443.6 51.0999 445.8 51.0999Z" fill="#1D2B58"/>
<path d="M445.5 17.5L439 18.9L440.7 20.6L430.7 30.7L427.2 27.3L415 39.9C414.5 40.4 414.5 41.2 415 41.6C415.5 42.1 416.3 42.1 416.7 41.6L427.3 30.7L430.8 34.1L442.5 22.2L444.2 23.9L445.5 17.5Z" fill="#003986"/>
<path d="M220.475 81.5645L170.875 81.636L170.925 115.936L220.525 115.864L220.475 81.5645Z" fill="#003986"/>
<path d="M170.9 81.6V83.8L195.7 105.7L220.5 83.7V81.5L195.7 103.6L170.9 81.6Z" fill="#1D2B58"/>
<path d="M200.5 99.3001L219.1 115.8H220.6L220.5 114.9L201.6 98.1001L200.5 99.3001Z" fill="#1D2B58"/>
<path d="M170.9 115.1L171 115.9L172.5 115.8L191.1 99.3001L190 98.1001L170.9 115.1Z" fill="#1D2B58"/>
<path d="M220.5 81.5L195.7 103.6L170.9 81.6L220.5 81.5Z" fill="#003986"/>
<path d="M218.2 94.1C224.165 94.1 229 89.2647 229 83.3C229 77.3353 224.165 72.5 218.2 72.5C212.235 72.5 207.4 77.3353 207.4 83.3C207.4 89.2647 212.235 94.1 218.2 94.1Z" fill="#4399F7"/>
<path d="M216 88.4C215.7 88.4 215.5 88.2999 215.3 88.0999L212.7 85.5C212.3 85.1 212.3 84.4 212.7 84C213.1 83.6 213.8 83.6 214.2 84L216.1 85.9L223.5 78.5C223.9 78.1 224.6 78.1 225 78.5C225.4 78.9 225.4 79.6 225 80L216.9 88.0999C216.5 88.2999 216.2 88.4 216 88.4Z" fill="white"/>
<path d="M503.4 218.4V96.7999C503.4 94.8999 501.9 93.3999 500 93.3999H438.4C436.5 93.3999 435 94.8999 435 96.7999V218.5C435 222.3 438.1 225.3 441.8 225.3H496.5C500.3 225.2 503.4 222.2 503.4 218.4Z" fill="white"/>
<path d="M493.2 185.8H447.7C446.9 185.8 446.2 185.1 446.2 184.3C446.2 183.5 446.9 182.8 447.7 182.8H493.2C494 182.8 494.7 183.5 494.7 184.3C494.7 185.1 494 185.8 493.2 185.8Z" fill="#E8D2FF"/>
<path d="M493.2 195.3H447.7C446.9 195.3 446.2 194.6 446.2 193.8C446.2 193 446.9 192.3 447.7 192.3H493.2C494 192.3 494.7 193 494.7 193.8C494.7 194.6 494 195.3 493.2 195.3Z" fill="#E8D2FF"/>
<path d="M493.2 204.8H447.7C446.9 204.8 446.2 204.1 446.2 203.3C446.2 202.5 446.9 201.8 447.7 201.8H493.2C494 201.8 494.7 202.5 494.7 203.3C494.7 204.2 494 204.8 493.2 204.8Z" fill="#E8D2FF"/>
<path d="M493.2 214.4H447.7C446.9 214.4 446.2 213.7 446.2 212.9C446.2 212.1 446.9 211.4 447.7 211.4H493.2C494 211.4 494.7 212.1 494.7 212.9C494.7 213.7 494 214.4 493.2 214.4Z" fill="#E8D2FF"/>
<path d="M503.4 96.7999V106.1H435.1V96.7999C435.1 94.8999 436.6 93.3999 438.5 93.3999H500C501.9 93.3999 503.4 94.8999 503.4 96.7999Z" fill="#003986"/>
<path d="M486.9 99.0999C486.9 100.3 485.9 101.3 484.7 101.3C483.5 101.3 482.5 100.3 482.5 99.0999C482.5 97.8999 483.5 96.8999 484.7 96.8999C485.9 96.8999 486.9 97.8999 486.9 99.0999Z" fill="#E8D2FF"/>
<path d="M494.1 99.0999C494.1 100.3 493.1 101.3 491.9 101.3C490.7 101.3 489.7 100.3 489.7 99.0999C489.7 97.8999 490.7 96.8999 491.9 96.8999C493.1 96.8999 494.1 97.8999 494.1 99.0999Z" fill="#B98FE5"/>
<path d="M500.9 99.0999C500.9 100.3 499.9 101.3 498.7 101.3C497.5 101.3 496.5 100.3 496.5 99.0999C496.5 97.8999 497.5 96.8999 498.7 96.8999C500 96.8999 500.9 97.8999 500.9 99.0999Z" fill="#7D529A"/>
<path d="M456.3 158.2H448.6V176.8H456.3V158.2Z" fill="#003986"/>
<path d="M467.6 145H459.9V176.8H467.6V145Z" fill="#003986"/>
<path d="M480.2 135.3H472.5V176.8H480.2V135.3Z" fill="#003986"/>
<path d="M492.5 123.8H484.8V176.7H492.5V123.8Z" fill="#003986"/>
<path d="M478.3 115.7L483.6 117.7L483 111.4L478.3 115.7Z" fill="#E8D2FF"/>
<path d="M446.5 149.2C446.3 149.2 446 149.1 446 148.8C445.9 148.5 446 148.2 446.3 148.1C446.5 148 469.7 139.2 480.9 115.3C481 115 481.4 114.9 481.7 115C482 115.1 482.1 115.5 482 115.8C470.5 140.1 447 149.1 446.7 149.1C446.6 149.1 446.6 149.2 446.5 149.2Z" fill="#E8D2FF"/>
<path d="M184.8 20.6001V39.6001C184.8 42.1001 186.8 44.1001 189.3 44.1001H223.8L234.2 47.8001C235.3 48.2001 236.3 47.1001 235.9 46.1001L232 36.0001V20.6001C232 18.1001 230 16.1001 227.5 16.1001H189.4C186.8 16.1001 184.8 18.1001 184.8 20.6001Z" fill="#FCB700"/>
<path d="M214.8 30.7001C214.8 32.5001 216.3 34.0001 218.1 34.0001C219.9 34.0001 221.4 32.5001 221.4 30.7001C221.4 28.9001 219.9 27.4001 218.1 27.4001C216.2 27.4001 214.8 28.8001 214.8 30.7001Z" fill="#F8F7F9"/>
<path d="M204.3 30.7001C204.3 32.5001 205.8 34.0001 207.6 34.0001C209.4 34.0001 210.9 32.5001 210.9 30.7001C210.9 28.9001 209.4 27.4001 207.6 27.4001C205.8 27.4001 204.3 28.8001 204.3 30.7001Z" fill="#F8F7F9"/>
<path d="M193.9 30.7001C193.9 32.5001 195.4 34.0001 197.2 34.0001C199 34.0001 200.5 32.5001 200.5 30.7001C200.5 28.9001 199 27.4001 197.2 27.4001C195.4 27.4001 193.9 28.8001 193.9 30.7001Z" fill="#F8F7F9"/>
<path d="M127.3 365.5C127.3 368.4 98.8 370.7 63.7 370.7C28.6 370.7 0 368.4 0 365.5C0 362.6 28.5 360.3 63.6 360.3C98.7 360.3 127.3 362.6 127.3 365.5Z" fill="#FFF9B5"/>
<path d="M102.1 320.9H22.8001C22.3001 320.9 21.9001 320.5 21.9001 320V315.4C21.9001 314.9 22.3001 314.5 22.8001 314.5H102.1C102.6 314.5 103 314.9 103 315.4V320C103 320.5 102.6 320.9 102.1 320.9Z" fill="#422924"/>
<path d="M25.4 243.3H99.5999C100.8 243.3 101.8 244.3 101.8 245.5V254.6C101.8 255.8 100.8 256.8 99.5999 256.8H25.4C24.1999 256.8 23.2 255.8 23.2 254.6V245.5C23.2 244.3 24.1999 243.3 25.4 243.3Z" fill="#351F19"/>
<path d="M61.8 207.9H54.6C54.6 207.9 54.2 207.2 53.6 205.9C53.3 205.3 52.9 204.5 52.5 203.7C51.5 201.5 50.1 198.6 48.6 195.2V195.1C38.9 173.5 21.4 131.5 28.6 123.2C36.7 113.7 46.4 127.9 53.4 154.8C53.9 156.6 54.4 158.5 54.8 160.5C57.3 171.3 59.4 183.9 60.9 197.5C61.1 199.5 61.3 201.6 61.5 203.7C61.6 205.1 61.7 206.5 61.8 207.9Z" fill="#003986"/>
<path d="M61.4 203.7L59.2 208H54.5C54.5 208 54.1 207.3 53.5 206L53.2 154.8C56.9 168.3 59.8 185.1 61.4 203.7Z" fill="#1F2E5B"/>
<path d="M59.5 207.9H58.3L35.6 133.5C35.5 133.2 35.7 132.9 36 132.8C36.3 132.7 36.6 132.9 36.7 133.2L59.5 207.9Z" fill="#1F2E5B"/>
<path d="M80.2 192.8C79.7 194 79.1 195.2 78.7 196.2C77.4 199.1 76.2 201.7 75.3 203.6C74 206.3 73.3 207.9 73.3 207.9H66C66.1 206.5 66.2 205 66.4 203.6C66.6 201.6 66.8 199.6 67 197.7C68.4 184.4 70.4 172.1 72.9 161.4C73.3 159.7 73.7 158.1 74.1 156.6C81.2 128.5 91.1 113.4 99.4 123.1C106.2 131.2 90.1 170.7 80.2 192.8Z" fill="#003986"/>
<path d="M66.3999 203.7L68.5999 208H73.2999C73.2999 208 73.6999 207.3 74.2999 206L74.5999 154.8C70.8999 168.3 68.0999 185.1 66.3999 203.7Z" fill="#1F2E5B"/>
<path d="M68.3 207.9H69.5L92.2 133.5C92.3 133.2 92.1 132.9 91.8 132.8C91.5 132.7 91.2 132.9 91.1 133.2L68.3 207.9Z" fill="#1F2E5B"/>
<path d="M72.8002 161.5C71.8002 175.7 70.4002 189 69.4002 197.7C68.7002 204.1 68.2002 208 68.2002 208H61.8002C61.1002 204.4 60.4002 200.9 59.7002 197.4C57.3002 184.4 55.7002 172 54.7002 160.5C51.0002 116.5 56.8002 86.4999 67.5002 94.4999C75.3002 100.1 74.9002 132.7 72.8002 161.5Z" fill="#003986"/>
<path d="M78.7001 196.3C77.4001 199.2 76.2001 201.8 75.3001 203.7C74.0001 206.4 73.3001 208 73.3001 208H54.6001C54.6001 208 54.2001 207.3 53.6001 206C53.3001 205.4 52.9001 204.6 52.5001 203.8C51.5001 201.6 50.1001 198.7 48.6001 195.3C50.9001 196 54.9001 197 59.7001 197.5C60.1001 197.5 60.4001 197.6 60.8001 197.6C62.7001 197.8 64.8001 197.9 66.9001 197.9C67.7001 197.9 68.5001 197.9 69.3001 197.8C72.4001 197.5 75.6001 197.1 78.7001 196.3Z" fill="#1F2E5B"/>
<path d="M64.4 108.2L63.6 208H62.5L63.3 108.2C63.3 107.9 63.6 107.6 63.9 107.6C64.2 107.6 64.4 107.8 64.4 108.2Z" fill="#1F2E5B"/>
<path d="M96.4999 207.2L95.5999 209.7L94.9999 211.3L93.2999 215.8L92.6999 217.4L90.9999 222L90.3999 223.6L82.8999 243.4H42.1999L34.6999 223.6L34.0999 222L32.3999 217.4L31.7999 215.8L30.0999 211.3L29.4999 209.7L28.5999 207.2C27.9999 205.5 29.1999 203.7 30.9999 203.7H94.0999C95.8999 203.7 97.0999 205.5 96.4999 207.2Z" fill="#FC8E01"/>
<path d="M95.6 209.6L95 211.2H30.1L29.5 209.6H95.6Z" fill="#B11722"/>
<path d="M93.3001 215.7L92.7 217.3H32.4001L31.8 215.7H93.3001Z" fill="#B11722"/>
<path d="M90.9001 221.9L90.4001 223.5H34.7001L34.1001 221.9H90.9001Z" fill="#B11722"/>
<path d="M51.6 256.8L49.4001 264.1L17.9 365.5H11.8L31.7001 266.2L33.6 256.8H51.6Z" fill="#351F19"/>
<path d="M33.5999 256.8H51.5999L49.4 264.1L31.7 266.2L33.5999 256.8Z" fill="#26120C"/>
<path d="M113.5 365.5H107.3L75.0001 261.1L73.6001 256.8H91.6001L92.1001 259.1L113.5 365.5Z" fill="#351F19"/>
<path d="M92.1001 259.1L75.0001 261.1L73.6001 256.8H91.6001L92.1001 259.1Z" fill="#26120C"/>
<path d="M100.5 306.9H24.4001C23.0001 306.9 21.9001 305.8 21.9001 304.4V303C21.9001 301.6 23.0001 300.5 24.4001 300.5H100.6C102 300.5 103.1 301.6 103.1 303V304.5C103 305.8 101.9 306.9 100.5 306.9Z" fill="#422924"/>
<path d="M565.467 59.1766C576.558 48.0858 576.558 30.1041 565.467 19.0133C554.376 7.92256 536.394 7.92253 525.304 19.0133C514.213 30.1041 514.213 48.0858 525.304 59.1766C536.394 70.2674 554.376 70.2674 565.467 59.1766Z" fill="#EAD5B9"/>
<path d="M565.463 55.4781C576.554 44.3873 576.554 26.4056 565.463 15.3149C554.373 4.22407 536.391 4.22404 525.3 15.3148C514.209 26.4056 514.209 44.3873 525.3 55.4781C536.391 66.5689 554.373 66.5689 565.463 55.4781Z" fill="#003986"/>
<path d="M549.084 58.2272C561.68 56.1987 570.247 44.3434 568.218 31.7477C566.19 19.1519 554.334 10.5855 541.739 12.614C529.143 14.6424 520.576 26.4977 522.605 39.0935C524.633 51.6893 536.489 60.2557 549.084 58.2272Z" fill="white"/>
<path d="M568.5 35.3998C568.5 35.9998 568.5 36.5998 568.4 37.1998C567.5 25.2998 557.5 15.8998 545.4 15.8998C533.3 15.8998 523.3 25.2998 522.4 37.1998C522.4 36.5998 522.3 35.9998 522.3 35.3998C522.3 22.6998 532.7 12.2998 545.4 12.2998C558.1 12.2998 568.5 22.6998 568.5 35.3998Z" fill="#EAD5B9"/>
<path d="M545.4 37.8C545.2 37.8 545 37.7 544.9 37.6L533.6 22.4C533.4 22.1 533.5 21.8 533.7 21.6C534 21.4 534.3 21.5 534.5 21.7L545.5 36.6L558.1 31.1C558.4 31 558.7 31.1 558.9 31.4C559 31.7 558.9 32 558.6 32.2L545.6 37.9C545.5 37.8 545.5 37.8 545.4 37.8Z" fill="#26120C"/>
</g>
<defs>
<filter id="filter0_d_24_2" x="347.2" y="-4" width="144.4" height="94.6001" filterUnits="userSpaceOnUse" color-interpolation-filters="sRGB">
<feFlood flood-opacity="0" result="BackgroundImageFix"/>
<feColorMatrix in="SourceAlpha" type="matrix" values="0 0 0 0 0 0 0 0 0 0 0 0 0 0 0 0 0 0 127 0" result="hardAlpha"/>
<feOffset dx="4" dy="4"/>
<feGaussianBlur stdDeviation="4"/>
<feComposite in2="hardAlpha" operator="out"/>
<feColorMatrix type="matrix" values="0 0 0 0 0 0 0 0 0 0 0 0 0 0 0 0 0 0 0.25 0"/>
<feBlend mode="normal" in2="BackgroundImageFix" result="effect1_dropShadow_24_2"/>
<feBlend mode="normal" in="SourceGraphic" in2="effect1_dropShadow_24_2" result="shape"/>
</filter>
<clipPath id="clip0_24_2">
<rect width="596.2" height="384.6" fill="white"/>
</clipPath>
</defs>
</svg>
