<svg width="697" height="414" viewBox="0 0 697 414" fill="none" xmlns="http://www.w3.org/2000/svg">
<g clip-path="url(#clip0_17_6)">
<path d="M69.5 184.6H20.8V197.5H69.5V184.6Z" fill="#EBEBEB"/>
<path d="M48.9001 211C48.9001 211 48.9001 210.9 48.9001 210.8C48.9001 210.6 48.9001 210.4 48.9001 210.1C48.9001 209.5 48.9001 208.6 48.9001 207.6C48.9001 205.4 48.9001 202.2 48.8001 198.2L49.0001 198.4C37.9001 198.4 20.2001 198.5 0.400098 198.5C0.500098 198.4 0.200098 198.7 0.600098 198.3V198.4V198.5V198.7V199.1V199.9C0.600098 200.4 0.600098 201 0.600098 201.5C0.600098 202.6 0.600098 203.7 0.600098 204.7C0.600098 206.8 0.600098 209 0.600098 211L0.400098 210.8C14.3001 210.8 26.4001 210.9 35.1001 210.9C39.4001 210.9 42.9001 211 45.3001 211C46.5001 211 47.4001 211 48.1001 211C48.4001 211 48.6001 211 48.8001 211H48.9001C48.9001 211 48.8001 211 48.7001 211C48.5001 211 48.3001 211 48.0001 211C47.4001 211 46.4001 211 45.3001 211C42.9001 211 39.4001 211 35.1001 211.1C26.4001 211.1 14.2001 211.2 0.300098 211.2H0.100098V211C0.100098 208.9 0.100098 206.8 0.100098 204.7C0.100098 203.6 0.100098 202.5 0.100098 201.5C0.100098 201 0.100098 200.4 0.100098 199.9V199.1V198.7V198.5V198.4V198.3C0.600098 197.8 0.200098 198.2 0.400098 198.1C20.3001 198.1 37.9001 198.2 49.0001 198.2H49.2001V198.4C49.2001 202.5 49.1001 205.7 49.1001 207.9C49.1001 209 49.1001 209.8 49.1001 210.4C49.1001 210.7 49.1001 210.9 49.1001 211C48.9001 210.9 48.9001 211 48.9001 211Z" fill="#E0E0E0"/>
<path d="M696.1 230H588V409H696.1V230Z" fill="#E0E0E0"/>
<path d="M692.5 230H584.4V409H692.5V230Z" fill="#EBEBEB"/>
<path d="M668.7 256H607.9V383.1H668.7V256Z" fill="#EBEBEB"/>
<path d="M607.9 338.1C607.8 326.2 618.4 314.6 630.2 313C635.8 312.2 641.8 313.3 647 311.2C656.4 307.4 659.3 294.9 668.7 291.3L669.1 383.2H607.8V338.1H607.9Z" fill="#E0E0E0"/>
<path d="M621.2 332.8V408.9H512L508 333.3L621.2 332.8Z" fill="#E0E0E0"/>
<path d="M508 333.1C508 333 508.8 333.5 509.9 334.3C511 335.1 512.5 336.3 514.2 337.6C515.8 338.9 517.3 340.2 518.3 341.1C519.3 342 519.9 342.6 519.9 342.7C519.8 342.8 517.2 340.6 513.9 338C510.6 335.4 508 333.3 508 333.1Z" fill="#E0E0E0"/>
<path d="M617.3 333.3C617.4 333.4 614.8 335.6 611.6 338.2C608.3 340.8 605.6 342.8 605.5 342.7C605.4 342.6 608 340.4 611.2 337.8C614.5 335.2 617.2 333.2 617.3 333.3Z" fill="#E0E0E0"/>
<path d="M617.2 408.7C613.1 405.4 609.1 402.1 605 398.8L617.2 408.7Z" fill="white"/>
<path d="M605 398.9C605.1 398.8 607.9 400.9 611.3 403.6C614.7 406.3 617.3 408.6 617.2 408.7C617.1 408.8 614.3 406.7 610.9 404C607.6 401.3 604.9 399 605 398.9Z" fill="#E0E0E0"/>
<path d="M508 408.7C507.9 408.6 510.5 406.4 513.7 403.9C516.9 401.3 519.6 399.4 519.7 399.5C519.8 399.6 517.2 401.8 514 404.3C510.8 406.9 508.1 408.8 508 408.7Z" fill="#E0E0E0"/>
<path d="M537.237 360.319V379.319H591.037V360.319H537.237Z" fill="#E0E0E0"/>
<path d="M531.5 334.9H461.1V408.3H531.5V334.9Z" fill="#E0E0E0"/>
<path d="M526.8 408.4H456.3V334.9H526.8V408.4ZM456.4 408.3H526.8V334.9H456.4V408.3Z" fill="#E0E0E0"/>
<path d="M465.8 398.8C465.8 398.8 465.4 399.4 464.5 400.3C463.7 401.2 462.5 402.3 461.2 403.6C459.9 404.9 458.7 406 457.8 406.8C456.9 407.6 456.4 408.1 456.3 408C456.3 408 456.7 407.4 457.6 406.5C458.4 405.6 459.6 404.5 460.9 403.2C462.2 401.9 463.4 400.8 464.3 400C465.2 399.3 465.8 398.8 465.8 398.8Z" fill="#E0E0E0"/>
<path d="M517.3 398.7C517.3 398.7 517.9 399.1 518.8 400C519.7 400.8 520.8 402 522.1 403.3C523.4 404.6 524.5 405.8 525.3 406.7C526.1 407.6 526.6 408.1 526.5 408.2C526.5 408.2 525.9 407.8 525 406.9C524.1 406.1 523 404.9 521.7 403.6C520.4 402.3 519.3 401.1 518.5 400.2C517.8 399.3 517.3 398.7 517.3 398.7Z" fill="#E0E0E0"/>
<path d="M517.2 344.9C517.2 344.9 517.6 344.3 518.5 343.4C519.3 342.5 520.5 341.4 521.8 340.1C523.1 338.8 524.3 337.7 525.2 336.9C526.1 336.1 526.6 335.6 526.7 335.7C526.7 335.7 526.3 336.3 525.4 337.2C524.6 338.1 523.4 339.2 522.1 340.5C520.8 341.8 519.6 342.9 518.7 343.7C517.8 344.5 517.2 345 517.2 344.9Z" fill="#E0E0E0"/>
<path d="M465.7 345.1C465.7 345.1 465.1 344.7 464.2 343.8C463.3 343 462.2 341.8 460.9 340.5C459.6 339.2 458.5 338 457.7 337.1C456.9 336.2 456.4 335.7 456.5 335.6C456.5 335.6 457.1 336 458 336.9C458.9 337.7 460 338.9 461.3 340.2C462.6 341.5 463.7 342.7 464.5 343.6C465.3 344.5 465.7 345 465.7 345.1Z" fill="#E0E0E0"/>
<path d="M171.7 277.5H0.900146V409.3H171.7V277.5Z" fill="#EBEBEB"/>
<path d="M129 408.3C128.8 408.3 128.7 378.9 128.7 342.7C128.7 306.5 128.9 277.1 129 277.1C129.2 277.1 129.3 306.5 129.3 342.7C129.3 378.9 129.1 408.3 129 408.3Z" fill="#E0E0E0"/>
<path d="M157.3 379.2H144.2V394H157.3V379.2Z" fill="#FAFAFA"/>
<path d="M72.4002 277.8H53.0002V305.9H72.4002V277.8Z" fill="#E0E0E0"/>
<path d="M72.4002 380.7H53.0002V408.8H72.4002V380.7Z" fill="#E0E0E0"/>
<path d="M55.0002 406.3V90.3H51.1002V406.4L18.7002 408.8H51.1002H55.0002H87.3002L55.0002 406.3Z" fill="#E0E0E0"/>
<path d="M30.7002 62.8L16.2002 127.7H89.9002L73.3002 63L30.7002 62.8Z" fill="#E0E0E0"/>
<path d="M44.2001 154C44.0001 154 43.9001 146 43.9001 136.2C43.9001 126.4 44.1001 118.4 44.2001 118.4C44.4001 118.4 44.5001 126.4 44.5001 136.2C44.5001 146 44.4001 154 44.2001 154Z" fill="#E0E0E0"/>
<path d="M44.2001 153.9C44.2001 153.8 44.7001 153.9 45.0001 154.6C45.1001 154.9 45.1001 155.4 44.8001 155.8C44.5001 156.2 43.8001 156.4 43.3001 156.2C42.8001 156 42.4001 155.5 42.4001 155C42.4001 154.5 42.7001 154.2 43.0001 154C43.6001 153.6 44.1001 153.9 44.0001 154C44.0001 154.1 43.6001 154 43.2001 154.4C43.0001 154.6 42.9001 154.8 42.9001 155.1C42.9001 155.4 43.1001 155.6 43.4001 155.7C43.7001 155.8 44.0001 155.8 44.2001 155.6C44.4001 155.4 44.4001 155.1 44.4001 154.9C44.5001 154.1 44.1001 153.9 44.2001 153.9Z" fill="#E0E0E0"/>
<path d="M248.003 293.172H370.903V198.372H248.003V293.172Z" fill="#F5F5F5"/>
<path d="M278.8 292.5C279 292.5 279.1 271.4 279.1 245.3C279.1 219.2 279 198.1 278.8 198.1C278.6 198.1 278.5 219.2 278.5 245.3C278.5 271.3 278.6 292.5 278.8 292.5Z" fill="#EBEBEB"/>
<path d="M258.45 282.173H267.85V271.473H258.45V282.173Z" fill="#FAFAFA"/>
<path d="M333.5 198.6H319.5V218.8H333.5V198.6Z" fill="#EBEBEB"/>
<path d="M333.5 272.6H319.5V292.8H333.5V272.6Z" fill="#EBEBEB"/>
<path d="M359 292.2H207.2V409.3H359V292.2Z" fill="#EBEBEB"/>
<path d="M321 408.4C320.8 408.4 320.7 382.3 320.7 350.1C320.7 317.9 320.8 291.8 321 291.8C321.2 291.8 321.3 317.9 321.3 350.1C321.3 382.3 321.1 408.4 321 408.4Z" fill="#E0E0E0"/>
<path d="M346.1 382.6H334.5V395.8H346.1V382.6Z" fill="#FAFAFA"/>
<path d="M270.7 292.5H253.5V317.5H270.7V292.5Z" fill="#E0E0E0"/>
<path d="M270.7 383.9H253.5V408.9H270.7V383.9Z" fill="#E0E0E0"/>
<path d="M315.7 86.3002C315.7 86.3002 315.7 86.2002 315.7 86.1002C315.7 85.9002 315.7 85.7002 315.7 85.4002C315.7 84.8002 315.7 83.9002 315.7 82.9002C315.7 80.7002 315.7 77.5002 315.6 73.5002L315.8 73.7002C304.7 73.7002 287 73.8002 267.2 73.8002C267.3 73.7002 267 74.0002 267.4 73.6002V73.7002V73.8002V74.0002V74.4002V75.2002C267.4 75.7002 267.4 76.3002 267.4 76.8002C267.4 77.9002 267.4 79.0002 267.4 80.0002C267.4 82.1002 267.4 84.3002 267.4 86.3002L267.2 86.1002C281.1 86.1002 293.2 86.2002 301.9 86.2002C306.2 86.2002 309.7 86.3002 312.1 86.3002C313.3 86.3002 314.2 86.3002 314.9 86.3002C315.2 86.3002 315.4 86.3002 315.6 86.3002H315.7C315.7 86.3002 315.6 86.3002 315.5 86.3002C315.3 86.3002 315.1 86.3002 314.8 86.3002C314.2 86.3002 313.2 86.3002 312.1 86.3002C309.7 86.3002 306.2 86.3002 301.9 86.4002C293.2 86.4002 281 86.5002 267.1 86.5002H266.9V86.3002C266.9 84.2002 266.9 82.1002 266.9 80.0002C266.9 78.9002 266.9 77.8002 266.9 76.8002C266.9 76.3002 266.9 75.7002 266.9 75.2002V74.4002V74.0002V73.8002V73.7002V73.6002C267.4 73.1002 267 73.5002 267.2 73.4002C287.1 73.4002 304.7 73.5002 315.8 73.5002H316V73.7002C316 77.8002 315.9 81.0002 315.9 83.2002C315.9 84.3002 315.9 85.1002 315.9 85.7002C315.9 86.0002 315.9 86.2002 315.9 86.3002C315.7 86.2002 315.7 86.3002 315.7 86.3002Z" fill="#E0E0E0"/>
<path d="M673.1 168.9C673.1 168.9 673.1 168.8 673.1 168.7C673.1 168.5 673.1 168.3 673.1 168C673.1 167.4 673.1 166.5 673.1 165.5C673.1 163.3 673.1 160.1 673 156.1L673.2 156.3C662.1 156.3 644.4 156.4 624.6 156.4C624.7 156.3 624.4 156.6 624.8 156.2V156.3V156.4V156.6V157V157.8C624.8 158.3 624.8 158.9 624.8 159.4C624.8 160.5 624.8 161.6 624.8 162.6C624.8 164.7 624.8 166.9 624.8 168.9L624.6 168.7C638.5 168.7 650.6 168.8 659.3 168.8C663.6 168.8 667.1 168.9 669.5 168.9C670.7 168.9 671.6 168.9 672.3 168.9C672.6 168.9 672.8 168.9 673 168.9H673.1C673.1 168.9 673 168.9 672.9 168.9C672.7 168.9 672.5 168.9 672.2 168.9C671.6 168.9 670.6 168.9 669.5 168.9C667.1 168.9 663.6 168.9 659.3 169C650.6 169 638.4 169.1 624.5 169.1H624.3V168.9C624.3 166.8 624.3 164.7 624.3 162.6C624.3 161.5 624.3 160.4 624.3 159.4C624.3 158.9 624.3 158.3 624.3 157.8V157V156.6V156.4V156.3V156.2C624.8 155.7 624.4 156.1 624.6 156C644.5 156 662.1 156.1 673.2 156.1H673.4V156.3C673.4 160.4 673.3 163.6 673.3 165.8C673.3 166.9 673.3 167.7 673.3 168.3C673.3 168.6 673.3 168.8 673.3 168.9C673.1 168.8 673.1 168.9 673.1 168.9Z" fill="#E0E0E0"/>
<path d="M455.1 26.0001C455.1 26.0001 455.1 25.9001 455.1 25.8001C455.1 25.6001 455.1 25.4001 455.1 25.1001C455.1 24.5001 455.1 23.6001 455.1 22.6001C455.1 20.4001 455.1 17.2001 455 13.2001L455.2 13.4001C444.1 13.4001 426.4 13.5001 406.6 13.5001C406.7 13.4001 406.3 13.7001 406.8 13.3001V13.4001V13.5001V13.7001V14.0001V14.8001C406.8 15.3001 406.8 15.9001 406.8 16.4001C406.8 17.5001 406.8 18.6001 406.8 19.6001C406.8 21.7001 406.8 23.9001 406.8 25.9001L406.6 25.7001C420.5 25.7001 432.6 25.8001 441.3 25.8001C445.6 25.8001 449.1 25.9001 451.5 25.9001C452.7 25.9001 453.6 25.9001 454.3 25.9001C454.6 25.9001 454.8 25.9001 455 25.9001C455 26.0001 455.1 26.0001 455.1 26.0001C455.1 26.0001 455 26.0001 454.9 26.0001C454.7 26.0001 454.5 26.0001 454.2 26.0001C453.6 26.0001 452.6 26.0001 451.5 26.0001C449.1 26.0001 445.6 26.0001 441.3 26.1001C432.6 26.1001 420.4 26.2001 406.5 26.2001H406.3V26.0001C406.3 23.9001 406.3 21.8001 406.3 19.7001C406.3 18.6001 406.3 17.5001 406.3 16.5001C406.3 16.0001 406.3 15.4001 406.3 14.9001V14.1001V13.7001V13.5001V13.4001V13.3001C406.8 12.8001 406.4 13.2001 406.6 13.1001C426.5 13.1001 444.1 13.2001 455.2 13.2001H455.4V13.4001C455.4 17.5001 455.3 20.7001 455.3 22.9001C455.3 24.0001 455.3 24.8001 455.3 25.4001C455.3 25.7001 455.3 25.9001 455.3 26.0001C455.1 26.0001 455.1 26.0001 455.1 26.0001Z" fill="#E0E0E0"/>
<path d="M461.7 13.2001C461.7 13.2001 461.7 13.1001 461.7 13.0001C461.7 12.8001 461.7 12.6001 461.7 12.3001C461.7 11.7001 461.7 10.8001 461.7 9.70006C461.7 7.40005 461.6 4.30006 461.6 0.300055L461.8 0.500055C454.2 0.500055 443.9 0.500055 432.6 0.600055C432.4 0.800055 432.9 0.300055 432.8 0.400055V0.500055V0.600055V0.800055V1.20006V2.00006C432.8 2.60006 432.8 3.10006 432.8 3.70006C432.8 4.80006 432.8 5.90006 432.8 7.00006C432.8 9.20006 432.8 11.2001 432.8 13.2001L432.6 13.0001C441 13.0001 448.3 13.1001 453.5 13.1001C456.1 13.1001 458.1 13.1001 459.6 13.2001C460.3 13.2001 460.8 13.2001 461.2 13.2001C461.5 13.2001 461.7 13.2001 461.7 13.2001C461.7 13.2001 461.5 13.2001 461.2 13.2001C460.8 13.2001 460.3 13.2001 459.6 13.2001C458.1 13.2001 456.1 13.2001 453.6 13.3001C448.4 13.3001 441 13.4001 432.5 13.4001H432.3V13.2001C432.3 11.2001 432.3 9.10006 432.3 7.00006C432.3 5.90006 432.3 4.80006 432.3 3.70006C432.3 3.10006 432.3 2.60006 432.3 2.00006V1.20006V0.700055V0.500055V0.400055C432.2 0.500055 432.8 -0.0999449 432.5 0.200055C443.9 0.200055 454.2 0.300055 461.7 0.300055H461.9V0.500055C461.9 4.50006 461.8 7.70006 461.8 10.0001C461.8 11.1001 461.8 11.9001 461.8 12.5001C461.8 12.9001 461.7 13.2001 461.7 13.2001Z" fill="#E0E0E0"/>
<path d="M153.3 13.2001C153.3 13.2001 153.3 13.1001 153.3 13.0001C153.3 12.8001 153.3 12.6001 153.3 12.3001C153.3 11.7001 153.3 10.8001 153.3 9.80012C153.3 7.60012 153.3 4.40012 153.2 0.400116L153.4 0.600116C142.3 0.600116 124.6 0.700116 104.8 0.700116C104.9 0.600116 104.6 0.900116 105 0.500116V0.600116V0.700116V0.900116V1.30012V2.10012C105 2.60012 105 3.20012 105 3.70012C105 4.80012 105 5.90012 105 6.90012C105 9.00012 105 11.2001 105 13.2001L104.8 13.0001C118.7 13.0001 130.8 13.1001 139.5 13.1001C143.8 13.1001 147.3 13.2001 149.7 13.2001C150.9 13.2001 151.8 13.2001 152.5 13.2001C152.8 13.2001 153 13.2001 153.2 13.2001H153.3C153.3 13.2001 153.2 13.2001 153.1 13.2001C152.9 13.2001 152.7 13.2001 152.4 13.2001C151.8 13.2001 150.8 13.2001 149.7 13.2001C147.3 13.2001 143.8 13.2001 139.5 13.3001C130.8 13.3001 118.6 13.4001 104.7 13.4001H104.5V13.2001C104.5 11.1001 104.5 9.00012 104.5 6.90012C104.5 5.80012 104.5 4.70012 104.5 3.70012C104.5 3.20012 104.5 2.60012 104.5 2.10012V1.30012V0.700116V0.500116V0.400116V0.300116C105 -0.199884 104.6 0.200116 104.8 0.100116C124.7 0.100116 142.3 0.200116 153.4 0.200116H153.6V0.400116C153.6 4.50012 153.5 7.70012 153.5 9.90012C153.5 11.0001 153.5 11.8001 153.5 12.4001C153.5 12.7001 153.5 12.9001 153.5 13.0001C153.3 13.1001 153.3 13.2001 153.3 13.2001Z" fill="#E0E0E0"/>
<path d="M672.6 40.5002C672.6 40.5002 672.6 40.4002 672.6 40.3002C672.6 40.1002 672.6 39.9002 672.6 39.6002C672.6 39.0002 672.6 38.1002 672.6 37.1002C672.6 34.9002 672.6 31.7002 672.5 27.7002L672.7 27.9002C661.6 27.9002 643.9 28.0002 624.1 28.0002C624.2 27.9002 623.9 28.2002 624.3 27.8002V27.9002V28.0002V28.4002V29.2002C624.3 29.7002 624.3 30.3002 624.3 30.8002C624.3 31.9002 624.3 33.0002 624.3 34.0002C624.3 36.1002 624.3 38.3002 624.3 40.3002L624.1 40.1002C638 40.1002 650.1 40.2002 658.8 40.2002C663.1 40.2002 666.6 40.3002 669 40.3002C670.2 40.3002 671.1 40.3002 671.8 40.3002C672.1 40.3002 672.3 40.3002 672.5 40.3002C672.5 40.4002 672.6 40.4002 672.6 40.5002C672.6 40.5002 672.5 40.5002 672.4 40.5002C672.2 40.5002 672 40.5002 671.7 40.5002C671.1 40.5002 670.1 40.5002 669 40.5002C666.6 40.5002 663.1 40.5002 658.8 40.6002C650.1 40.6002 637.9 40.7002 624 40.7002H623.8V40.5002C623.8 38.4002 623.8 36.3002 623.8 34.2002C623.8 33.1002 623.8 32.0002 623.8 31.0002C623.8 30.5002 623.8 29.9002 623.8 29.4002V28.6002V28.0002V27.8002V27.7002V27.6002C624.3 27.1002 623.9 27.5002 624.1 27.4002C644 27.4002 661.6 27.5002 672.7 27.5002H672.9V27.7002C672.9 31.8002 672.8 35.0002 672.8 37.2002C672.8 38.3002 672.8 39.1002 672.8 39.7002C672.8 40.0002 672.8 40.2002 672.8 40.3002C672.6 40.4002 672.6 40.5002 672.6 40.5002Z" fill="#E0E0E0"/>
<path d="M690.3 409.2C690.3 409.3 537.2 409.5 348.4 409.5C159.5 409.5 6.5 409.4 6.5 409.2C6.5 409.1 159.6 408.9 348.4 408.9C537.3 409 690.3 409.1 690.3 409.2Z" fill="#263238"/>
<path d="M322.5 319V409.5H328.9L330.4 319H322.5Z" fill="#4F2011"/>
<path d="M301.7 319L279.5 409.5H285.7L310.6 319H301.7Z" fill="#4F2011"/>
<path d="M346.7 318.7L369.7 409.5H363.6L337.8 318.7H346.7Z" fill="#4F2011"/>
<path d="M364.3 311.5H280.7V320.1H364.3V311.5Z" fill="#3A221B"/>
<path d="M364.3 320.2C364.3 320.3 345.8 320.4 322.9 320.4C300 320.4 281.5 320.3 281.5 320.2C281.5 320.1 300 320 322.9 320C345.8 320 364.3 320.1 364.3 320.2Z" fill="#4F2011"/>
<path d="M415.4 337.4C415.3 337.5 414.7 337.1 414 336.6C413.3 336 412.8 335.5 412.9 335.4C413 335.3 413.6 335.7 414.3 336.2C415 336.8 415.5 337.3 415.4 337.4Z" fill="#37261F"/>
<path d="M434.301 309.1C434.401 306.5 434.501 303.7 433.701 301.2C432.901 298.7 430.901 296.4 428.301 295.8C425.301 295.2 422.301 297.1 420.701 299.6C419.001 302.1 418.501 305.2 418.001 308.2C414.601 328.7 413.401 349.6 414.301 370.4L426.401 372.1C431.601 350.4 433.301 331.5 434.301 309.1Z" fill="#5D2312"/>
<path d="M426.601 295.8C426.601 295.8 426.601 295.9 426.501 296C426.401 296.1 426.401 296.3 426.301 296.5C426.101 297 425.801 297.7 425.501 298.6C425.301 299.1 425.101 299.5 424.901 300.1C424.701 300.7 424.501 301.3 424.301 301.9C424.101 302.6 423.901 303.3 423.601 304C423.401 304.8 423.201 305.6 423.001 306.4C422.101 309.8 421.301 313.8 420.701 318.4C420.001 322.9 419.601 328 419.301 333.3C418.701 343.9 418.601 353.5 418.301 360.5C418.201 364 418.101 366.8 417.901 368.7C417.801 369.6 417.801 370.4 417.701 370.9C417.701 371.1 417.701 371.3 417.601 371.5C417.601 371.6 417.601 371.7 417.601 371.7C417.601 371.7 417.601 371.6 417.601 371.5C417.601 371.3 417.601 371.2 417.601 370.9C417.601 370.4 417.601 369.6 417.701 368.7C417.801 366.8 417.901 363.9 417.901 360.5C418.101 353.5 418.101 343.9 418.801 333.3C419.101 328 419.601 323 420.301 318.4C421.001 313.8 421.801 309.8 422.701 306.4C422.901 305.6 423.101 304.8 423.401 304C423.701 303.3 423.901 302.6 424.101 301.9C424.301 301.2 424.501 300.6 424.701 300.1C424.901 299.5 425.101 299 425.301 298.6C425.701 297.7 426.001 297 426.201 296.5C426.301 296.3 426.401 296.1 426.401 296C426.601 295.9 426.601 295.8 426.601 295.8Z" fill="#35221B"/>
<path d="M427.7 295.8C427.7 295.8 428.4 296.6 429.2 298.3C430 300 430.4 302.8 430.3 306.1C430 312.8 429.4 322 428.6 332.2C427.8 342.4 426.9 351.6 426.2 358.2C425.8 361.5 425.5 364.2 425.3 366.1C425.2 367 425.1 367.7 425 368.2C425 368.4 424.9 368.6 424.9 368.8C424.9 368.9 424.9 369 424.9 369C424.9 369 424.9 368.9 424.9 368.8C424.9 368.6 424.9 368.5 424.9 368.2C424.9 367.7 425 367 425.1 366.1C425.3 364.2 425.5 361.5 425.9 358.2C426.5 351.5 427.4 342.4 428.2 332.2C429 322 429.6 312.8 430 306.2C430.2 302.9 429.7 300.2 429 298.4C428.4 296.7 427.7 295.9 427.7 295.8Z" fill="#35221B"/>
<path d="M436.1 327.1C436.1 327.2 435 326.9 433.8 326.5C432.6 326.1 431.6 325.6 431.7 325.5C431.7 325.4 432.8 325.7 434 326.1C435.2 326.6 436.2 327 436.1 327.1Z" fill="#37261F"/>
<path d="M437.6 314.8C437.6 314.9 436.7 315.5 435.4 316C434.1 316.6 433.1 316.9 433 316.8C433 316.7 433.901 316.1 435.201 315.6C436.501 315.1 437.5 314.7 437.6 314.8Z" fill="#37261F"/>
<path d="M436.8 304.7C436.8 304.8 436 304.9 435 304.8C434 304.7 433.2 304.6 433.2 304.5C433.2 304.4 434 304.3 435 304.4C436 304.5 436.8 304.6 436.8 304.7Z" fill="#37261F"/>
<path d="M424.3 298.3C424.2 298.4 423.7 297.7 423.1 296.8C422.5 295.9 422.2 295.2 422.3 295.1C422.4 295 422.9 295.7 423.5 296.6C424.1 297.5 424.4 298.2 424.3 298.3Z" fill="#37261F"/>
<path d="M420.2 304.4C420.2 304.5 419.4 304.6 418.5 304.6C417.6 304.6 416.8 304.5 416.8 304.3C416.8 304.2 417.6 304.1 418.5 304.1C419.5 304.1 420.2 304.3 420.2 304.4Z" fill="#37261F"/>
<path d="M417.3 316.6C417.3 316.7 416.4 316.5 415.5 316.1C414.5 315.7 413.8 315.3 413.9 315.2C413.9 315.1 414.8 315.3 415.7 315.7C416.6 316 417.3 316.4 417.3 316.6Z" fill="#37261F"/>
<path d="M416.9 326.8C416.9 326.9 416.2 327.2 415.4 327.3C414.5 327.5 413.8 327.5 413.8 327.4C413.8 327.3 414.5 327 415.3 326.9C416.2 326.7 416.9 326.7 416.9 326.8Z" fill="#37261F"/>
<path d="M415.6 343.5C415.6 343.6 414.9 343.8 414 344C413.1 344.2 412.3 344.2 412.3 344.1C412.3 344 413 343.8 413.9 343.6C414.8 343.5 415.5 343.4 415.6 343.5Z" fill="#37261F"/>
<path d="M414.6 352.8C414.7 352.9 414 353.3 413.2 353.8C412.4 354.2 411.7 354.5 411.6 354.4C411.5 354.3 412.2 353.9 413 353.4C413.9 352.9 414.6 352.7 414.6 352.8Z" fill="#37261F"/>
<path d="M422.201 363.3C422.101 363.4 421.601 362.6 421.001 361.7C420.401 360.7 420.101 359.9 420.201 359.8C420.301 359.7 420.801 360.5 421.401 361.4C421.901 362.4 422.301 363.2 422.201 363.3Z" fill="#37261F"/>
<path d="M424.4 345.8C424.5 345.9 423.9 346.6 423.1 347.4C422.3 348.2 421.6 348.8 421.5 348.7C421.4 348.6 422 347.9 422.8 347.1C423.5 346.3 424.3 345.7 424.4 345.8Z" fill="#37261F"/>
<path d="M423.9 336.7C423.8 336.8 423.3 336.3 422.7 335.7C422.1 335.1 421.7 334.5 421.8 334.4C421.9 334.3 422.4 334.8 423 335.4C423.6 336 424 336.6 423.9 336.7Z" fill="#37261F"/>
<path d="M425.4 325C425.5 325.1 425 325.8 424.3 326.6C423.6 327.4 423 327.9 422.9 327.9C422.8 327.8 423.3 327.1 424 326.3C424.6 325.5 425.3 324.9 425.4 325Z" fill="#37261F"/>
<path d="M426.2 316.5C426.1 316.6 425.4 316 424.7 315.3C423.9 314.5 423.4 313.9 423.5 313.8C423.6 313.7 424.3 314.3 425 315C425.7 315.7 426.3 316.4 426.2 316.5Z" fill="#37261F"/>
<path d="M427.9 305C428 305.1 427.7 305.8 427.1 306.7C426.6 307.6 426.1 308.3 426 308.2C425.9 308.1 426.2 307.4 426.8 306.5C427.3 305.7 427.8 305 427.9 305Z" fill="#37261F"/>
<path d="M431 294.4C431.1 294.5 430.8 295.2 430.3 296.1C429.8 297 429.3 297.7 429.2 297.6C429.1 297.5 429.4 296.8 429.9 295.9C430.4 295 430.9 294.4 431 294.4Z" fill="#37261F"/>
<path d="M434.5 299.3C434.6 299.4 434.1 299.7 433.4 300.1C432.8 300.4 432.2 300.6 432.1 300.5C432 300.4 432.5 300.1 433.2 299.7C433.9 299.3 434.5 299.1 434.5 299.3Z" fill="#37261F"/>
<path d="M434.601 337.4C434.601 337.5 433.501 337.4 432.201 336.8C431.001 336.3 430.101 335.6 430.101 335.5C430.201 335.4 431.101 335.9 432.301 336.4C433.601 337 434.601 337.3 434.601 337.4Z" fill="#37261F"/>
<path d="M433.2 345.5C433.2 345.6 432.5 345.9 431.6 346C430.7 346.2 429.9 346.2 429.9 346.1C429.9 346 430.6 345.7 431.5 345.6C432.4 345.4 433.1 345.4 433.2 345.5Z" fill="#37261F"/>
<path d="M431.4 359.3C431.3 359.4 430.4 358.8 429.6 357.7C428.7 356.6 428.3 355.6 428.4 355.5C428.5 355.4 429.1 356.4 429.9 357.4C430.7 358.5 431.5 359.3 431.4 359.3Z" fill="#37261F"/>
<path d="M411.9 365.7C411.8 365.6 412.3 365.1 413 364.5C413.7 363.9 414.3 363.5 414.4 363.6C414.5 363.7 414 364.2 413.3 364.8C412.6 365.4 412 365.8 411.9 365.7Z" fill="#37261F"/>
<path d="M406.4 335.4C405.6 332.9 404.1 330.1 401.6 330C400.1 330 398.7 331.1 398 332.4C397.3 333.8 397 335.3 397 336.8C397.3 346.9 399 358.5 402.5 369H411.9C411.8 357.5 409.9 346.6 406.4 335.4Z" fill="#4F2011"/>
<path d="M389.3 320C388 314.7 384 311.9 379.5 311.6C375.3 312.3 373.7 316.4 373.2 320.6C372.7 324.8 374 329 375.3 333C379.4 346 383.6 358.9 387.7 371.9C391.6 371.5 395.5 371 399.4 370.6C395.7 353.3 393.6 337.2 389.3 320Z" fill="#4F2011"/>
<path d="M401.5 330.1C401.5 330.1 401.1 330.5 400.7 331.4C400.3 332.3 400.1 333.8 400.3 335.6C400.5 337.4 400.7 339.6 401 341.9C401.3 344.3 401.7 346.9 402.3 349.6C403.4 355 404.6 359.9 405.3 363.4C405.7 365.2 406 366.6 406.2 367.6C406.3 368.1 406.3 368.4 406.4 368.8C406.4 369.1 406.5 369.2 406.4 369.2C406.4 369.2 406.3 369.1 406.3 368.8C406.2 368.5 406.1 368.1 406 367.7C405.7 366.6 405.4 365.2 405 363.5C404.2 360 402.9 355.1 401.8 349.7C401.3 347 400.9 344.4 400.6 342C400.4 340.8 400.3 339.7 400.3 338.6C400.2 337.5 400.1 336.6 400 335.6C399.9 333.8 400.1 332.3 400.6 331.3C401 330.4 401.5 330.1 401.5 330.1Z" fill="#35221B"/>
<path d="M379.6 311.2C379.6 311.2 379 311.8 378.2 313.1C377.4 314.4 376.6 316.5 376.4 319.2C376.2 321.9 376.8 325.2 377.9 328.7C378.9 332.2 380.1 336 381.3 340.1C383.6 348.2 385.8 355.4 387.3 360.8C388 363.4 388.6 365.5 389.1 367.1C389.3 367.8 389.4 368.4 389.6 368.8C389.7 369.2 389.7 369.4 389.7 369.4C389.7 369.4 389.6 369.2 389.5 368.8C389.4 368.4 389.2 367.8 389 367.1C388.5 365.6 387.9 363.5 387.1 360.9C385.5 355.6 383.4 348.3 381 340.3C379.8 336.3 378.7 332.4 377.7 328.9C376.7 325.4 376.1 322.1 376.3 319.3C376.5 316.5 377.4 314.4 378.3 313.1C378.9 311.8 379.6 311.2 379.6 311.2Z" fill="#35221B"/>
<path d="M396.9 369.4C396.9 369.4 396.8 369.2 396.6 368.8C396.4 368.4 396.2 367.9 395.9 367.1C395.3 365.7 394.6 363.5 393.9 360.9C393.2 358.2 392.4 355 391.7 351.4C391 347.8 390.3 343.9 389.5 339.7C388.7 335.6 387.8 331.7 386.7 328.2C385.6 324.7 384.5 321.6 383.3 319.1C382.1 316.6 381 314.7 380.1 313.4C379.7 312.7 379.3 312.3 379.1 311.9C378.9 311.6 378.8 311.4 378.8 311.4C378.8 311.4 378.9 311.6 379.2 311.9C379.4 312.2 379.8 312.7 380.3 313.3C381.2 314.6 382.4 316.5 383.6 319C384.8 321.5 386.1 324.6 387.1 328.1C388.2 331.6 389.1 335.5 389.9 339.7C390.7 343.8 391.4 347.8 392.1 351.4C392.8 355 393.5 358.2 394.2 360.9C394.9 363.6 395.6 365.7 396.1 367.2C396.3 367.9 396.6 368.5 396.7 368.9C396.8 369.2 396.9 369.4 396.9 369.4Z" fill="#35221B"/>
<path d="M375.5 331.1C375.5 331.2 374.9 331.5 374.1 331.7C373.3 331.9 372.6 332 372.6 331.8C372.6 331.7 373.2 331.4 374 331.2C374.8 331.1 375.4 331 375.5 331.1Z" fill="#30221C"/>
<path d="M374.2 323.1C374.2 323.2 373.3 323.3 372.2 323.3C371.1 323.3 370.2 323.4 370.2 323.2C370.2 323.1 371.1 322.9 372.2 322.8C373.3 322.8 374.2 323 374.2 323.1Z" fill="#30221C"/>
<path d="M375.5 315.8C375.4 315.9 374.8 315.5 374.1 314.9C373.4 314.3 372.9 313.7 373 313.6C373.1 313.5 373.7 313.9 374.4 314.5C375.1 315.1 375.6 315.7 375.5 315.8Z" fill="#30221C"/>
<path d="M379.1 309C379.2 309 379.2 309.6 379.2 310.3C379.2 311 379.2 311.6 379.1 311.6C379 311.6 378.8 311 378.8 310.3C378.8 309.5 379 309 379.1 309Z" fill="#30221C"/>
<path d="M386.5 312.2C386.6 312.3 386.3 312.8 385.9 313.5C385.4 314.1 385 314.6 384.9 314.5C384.8 314.4 385.1 313.9 385.5 313.2C385.9 312.6 386.4 312.1 386.5 312.2Z" fill="#30221C"/>
<path d="M391.2 320.4C391.2 320.5 390.6 320.9 389.8 321.2C389 321.5 388.3 321.7 388.3 321.6C388.3 321.5 388.9 321.1 389.7 320.8C390.5 320.5 391.2 320.3 391.2 320.4Z" fill="#30221C"/>
<path d="M394.1 328.9C394.1 329 393.3 329.5 392.2 329.7C391.1 330 390.2 329.9 390.2 329.8C390.2 329.7 391.1 329.6 392.1 329.3C393.2 329.1 394 328.8 394.1 328.9Z" fill="#30221C"/>
<path d="M380.9 326.5C380.8 326.5 380.9 325.9 381.1 325.2C381.3 324.5 381.6 324 381.7 324C381.8 324 381.7 324.6 381.5 325.3C381.2 326 381 326.6 380.9 326.5Z" fill="#30221C"/>
<path d="M382.7 337.2C382.6 337.2 382.8 336.4 383.2 335.4C383.6 334.5 384 333.8 384.1 333.8C384.2 333.8 384 334.6 383.6 335.6C383.2 336.5 382.8 337.2 382.7 337.2Z" fill="#30221C"/>
<path d="M378.1 340.1C378.1 340.2 377.3 340 376.4 339.7C375.5 339.4 374.8 339.2 374.8 339C374.8 338.9 375.6 339 376.5 339.2C377.5 339.6 378.2 340 378.1 340.1Z" fill="#30221C"/>
<path d="M380.8 348.8C380.9 348.9 380.4 349.4 379.7 349.9C379 350.4 378.4 350.7 378.3 350.6C378.2 350.5 378.7 350 379.4 349.5C380.1 349 380.7 348.7 380.8 348.8Z" fill="#30221C"/>
<path d="M382.9 357.5C382.9 357.6 382.3 357.9 381.5 358.1C380.7 358.3 380 358.4 380 358.2C380 358.1 380.6 357.8 381.4 357.6C382.2 357.4 382.8 357.4 382.9 357.5Z" fill="#30221C"/>
<path d="M394.3 336.2C394.4 336.3 393.8 336.7 393.1 337C392.3 337.3 391.6 337.3 391.6 337.2C391.6 337.1 392.2 336.9 392.9 336.6C393.7 336.3 394.3 336.1 394.3 336.2Z" fill="#30221C"/>
<path d="M396 349.7C395.9 349.8 395.3 349.6 394.6 349.3C393.9 349 393.3 348.6 393.4 348.5C393.5 348.4 394.1 348.6 394.8 348.9C395.5 349.2 396 349.6 396 349.7Z" fill="#30221C"/>
<path d="M398.8 359.3C398.8 359.4 397.9 359.2 396.9 358.8C395.9 358.4 395.1 358 395.2 357.9C395.2 357.8 396.1 358 397.1 358.4C398.1 358.8 398.9 359.2 398.8 359.3Z" fill="#30221C"/>
<path d="M383.3 366.9C383.2 366.8 384 366.3 384.9 365.6C385.8 364.9 386.5 364.3 386.6 364.4C386.7 364.5 386.1 365.3 385.2 366C384.3 366.6 383.4 367 383.3 366.9Z" fill="#30221C"/>
<path d="M391 362C390.9 362 390.7 361.4 390.4 360.6C390.1 359.8 389.8 359.3 389.9 359.2C390 359.1 390.5 359.6 390.8 360.5C391.1 361.2 391.1 362 391 362Z" fill="#30221C"/>
<path d="M388.9 350.4C388.8 350.5 388.3 350.3 387.8 349.9C387.3 349.5 386.9 349.1 387 349C387.1 348.9 387.6 349.1 388.1 349.5C388.6 349.9 389 350.3 388.9 350.4Z" fill="#30221C"/>
<path d="M406.7 332.2C406.8 332.3 406.3 332.8 405.6 333.3C404.9 333.8 404.3 334.1 404.3 334C404.2 333.9 404.7 333.4 405.4 332.9C406.1 332.4 406.7 332.1 406.7 332.2Z" fill="#30221C"/>
<path d="M409.4 339.5C409.4 339.6 408.7 339.8 407.7 339.7C406.8 339.6 406.1 339.3 406.1 339.2C406.1 339.1 406.9 339.2 407.7 339.3C408.7 339.3 409.4 339.4 409.4 339.5Z" fill="#30221C"/>
<path d="M397.9 341.1C397.9 341.2 397.2 341.5 396.3 341.5C395.4 341.6 394.7 341.4 394.7 341.3C394.7 341.2 395.4 341.1 396.3 341.1C397.2 341.1 397.9 341 397.9 341.1Z" fill="#30221C"/>
<path d="M398.9 334.2C398.9 334.3 398.2 334.3 397.4 334C396.6 333.6 396.2 333.1 396.3 333C396.4 332.9 396.9 333.3 397.6 333.6C398.3 333.9 398.9 334.1 398.9 334.2Z" fill="#30221C"/>
<path d="M410.4 347.4C410.3 347.5 409.6 347.2 408.8 346.6C408 346.1 407.4 345.6 407.4 345.5C407.5 345.4 408.2 345.7 409 346.3C409.8 346.8 410.5 347.3 410.4 347.4Z" fill="#30221C"/>
<path d="M438.5 367.9H377V378.8H438.5V367.9Z" fill="#FCB700"/>
<path d="M381.6 376.7L389.1 409.2H425.7L433.9 376.7H381.6Z" fill="#FCB700"/>
<path d="M438.5 378.8C438.5 378.9 424.6 379 407.5 379C390.4 379 376.5 378.9 376.5 378.8C376.5 378.7 390.4 378.6 407.5 378.6C424.6 378.6 438.5 378.7 438.5 378.8Z" fill="#4F2011"/>
<path d="M404.3 341.4C404.2 341.5 403.8 341 403.4 340.3C403 339.6 402.7 339 402.8 339C402.9 338.9 403.3 339.4 403.7 340.1C404.1 340.7 404.4 341.3 404.3 341.4Z" fill="#30221C"/>
<path d="M404.3 350.2C404.2 350.2 404.3 349.4 404.6 348.5C404.9 347.6 405.2 346.9 405.3 347C405.4 347 405.3 347.8 405 348.7C404.8 349.5 404.4 350.2 404.3 350.2Z" fill="#30221C"/>
<path d="M407.3 359.4C407.2 359.5 406.7 358.7 406.3 357.8C405.8 356.8 405.6 356 405.7 356C405.8 355.9 406.3 356.7 406.7 357.6C407.1 358.5 407.4 359.3 407.3 359.4Z" fill="#30221C"/>
<path d="M400.8 366.8C400.7 366.7 401.1 366.2 401.6 365.5C402.1 364.9 402.7 364.4 402.7 364.5C402.8 364.6 402.4 365.1 401.9 365.8C401.4 366.4 400.9 366.8 400.8 366.8Z" fill="#30221C"/>
<path d="M399.5 353.3C399.5 353.4 398.9 353.4 398.2 353.3C397.5 353.2 396.9 353 397 352.9C397 352.8 397.6 352.8 398.3 352.9C398.9 353 399.5 353.2 399.5 353.3Z" fill="#30221C"/>
<path d="M551.7 362.9L532.5 389.3L565 413.8C567.1 410.6 553.6 390.7 553.6 390.7L567 373.3L551.7 362.9Z" fill="#7D3120"/>
<g opacity="0.6">
<g opacity="0.6">
<g opacity="0.6">
<g opacity="0.6">
<g opacity="0.6">
<g opacity="0.6">
<g opacity="0.6">
<path opacity="0.6" d="M546 382.7C545.2 382.4 544.3 382.8 543.9 383.5C543.6 384.2 543.9 385.2 544.7 385.5C545.5 385.8 546.6 385.4 546.9 384.6C547.1 383.8 546.6 382.7 545.8 382.6" fill="white"/>
</g>
</g>
</g>
</g>
</g>
</g>
</g>
<g opacity="0.6">
<g opacity="0.6">
<g opacity="0.6">
<g opacity="0.6">
<g opacity="0.6">
<g opacity="0.6">
<path opacity="0.6" d="M532.5 389.3L534.6 386.7L565 411.2C565 411.2 566 412.9 565 413.8L532.5 389.3Z" fill="white"/>
</g>
</g>
</g>
</g>
</g>
</g>
<path d="M553.9 391.4C553.8 391.6 552.9 391 551.8 390.9C550.6 390.8 549.7 391.2 549.6 391C549.5 390.9 550.4 390.1 551.8 390.2C553.2 390.4 554 391.3 553.9 391.4Z" fill="#441A05"/>
<path d="M557 396.1C556.9 396.3 556 396 555 396.3C553.9 396.5 553.3 397.2 553.1 397C552.9 396.9 553.5 395.9 554.8 395.6C556.1 395.3 557.1 395.9 557 396.1Z" fill="#441A05"/>
<path d="M555.9 401.4C555.7 401.3 556.1 400.4 557.2 399.8C558.3 399.2 559.3 399.5 559.2 399.6C559.2 399.8 558.4 399.9 557.5 400.4C556.6 400.9 556.1 401.5 555.9 401.4Z" fill="#441A05"/>
<path d="M556.9 386.9C556.7 387 556.2 386.2 555.2 385.6C554.3 385 553.3 384.7 553.4 384.5C553.4 384.3 554.5 384.2 555.6 385C556.7 385.7 557.1 386.8 556.9 386.9Z" fill="#263238"/>
<path d="M645.5 376.6L644.3 409.2L685 411.3C685 407.4 662.6 398.6 662.6 398.6L663.9 376.7L645.5 376.6Z" fill="#7D3120"/>
<g opacity="0.6">
<g opacity="0.6">
<g opacity="0.6">
<g opacity="0.6">
<g opacity="0.6">
<g opacity="0.6">
<g opacity="0.6">
<path opacity="0.6" d="M651.8 396.2C651 396.4 650.4 397.2 650.6 398C650.7 398.8 651.6 399.4 652.4 399.2C653.2 399 653.9 398 653.7 397.3C653.5 396.5 652.4 395.9 651.7 396.2" fill="white"/>
</g>
</g>
</g>
</g>
</g>
</g>
</g>
<g opacity="0.6">
<g opacity="0.6">
<g opacity="0.6">
<g opacity="0.6">
<g opacity="0.6">
<g opacity="0.6">
<path opacity="0.6" d="M644.3 409.3L644.6 406L683.5 409.2C683.5 409.2 685.3 410.1 685 411.3L644.3 409.3Z" fill="white"/>
</g>
</g>
</g>
</g>
</g>
</g>
<path d="M663.2 399C663.2 399.2 662.2 399.2 661.2 399.8C660.2 400.4 659.6 401.2 659.5 401.1C659.3 401.1 659.7 399.9 660.9 399.2C662.1 398.5 663.2 398.8 663.2 399Z" fill="#441A05"/>
<path d="M668.4 401.1C668.4 401.3 667.6 401.6 666.8 402.4C666.1 403.2 665.8 404.1 665.6 404.1C665.4 404.1 665.3 403 666.2 402C667.3 401 668.4 400.9 668.4 401.1Z" fill="#441A05"/>
<path d="M670.5 406.1C670.3 406.1 670.1 405.1 670.7 404.1C671.3 403 672.2 402.7 672.3 402.8C672.4 403 671.8 403.5 671.3 404.4C670.8 405.3 670.7 406.1 670.5 406.1Z" fill="#441A05"/>
<path d="M663.1 393.6C663 393.8 662.1 393.5 661 393.5C659.9 393.5 659 393.8 658.9 393.7C658.8 393.6 659.7 392.9 661 392.9C662.4 392.7 663.3 393.4 663.1 393.6Z" fill="#263238"/>
<path d="M633 237.8C633 237.8 681.3 305.1 681.9 313.1C682.4 321 668.4 396.1 668.4 396.1L640.8 395.1L646.7 322L596.4 265.9C596.4 265.9 586.3 259 587.9 239.9L633 237.8Z" fill="#441A05"/>
<path d="M585.6 243.6C584.9 245.7 587.7 317.5 587.7 317.5C587.7 317.5 554.8 346.4 539.9 375.7L559.5 392.2C559.5 392.2 619.4 336 622.8 326C626.2 315.9 619.4 241.2 619.4 241.2L585.6 243.6Z" fill="#441A05"/>
<path d="M587.8 246.4C587.8 246.4 587.8 246.5 587.9 246.8C587.9 247.1 588 247.4 588 247.9C588 248.1 588.1 248.4 588.1 248.7C588.2 249 588.2 249.3 588.3 249.7C588.4 250.1 588.4 250.4 588.5 250.8C588.6 251.2 588.7 251.6 588.8 252.1C589.3 253.9 590 256.1 591.2 258.5C592.4 260.9 594.1 263.5 596.6 265.9C608.3 278.9 626.5 299.2 647 322L647.1 322.1V322.2C647.1 322.8 647 323.4 647 324.1C644.7 352.1 642.6 377.5 641.2 395.3L641 395.1C649.6 395.5 656.4 395.7 661.2 395.9C663.6 396 665.4 396.1 666.7 396.1C667.3 396.1 667.8 396.2 668.1 396.2C668.4 396.2 668.6 396.2 668.6 396.2C668.6 396.2 668.4 396.2 668.1 396.2C667.8 396.2 667.3 396.2 666.7 396.2C665.4 396.2 663.6 396.1 661.2 396C656.4 395.8 649.5 395.6 641 395.3H640.8V395.1C642.2 377.2 644.2 351.9 646.4 323.9C646.5 323.3 646.5 322.6 646.6 322L646.7 322.2C626.3 299.3 608.1 279 596.5 266C594 263.6 592.3 260.9 591.1 258.5C589.9 256.1 589.2 253.9 588.8 252.1C588.7 251.6 588.6 251.2 588.5 250.8C588.4 250.4 588.4 250 588.3 249.7C588.2 249.3 588.2 249 588.2 248.7C588.2 248.4 588.2 248.1 588.1 247.9C588.1 247.4 588 247.1 588 246.8C587.8 246.5 587.8 246.4 587.8 246.4Z" fill="#2B1E19"/>
<path d="M595.9 103.7C594 99.5003 592.1 95.3003 591 90.8003C589.9 86.3003 589.5 81.6003 590.6 77.1003C590.8 76.4003 592.4 71.8003 593.1 71.8003C593.6 71.8003 592.8 76.0003 593.1 76.4003C595.9 80.2003 597.1 85.1003 597.3 89.9003C597.3 94.6003 596.8 99.0003 595.9 103.7Z" fill="#263238"/>
<path d="M612.5 140.7C605.4 141.3 599.1 136.2 598.3 129.1L593.5 86.3002C591.9 74.8002 597.2 64.4002 608.6 63.0002L609.7 62.9002C620.5 62.3002 629.9 70.0002 631.4 80.7002C632.8 90.6002 634.2 101.6 634.4 107C634.9 118.1 623.9 120.4 623.9 120.4C623.9 120.4 625.3 127.7 625.6 130.9C626.3 138.3 619.8 140 612.5 140.7Z" fill="#C78976"/>
<path d="M623.9 120.4C623.9 120.4 616.9 121.2 609.2 116.9C609.2 116.9 613.2 124.8 624.2 123.1L623.9 120.4Z" fill="#AE4F32"/>
<path d="M627 89.8002C627.1 90.6002 626.4 91.4002 625.6 91.5002C624.7 91.6002 624 91.0002 623.9 90.2002C623.8 89.4002 624.5 88.6002 625.3 88.5002C626.1 88.4002 626.9 89.0002 627 89.8002Z" fill="#263238"/>
<path d="M629.3 85.5002C629.1 85.7002 627.9 84.9002 626.2 85.0002C624.5 85.1002 623.3 86.0002 623.1 85.8002C623 85.7002 623.2 85.3002 623.7 84.9002C624.2 84.5002 625.1 84.0002 626.2 84.0002C627.3 83.9002 628.2 84.3002 628.7 84.7002C629.2 85.0002 629.4 85.4002 629.3 85.5002Z" fill="#263238"/>
<path d="M610.8 91.1003C610.9 91.9003 610.2 92.7003 609.4 92.8003C608.5 92.9003 607.8 92.3003 607.7 91.5003C607.6 90.7003 608.3 89.9003 609.1 89.8003C610 89.6003 610.7 90.2003 610.8 91.1003Z" fill="#263238"/>
<path d="M612.7 87.1003C612.5 87.3003 611.3 86.5003 609.6 86.6003C607.9 86.7003 606.7 87.6003 606.5 87.4003C606.4 87.3003 606.6 86.9003 607.1 86.5003C607.6 86.1003 608.5 85.6003 609.6 85.6003C610.7 85.5003 611.6 85.9003 612.1 86.3003C612.6 86.6003 612.8 87.0003 612.7 87.1003Z" fill="#263238"/>
<path d="M619.5 99.8001C619.5 99.7001 620.5 99.5001 622.2 99.1001C622.6 99.0001 623 98.9001 623.1 98.6001C623.2 98.3001 623 97.8001 622.7 97.3001C622.2 96.3001 621.7 95.2001 621.2 94.1001C619.1 89.5001 617.6 85.7001 617.8 85.6001C618 85.5001 619.8 89.2001 621.9 93.8001C622.4 94.9001 622.9 96.0001 623.3 97.1001C623.5 97.6001 623.8 98.1001 623.6 98.8001C623.5 99.1001 623.2 99.4001 622.9 99.5001C622.6 99.6001 622.4 99.6001 622.2 99.6001C620.6 99.9001 619.5 99.9001 619.5 99.8001Z" fill="#263238"/>
<path d="M614.6 101.3C614.9 101.3 615 103.1 616.6 104.3C618.3 105.5 620.2 105.2 620.2 105.5C620.2 105.6 619.8 105.9 619 106C618.2 106.1 617 105.9 616 105.1C615 104.3 614.5 103.3 614.4 102.5C614.3 101.7 614.5 101.3 614.6 101.3Z" fill="#263238"/>
<path d="M612.6 81.2002C612.5 81.7002 610.7 81.5002 608.8 81.9002C606.8 82.2002 605.2 82.9002 604.9 82.5002C604.8 82.3002 605 81.9002 605.7 81.4002C606.3 80.9002 607.3 80.4002 608.5 80.2002C609.7 80.0002 610.8 80.1002 611.5 80.4002C612.2 80.6002 612.6 81.0002 612.6 81.2002Z" fill="#263238"/>
<path d="M628.3 79.2002C628 79.6002 626.8 79.3002 625.4 79.3002C624 79.3002 622.8 79.7002 622.5 79.3002C622.4 79.1002 622.5 78.7002 623 78.3002C623.5 77.9002 624.3 77.6002 625.3 77.5002C626.3 77.5002 627.1 77.8002 627.6 78.1002C628.2 78.6002 628.4 79.0002 628.3 79.2002Z" fill="#263238"/>
<path d="M594.9 94.4003C594.7 94.3003 587.2 92.6003 587.8 100.1C588.5 107.7 595.9 105.4 595.9 105.2C596 105 594.9 94.4003 594.9 94.4003Z" fill="#C78976"/>
<path d="M593.4 102.6C593.4 102.6 593.3 102.7 593.1 102.8C592.9 102.9 592.5 103 592.1 102.9C591.3 102.7 590.5 101.5 590.3 100.1C590.2 99.4003 590.3 98.7003 590.5 98.2003C590.7 97.6003 591 97.2003 591.4 97.1003C591.8 97.0003 592.1 97.2003 592.2 97.4003C592.3 97.6003 592.3 97.8003 592.3 97.8003C592.3 97.8003 592.5 97.7003 592.4 97.4003C592.4 97.3003 592.3 97.1003 592.1 97.0003C591.9 96.9003 591.6 96.8003 591.4 96.9003C590.8 97.0003 590.3 97.6003 590.1 98.2003C589.9 98.8003 589.7 99.6003 589.8 100.3C590 101.8 590.9 103.2 592 103.4C592.5 103.5 593 103.3 593.2 103.1C593.4 102.8 593.4 102.6 593.4 102.6Z" fill="#AE4F32"/>
<path d="M625.3 68.7002C626.5 67.9002 622.4 64.3002 619.3 63.2002C614.6 61.6002 607.5 61.0002 603.4 62.6002C598.5 64.5002 594.6 67.4002 592.5 72.3002C590.4 77.1002 590 82.6002 590.6 87.8002C590.8 89.4002 591.1 91.0002 592.1 92.3002C593.3 93.9002 595.4 94.7002 595.6 97.0002C595.7 97.8002 595.9 98.6002 596.5 99.2002C598.1 100.7 599.7 99.1002 600.3 97.6002C601.7 94.5002 601.5 90.9002 601.3 87.5002C601.2 85.1002 601 82.6002 600.1 80.4002C599.6 79.2002 598.9 78.0002 598.5 76.8002C598.1 75.6002 598 74.1002 598.7 73.0002C598.8 72.8002 599 72.6002 599.3 72.3002C601.3 70.2002 604.2 69.4002 607 70.1002C611.4 71.2002 618.8 72.7002 620.5 71.1002C621.6 70.0002 622.5 69.2002 623 68.7002C623.5 68.2002 624.4 68.1002 625 68.6002L625.3 68.7002Z" fill="#441A05"/>
<path d="M625.3 129L627.7 143.4L638 240.1C626.2 253.3 601.4 241.6 581.9 245L584.5 182.9C584.5 182.9 579.6 154.4 579.9 151.4C580.6 144.9 590.2 128.2 597.5 122.5L625.3 129Z" fill="#FC8E01"/>
<path d="M564.5 273.7L567.6 276.2L579.3 274.9L581.9 257.5H573.2L570.2 270.3L564.5 273.7Z" fill="#C78976"/>
<path d="M609.8 130.3C603.1 126.7 594.5 128.7 589.7 134.5C587.8 136.8 585.9 139.5 585 142.1C583.1 147.3 572.3 172.8 567.1 185.2C565.2 189.7 564.3 194.6 564.6 199.5L567.9 257.6H584.4L587.9 200.9L612.3 155C612.2 154.9 623 137.3 609.8 130.3Z" fill="#FC8E01"/>
<path d="M609.3 130C609.3 130 609.2 130 608.9 129.9C608.7 129.8 608.3 129.7 607.9 129.5C607.5 129.3 606.9 129.1 606.2 129C605.5 128.8 604.7 128.6 603.8 128.5C602 128.2 599.6 128.2 597.1 129.1C594.6 130 591.9 131.7 589.8 134.5C587.9 136.8 585.9 139.5 584.8 142.9C583.4 146.2 582 149.7 580.4 153.5C577.3 161 573.8 169.4 570 178.5C568.2 183.1 565.8 187.6 565.1 192.9C564.7 195.5 564.7 198.2 564.9 200.9C565.1 203.6 565.2 206.4 565.4 209.1C566 220.2 566.7 231.9 567.4 244C567.7 248.6 567.9 253.1 568.2 257.6L567.9 257.4C573.5 257.4 579 257.4 584.4 257.4L584.1 257.6C585.4 236.3 586.6 216.9 587.6 200.9C594.8 187.4 600.7 176.4 604.8 168.8C606.8 165 608.4 162.1 609.5 160C610 159 610.5 158.3 610.7 157.7C611 157.2 611.1 156.9 611.1 156.9C611.1 156.9 611 157.2 610.7 157.7C610.4 158.2 610 159 609.5 160C608.4 162 606.9 165 604.9 168.8C600.8 176.4 595 187.4 587.8 201V200.9C586.8 216.9 585.7 236.2 584.4 257.6V257.8H584.2C578.8 257.8 573.3 257.8 567.7 257.8H567.5V257.6C567.2 253.1 567 248.6 566.7 244C566 231.9 565.4 220.2 564.7 209.1C564.5 206.3 564.4 203.6 564.2 200.9C564 198.2 564 195.5 564.4 192.8C564.8 190.2 565.5 187.6 566.5 185.3C567.5 182.9 568.4 180.6 569.4 178.4C573.2 169.3 576.7 160.9 579.8 153.4C581.4 149.7 582.8 146.1 584.2 142.8C585.4 139.4 587.4 136.7 589.3 134.4C591.4 131.6 594.2 129.9 596.7 129C599.3 128.1 601.7 128.1 603.5 128.4C604.4 128.5 605.2 128.7 605.9 128.9C606.6 129.1 607.1 129.3 607.6 129.5C608 129.7 608.4 129.8 608.6 129.9C609.1 129.9 609.3 130 609.3 130Z" fill="#263238"/>
<path opacity="0.3" d="M585.6 243.6C585.6 243.6 587.6 243.6 589.2 231.6C590.8 219.6 593.2 200.2 593.2 200.2L609.2 160.9L587.8 201L585.6 243.6Z" fill="black"/>
<path d="M131 383.4L124.1 398.9C124.1 398.9 142.3 405.7 142.3 409.7L100.8 408.8L112.1 381.3L131 383.4Z" fill="#7D3120"/>
<g opacity="0.6">
<g opacity="0.6">
<g opacity="0.6">
<g opacity="0.6">
<g opacity="0.6">
<g opacity="0.6">
<g opacity="0.6">
<g opacity="0.6">
<path opacity="0.6" d="M108.1 395.7C107.3 395.9 106.7 396.8 106.8 397.6C106.9 398.4 107.8 399.1 108.7 398.9C109.5 398.7 110.3 397.7 110 396.9C109.8 396.1 108.7 395.4 107.9 395.8" fill="white"/>
</g>
</g>
</g>
</g>
</g>
</g>
</g>
</g>
<g opacity="0.6">
<g opacity="0.6">
<g opacity="0.6">
<g opacity="0.6">
<g opacity="0.6">
<g opacity="0.6">
<g opacity="0.6">
<path opacity="0.6" d="M100.8 408.9L101.8 406.4L141 407.8C141 407.8 142.3 408.4 142.5 410.1L100.8 408.9Z" fill="white"/>
</g>
</g>
</g>
</g>
</g>
</g>
</g>
<path d="M124.2 398.7C124.2 398.9 123.2 398.9 122.1 399.6C121 400.2 120.5 401 120.3 400.9C120.1 400.9 120.5 399.6 121.8 398.9C123.1 398.2 124.3 398.5 124.2 398.7Z" fill="#441A05"/>
<path d="M127.8 400.3C127.8 400.5 126.9 400.8 126.2 401.6C125.4 402.4 125.2 403.3 125 403.3C124.8 403.3 124.7 402.1 125.7 401.1C126.6 400.1 127.8 400.1 127.8 400.3Z" fill="#441A05"/>
<path d="M129.7 405.4C129.5 405.4 129.3 404.4 129.9 403.3C130.5 402.2 131.5 401.8 131.5 402C131.6 402.2 131 402.7 130.5 403.6C130 404.6 129.9 405.4 129.7 405.4Z" fill="#441A05"/>
<path d="M125 396.1C124.8 396.2 124.1 395.5 123.1 395.1C122 394.6 121.1 394.5 121.1 394.3C121.1 394.1 122.2 393.8 123.4 394.4C124.6 395 125.2 396 125 396.1Z" fill="#441A05"/>
<path d="M125.3 392.3C125.3 392.4 124.5 392.2 123.4 391.5C122.9 391.1 122.2 390.6 121.6 390C121.3 389.7 121 389.3 120.7 388.9C120.6 388.7 120.4 388.5 120.3 388.2C120.2 387.9 120.3 387.4 120.6 387.2C120.9 387 121.3 387 121.6 387.1C121.9 387.2 122.1 387.4 122.3 387.5C122.7 387.8 123 388.1 123.3 388.4C123.9 389.1 124.3 389.7 124.6 390.3C125.1 391.5 125.1 392.3 125.1 392.4C125 392.4 124.8 391.6 124.2 390.6C123.9 390.1 123.5 389.5 122.9 388.9C122.6 388.6 122.3 388.3 121.9 388.1C121.5 387.8 121.2 387.7 121 387.8C120.9 387.9 120.9 387.9 120.9 388C120.9 388.1 121.1 388.3 121.2 388.5C121.4 388.9 121.7 389.2 122 389.5C122.5 390.1 123.1 390.6 123.6 391C124.6 391.8 125.3 392.2 125.3 392.3Z" fill="#441A05"/>
<path d="M124.9 392.5C124.8 392.5 124.7 391.7 125.2 390.4C125.4 389.8 125.8 389.1 126.4 388.4C126.7 388.1 127 387.7 127.4 387.4C127.8 387.1 128.3 386.7 129.1 387C129.5 387.2 129.7 387.6 129.7 387.9C129.7 388.2 129.6 388.5 129.6 388.7C129.5 389.2 129.3 389.6 129 390C128.5 390.8 127.9 391.3 127.3 391.6C126.1 392.3 125.2 392.2 125.2 392.1C125.2 392 126 391.9 127 391.2C127.5 390.8 128 390.3 128.4 389.7C128.6 389.4 128.8 389 128.8 388.6C128.9 388.2 128.9 387.8 128.7 387.7C128.5 387.6 128.1 387.8 127.8 388C127.5 388.3 127.1 388.5 126.9 388.8C126.4 389.4 126 390 125.7 390.6C125.1 391.7 125 392.5 124.9 392.5Z" fill="#441A05"/>
<path d="M65.8001 363.6L49.1001 390.1L81.8001 411.4C83.6001 408.2 69.4001 390.1 69.4001 390.1L81.1001 372.6L65.8001 363.6Z" fill="#7D3120"/>
<g opacity="0.6">
<g opacity="0.6">
<g opacity="0.6">
<g opacity="0.6">
<g opacity="0.6">
<g opacity="0.6">
<g opacity="0.6">
<path opacity="0.6" d="M61.7 382.9C61 382.7 60.1 383.1 59.8 383.8C59.5 384.5 60 385.5 60.7 385.7C61.4 386 62.5 385.5 62.7 384.7C62.9 383.9 62.3 382.9 61.5 382.8" fill="white"/>
</g>
</g>
</g>
</g>
</g>
</g>
</g>
<g opacity="0.6">
<g opacity="0.6">
<g opacity="0.6">
<g opacity="0.6">
<g opacity="0.6">
<g opacity="0.6">
<path opacity="0.6" d="M49.1001 390.1L50.9001 387.5L81.7001 409C81.7001 409 82.7001 410.6 81.9001 411.5L49.1001 390.1Z" fill="white"/>
</g>
</g>
</g>
</g>
</g>
</g>
<path d="M69.7001 390.8C69.6001 391 68.7001 390.5 67.6001 390.5C66.5001 390.5 65.6001 390.9 65.5001 390.7C65.4001 390.6 66.2001 389.8 67.6001 389.8C69.0001 389.8 69.9001 390.6 69.7001 390.8Z" fill="#441A05"/>
<path d="M73.0001 395C72.9001 395.2 72.1001 395 71.1001 395.3C70.1001 395.6 69.5001 396.2 69.3001 396.1C69.1001 396 69.6001 395 70.9001 394.6C72.2001 394.3 73.1001 394.9 73.0001 395Z" fill="#441A05"/>
<path d="M72.4 400.2C72.2 400.1 72.5 399.2 73.5 398.6C74.5 398 75.5 398.1 75.4 398.3C75.4 398.5 74.6 398.6 73.8 399.2C73 399.7 72.5 400.3 72.4 400.2Z" fill="#441A05"/>
<path d="M72.3 386.2C72.1 386.3 71.5 385.6 70.6 385.1C69.7 384.6 68.8 384.4 68.8 384.2C68.8 384 69.9 383.9 71 384.5C72.1 385.1 72.5 386.1 72.3 386.2Z" fill="#263238"/>
<path d="M131.1 234.1C131.1 234.1 158.9 292.6 163.5 303.5C166.7 311.1 168.7 314.6 165.1 323.9C161.5 333.1 133.5 390.7 133.5 390.7L104.7 388.6L133.7 321.4L125.1 289.1L102.6 245.4L131.1 234.1Z" fill="#441A05"/>
<path d="M85.0001 229C85.0001 229 80.7001 227.8 80.6001 229.8C80.1001 237.9 79.3001 237.9 80.6001 252.6C80.8001 254.5 83.4001 263.6 84.2001 265.4L88.4001 275.5L94.3001 318.3L90.1001 329C90.1001 329 83.7001 332.1 81.3001 335.3C78.9001 338.5 53.9001 376.1 53.9001 376.1L76.6001 388.9C76.6001 388.9 123.5 334.2 126.3 323.3C129.1 312.5 127.5 257.7 127.5 257.7L125.5 234.8L85.0001 229Z" fill="#441A05"/>
<path d="M125.9 254.4C125.9 254.4 125.9 254.5 125.9 254.8C125.9 255.1 125.9 255.5 126 255.9C126.1 256.9 126.1 258.4 126.2 260.3C126.4 264.1 126.6 269.6 126.9 276.3C127.1 283.1 127.4 291.1 127.5 300.1C127.6 304.6 127.5 309.3 127.4 314.2C127.3 315.4 127.3 316.6 127.2 317.9C127.1 319.1 127 320.4 126.8 321.6C126.7 322.2 126.6 322.9 126.4 323.5L126.1 324.4L125.7 325.3C125.1 326.5 124.5 327.6 123.8 328.7C121.1 333.1 118.1 337.2 115.2 341.1C112.3 345 109.4 348.7 106.7 352.3C101.2 359.4 96.1002 365.6 91.8002 370.8C87.5002 376 84.0002 380.2 81.5002 383.1C80.3002 384.5 79.3002 385.6 78.7002 386.4C78.4002 386.8 78.1002 387 78.0002 387.3C77.8002 387.5 77.7002 387.6 77.7002 387.6C77.7002 387.6 77.8002 387.5 77.9002 387.3C78.1002 387.1 78.3002 386.8 78.6002 386.4C79.2002 385.6 80.2002 384.5 81.4002 383C83.8002 380 87.3002 375.8 91.5002 370.6C95.8002 365.3 100.8 359.1 106.3 352C109.1 348.5 111.9 344.7 114.8 340.8C117.7 336.9 120.7 332.8 123.4 328.4C124.1 327.3 124.7 326.2 125.3 325.1L125.7 324.2L126 323.3C126.1 322.7 126.2 322.1 126.3 321.5C126.5 320.3 126.5 319 126.7 317.8C126.8 316.6 126.8 315.3 126.9 314.1C127.1 309.2 127.1 304.5 127.1 300.1C127 291.1 126.8 283.1 126.6 276.3C126.4 269.6 126.2 264.1 126.1 260.3C126 258.4 126 257 126 255.9C126 255.4 126 255 126 254.8C125.9 254.5 125.9 254.4 125.9 254.4Z" fill="#260000"/>
<path d="M86.2002 101.3C86.3002 99.7 85.7002 98 86.3002 96.5C87.4002 94.1 91.1002 94.1 92.8002 92.1C95.4002 89.2 92.7002 84 95.3002 81.3C97.6002 78.8 100.8 79.1 102.8 76.4C103.8 75 102.8 71.9 106.3 70.6C108.5 69.7 111.4 70 113.6 69.2C116.8 68.1 117.8 65.8 121 64.9C124.9 63.8 128.3 68.4 132.3 68.5C135.8 68.6 139.2 65.2 142.4 66.6C145 67.8 145.5 71.4 147.9 72.8C150 74 153.1 73.2 154.8 74.9C156.7 76.7 155.7 80 157.3 82.1C158.9 84.2 162.4 84.4 163.3 86.8C164.4 89.6 160.7 92.6 161.7 95.4C162.1 96.5 163.1 97.3 163.9 98.2C165.6 100.1 166.2 102.7 165.6 105.1C165 107.5 163.1 109.5 160.7 110.4L117.7 124.4C112.8 127.5 106.4 128.3 100.8 126.5C98.9002 125.9 97.1002 125 95.8002 123.6C94.2002 121.9 93.4002 119.5 91.6002 117.9C90.1002 116.6 88.1002 116 86.2002 115.2C84.4002 114.4 82.5002 113.1 82.1002 111.1C81.6002 107.7 85.9002 104.9 86.2002 101.3Z" fill="#441A05"/>
<path d="M116 78.3001C113.5 76.7001 112.9 73.0001 114.2 70.4001C115.6 67.8001 118.4 66.2001 121.4 65.7001C125.6 65.0001 130.2 66.5001 133.2 69.6001C134.8 71.3001 136.1 73.4001 138.3 74.2001C140.2 74.9001 142.4 74.3001 144.4 74.5001C147.1 74.9001 149.4 76.8001 150.8 79.1001C152.2 81.5001 152.8 84.2001 153.1 86.9001C153.4 89.4001 153.6 92.1001 155.3 94.0001C157 95.8001 159.7 96.2001 161.8 97.4001C165.8 99.8001 167 105.7 164.4 109.5C163.6 110.7 162.4 111.8 162.3 113.3C162.2 114.6 163.1 115.8 163.5 117.1C164.5 120.4 161.8 124.3 158.4 124.5C156.7 124.6 154.8 123.9 153.2 124.7C151.6 125.5 151.1 127.3 150.1 128.8C148.1 131.6 144.1 132.7 141 131.1C139.7 130.5 138.5 129.4 137.1 129.5C135.7 129.6 134.6 130.8 133.2 131.1C131.4 131.5 129.6 130.1 128.5 128.6C127.4 127.1 126.7 125.3 125.3 124.1C123.5 122.5 120.9 122.1 118.6 121.3C113.5 119.5 109.2 115.5 107.2 110.5C105.2 105.5 105.4 99.6001 107.9 94.8001" fill="#441A05"/>
<path d="M109.4 137.8L106.7 88.9001C106.6 86.7001 108.2 84.9001 110.3 84.6001L132.2 78.4001C139.2 77.5001 144.2 86.0001 144.8 93.1001C145.5 101 146.1 110.6 145.3 116.5C143.8 128.4 134.8 130.1 134.8 130.1C134.8 130.1 135 140.7 135.1 145L134.3 159.8L109.4 137.8Z" fill="#FFBE9D"/>
<path d="M142.4 102.7C142.5 103.5 141.8 104.2 141 104.3C140.2 104.4 139.5 103.8 139.4 103C139.3 102.2 140 101.5 140.8 101.4C141.7 101.3 142.4 101.9 142.4 102.7Z" fill="#263238"/>
<path d="M142.9 98.1001C142.7 98.3001 141.5 97.5001 139.9 97.5001C138.3 97.5001 137.1 98.4001 136.9 98.2001C136.8 98.1001 137 97.8001 137.5 97.4001C138 97.0001 138.9 96.6001 139.9 96.6001C140.9 96.6001 141.8 96.9001 142.3 97.3001C142.8 97.6001 143 98.0001 142.9 98.1001Z" fill="#263238"/>
<path d="M126.8 102.7C126.9 103.5 126.2 104.2 125.4 104.3C124.6 104.4 123.9 103.8 123.8 103C123.7 102.2 124.4 101.5 125.2 101.4C126 101.3 126.7 101.9 126.8 102.7Z" fill="#263238"/>
<path d="M126.9 98.8C126.7 99 125.5 98.2 123.9 98.2C122.3 98.2 121.1 99.1 120.9 98.9C120.8 98.8 121 98.5 121.5 98.1C122 97.7 122.9 97.3 123.9 97.3C124.9 97.3 125.8 97.6 126.3 98C126.8 98.4 127 98.7 126.9 98.8Z" fill="#263238"/>
<path d="M133.2 110.7C133.2 110.6 134.2 110.4 135.8 110.1C136.2 110 136.6 110 136.7 109.7C136.8 109.4 136.6 109 136.4 108.5C136 107.5 135.5 106.5 135.1 105.4C133.3 100.9 131.9 97.3 132.1 97.2C132.3 97.1 133.9 100.7 135.8 105.1C136.2 106.2 136.7 107.2 137.1 108.3C137.3 108.8 137.6 109.3 137.4 109.9C137.3 110.2 137 110.4 136.7 110.5C136.4 110.6 136.2 110.6 136 110.6C134.2 110.8 133.2 110.8 133.2 110.7Z" fill="#263238"/>
<path d="M134.8 130C134.8 130 126.9 130.7 118.9 126.2C118.9 126.2 123.1 134.4 134.9 133L134.8 130Z" fill="#EB996E"/>
<path d="M133 114.6C131.9 113.8 129.3 112.6 128.3 112.5C127.5 112.4 128 113.4 127.6 114.2C127.2 115 127.2 116.1 127.7 116.8C128.3 117.7 129.5 117.9 130.4 117.7C131.3 117.5 132.1 116.8 132.8 116.1C133 115.9 133.2 115.7 133.3 115.5C133.3 115.3 133.3 114.9 133 114.6Z" fill="#EB996E"/>
<path d="M127.4 92.1C127.3 92.5 125.6 92.4 123.7 92.7C121.8 92.9 120.3 93.5 120 93.2C119.9 93 120.1 92.6 120.7 92.1C121.3 91.7 122.3 91.2 123.4 91.1C124.5 90.9 125.6 91.1 126.3 91.4C127.1 91.5 127.5 91.9 127.4 92.1Z" fill="#263238"/>
<path d="M142.2 92.5C141.9 92.9 140.8 92.5 139.4 92.5C138 92.5 136.9 92.8 136.6 92.4C136.5 92.2 136.6 91.8 137.1 91.5C137.6 91.1 138.4 90.8 139.3 90.8C140.2 90.8 141 91.1 141.5 91.5C142.1 91.9 142.3 92.3 142.2 92.5Z" fill="#263238"/>
<path d="M152.8 90.5C152.2 88.7 151.2 87 149.7 86C148.8 85.4 147.9 85.1 147.1 84.5C145.4 83.1 145 80.7 143.9 78.8C142.5 76.3 139.9 74.6 137.1 74.3C134.8 74.1 132.3 74.8 130.1 74.2C128.4 73.8 126.9 72.7 125.2 72.4C121.9 71.8 118.8 74.2 116.4 76.5C116.4 78.9 118.3 80.5 120.1 82C121.9 83.5 124.4 84.2 126.8 83.8C128.6 83.5 130.6 82.5 132.2 83.5C133.9 84.5 133.9 87 135.4 88.3C137.5 90.1 140.8 88.4 143.5 89.2C145.6 89.8 146.8 91.8 148.2 93.4C149.6 95.1 151.6 96.6 153.7 96C153.5 94.1 153.4 92.3 152.8 90.5Z" fill="#441A05"/>
<path d="M127.9 80.4C126.4 80 123.4 79 122.6 77.7C120.9 74.9 117.8 73 114.7 73.1C111.6 73.3 108.6 75.7 107.9 79C104.1 79 100.4 81.4 98.6002 85C98.4002 85.4 98.2002 85.9 98.0002 86.4C96.8002 88.5 96.6002 91.1 97.4002 93.3C97.9002 94.6 98.8002 96.1 98.1002 97.4C97.4002 98.7 95.6002 98.7 94.2002 99.2C91.8002 100 90.2002 102.8 90.8002 105.3C91.0002 106.2 91.4002 107.1 91.2002 108C91.0002 108.9 90.2002 109.6 89.6002 110.3C88.1002 112.1 87.6002 114.8 88.4002 117C89.2002 119.2 91.3002 121 93.6002 121.4C94.7002 121.6 95.8002 121.5 96.7002 122.1C97.8002 122.7 98.2002 124 99.0002 125C100.4 126.9 103.1 127.7 105.4 127C105.9 126.8 106.3 126.6 106.7 126.4C107.4 127.4 108.5 128.1 110.4 128.1L110 103.2C110.2 103.7 110.7 104.2 111.5 104.4C115.5 105.3 116.1 97.1 115.2 94.8C116.6 93.5 118.1 92.2 119.2 90.6C120.3 89 121.3 84.5 121 82.5C122.4 82.7 128.5 80.6 127.9 80.4Z" fill="#441A05"/>
<path d="M111 105.3C110.9 102.8 107.8 102.2 105.6 103.5C104.4 104.2 103.5 105.6 103.6 108.3C103.9 115.5 111 113.7 111 113.5C111 113.3 111.1 108.2 111 105.3Z" fill="#FFBE9D"/>
<path d="M108.7 110.8C108.7 110.8 108.6 110.9 108.4 111C108.2 111.1 107.8 111.2 107.5 111.1C106.7 110.9 106 109.7 106 108.4C106 107.7 106.1 107.1 106.3 106.6C106.5 106.1 106.8 105.7 107.2 105.6C107.6 105.5 107.9 105.7 108 105.9C108.1 106.1 108.1 106.2 108.1 106.3C108.1 106.3 108.2 106.2 108.2 105.9C108.2 105.8 108.1 105.6 107.9 105.5C107.7 105.4 107.5 105.3 107.2 105.3C106.6 105.4 106.2 105.9 105.9 106.5C105.6 107.1 105.5 107.8 105.5 108.5C105.6 109.9 106.4 111.3 107.4 111.5C107.9 111.6 108.3 111.4 108.5 111.3C108.7 111 108.7 110.8 108.7 110.8Z" fill="#EB996E"/>
<path d="M130 117.6C130 117.6 129.8 117.5 129.5 117.5C129.2 117.4 128.7 117.4 128.2 117.1C127 116.5 127.9 114.6 128.1 112.9C128.1 112.8 128.2 112.8 128.1 112.8C128 112.8 128.1 112.8 128.1 112.8H128.2C128.1 113.1 128.7 112.3 128.5 112.3H128.4H128.3C128.3 112.2 127.9 113.2 128.1 112.8L128.4 112.9C128.8 113.1 129.2 113.2 129.6 113.4C130.3 113.7 131 113.9 131.6 114.2C132.7 114.6 133.5 114.9 133.5 114.8C133.5 114.7 132.9 114.4 131.8 113.8C131.2 113.5 130.5 113.2 129.9 112.9C129.5 112.7 129.1 112.6 128.7 112.4L128.4 112.3C128.6 111.9 128.2 112.9 128.2 112.8H128.3H128.4V112.7L128.5 112.6C128.4 112.6 128.5 112.5 128.5 112.5C128.6 112.3 128.5 112.4 128.5 112.3C128.4 112.3 128.4 112.3 128.3 112.2C128.2 112.2 128.2 112.1 128 112.2C127.7 112.3 127.7 112.6 127.7 112.7C127.5 113.6 127.4 114.5 127.3 115.3C127.2 115.7 127.2 116.2 127.4 116.5C127.6 116.9 127.9 117.2 128.2 117.3C128.8 117.6 129.3 117.6 129.7 117.6C129.8 117.7 129.9 117.6 130 117.6Z" fill="#263238"/>
<path d="M107.9 128.2L108.7 133.7C101.5 137.1 91.2002 155.6 88.3002 165.8C85.4002 175.9 77.2001 221.5 77.2001 221.5L76.6001 221.9C73.8001 223.9 73.3001 227.6 75.6001 230.1C77.6001 232.3 80.3002 233.6 83.3002 233.8L128.8 236.9L137.3 239L133.7 190.4C133.7 190.4 142 184 140.7 169.8C140 162.3 137.7 147.3 137.7 147.3L136.5 139C136.5 139 137.3 133.8 137.2 132.3C137.2 131.6 136.6 131.1 136 131L109.7 127C108.8 126.8 108 127.4 107.9 128.2Z" fill="#FC8E01"/>
<path d="M113.6 134C113.5 134 113.3 132.6 113.3 130.8C113.3 129 113.5 127.6 113.7 127.6C113.8 127.6 113.8 129 113.8 130.8C113.7 132.6 113.7 134 113.6 134Z" fill="#263238"/>
<path d="M122.4 135.4C122.3 135.4 122.1 133.9 122.1 132.1C122.1 130.3 122.2 128.8 122.3 128.8C122.4 128.8 122.6 130.3 122.6 132.1C122.7 134 122.6 135.4 122.4 135.4Z" fill="#263238"/>
<path d="M130.6 136.6C130.5 136.6 130.5 135.2 130.6 133.6C130.7 131.9 130.8 130.6 130.9 130.6C131 130.6 131.2 132 131.1 133.7C131.1 135.2 130.8 136.6 130.6 136.6Z" fill="#263238"/>
<path d="M123.3 148.1C119.8 143.3 113.2 138.5 105.7 143.9C100.3 147.8 97.7002 152.3 93.9002 166.3C84.6002 200.4 85.7002 201.1 86.8002 202.5C87.9002 204 128.8 243.8 128.8 243.8L142 231.5L112.3 195.7C112.3 195.7 126.1 159.3 124.3 152.4C124.1 151.5 124 149.1 123.3 148.1Z" fill="#FC8E01"/>
<path d="M115.3 142C115.3 142 115.4 142 115.6 142.1C115.8 142.1 116.1 142.2 116.4 142.3C117.1 142.5 118.2 142.8 119.4 143.6C120.6 144.3 122 145.5 123 147.3C124 149.1 124.6 151.5 124.5 154.2C124.5 156.9 124 159.8 123 162.8C122 165.8 121 169.1 119.9 172.6C117.7 179.6 115.2 187.4 112.5 196V195.8C121.4 206.5 131.5 218.6 142.2 231.6L142.4 231.8L142.2 232C140.8 233.3 139.3 234.7 137.8 236.1C134.8 238.9 131.8 241.7 129 244.3L128.8 244.5L128.6 244.3C118.5 234.4 108.9 225 100.3 216.6C96.0002 212.4 91.9002 208.3 88.2002 204.5C87.7002 204 87.3002 203.6 86.8002 203.1C86.3002 202.6 86.2002 201.8 86.2002 201.2C86.2002 199.9 86.3002 198.6 86.5002 197.4C86.9002 194.9 87.4002 192.6 87.9002 190.4C89.9002 181.6 91.8002 174.6 93.1002 169.7C93.8002 167.3 94.3002 165.4 94.6002 164.2C94.8002 163.6 94.9002 163.1 95.0002 162.8C95.1002 162.5 95.2002 162.3 95.2002 162.3C95.2002 162.3 95.2002 162.5 95.1002 162.8C95.0002 163.1 94.9002 163.6 94.7002 164.2C94.4002 165.5 93.9002 167.4 93.3002 169.8C92.1002 174.6 90.2002 181.7 88.2002 190.5C87.7002 192.7 87.2002 195 86.9002 197.5C86.7002 198.7 86.6002 200 86.6002 201.2C86.6002 201.8 86.7002 202.5 87.2002 202.9C87.6002 203.4 88.1002 203.8 88.6002 204.3C92.4002 208.1 96.5002 212.1 100.8 216.3C109.4 224.7 119 234.1 129.1 244H128.7C131.5 241.4 134.5 238.6 137.5 235.8C139 234.4 140.5 233 141.9 231.7V232.1C131.2 219.1 121.1 207 112.2 196.3L112.1 196.2V196.1C114.8 187.6 117.3 179.7 119.6 172.7C121.7 165.7 124.4 159.7 124.3 154.4C124.3 151.8 123.8 149.4 122.9 147.6C121.9 145.8 120.6 144.6 119.4 143.9C118.2 143.2 117.2 142.8 116.5 142.6C116.2 142.5 115.9 142.4 115.7 142.4C115.4 142.1 115.3 142 115.3 142Z" fill="#263238"/>
<path d="M528.6 144.6L565.2 154.2C570.9 155.7 574.9 160.9 574.9 166.8V273.7H533H507.2V160.8C507.2 160.8 509.8 145.7 528.6 144.6Z" fill="#5D2312"/>
<path d="M554.5 154.7C554.5 154.7 554.4 154.7 554.2 154.7C554 154.7 553.6 154.7 553.2 154.8C552.3 154.9 551.1 155 549.5 155.4C547.9 155.8 546 156.4 543.9 157.4C541.9 158.5 539.6 160 537.9 162.3C537.5 162.9 537 163.5 536.7 164.2C536.3 164.9 536.1 165.6 535.8 166.3C535.6 166.7 535.6 167.1 535.5 167.5C535.4 167.9 535.3 168.3 535.3 168.7C535.2 169.5 535.1 170.3 535.1 171.2C535.1 174.7 535.1 178.4 535.1 182.2C535.1 190 535.1 198.5 535.1 207.5C535.1 225.4 535 241.7 535 253.5C535 259.4 534.9 264.1 534.9 267.4C534.9 269 534.9 270.3 534.9 271.2C534.9 271.6 534.9 271.9 534.9 272.2C534.9 272.4 534.9 272.5 534.9 272.5C534.9 272.5 534.9 272.4 534.9 272.2C534.9 272 534.9 271.6 534.9 271.2C534.9 270.3 534.9 269 534.9 267.4C534.9 264.1 534.9 259.3 534.8 253.5C534.8 241.7 534.8 225.5 534.7 207.5C534.7 198.5 534.7 190 534.7 182.2C534.7 178.3 534.7 174.6 534.7 171.2C534.7 170.3 534.8 169.5 534.9 168.6C534.9 168.2 535.1 167.8 535.1 167.4C535.2 167 535.3 166.6 535.4 166.2C535.7 165.4 535.9 164.7 536.4 164C536.7 163.3 537.2 162.7 537.6 162.1C539.4 159.7 541.7 158.2 543.8 157.1C545.9 156.1 547.9 155.5 549.5 155.2C551.1 154.9 552.4 154.8 553.3 154.7C553.7 154.7 554 154.7 554.3 154.7C554.4 154.7 554.5 154.7 554.5 154.7Z" fill="#281E1A"/>
<path d="M136.1 273.4L142.9 288.4H175.2L181.1 273.4H136.1Z" fill="#4F2011"/>
<path opacity="0.3" d="M136.1 273.4L138.6 278.9H178.9L181.1 273.4H136.1Z" fill="black"/>
<path d="M512.3 273.4L519.1 288.4H551.4L557.3 273.4H512.3Z" fill="#4F2011"/>
<path opacity="0.3" d="M512.3 273.4L514.8 278.9H555.1L557.3 273.4H512.3Z" fill="black"/>
<path d="M175.2 144.3L138.6 153.9C132.9 155.4 128.9 160.6 128.9 166.5V273.4H170.8H196.6V160.6C196.6 160.6 194 145.4 175.2 144.3Z" fill="#5D2312"/>
<path d="M175.2 119.6V144.4C175.2 144.4 194.4 150.3 196.6 165.1V188L356.3 188.5V122.2C356.3 119.2 354 116.7 351 116.5C325.6 114.9 217.1 108.5 181.4 112.8C177.8 113.1 175.2 116.1 175.2 119.6Z" fill="#5D2312"/>
<path d="M356.2 123.9V188.4L510 189C510 189 506 159.8 528.5 144.6L529.4 108.9C529.4 108.9 450.5 115.9 435.4 117.4C423.3 118.6 379.6 117.4 362.7 116.9C359.3 116.8 356.2 120 356.2 123.9Z" fill="#5D2312"/>
<path d="M522.3 189C523.9 191.2 534.3 198.2 534.3 198.2H168.5L196.5 187.9L522.3 189Z" fill="#6D2514"/>
<path d="M534.3 231.6H175.2V273.4H534.3V231.6Z" fill="#4F2011"/>
<path d="M534.2 198.1H168.9V231.6H534.2V198.1Z" fill="#5D2312"/>
<path d="M534.3 231.6C534.3 230.9 534.3 219.7 534.2 198.1L534.3 198.2C473.1 198.2 332.5 198.3 169 198.4L169.3 198.1C169.3 209.6 169.3 220.9 169.3 231.6L169 231.3C271.4 231.3 362.7 231.4 428.4 231.4C494.1 231.6 532.9 231.6 534.3 231.6C532.9 231.6 494.2 231.7 428.6 231.7C362.9 231.7 271.5 231.8 169 231.8H168.7V231.5C168.7 220.8 168.7 209.5 168.7 198V197.7H169C332.6 197.8 473.1 197.8 534.3 197.9H534.4V198C534.3 219.7 534.3 230.9 534.3 231.6Z" fill="#281E1A"/>
<path d="M534.3 198.1C534.3 198.1 534.2 198.1 533.9 197.9C533.6 197.8 533.2 197.6 532.7 197.4C531.7 197 530.2 196.3 528.2 195.5C524.2 193.8 518.4 191.2 510.8 187.9H510.9C479.5 187.9 419.9 188 351.6 188C286.5 187.9 229.3 187.9 196.6 187.9C187.7 191.1 180.7 193.7 175.9 195.4C173.5 196.3 171.7 196.9 170.4 197.4C169.8 197.6 169.3 197.8 169 197.9C168.7 198 168.5 198.1 168.5 198.1C168.5 198.1 168.7 198 169 197.9C169.3 197.8 169.8 197.6 170.4 197.4C171.6 196.9 173.5 196.3 175.8 195.4C180.6 193.6 187.6 191 196.5 187.7C229.2 187.7 286.4 187.6 351.5 187.6C419.8 187.7 479.4 187.7 510.8 187.7C518.3 191 524.2 193.6 528.2 195.4C530.2 196.3 531.7 197 532.7 197.4C533.2 197.6 533.6 197.8 533.8 197.9C534.2 198.1 534.3 198.1 534.3 198.1Z" fill="#281E1A"/>
<path d="M356.2 188.4C356.2 188.4 356.3 188.6 356.3 189.1C356.4 189.6 356.5 190.3 356.6 191.1C356.8 192.8 357.2 195.2 357.4 198.2C357.4 201.9 357.4 206.2 357.4 211C357.4 220.6 357.3 228.8 357.2 232H357C357 231 357.1 230.4 357.1 230.4C357.1 230.4 357.2 230.9 357.2 232H357C356.9 228.8 356.8 220.6 356.8 211C356.8 206.3 356.8 201.9 356.8 198.2C356.6 195.3 356.3 192.8 356.2 191.1C356.1 190.3 356.1 189.7 356 189.1C356.2 188.6 356.2 188.4 356.2 188.4Z" fill="#281E1A"/>
<path d="M196.6 187.9C196.6 187.9 196.6 187.7 196.6 187.3C196.6 186.9 196.6 186.3 196.6 185.6C196.6 184.1 196.6 182 196.6 179.5C196.6 176.9 196.6 173.9 196.6 170.5C196.6 168.8 196.5 167 196.4 165.2C196.3 163.4 196.2 161.4 195.9 159.5C195.3 155.7 193.5 152.2 191.3 149.8C188.9 147.4 186 146.3 183.5 145.6C181 144.9 179 144.7 177.5 144.6C176.1 144.5 175.3 144.4 175.3 144.4C175.3 144.4 175.5 144.4 175.9 144.4C176.3 144.4 176.8 144.4 177.6 144.4C179 144.5 181.1 144.7 183.7 145.3C186.2 146 189.2 147 191.7 149.5C194 152 195.9 155.5 196.5 159.5C196.8 161.5 196.9 163.4 197 165.2C197.1 167.1 197.1 168.8 197.2 170.6C197.2 174 197.2 177.1 197.1 179.7C197 182.3 197 184.4 196.9 185.8C196.9 186.5 196.8 187 196.8 187.5C196.6 187.7 196.6 187.9 196.6 187.9Z" fill="#281E1A"/>
<path d="M149.3 154.5C149.3 154.5 149.4 154.5 149.6 154.5C149.8 154.5 150.2 154.5 150.6 154.5C151.5 154.5 152.7 154.6 154.4 155C156 155.3 158 155.9 160.1 156.9C162.2 158 164.5 159.5 166.3 161.9C166.7 162.5 167.2 163.1 167.5 163.8C167.9 164.5 168.2 165.2 168.5 166C168.7 166.4 168.7 166.8 168.8 167.2C168.9 167.6 169 168 169 168.4C169.1 169.2 169.2 170.1 169.2 171C169.2 174.5 169.2 178.2 169.2 182C169.2 189.8 169.2 198.3 169.2 207.3C169.2 225.2 169.1 241.5 169.1 253.3C169.1 259.2 169 263.9 169 267.2C169 268.8 169 270.1 169 271C169 271.4 169 271.7 169 272C169 272.2 169 272.3 169 272.3C169 272.3 169 272.2 169 272C169 271.8 169 271.4 169 271C169 270.1 169 268.8 169 267.2C169 263.9 169 259.1 168.9 253.3C168.9 241.5 168.9 225.3 168.8 207.3C168.8 198.3 168.8 189.8 168.8 182C168.8 178.1 168.8 174.4 168.8 171C168.8 170.1 168.7 169.3 168.6 168.5C168.6 168.1 168.4 167.7 168.4 167.3C168.3 166.9 168.3 166.5 168.1 166.1C167.8 165.4 167.6 164.6 167.2 164C166.9 163.3 166.4 162.7 166 162.1C164.3 159.8 162 158.2 160 157.2C157.9 156.1 156 155.6 154.4 155.2C152.8 154.9 151.5 154.7 150.7 154.6C150.3 154.6 150 154.6 149.7 154.5C149.4 154.5 149.3 154.5 149.3 154.5Z" fill="#281E1A"/>
<path d="M129.3 273.3C162.8 273.3 500.8 273.5 534.3 273.5L129.3 273.3Z" fill="#455A64"/>
<path d="M534.3 273.4C534.3 273.5 443.6 273.6 331.8 273.6C219.9 273.5 129.3 273.4 129.3 273.2C129.3 273.1 219.9 273 331.8 273C443.6 273.1 534.3 273.3 534.3 273.4Z" fill="#281E1A"/>
<path d="M211.1 211.8C211 211.8 210.9 211.1 210.8 209.9C210.7 208.7 210.7 207 210.9 205.2C211.1 203.4 211.5 201.7 211.9 200.6C212.3 199.5 212.6 198.8 212.7 198.8C212.9 198.9 211.8 201.6 211.4 205.3C210.9 208.8 211.3 211.8 211.1 211.8Z" fill="#281E1A"/>
<path d="M216.8 217.6C216.7 217.6 216.4 216.6 216.1 214.9C215.7 213.2 215.4 210.9 215.2 208.3C215 205.7 215.1 203.3 215.2 201.6C215.3 199.9 215.5 198.8 215.6 198.9C215.7 198.9 215.6 200 215.6 201.7C215.6 203.4 215.6 205.8 215.7 208.3C215.9 210.9 216.2 213.2 216.4 214.9C216.7 216.5 216.9 217.5 216.8 217.6Z" fill="#281E1A"/>
<path d="M356 189.1C355.9 189.1 355.7 174 355.7 155.3C355.7 136.6 355.8 121.5 356 121.5C356.1 121.5 356.3 136.6 356.3 155.3C356.3 174 356.2 189.1 356 189.1Z" fill="#263238"/>
<path d="M202 134.2C202 134.3 201.3 135 200 136.1C198.8 137.3 197.1 138.9 195.4 140.9C193.7 142.9 192.3 144.7 191.3 146.1C190.3 147.5 189.7 148.4 189.7 148.3C189.6 148.3 190.1 147.3 191 145.9C191.9 144.5 193.3 142.5 195 140.5C196.7 138.5 198.5 136.9 199.8 135.8C201.1 134.7 202 134.1 202 134.2Z" fill="#281E1A"/>
<path d="M198.2 147.4C198.2 147.5 196.8 148 195.1 148.5C193.3 149 191.9 149.3 191.9 149.1C191.9 149 193.3 148.5 195 148C196.8 147.5 198.2 147.3 198.2 147.4Z" fill="#281E1A"/>
<path d="M306 149.7C306 149.7 306.2 149.5 306.8 149.5C307.3 149.5 308.1 149.6 308.8 150.1C309.5 150.6 310.3 151.7 310.1 152.9C310 154.1 309.1 155.5 307.7 155.9C306.3 156.3 304.8 155.6 304.1 154.6C303.3 153.6 303.4 152.3 303.7 151.5C304.1 150.6 304.7 150.1 305.1 149.9C305.5 149.7 305.8 149.6 305.8 149.7C305.8 149.7 305.6 149.8 305.2 150.1C304.8 150.4 304.3 150.9 304 151.7C303.7 152.5 303.7 153.5 304.4 154.4C305 155.2 306.3 155.8 307.5 155.5C308.7 155.2 309.4 154 309.6 153C309.7 151.9 309.2 151 308.5 150.5C307.8 150 307.2 149.8 306.7 149.8C306.3 149.7 306 149.8 306 149.7Z" fill="#281E1A"/>
<path d="M317.2 148.1C317.2 148.3 315 148 312.8 149.3C310.5 150.6 309.6 152.6 309.5 152.5C309.4 152.5 309.6 151.9 310.1 151.2C310.6 150.5 311.4 149.5 312.6 148.9C313.8 148.2 315 148 315.9 147.9C316.7 147.8 317.2 148 317.2 148.1Z" fill="#281E1A"/>
<path d="M312.1 159.3C312 159.3 311.6 158.2 310.7 157C309.9 155.8 308.9 155 309 154.9C309.1 154.8 310.2 155.4 311.1 156.7C312.1 158 312.3 159.3 312.1 159.3Z" fill="#281E1A"/>
<path d="M304.3 152.2C304.2 152.2 304.1 151.7 303.6 151.1C303.2 150.4 302.4 149.6 301.4 149C300.4 148.4 299.3 148.1 298.5 148.1C297.7 148 297.2 148.1 297.2 148.1C297.2 148 297.7 147.8 298.5 147.8C299.4 147.8 300.6 148 301.7 148.6C302.8 149.3 303.6 150.2 304 151C304.3 151.7 304.3 152.2 304.3 152.2Z" fill="#281E1A"/>
<path d="M240.1 149.7C240.1 149.7 240.3 149.5 240.9 149.5C241.4 149.5 242.2 149.6 242.9 150.1C243.6 150.6 244.4 151.7 244.2 152.9C244.1 154.1 243.2 155.5 241.8 155.9C240.4 156.3 238.9 155.6 238.2 154.6C237.4 153.6 237.5 152.3 237.8 151.5C238.2 150.6 238.8 150.1 239.2 149.9C239.6 149.7 239.9 149.6 239.9 149.7C239.9 149.7 239.7 149.8 239.3 150.1C238.9 150.4 238.4 150.9 238.1 151.7C237.8 152.5 237.8 153.5 238.5 154.4C239.1 155.2 240.4 155.8 241.6 155.5C242.8 155.2 243.5 154 243.7 153C243.8 151.9 243.3 151 242.6 150.5C241.9 150 241.3 149.8 240.8 149.8C240.4 149.7 240.1 149.8 240.1 149.7Z" fill="#281E1A"/>
<path d="M251.3 148.1C251.3 148.3 249.1 148 246.9 149.3C244.6 150.6 243.7 152.6 243.6 152.5C243.5 152.5 243.7 151.9 244.2 151.2C244.7 150.5 245.5 149.5 246.7 148.9C247.9 148.2 249.1 148 250 147.9C250.8 147.8 251.3 148 251.3 148.1Z" fill="#281E1A"/>
<path d="M246.2 159.3C246.1 159.3 245.7 158.2 244.8 157C244 155.8 243 155 243.1 154.9C243.2 154.8 244.3 155.4 245.2 156.7C246.2 158 246.3 159.3 246.2 159.3Z" fill="#281E1A"/>
<path d="M238.4 152.2C238.3 152.2 238.2 151.7 237.7 151.1C237.3 150.4 236.5 149.6 235.5 149C234.5 148.4 233.4 148.1 232.6 148.1C231.8 148 231.3 148.1 231.3 148.1C231.3 148 231.8 147.8 232.6 147.8C233.5 147.8 234.7 148 235.8 148.6C236.9 149.3 237.7 150.2 238.1 151C238.4 151.7 238.4 152.2 238.4 152.2Z" fill="#281E1A"/>
<path d="M467.6 150.2C467.6 150.2 467.8 150 468.4 150C468.9 150 469.7 150.1 470.4 150.6C471.1 151.1 471.901 152.2 471.701 153.4C471.601 154.6 470.7 156 469.3 156.4C467.9 156.8 466.401 156.1 465.701 155.1C464.901 154.1 465 152.8 465.3 152C465.7 151.1 466.301 150.6 466.701 150.4C467.101 150.2 467.4 150.1 467.4 150.2C467.4 150.2 467.2 150.3 466.8 150.6C466.4 150.9 465.9 151.4 465.6 152.2C465.3 153 465.3 154 466 154.9C466.6 155.7 467.9 156.3 469.1 156C470.3 155.7 471.001 154.5 471.201 153.5C471.301 152.4 470.8 151.5 470.1 151C469.4 150.5 468.8 150.3 468.3 150.3C467.9 150.1 467.6 150.2 467.6 150.2Z" fill="#281E1A"/>
<path d="M478.8 148.5C478.8 148.7 476.6 148.4 474.4 149.7C472.1 151 471.2 153 471.1 152.9C471 152.9 471.2 152.3 471.7 151.6C472.2 150.9 473 149.9 474.2 149.3C475.4 148.6 476.6 148.4 477.5 148.3C478.3 148.3 478.8 148.5 478.8 148.5Z" fill="#281E1A"/>
<path d="M473.7 159.8C473.6 159.8 473.2 158.7 472.3 157.5C471.5 156.3 470.5 155.5 470.6 155.4C470.7 155.3 471.8 155.9 472.7 157.2C473.7 158.4 473.8 159.7 473.7 159.8Z" fill="#281E1A"/>
<path d="M465.9 152.7C465.8 152.7 465.7 152.2 465.2 151.6C464.8 150.9 464 150.1 463 149.5C462 148.9 460.9 148.6 460.1 148.6C459.3 148.5 458.8 148.6 458.8 148.6C458.8 148.5 459.3 148.3 460.1 148.3C461 148.3 462.2 148.5 463.3 149.1C464.4 149.8 465.2 150.7 465.6 151.5C465.9 152.1 465.9 152.7 465.9 152.7Z" fill="#281E1A"/>
<path d="M401.7 150.2C401.7 150.2 401.9 150 402.5 150C403 150 403.8 150.1 404.5 150.6C405.2 151.1 406 152.2 405.8 153.4C405.7 154.6 404.8 156 403.4 156.4C402 156.8 400.5 156.1 399.8 155.1C399 154.1 399.1 152.8 399.4 152C399.8 151.1 400.4 150.6 400.8 150.4C401.2 150.2 401.5 150.1 401.5 150.2C401.5 150.2 401.3 150.3 400.9 150.6C400.5 150.9 400 151.4 399.7 152.2C399.4 153 399.4 154 400.1 154.9C400.7 155.7 402 156.3 403.2 156C404.4 155.7 405.1 154.5 405.3 153.5C405.4 152.4 404.9 151.5 404.2 151C403.5 150.5 402.9 150.3 402.4 150.3C402 150.1 401.7 150.2 401.7 150.2Z" fill="#281E1A"/>
<path d="M412.9 148.5C412.9 148.7 410.7 148.4 408.5 149.7C406.2 151 405.3 153 405.2 152.9C405.1 152.9 405.3 152.3 405.8 151.6C406.3 150.9 407.1 149.9 408.3 149.3C409.5 148.6 410.7 148.4 411.6 148.3C412.3 148.3 412.9 148.5 412.9 148.5Z" fill="#281E1A"/>
<path d="M407.8 159.8C407.7 159.8 407.3 158.7 406.4 157.5C405.6 156.3 404.6 155.5 404.7 155.4C404.8 155.3 405.9 155.9 406.8 157.2C407.8 158.4 407.9 159.7 407.8 159.8Z" fill="#281E1A"/>
<path d="M399.9 152.7C399.8 152.7 399.7 152.2 399.2 151.6C398.8 150.9 398 150.1 397 149.5C396 148.9 394.9 148.6 394.1 148.6C393.3 148.5 392.8 148.6 392.8 148.6C392.8 148.5 393.3 148.3 394.1 148.3C395 148.3 396.2 148.5 397.3 149.1C398.4 149.8 399.2 150.7 399.6 151.5C400 152.1 400 152.7 399.9 152.7Z" fill="#281E1A"/>
<path d="M529.2 143.5C529.2 143.5 529.1 143.6 528.8 143.9C528.5 144.2 528.1 144.5 527.7 144.9C527.2 145.3 526.6 145.8 526 146.5C525.4 147.1 524.6 147.8 523.9 148.7C523.5 149.1 523.1 149.6 522.7 150C522.3 150.5 521.9 151 521.5 151.5C520.6 152.5 519.8 153.7 519 155C517.3 157.5 515.7 160.4 514.3 163.6C512.9 166.8 512 170 511.3 172.9C511 174.4 510.7 175.8 510.5 177.1C510.4 177.8 510.3 178.4 510.2 179C510.1 179.6 510.1 180.2 510 180.8C509.9 181.9 509.9 183 509.9 183.9C509.9 184.8 509.9 185.6 509.9 186.2C509.9 186.8 509.9 187.3 509.9 187.7C509.9 188 509.9 188.2 509.9 188.2C509.9 188.2 509.9 188 509.8 187.7C509.8 187.3 509.7 186.8 509.7 186.2C509.6 185.6 509.6 184.8 509.6 183.9C509.6 183 509.6 181.9 509.7 180.8C509.7 180.2 509.8 179.6 509.8 179C509.8 178.4 510 177.7 510 177.1C510.1 175.8 510.4 174.3 510.7 172.8C511.4 169.8 512.4 166.6 513.7 163.4C515.1 160.2 516.8 157.3 518.5 154.7C519.4 153.5 520.2 152.3 521.1 151.2C521.5 150.7 521.9 150.2 522.4 149.7C522.8 149.2 523.2 148.8 523.6 148.4C524.4 147.5 525.2 146.9 525.8 146.2C526.5 145.6 527.1 145.1 527.6 144.7C528.1 144.3 528.4 144 528.8 143.8C529 143.6 529.2 143.5 529.2 143.5Z" fill="#281E1A"/>
<path d="M522.5 124.5C522.4 124.5 522.6 123.5 522.5 121.9C522.3 120.4 521.6 118.2 520 116.5C518.3 114.8 516.2 114 514.6 113.8C513 113.6 512.1 113.8 512 113.7C512 113.7 512.2 113.6 512.7 113.5C513.1 113.4 513.8 113.4 514.6 113.4C516.2 113.5 518.5 114.2 520.3 116.1C522.1 117.9 522.8 120.2 522.8 121.8C522.8 122.6 522.8 123.3 522.7 123.7C522.6 124.3 522.5 124.5 522.5 124.5Z" fill="#281E1A"/>
<path d="M523.7 135.5C523.6 135.5 523.4 133.8 523.4 131.8C523.4 129.7 523.5 128.1 523.7 128.1C523.8 128.1 524 129.8 524 131.8C524 133.8 523.9 135.5 523.7 135.5Z" fill="#281E1A"/>
<path d="M440.1 151.8C440 151.8 439.6 150.7 438.9 148.8C438.2 147 437 144.5 435.6 141.9C434.1 139.3 432.6 137 431.4 135.4C430.2 133.8 429.5 132.8 429.5 132.8C429.5 132.8 429.8 133 430.1 133.4C430.5 133.8 431 134.4 431.6 135.2C432.8 136.7 434.4 139 435.9 141.7C437.4 144.4 438.5 146.9 439.1 148.8C439.4 149.7 439.7 150.5 439.8 151C440.1 151.5 440.1 151.8 440.1 151.8Z" fill="#281E1A"/>
<path d="M439 136.6C438.9 136.6 438.6 134.5 438.4 131.8C438.2 129.1 438.1 127 438.3 127C438.4 127 438.7 129.1 438.9 131.8C439.1 134.4 439.1 136.6 439 136.6Z" fill="#281E1A"/>
<g opacity="0.3">
<path opacity="0.3" d="M507.3 232.4C400.4 238.3 291.2 238.1 184.6 231.6L507.3 232.4Z" fill="black"/>
</g>
<g opacity="0.3">
<path opacity="0.3" d="M363 191.2C362.4 190.6 361.5 190.3 360.6 190C355.7 188.6 350.2 188.6 345.9 185.8C342.6 183.7 340.5 180.2 338.6 176.8C332.7 166.4 327.5 155.6 323 144.6L318.1 153.8C315 163.4 312.4 173.1 310.4 183C310 185 309.6 187.1 310.5 188.9C311.6 191.1 314.1 192.1 316.5 192.8C330.8 197.1 346.2 198 360.9 195.2C362 195 363.3 194.6 363.7 193.6C364.1 192.8 363.7 191.8 363 191.2Z" fill="black"/>
</g>
<path d="M379.9 194.5C358.4 197.3 338.2 196.3 319.7 189.7C315.6 167.5 317.9 149.3 324.5 129.5C343 128.6 363.2 130.4 384.7 134.3C386.9 155.3 384.9 175.2 379.9 194.5Z" fill="#FCB700"/>
<path d="M375.3 153.2C375.3 153.2 375 153.7 374.2 154.4C373.9 154.8 373.4 155.3 372.9 155.8C372.4 156.3 371.8 156.9 371.1 157.5C369.7 158.8 368 160.2 366 161.6C364 163 361.7 164.5 359.2 165.9C356.7 167.3 354.2 168.4 351.9 169.3C349.6 170.2 347.5 170.9 345.7 171.3C343.9 171.8 342.4 172.1 341.4 172.3C340.4 172.5 339.8 172.6 339.8 172.5C339.8 172.5 340.4 172.3 341.4 172.1C342.4 171.9 343.9 171.5 345.7 171C347.5 170.5 349.6 169.8 351.9 168.9C354.2 168 356.6 166.9 359.1 165.5C361.6 164.1 363.8 162.7 365.9 161.3C367.9 159.9 369.6 158.5 371 157.3C371.7 156.7 372.3 156.1 372.9 155.6C373.5 155.1 373.9 154.7 374.3 154.3C374.9 153.5 375.3 153.1 375.3 153.2Z" fill="#263238"/>
<path d="M367.3 170.4C367.3 170.5 363.9 170.9 359.6 171.2C355.3 171.5 351.9 171.7 351.9 171.5C351.9 171.4 355.3 171 359.6 170.7C363.8 170.4 367.3 170.3 367.3 170.4Z" fill="#263238"/>
<path d="M354.701 131C354.801 131.1 346.801 135.4 337.001 140.5C327.201 145.6 319.101 149.7 319.101 149.5C319.001 149.4 327.001 145.1 336.801 140C346.601 134.9 354.701 130.9 354.701 131Z" fill="white"/>
<path d="M385.1 138.6C385.1 138.6 384.9 138.7 384.4 139C383.9 139.2 383.2 139.5 382.4 139.9C380.6 140.7 378.2 141.8 375.1 143.2C369 146 360.5 150 351.2 154.4C341.9 158.9 333.6 163.1 327.6 166.2C324.6 167.7 322.2 169 320.5 169.8C319.7 170.2 319 170.5 318.6 170.8C318.2 171 317.9 171.1 317.9 171.1C317.9 171.1 318.1 170.9 318.5 170.7C319 170.4 319.6 170.1 320.4 169.6C322.1 168.7 324.5 167.4 327.5 165.8C333.5 162.6 341.8 158.4 351.1 153.9C360.4 149.4 368.9 145.5 375.1 142.8C378.2 141.4 380.7 140.3 382.4 139.6C383.2 139.3 383.9 139 384.4 138.8C384.8 138.7 385 138.6 385.1 138.6Z" fill="white"/>
<path d="M382.5 168.3C382.5 168.3 382.3 168.4 381.9 168.6C381.5 168.8 380.9 169.1 380.2 169.4C378.7 170.1 376.5 171.1 373.8 172.3C368.4 174.6 360.7 177.7 352.2 180.6C343.6 183.5 335.7 185.8 330 187.2C327.1 187.9 324.8 188.5 323.2 188.9C322.4 189.1 321.8 189.2 321.3 189.3C320.9 189.4 320.6 189.4 320.6 189.4C320.6 189.4 320.8 189.3 321.2 189.2C321.7 189.1 322.3 188.9 323 188.7C324.7 188.3 327 187.6 329.8 186.9C335.5 185.3 343.4 183 351.9 180.1C360.5 177.2 368.1 174.2 373.6 171.9C376.3 170.8 378.5 169.9 380.1 169.2C380.8 168.9 381.4 168.7 381.9 168.5C382.3 168.4 382.5 168.3 382.5 168.3Z" fill="white"/>
<path d="M382 187.7C382 187.8 381.2 188.4 379.9 189.2C378.5 190 376.6 191.1 374.4 192.1C372.2 193.1 370.1 193.8 368.5 194.3C367 194.7 366 194.9 366 194.9C366 194.8 366.9 194.5 368.4 194C369.9 193.5 371.901 192.7 374.201 191.7C376.401 190.7 378.401 189.7 379.701 188.9C381.101 188.1 382 187.6 382 187.7Z" fill="white"/>
<path d="M319.6 190C319.6 190 319.6 189.8 319.7 189.4C319.8 189 319.9 188.4 320.1 187.7C320.4 186.2 320.9 184.1 321.5 181.4C322.6 176.1 323.8 168.7 324.6 160.4C325.4 152.2 325.5 144.6 325.5 139.2C325.5 136.5 325.4 134.3 325.3 132.8C325.3 132.1 325.3 131.5 325.3 131.1C325.3 130.7 325.3 130.5 325.3 130.5C325.3 130.5 325.3 130.7 325.4 131.1C325.4 131.6 325.5 132.1 325.5 132.8C325.6 134.3 325.7 136.5 325.8 139.2C326 144.6 325.9 152.2 325.1 160.4C324.3 168.7 323 176.1 321.8 181.4C321.2 184.1 320.7 186.2 320.3 187.7C320.1 188.4 320 188.9 319.8 189.4C319.7 189.8 319.6 190 319.6 190Z" fill="#263238"/>
<g opacity="0.3">
<path opacity="0.3" d="M373.4 155.2C363.7 165.4 352.7 169.1 341.9 171.8C348 173.3 354.6 172.5 360.3 169.7C365.9 166.9 370.5 162.1 373.1 156.4" fill="black"/>
</g>
<g opacity="0.3">
<path opacity="0.3" d="M324.9 133.2C322.3 142 322 151 320.6 160.1C319.3 169.2 318.2 178.9 320 187.6C324.6 170.4 327.2 150.9 324.9 133.2Z" fill="black"/>
</g>
</g>
<defs>
<clipPath id="clip0_17_6">
<rect width="696.1" height="413.8" fill="white"/>
</clipPath>
</defs>
</svg>
