<svg width="547" height="369" viewBox="0 0 547 369" fill="none" xmlns="http://www.w3.org/2000/svg">
<g clip-path="url(#clip0_25_1107)">
<path d="M290.9 100.2C266.6 96.8001 243.6 87.3001 223.7 72.9001C194 51.4001 131.9 14.8001 72.7 33.0001C-9.09999 58.1001 -9.39998 130.9 11.9 170.4C33.2 209.9 184.1 325.6 379.8 307.2C554.9 290.7 589 102.1 495.6 68.0001C414.6 38.4001 387 113.8 290.9 100.2Z" fill="#EAD5B9"/>
<path d="M88.3 245C88.3 245 76.1 239.4 71.3 249.1C66.5 258.8 84 268.8 93.5 265.9C103 263.1 101.3 248.8 88.3 245Z" fill="#EAD5B9"/>
<path d="M281.2 69.9C281.2 69.9 267.9 65.7 264.2 76.3C260.5 86.9 279.8 94.9 289.2 90.7C298.7 86.6 295.1 72.1 281.2 69.9Z" fill="#EAD5B9"/>
<path d="M263.1 368.5C362.732 368.5 443.5 360.531 443.5 350.7C443.5 340.869 362.732 332.9 263.1 332.9C163.468 332.9 82.7 340.869 82.7 350.7C82.7 360.531 163.468 368.5 263.1 368.5Z" fill="#DBBF9F"/>
<path d="M364.2 324.2C362.1 326.3 359.8 328.4 357.2 330.3C344.7 339.9 327.3 346.8 304.3 349.1C186.5 360.9 147.6 305.6 138.1 220.6C133.9 182.7 143.8 157.7 156.1 141.6C157.4 139.9 158.7 138.3 160 136.9C160.7 136.1 161.5 135.2 162.3 134.4C178.2 118.2 201.1 110.5 223.6 114.2C241.3 117.1 257.4 126.6 270.5 145.5C291.4 175.7 271.6 201.7 331.3 203.5C377 204.9 406 282.6 364.2 324.2Z" fill="#003986"/>
<g opacity="0.5">
<g opacity="0.5">
<path opacity="0.5" d="M183.9 140.7C183.9 140.7 170 170.5 186.1 225.2C202.2 279.9 223.5 275.6 237.2 275.6C261.2 275.6 309.9 253 319.4 235.1C328.9 217.2 311 216.2 277.3 213.6C243.8 210.9 218.7 128.9 183.9 140.7Z" fill="#13131A"/>
</g>
</g>
<path d="M214.1 298.5C213.8 298.5 213.6 298.4 213.4 298.2C213 297.8 213 297.2 213.4 296.8C225.4 285.4 236.9 278.6 244.4 275C252.6 271 257.8 269.8 258.1 269.8C258.6 269.7 259.2 270 259.3 270.6C259.4 271.1 259.1 271.7 258.5 271.8C258.3 271.9 237.3 276.9 214.8 298.3C214.6 298.4 214.4 298.5 214.1 298.5Z" fill="#1F2E5B"/>
<path d="M218.1 285.1C217.8 285.1 217.5 284.9 217.3 284.7C217 284.2 217.1 283.6 217.6 283.3C218.1 283 229.3 275.6 246.6 273.7C247.1 273.6 247.6 274 247.7 274.6C247.8 275.2 247.4 275.6 246.8 275.7C230 277.5 218.8 284.9 218.7 285C218.5 285.1 218.3 285.1 218.1 285.1Z" fill="#1F2E5B"/>
<path d="M181.8 202.3C181.3 202.3 180.9 201.9 180.8 201.4C179.3 189.8 174.4 181 170.4 175.6C166.1 169.7 162.2 166.6 162.1 166.6C161.7 166.3 161.6 165.6 161.9 165.2C162.2 164.8 162.9 164.7 163.3 165C163.5 165.1 167.5 168.3 171.9 174.4C176 180 181.2 189.2 182.7 201.2C182.8 201.7 182.4 202.2 181.8 202.3C181.9 202.3 181.8 202.3 181.8 202.3Z" fill="#1F2E5B"/>
<path d="M364.2 324.2C362.1 326.3 359.8 328.4 357.2 330.3C342.7 339 325 344.7 305.5 347C299.5 347.7 293.4 348 287.3 348C270.5 348 253.6 345.4 237.7 340.2C196.4 326.8 166.5 298.2 153.7 259.5C146.7 238.3 143.2 217.7 143.4 198.3C143.6 182.7 146.1 167.9 150.9 154.1C152.5 149.5 154.2 145.4 156 141.7C157.3 140 158.6 138.4 159.9 137C160.6 136.2 161.4 135.3 162.2 134.5C159.1 139.9 155.7 146.7 152.8 155C145.4 176.3 139.9 211.6 155.6 258.9C168.2 296.9 197.5 325 238.2 338.2C281.4 352.2 331.4 346.5 362.6 324.1C363.3 323.8 363.9 323.8 364.2 324.2Z" fill="#1F2E5B"/>
<path d="M191.5 106.2C191.5 106.2 175.2 89.6 198.9 77.9C222.6 66.2 250.5 84.1 255.1 97.1C259.7 110.2 191.5 106.2 191.5 106.2Z" fill="#FC8E01"/>
<path d="M219.8 94.8001C219.7 94.8001 219.5 94.8001 219.4 94.6001C212.9 89.1001 202.1 89.6001 202 89.6001C201.7 89.6001 201.4 89.3001 201.4 89.0001C201.4 88.7001 201.6 88.4001 202 88.3001C202.5 88.3001 213.4 87.8001 220.3 93.6001C220.6 93.8001 220.6 94.2001 220.4 94.5001C220.2 94.8001 220 94.8001 219.8 94.8001Z" fill="#D2582C"/>
<path d="M203.9 95.6C203.7 95.6 203.5 95.5 203.3 95.3C203.1 95 203.3 94.6 203.6 94.5C203.9 94.3 211.4 90.4 216.7 91.6C217 91.7 217.2 92 217.2 92.4C217.1 92.7 216.8 92.9 216.4 92.9C211.5 91.8 204.2 95.6 204.2 95.7C204.1 95.6 204 95.6 203.9 95.6Z" fill="#D2582C"/>
<path d="M367.8 314.2L376.1 329.6C376.1 329.6 386.4 332 398.5 332.9C417 334.3 422.5 331.4 423.8 335.5C424.8 338.7 410.7 346 404.2 347.2C397.7 348.4 383.4 354.2 374.2 355.2C365 356.2 360.9 344.6 358.8 340.4C356.7 336.2 350.1 322.2 350.1 322.2L367.8 314.2Z" fill="#F69D84"/>
<path d="M416.6 339.6C416.6 340.8 416.4 341.9 415.8 342.8C415.7 342.9 415.6 343.1 415.5 343.2C412.2 346.8 399.1 348.6 399.1 348.6C400.1 347.6 400.6 346.2 400.8 344.6C401.2 340.4 399.2 335.1 398.4 333C398.2 332.4 398 332.1 398 332.1C400.3 331.6 402.4 331.3 404.4 331.1C406.3 331 408 331 409.5 331C412.2 331.1 413.8 331.4 413.8 331.4C413.8 331.4 414.3 332.1 414.8 333.3C415.6 334.9 416.6 337.4 416.6 339.6Z" fill="#DB8047"/>
<path d="M411.1 337.1L406.6 337.6C406.6 337.6 406 335.4 405.3 333.3C405 332.5 404.7 331.7 404.5 331.1C406.4 331 408.1 331 409.6 331C409.9 331.6 410.2 332.5 410.5 333.4C410.7 334.6 411 335.9 411.1 337.1Z" fill="#311F1A"/>
<path d="M422.3 337.9C422.3 337.9 379.9 351.3 374.2 352.3C368.5 353.3 365.4 352.2 365.4 352.2C365.4 352.2 365.6 354.5 366.1 356.7C366.7 359.3 369.3 360.8 371.9 360C383.3 356.5 420.8 344.8 423.3 342.7C426.2 340.2 425.6 337.6 422.3 337.9Z" fill="#DB8047"/>
<path d="M328.7 310.7L328.2 324.5C328.2 324.5 335.8 331.8 345.8 338.9C361 349.6 367.2 349.9 366.2 354.1C365.4 357.4 349.6 356.5 343.4 354.1C337.2 351.8 322 349.5 313.5 345.6C305 341.8 307.5 329.6 307.8 325C308.1 320.4 308.8 309.9 308.8 309.9L328.7 310.7Z" fill="#F69D84"/>
<path d="M357.8 353.8C357.2 354.8 356.5 355.7 355.5 356.1C355.3 356.2 355.2 356.2 355 356.3C350.3 357.7 338.1 352.5 338.1 352.5C339.5 352.2 340.7 351.2 341.6 349.9C344.1 346.5 345.1 340.9 345.4 338.7C345.5 338.1 345.5 337.7 345.5 337.7C347.7 338.4 349.7 339.3 351.5 340.1C353.2 341 354.7 341.8 355.9 342.6C358.1 344.1 359.4 345.2 359.4 345.2C359.4 345.2 359.4 346.1 359.3 347.3C359.3 349.3 358.9 351.9 357.8 353.8Z" fill="#DB8047"/>
<path d="M354.3 348.8L350.2 346.9C350.2 346.9 350.8 344.7 351.3 342.6C351.5 341.7 351.6 340.9 351.7 340.2C353.4 341.1 354.9 341.9 356.1 342.7C356 343.4 355.9 344.2 355.6 345.2C355.3 346.4 354.9 347.8 354.3 348.8Z" fill="#311F1A"/>
<path d="M363.6 355.2C363.6 355.2 320.3 345 314.8 343C309.4 340.9 307.3 338.4 307.3 338.4C307.3 338.4 306.3 340.5 305.6 342.6C304.8 345.1 306.3 347.8 308.9 348.4C320.5 351.2 358.7 360.3 362 359.8C365.8 359.3 366.5 356.7 363.6 355.2Z" fill="#DB8047"/>
<path d="M343.4 201C332.4 192.5 292.9 196 261.9 200.4C261 214.4 265.3 202.8 262.7 216.6C301.3 218.6 312.2 221.6 312.2 221.6C312.2 221.6 306.4 253.1 306.7 266.2C307 279.3 302.3 317.4 302.3 317.4L330.2 322.7C330.3 322.6 359.2 213.1 343.4 201Z" fill="#311F1A"/>
<path d="M331.7 316.5C331.6 316.5 331.4 316.5 331.3 316.5L303.8 310.9C303.4 310.8 303.1 310.4 303.2 310C303.3 309.6 303.7 309.3 304.1 309.4L331.6 315C332 315.1 332.3 315.5 332.2 315.9C332.1 316.2 331.9 316.4 331.7 316.5Z" fill="#26120C"/>
<path d="M309.1 311.2C309 311.2 308.8 311.3 308.7 311.2C308.3 311.1 308 310.7 308.1 310.3C308.1 310.2 311.1 296.3 311.2 273.8C311.4 251.2 318.3 217.5 318.4 217.1C318.5 216.7 318.9 216.4 319.3 216.5C319.7 216.6 320 217 319.9 217.4C319.8 217.7 312.9 251.3 312.8 273.8C312.6 296.4 309.7 310.5 309.6 310.6C309.5 310.9 309.3 311.1 309.1 311.2Z" fill="#26120C"/>
<path d="M328.7 119.2C327.7 117.8 328.4 115 328.2 112.7C327.9 109.7 328.3 105.2 329.2 102.7C330.6 99 335.2 88.2 338.2 86.9C341.3 85.6 338 95.3 337.4 97.2C336.8 99.2 337.1 100.8 337.1 100.8C337.1 100.8 346.3 79.3 348.8 78.6C351.3 77.9 347.4 90.6 346.3 93.8C346.3 93.8 354.1 78 355.8 78C359.3 78.1 351.2 95.9 351.2 95.9C351.2 95.9 358.4 82.9 360.5 84.2C362.7 85.5 354.9 99.4 354.9 99.4C354.9 99.4 360.9 91.6 363.2 91.9C365.5 92.2 354.3 109.4 352.2 111.9C350.2 114.3 345.2 121.4 342 124.1C339.8 125.9 331.9 123.5 328.7 119.2Z" fill="#F69D84"/>
<path d="M353.8 105C354 104.8 354.1 104.4 353.9 104.1C349.4 97.6999 341.7 96.8999 341.4 96.8999C341 96.8999 340.7 97.0999 340.7 97.4999C340.7 97.8999 340.9 98.1999 341.3 98.1999C341.4 98.1999 348.7 98.9999 352.9 104.9C353 105.2 353.4 105.3 353.8 105C353.7 105.1 353.8 105 353.8 105Z" fill="#FF7C66"/>
<path d="M341.5 116C341.7 115.8 341.8 115.5 341.7 115.3C339 108 343.4 103.7 343.4 103.6C343.7 103.4 343.7 102.9 343.4 102.7C343.2 102.4 342.7 102.4 342.5 102.7C342.3 102.9 337.4 107.6 340.5 115.8C340.6 116.1 341 116.3 341.3 116.2C341.3 116.1 341.4 116.1 341.5 116Z" fill="#FF7C66"/>
<path d="M267.5 104.2C267.4 104.1 267.4 104.1 267.5 104.2L267.6 104.3L267.7 104.6L268 105.3C268.2 105.8 268.5 106.3 268.7 106.8C269.2 107.8 269.7 108.9 270.2 110C271.3 112.1 272.4 114.2 273.7 116.3C274.3 117.3 275 118.3 275.6 119.4C276.3 120.4 276.9 121.4 277.6 122.4C278.3 123.4 279 124.3 279.7 125.3C280.4 126.3 281.2 127.2 281.9 128.1C287.9 135.5 294.9 141.8 302.7 146.6C303.2 146.9 303.7 147.2 304.2 147.5C304.7 147.8 305.2 148.1 305.7 148.4L306.1 148.6C305.9 148.5 305.8 148.4 305.6 148.3C305.2 148.1 304.8 148 304.4 147.9C304 147.8 303.5 147.7 303.1 147.7C302.7 147.7 302.3 147.7 301.9 147.7C301.2 147.7 300.7 147.9 300.4 148C300.1 148.1 300 148.2 300 148.2C300 148.2 300.4 148 300.9 147.6C301.4 147.2 302.1 146.7 302.7 146C303.4 145.3 304.1 144.6 304.8 143.8C306.3 142.2 307.7 140.3 309.2 138.4C312.1 134.5 314.9 130.2 317.7 125.8C319.1 123.6 320.4 121.3 321.8 119.1C322.5 118 323.1 116.8 323.8 115.7L325.7 112.4L348.9 122.9L348.5 124L348.1 125L347.3 127.1C346.7 128.5 346.2 129.8 345.6 131.1C344.4 133.8 343.2 136.4 341.8 139.1C339.2 144.4 336.3 149.6 332.9 154.8C331.2 157.4 329.3 160 327.2 162.6C326.1 163.9 325 165.2 323.7 166.5C322.4 167.8 321 169.2 319.4 170.5C317.7 171.8 315.9 173.2 313.4 174.5C312.2 175.1 310.7 175.7 309.1 176.2C307.5 176.7 305.6 177.1 303.5 177.2C302.5 177.3 301.4 177.2 300.3 177.1C299.2 177 298.1 176.8 297 176.5C295.9 176.2 294.8 175.8 293.8 175.4C293.3 175.2 292.8 174.9 292.3 174.7L291.8 174.4C291.1 174 290.4 173.6 289.7 173.2C289 172.8 288.3 172.4 287.6 172C286.2 171.2 284.8 170.3 283.5 169.4C282.2 168.5 280.8 167.5 279.6 166.6C278.3 165.6 277 164.6 275.8 163.6C274.6 162.6 273.3 161.5 272.2 160.4C267.4 156.1 263.1 151.3 259.3 146.2C257.4 143.7 255.6 141.1 253.9 138.4C252.2 135.7 250.6 133 249.2 130.2C248.5 128.8 247.8 127.4 247.1 126C246.4 124.6 245.8 123.1 245.2 121.7C244.6 120.2 244 118.7 243.5 117.2C243.2 116.4 243 115.7 242.7 114.9C242.6 114.5 242.4 114.1 242.3 113.7L241.9 112.2L267.5 104.2Z" fill="#FC8E01"/>
<path d="M306.5 159.3C306.2 159.4 305.8 159.3 305.6 158.9C303 153.8 301.9 147.4 301.8 147.1C301.7 146.7 302 146.3 302.4 146.2C302.8 146.1 303.2 146.4 303.3 146.8C303.3 146.9 304.5 153.3 307 158.2C307.2 158.6 307 159 306.7 159.2C306.5 159.3 306.5 159.3 306.5 159.3Z" fill="#CE3E2A"/>
<path d="M300.7 155.1C300.6 155.1 300.4 155.2 300.3 155.1C299.9 155 299.7 154.6 299.8 154.2C299.9 154 301.2 148.8 302 147.2C302.2 146.8 302.6 146.7 303 146.9C303.4 147.1 303.5 147.5 303.3 147.9C302.6 149.4 301.3 154.6 301.2 154.7C301.1 154.8 300.9 155 300.7 155.1Z" fill="#CE3E2A"/>
<path d="M343.4 135.1C343.2 135.2 342.9 135.1 342.8 135C335.4 130.1 320.1 123.5 320 123.4C319.6 123.2 319.4 122.8 319.6 122.4C319.8 122 320.2 121.8 320.6 122C320.8 122.1 336.1 128.7 343.7 133.7C344 133.9 344.1 134.4 343.9 134.7C343.7 134.9 343.6 135 343.4 135.1Z" fill="#D2582C"/>
<path d="M267.7 104.6C269.7 110.6 266.4 125.1 269.6 150.7C269.8 152.6 270.1 154.5 270.4 156.5C270.7 158.4 271 160.3 271.4 162.3C271.7 164.2 272.1 166.1 272.5 168.1C272.9 169.8 273.2 171.6 273.7 173.4C274.1 175.3 274.6 177.2 275.1 179.1C275.2 179.7 275.4 180.2 275.6 180.9C275.6 181.1 275.7 181.2 275.7 181.4C275.7 181.5 275.8 181.7 275.8 181.8C275.8 181.9 275.9 182 275.9 182.1C275.9 182.2 275.9 182.3 276 182.3C276 182.4 276.1 182.6 276.1 182.7V182.8C276.1 183 276.2 183.1 276.2 183.3V183.4C276.2 183.6 276.3 183.7 276.3 183.9C276.5 184.6 276.7 185.4 276.9 186.2C277 186.4 277 186.6 277.1 186.8C277.2 187.1 277.2 187.3 277.3 187.6C277.4 188.1 277.6 188.7 277.7 189.2C277.8 189.5 277.8 189.7 277.9 190C278.1 190.6 278.2 191.2 278.4 191.8C278.4 191.9 278.5 192 278.5 192.1C278.9 193.5 279.3 195 279.7 196.5C279.9 197.2 280.1 197.9 280.3 198.6C280.5 199.4 280.8 200.3 281 201.1C281.4 202.3 281.7 203.6 282.1 204.9C282.3 205.4 282.4 206 282.6 206.5C282.7 207 282.9 207.5 283 207.9C283.2 208.5 283.3 209 283.5 209.6C283.6 210 283.7 210.4 283.8 210.7C283.9 210.9 283.9 211.2 284 211.4C284.1 211.9 284.3 212.3 284.4 212.8C284.5 213.3 284.7 213.7 284.8 214.2C284.9 214.5 285 214.8 285.1 215.2C285.2 215.5 285.3 215.8 285.4 216.1C285.4 216.2 285.4 216.3 285.5 216.3C285.6 216.5 285.6 216.6 285.7 216.8C285.8 217.1 285.9 217.5 286 217.8C286.1 218.2 286.2 218.6 286.4 218.9C287.4 221.9 288.4 224.8 289.3 227.2C282.5 235 271.1 241.8 257.6 245.8L250.1 240.9L243.8 248.8C230.6 250.7 216.5 250 203.5 245.2C199.2 236.4 192.1 204.2 190.1 194.5C189.7 192.6 189.3 190.7 189 188.7C187.4 179.4 186.6 170 186 160.1C186 159.6 185.9 159 185.9 158.5C185.9 158.4 185.9 158.4 185.9 158.3C185.3 150 174.4 125.4 175.5 116.5C177.7 99.0001 188.9 103.6 198.9 100.9C202.2 100 205 98.9001 207.3 97.7001C208.2 97.2001 209.1 96.7001 209.9 96.3001C210.2 96.1001 210.5 95.9001 210.8 95.7001C213.9 93.7001 215.6 92.0001 215.6 92.0001L238.5 89.6001C240.8 92.3001 243.4 93.8001 246.2 94.8001C246.5 94.9001 246.8 95.0001 247.1 95.1001C247.6 95.2001 248 95.4001 248.5 95.5001C256.5 97.9001 265.1 96.8001 267.7 104.6Z" fill="#FC8E01"/>
<path d="M210.3 227.7C210 227.7 209.8 227.5 209.7 227.3C197.2 193.7 190.7 135.7 190.6 135.1C190.6 134.8 190.8 134.4 191.2 134.4C191.5 134.4 191.9 134.6 191.9 135C192 135.6 198.4 193.4 210.9 226.9C211 227.2 210.9 227.6 210.5 227.7C210.4 227.7 210.4 227.7 210.3 227.7Z" fill="#D2582C"/>
<path d="M232.4 104C232.6 104.7 231.8 105.7 230.5 106.1C229.2 106.5 227.9 106.3 227.7 105.6C227.5 104.9 228.3 103.9 229.6 103.5C230.9 103.1 232.2 103.3 232.4 104Z" fill="#B11722"/>
<path d="M242.6 101.4C242.8 102.1 242 103.1 240.7 103.5C239.4 103.9 238.1 103.7 237.9 103C237.7 102.3 238.5 101.3 239.8 100.9C241.1 100.5 242.4 100.7 242.6 101.4Z" fill="#B11722"/>
<path d="M245.5 106.9C245.2 106.9 245 106.7 244.9 106.4C244.8 106.1 245 105.7 245.4 105.6C254.2 103.3 254.8 98.0002 254.8 97.8002C254.8 97.5002 255.1 97.2002 255.5 97.2002C255.8 97.2002 256.1 97.5002 256.1 97.9002C256.1 98.2002 255.5 104.3 245.8 106.8C245.6 106.9 245.6 106.9 245.5 106.9Z" fill="#D2582C"/>
<path d="M259.1 162.2C247.3 162.2 237.1 159.2 230.3 156.4C221.8 153 216.5 149.2 216.5 149.2C216.2 149 216.2 148.6 216.4 148.3C216.6 148 217 148 217.3 148.2C217.4 148.2 222.5 151.9 230.9 155.3C238.6 158.4 250.7 161.8 264.5 160.7C264.8 160.7 265.1 160.9 265.2 161.3C265.2 161.6 265 161.9 264.6 162C262.6 162.1 260.8 162.2 259.1 162.2Z" fill="#D2582C"/>
<path d="M223.5 184.3C223.5 184.3 251.6 177.1 269.1 176.9L274.5 200.1C274.5 200.1 246.8 204.8 229.2 207.8L223.5 184.3Z" fill="#D2582C"/>
<path d="M207.7 112.3C202.3 112.3 198.2 110.8 195.3 109.2C190.8 106.7 188.6 103.7 188.5 103.5C188.3 103.2 188.4 102.8 188.7 102.6C189 102.4 189.4 102.5 189.6 102.8C189.6 102.8 191.7 105.8 196 108.1C199.9 110.3 206.5 112.3 215.7 109.9C216 109.8 216.4 110 216.5 110.3C216.6 110.6 216.4 111 216.1 111.1C213 112 210.2 112.3 207.7 112.3Z" fill="#D2582C"/>
<path d="M279.6 196.6C279.2 195.1 278.8 193.6 278.4 192.2C278.8 193.6 279.2 195.1 279.6 196.6Z" fill="#26120C"/>
<path d="M277.6 189.3C277.5 188.8 277.3 188.2 277.2 187.7C277.3 188.2 277.5 188.7 277.6 189.3Z" fill="#26120C"/>
<path d="M271.4 159.3H271.3C270.9 159.4 270.5 159.1 270.5 158.7C269.1 148.2 267.6 135.8 267.5 132.3C267.5 131.9 267.8 131.5 268.2 131.5C268.6 131.5 269 131.8 269 132.2C269.1 135.7 270.7 148 272 158.5C272 158.8 271.8 159.2 271.4 159.3Z" fill="#D2582C"/>
<path d="M244.1 42.5C244.1 42.5 251.4 48.2 246.6 56.9C246.6 56.9 244 46.8 244.1 42.5Z" fill="#26120C"/>
<path d="M215.1 81.7C215.1 81.7 210.4 86.3 209.4 82.9C208.4 79.5 210.1 77.8 210.1 77.8C210.1 77.8 205 82.7 204.9 79C204.8 75.3 207.5 72 207.5 72C207.5 72 202.8 68.6 204.3 63C205.8 57.5 206 53.4 204.5 48.9C203 44.4 203.7 39.7 205.9 37.7C209.2 34.7 213.9 35.2 213.9 35.2C213.9 35.2 216.4 26.9 225.9 27.2C235.3 27.4 240.8 20.1 245.6 22C250.4 23.9 255.8 39.6 243 44.3C242.9 44.4 217.6 61.4 215.1 81.7Z" fill="#441A05"/>
<path d="M239 86.2L239.6 92.2C239 92.8 238.3 93.4 237.6 93.9C227.9 101.2 215.9 94.7 215.9 94.7L213.8 74L236 84.8L239 86.2Z" fill="#F69D84"/>
<path d="M239 85.7L239.7 92.2C239.1 92.8 238.4 93.4 237.7 93.9C228.5 91.3 221.1 82.7 221.1 82.7L236 84.7L239 85.7Z" fill="#4D2012"/>
<path d="M243.7 59C243.7 59 246.7 54.6 249 58.4C251.3 62.2 250.7 70.5 245.4 69.7L243.7 59Z" fill="#FF7C66"/>
<path d="M248.8 72.7C248.8 72.7 250.1 85 237.3 86.3C224.5 87.6 214.8 78.5 214.3 78.1L213.9 75.5L211.8 62.1L210.7 54.9C210.7 54.9 207.7 42.1 219.8 38.5C228.6 35.8 237.2 36.4 241.9 40.7C242.1 40.8 242.2 41 242.3 41.1C243.8 42.6 244.9 44.5 245.4 46.9L247.1 59.8L247.5 63L248.8 72.7Z" fill="#F69D84"/>
<path d="M211.7 62.1001C211.7 62.1001 214.6 63.0001 215.9 66.5001C217.8 66.3001 219.1 64.5001 218.8 62.6001C218.6 61.5001 218.3 60.2001 218 58.7001C217.1 54.3001 215.7 52.9001 218.2 50.1001C220.8 47.3001 218.4 45.7001 220.7 43.7001C223.3 41.5001 229.6 45.4001 234.3 44.4001C239.8 43.3001 239.4 39.5001 244.2 43.8001C244.2 43.8001 242.9 37.3001 236.6 35.6001C230.3 33.8001 212.6 35.4001 209.9 43.8001C207.2 52.3001 211.7 62.1001 211.7 62.1001Z" fill="#441A05"/>
<path d="M221.9 52.7999C222.8 54.2999 224.6 54.7999 226.1 53.8999C227 53.3999 228 52.8999 229.1 52.5999C230.7 52.0999 231.5 50.3999 230.9 48.8999C230.8 48.8999 224.4 48.9999 221.9 52.7999Z" fill="#26120C"/>
<path d="M245.6 50.2C245.1 51.7 243.5 52.5 242 52.1C241.1 51.8 240.1 51.6 239 51.5C237.5 51.3 236.4 49.9 236.6 48.4C236.6 48.3 242.5 47.1 245.6 50.2Z" fill="#26120C"/>
<path d="M230.5 63.1999C230.6 64.0999 228.8 64.9999 226.5 65.2999C224.2 65.4999 222.3 64.9999 222.2 64.0999C222.1 63.1999 223.9 62.2999 226.2 61.9999C228.5 61.6999 230.4 62.2999 230.5 63.1999Z" fill="#FF7C66"/>
<path d="M247.5 63C247.2 63.1 246.9 63.1001 246.5 63.2001C244.2 63.4001 242.3 62.9 242.2 62C242.1 61.1 243.9 60.2001 246.2 59.9001C246.5 59.9001 246.8 59.9 247.1 59.8L247.5 63Z" fill="#FF7C66"/>
<path d="M230.7 58.1C230.8 59.3 230.4 60.4 229.7 60.5C229 60.6 228.3 59.6 228.2 58.4C228.1 57.2 228.5 56.1 229.2 56C229.9 56 230.6 56.9 230.7 58.1Z" fill="#26120C"/>
<path d="M243.1 56.7999C243.2 57.9999 242.8 59.1 242.1 59.2C241.4 59.3 240.7 58.2999 240.6 57.0999C240.5 55.8999 240.9 54.8 241.6 54.7C242.3 54.7 243 55.5999 243.1 56.7999Z" fill="#26120C"/>
<path d="M239.1 69.6C234.6 70.1 230.5 66.6 230.4 66.5C230.2 66.3 230.2 66 230.3 65.8C230.5 65.6 230.8 65.6 231 65.7C231.3 65.9 237.6 71.3 242.8 66.7C243 66.5 243.3 66.5 243.5 66.7C243.7 66.9 243.7 67.2 243.5 67.4C242.1 68.8 240.6 69.4 239.1 69.6Z" fill="#26120C"/>
<path d="M217.8 72.7C217.8 72.8 216.5 76.8 214.3 78.1L213.9 75.5C213.9 75.5 215.8 74.9 217.8 72.7Z" fill="#26120C"/>
<path d="M214.6 64.2999C214.6 64.2999 209 58.1999 205.9 63.7999C203.4 68.3999 210.2 78.9999 215.7 74.4999L214.6 64.2999Z" fill="#F69D84"/>
<path d="M214.8 72.5999C214.5 72.5999 214.3 72.4999 214.2 72.1999C213.1 67.1999 208.7 65.8999 208.6 65.8999C208.3 65.7999 208.2 65.4999 208.2 65.2999C208.3 64.9999 208.6 64.8999 208.8 64.8999C209 64.9999 214 66.3999 215.2 71.9999C215.3 72.2999 215.1 72.5999 214.8 72.5999Z" fill="#26120C"/>
<path d="M209.7 70.0999C209.6 70.0999 209.4 70.0999 209.3 69.9999C209.1 69.7999 209.1 69.4999 209.3 69.2999C209.5 69.0999 211.2 67.4999 212.7 67.6999C213 67.6999 213.2 67.9999 213.1 68.2999C213.1 68.5999 212.8 68.7999 212.5 68.6999C211.6 68.5999 210.4 69.5999 210 69.9999C210 69.9999 209.9 69.9999 209.7 70.0999Z" fill="#26120C"/>
<path d="M236.4 63.8C236.1 63.8 235.9 63.6 235.8 63.3C235.8 63 236 62.8 236.3 62.7C238.2 62.5 238.9 61.4 239.2 61C236.7 57 234.3 53 234.3 53C234.2 52.8 234.2 52.4 234.5 52.3C234.7 52.2 235.1 52.2 235.2 52.5C235.2 52.5 237.8 56.7 240.3 60.7C240.4 60.8 240.4 61 240.3 61.1C240.2 61.3 239.4 63.5 236.4 63.8Z" fill="#26120C"/>
<g opacity="0.5">
<g opacity="0.5">
<g opacity="0.5">
<path opacity="0.5" d="M236.7 59.7999C236.8 61.4999 234 63.0999 230.5 63.2999C227 63.4999 224 62.2999 223.9 60.5999C223.8 58.8999 226.6 57.2999 230.1 57.0999C233.6 56.7999 236.5 58.0999 236.7 59.7999Z" fill="white"/>
</g>
</g>
</g>
<g opacity="0.5">
<g opacity="0.5">
<g opacity="0.5">
<path opacity="0.5" d="M253.1 59.0999C253.2 60.7999 250.4 62.3999 246.9 62.5999C243.4 62.7999 240.4 61.5999 240.3 59.8999C240.2 58.1999 243 56.5999 246.5 56.3999C250 56.1999 253 57.3999 253.1 59.0999Z" fill="white"/>
</g>
</g>
</g>
<path d="M240.3 59.8999C240.2 59.8999 240.1 59.8999 240.1 59.7999C238.8 58.5999 237 59.7999 236.9 59.7999C236.7 59.8999 236.5 59.8999 236.4 59.6999C236.3 59.4999 236.3 59.2999 236.5 59.1999C237.3 58.6999 239.2 57.9999 240.6 59.1999C240.8 59.2999 240.8 59.5999 240.6 59.6999C240.5 59.7999 240.4 59.8999 240.3 59.8999Z" fill="#26120C"/>
<path d="M210.3 61.5999C210.2 61.5999 210.1 61.5999 210 61.4999C209.9 61.2999 209.9 61.0999 210.1 60.9999C215.8 56.5999 223.7 59.7999 224.1 59.8999C224.3 59.9999 224.4 60.1999 224.3 60.3999C224.2 60.5999 224 60.6999 223.8 60.5999C223.7 60.5999 215.9 57.4999 210.6 61.5999C210.4 61.5999 210.3 61.5999 210.3 61.5999Z" fill="#26120C"/>
<path d="M199.7 235.1C199.7 235.1 201.5 286.7 263.8 266.2C297.1 255.2 311.8 246.8 311.8 246.8C311.8 246.8 322.3 275.9 327.9 287.8C333.5 299.7 349.2 328.8 349.2 328.8L376.1 322.2C376.1 322.2 344.8 213.3 325.5 208.7C306.2 204.1 283 211.4 242.1 220.7C242.1 220.6 206.3 226 199.7 235.1Z" fill="#351F19"/>
<path d="M350 319C349.7 319.1 349.3 319 349.1 318.7C340.4 304.7 331.8 283.4 324.9 266.3C322 259.1 319.5 252.9 317.4 248.3C314.6 242 313.4 240.8 313 240.6C311.1 239.8 304.7 242.6 296.7 246.3C285.1 251.6 267.5 259.5 247.1 263.7C236.6 265.9 227.6 264.5 220.1 259.5C206.9 250.6 203.6 233.8 203.5 233.1C203.4 232.7 203.7 232.3 204.1 232.2C204.5 232.1 204.9 232.4 205 232.8C205 233 208.3 249.7 221 258.2C228.1 262.9 236.8 264.3 246.8 262.2C267.1 258 284.5 250.1 296.1 244.9C305.4 240.7 311.1 238.1 313.6 239.2C315.9 240.2 319.6 249 326.4 265.8C333.3 282.8 341.9 304 350.5 318C350.7 318.4 350.6 318.8 350.3 319C350.1 318.9 350.1 318.9 350 319Z" fill="#26120C"/>
<path d="M372.9 313.8C372.9 313.8 372.8 313.8 372.9 313.8L345.7 321C345.3 321.1 344.9 320.9 344.8 320.5C344.7 320.1 344.9 319.7 345.3 319.6L372.5 312.4C372.9 312.3 373.3 312.5 373.4 312.9C373.5 313.3 373.2 313.6 372.9 313.8Z" fill="#26120C"/>
<path d="M260.8 222.9L343.2 215.1C343.4 215.1 343.5 214.9 343.5 214.8L342.5 204.6C342.5 204.4 342.3 204.3 342.2 204.3L259.8 212.1C259.6 212.1 259.5 212.3 259.5 212.4L260.5 222.6C260.5 222.8 260.7 222.9 260.8 222.9Z" fill="#26120C"/>
<path d="M352.2 214.3C355.3 214 357.9 211.6 358.4 208.6L368.4 149C369 145.4 366 142.1 362.3 142.5L325.1 146C322.6 146.2 320.5 148.1 320.1 150.6L307.7 218.5L352.2 214.3Z" fill="#26120C"/>
<path d="M328 202.2L327.3 204.9L329.8 204.7L329.4 207.9L326.5 208.1L325.7 211.1L322.4 211.4L323.2 208.4L321.1 208.6L320.3 211.6L317 211.9L317.8 208.9L315.3 209.1L315.7 205.9L318.6 205.7L319.3 203L316.8 203.2L317.2 200L320.1 199.8L320.9 196.8L324.2 196.5L323.4 199.5L325.5 199.3L326.3 196.3L329.6 196L328.8 199L331.3 198.8L331 202L328 202.2ZM324.7 202.5L322.6 202.7L321.9 205.4L324 205.2L324.7 202.5Z" fill="#E05042"/>
<path d="M363.8 158.8C362.9 162.7 359.4 166.1 355.9 166.4C352.4 166.7 350.3 163.8 351.2 159.9C352.1 156 355.6 152.6 359.1 152.3C362.6 152 364.7 154.9 363.8 158.8Z" fill="#F4AD4B"/>
<path d="M356.8 158.1C356.6 158.9 356.2 159.5 355.9 159.6C355.6 159.6 355.5 159 355.7 158.2C355.9 157.4 356.3 156.8 356.6 156.7C356.8 156.7 356.9 157.3 356.8 158.1Z" fill="#26120C"/>
<path d="M360.1 157.8C359.9 158.6 359.5 159.2 359.2 159.3C358.9 159.3 358.8 158.7 359 157.9C359.2 157.1 359.6 156.5 359.9 156.4C360.1 156.4 360.2 157 360.1 157.8Z" fill="#26120C"/>
<path d="M356.8 162.8C354.1 163 354.1 160.1 354.1 160C354.1 159.8 354.2 159.7 354.4 159.6C354.6 159.6 354.7 159.6 354.7 159.8C354.7 159.9 354.7 162.3 356.9 162.1C359.2 161.9 360.2 159.4 360.3 159.3C360.4 159.1 360.5 159 360.7 159C360.8 159 360.9 159.2 360.8 159.3C360.8 159.4 359.5 162.5 356.8 162.8Z" fill="#26120C"/>
<path d="M320.2 150.5L308 217.9L303.8 218.3L316 150.9C316.5 148.4 318.5 146.5 321 146.3L325.2 145.9C322.7 146.2 320.6 148.1 320.2 150.5Z" fill="#26120C"/>
<path d="M308.3 217.5H308.2C307.9 217.4 307.6 217.1 307.7 216.8L319.8 149.6C319.9 149.3 320.2 149 320.5 149.1C320.8 149.2 321.1 149.5 321 149.8L308.9 217C308.9 217.3 308.6 217.5 308.3 217.5Z" fill="#564C54"/>
<path d="M333.7 181.5C333.2 185.2 335.8 188 339.4 187.6C343 187.3 346.4 184 346.9 180.2C347.4 176.5 344.8 173.7 341.2 174.1C337.6 174.5 334.2 177.8 333.7 181.5Z" fill="#564C54"/>
<path d="M281.6 197.7C281.6 197.7 300.9 193.4 307.7 196.6L305.3 208.9C305.3 208.9 294.4 208.1 291.9 209.4C289.4 210.7 289.2 215.6 279.4 215.8L281.6 197.7Z" fill="#F69D84"/>
<path d="M279.5 195.3L277.2 194.9L272.6 194.2C269.6 193.7 266.5 193.2 263.5 192.6C257.5 191.5 251.4 190.3 245.6 188.9C242.7 188.2 239.8 187.5 236.9 186.7C234.1 185.9 231.3 185.1 228.6 184.2C226 183.3 223.4 182.4 221.3 181.4C220.3 180.9 219.3 180.4 218.7 180L218.6 179.9C218.3 179.3 217.9 178.8 217.6 178.2C217 177.1 216.3 175.9 215.8 174.7C214.6 172.4 213.6 169.9 212.6 167.4C210.7 162.4 209.3 157.2 208.3 151.9C207.8 149.2 207.4 146.5 207.1 143.8C206.8 141.1 206.6 138.3 206.5 135.5C206.4 132.7 206.4 130 206.5 127.2C206.6 125.8 206.6 124.5 206.7 123.2C206.8 122.5 206.8 121.9 206.9 121.3L207 120.4L207.1 119.8L175.8 114.9L175.7 115.5L175.6 115.9L175.5 116.7L175.3 118.1C175.2 119 175.1 120 175.1 120.9C175 122.7 174.9 124.5 174.8 126.3C174.7 129.9 174.8 133.4 174.9 137C175.3 144.1 176.2 151.2 177.8 158.2C178.2 160 178.6 161.7 179.1 163.5C179.6 165.2 180.1 167 180.6 168.7C181.7 172.2 183 175.6 184.4 179C185.7 182.1 187.2 185.1 188.8 188.1C188.9 188.4 189.1 188.6 189.2 188.9C190.1 190.5 191 192.1 192 193.7C192.5 194.5 193 195.3 193.5 196L193.9 196.6L194.1 196.9L194.5 197.5C195.2 198.5 195.9 199.3 196.6 200C197.3 200.7 197.9 201.3 198.6 201.9C199.2 202.4 199.8 202.9 200.4 203.3C201.6 204.1 202.7 204.8 203.7 205.4C205.2 206.2 206.6 206.9 207.9 207.5C208.5 207.7 209 208 209.6 208.2C211.5 209 213.2 209.6 215 210.2C216.8 210.8 218.5 211.3 220.2 211.7C223.6 212.6 226.9 213.4 230.2 214.1C233.5 214.8 236.8 215.4 240 215.9C246.5 217 253 217.8 259.4 218.5C262.6 218.8 265.9 219.2 269.1 219.4C270.7 219.5 272.3 219.7 274 219.8L276.4 220L278.9 220.2L281.3 195.8L279.5 195.3ZM218.1 179.6C218.1 179.6 218.2 179.6 218.4 179.8L218.5 179.9C218.3 179.8 218.2 179.7 218.1 179.6Z" fill="#FC8E01"/>
<path d="M208.3 207.4C207 206.8 205.6 206.1 204.1 205.3C203 204.7 201.9 204 200.8 203.2C200.2 202.8 199.6 202.3 199 201.8C198.4 201.3 197.7 200.7 197 199.9C196.3 199.2 195.6 198.4 194.9 197.4L194.5 196.8L194.3 196.5L193.9 195.9C193.4 195.1 192.9 194.4 192.4 193.6C191.4 192 190.5 190.4 189.6 188.8C189.5 188.5 189.3 188.3 189.2 188C189.3 188 189.4 187.9 189.4 187.9C189.3 187.9 209.5 188.2 208.3 207.4Z" fill="#D2582C"/>
<path d="M250.4 218.1C250.3 218.1 250.2 218.1 250.1 218.1C249.8 218.1 224.5 215.6 210.3 209C196 202.3 189.3 189.5 189 188.9C188.8 188.5 189 188.1 189.3 187.9C189.7 187.7 190.1 187.9 190.3 188.2C190.4 188.3 197.1 201.1 210.9 207.6C224.9 214.2 250 216.6 250.2 216.6C250.6 216.6 250.9 217 250.9 217.4C250.9 217.8 250.7 218 250.4 218.1Z" fill="#D2582C"/>
<path d="M209.6 188.9C209.3 189 209.1 188.9 208.9 188.7C208.6 188.4 208.6 187.9 208.9 187.6C212.4 183.9 217.5 180.1 217.7 180C218 179.8 218.5 179.8 218.7 180.2C218.9 180.5 218.9 181 218.5 181.2C218.4 181.2 213.3 185 209.9 188.7C209.8 188.8 209.7 188.9 209.6 188.9Z" fill="#D2582C"/>
<path d="M217.9 181.6C217.9 181.6 217.8 181.6 217.9 181.6C214.8 182.3 210.9 183.5 210.9 183.5C210.5 183.6 210.1 183.4 210 183C209.9 182.6 210.1 182.2 210.5 182.1C210.7 182 214.6 180.8 217.6 180.1C218 180 218.4 180.3 218.5 180.7C218.5 181.1 218.2 181.5 217.9 181.6Z" fill="#D2582C"/>
<path d="M211.1 163.3C210.7 163.4 210.3 163.2 210.1 162.8C209.8 161.8 203.1 139 203.1 127.5C203.1 127.1 203.4 126.7 203.9 126.7C204.3 126.7 204.7 127 204.7 127.5C204.7 138.8 211.6 162.1 211.6 162.4C211.7 162.7 211.5 163.2 211.1 163.3Z" fill="#D2582C"/>
<path d="M204.6 134.6C204.4 134.7 204.2 134.6 204 134.5C203.6 134.3 203.5 133.8 203.8 133.5L206.3 129.6C206.5 129.2 207 129.1 207.3 129.4C207.7 129.6 207.8 130.1 207.5 130.4L205 134.3C204.9 134.4 204.8 134.5 204.6 134.6Z" fill="#D2582C"/>
<path d="M267.6 219C267.5 219 267.4 219 267.3 219C266.9 219 266.6 218.6 266.6 218.2L269.2 194.5C269.2 194.1 269.6 193.8 270 193.8C270.4 193.8 270.7 194.2 270.7 194.6L268.1 218.3C268.1 218.7 267.9 219 267.6 219Z" fill="#D2582C"/>
<path d="M247.9 181.5C247.6 181.5 247.4 181.3 247.3 181.1C240 159.4 229.6 105.4 229.4 104.9C229.3 104.6 229.6 104.2 229.9 104.2C230.2 104.1 230.6 104.4 230.6 104.7C230.7 105.2 241.2 159.1 248.4 180.7C248.5 181 248.3 181.4 248 181.5C248.1 181.5 248 181.5 247.9 181.5Z" fill="white"/>
<path d="M263.4 179.4C263.1 179.4 262.8 179.2 262.8 178.9C258.4 146.6 239.9 103.2 239.7 102.8C239.6 102.5 239.7 102.1 240 102C240.3 101.9 240.7 102 240.8 102.3C241 102.7 259.5 146.3 263.9 178.7C264.1 179.1 263.9 179.4 263.4 179.4C263.5 179.4 263.5 179.4 263.4 179.4Z" fill="white"/>
<path d="M218.9 263.6C217.6 263.6 216.1 263.1 214.7 262.2C209.4 258.9 202.9 248.8 200.5 233.7C200.4 233.4 200.7 233 201 233C201.3 232.9 201.7 233.2 201.7 233.5C204 248.2 210.2 257.9 215.3 261.1C217 262.2 218.7 262.5 220 262.1C221.1 261.8 222 261 222.6 259.8C227 251.5 219.3 226.3 219.2 226C219.1 225.7 219.3 225.3 219.6 225.2C219.9 225.1 220.3 225.3 220.4 225.6C220.7 226.7 228.3 251.5 223.7 260.3C222.9 261.8 221.8 262.8 220.4 263.2C219.9 263.5 219.4 263.6 218.9 263.6Z" fill="#26120C"/>
<path d="M164.8 14.6C164.8 16.4 166.3 17.9 168.1 17.9C169.9 17.9 171.4 16.4 171.4 14.6C171.4 12.8 169.9 11.3 168.1 11.3C166.3 11.3 164.8 12.8 164.8 14.6Z" fill="#F8F7F9"/>
<path d="M154.4 14.6C154.4 16.4 155.9 17.9 157.7 17.9C159.5 17.9 161 16.4 161 14.6C161 12.8 159.5 11.3 157.7 11.3C155.9 11.3 154.4 12.8 154.4 14.6Z" fill="#F8F7F9"/>
<path d="M144 14.6C144 16.4 145.5 17.9 147.3 17.9C149.1 17.9 150.6 16.4 150.6 14.6C150.6 12.8 149.1 11.3 147.3 11.3C145.5 11.3 144 12.8 144 14.6Z" fill="#F8F7F9"/>
</g>
<defs>
<clipPath id="clip0_25_1107">
<rect width="546.2" height="368.5" fill="white"/>
</clipPath>
</defs>
</svg>
