<svg width="28" height="28" viewBox="0 0 28 28" fill="none" xmlns="http://www.w3.org/2000/svg">
<path d="M14.0001 1.55566C11.5388 1.55566 9.13283 2.28552 7.08635 3.65293C5.03987 5.02034 3.44484 6.9639 2.50295 9.23783C1.56106 11.5118 1.31461 14.0139 1.79479 16.4279C2.27496 18.8419 3.46018 21.0593 5.20056 22.7997C6.94095 24.54 9.15834 25.7253 11.5723 26.2054C13.9863 26.6856 16.4885 26.4392 18.7624 25.4973C21.0363 24.5554 22.9799 22.9604 24.3473 20.9139C25.7147 18.8674 26.4446 16.4614 26.4446 14.0001C26.4446 10.6996 25.1335 7.53434 22.7997 5.20056C20.4659 2.86677 17.3006 1.55566 14.0001 1.55566ZM14.0001 24.889C11.8465 24.889 9.74124 24.2504 7.95057 23.0539C6.1599 21.8574 4.76425 20.1568 3.94009 18.1671C3.11594 16.1774 2.9003 13.988 3.32045 11.8758C3.7406 9.76355 4.77767 7.82334 6.30051 6.3005C7.82335 4.77766 9.76356 3.7406 11.8758 3.32045C13.988 2.9003 16.1774 3.11593 18.1671 3.94009C20.1568 4.76424 21.8574 6.1599 23.0539 7.95057C24.2504 9.74123 24.889 11.8465 24.889 14.0001C24.889 16.888 23.7418 19.6577 21.6997 21.6997C19.6577 23.7418 16.888 24.889 14.0001 24.889Z" fill="white"/>
<path d="M14.2256 6.93731C13.3828 6.92338 12.5472 7.09525 11.7783 7.44073C11.0094 7.7862 10.326 8.29678 9.77672 8.9362C9.70041 9.00692 9.63906 9.09223 9.59631 9.18708C9.55356 9.28194 9.53027 9.3844 9.52783 9.48842C9.52778 9.58438 9.54703 9.67938 9.58444 9.76775C9.62185 9.85612 9.67666 9.93606 9.74559 10.0028C9.81453 10.0696 9.89619 10.1218 9.98572 10.1564C10.0752 10.1909 10.1708 10.2071 10.2667 10.204C10.4722 10.1989 10.6687 10.1186 10.8189 9.97842C11.2346 9.49128 11.7509 9.09998 12.3323 8.83145C12.9137 8.56292 13.5463 8.42353 14.1867 8.42286C16.0223 8.42286 17.1656 9.60509 17.1656 11.0751V11.114C17.1656 12.8329 15.7967 13.7895 13.6345 13.9529C13.5469 13.9562 13.4611 13.9781 13.3826 14.0169C13.304 14.0558 13.2346 14.1108 13.1788 14.1783C13.123 14.2459 13.0821 14.3245 13.0587 14.4089C13.0354 14.4934 13.0302 14.5818 13.0434 14.6684C13.0434 14.6684 13.0434 16.4729 13.0434 16.8073C13.0627 16.9998 13.1531 17.1782 13.297 17.3077C13.4408 17.4371 13.6277 17.5083 13.8212 17.5073H13.9067C14.0992 17.488 14.2776 17.3976 14.4071 17.2537C14.5365 17.1099 14.6077 16.923 14.6067 16.7295V15.1273C16.9401 14.8006 18.8301 13.5718 18.8301 11.0206V10.9818C18.8067 8.64842 16.9867 6.93731 14.2256 6.93731Z" fill="white"/>
<path d="M13.8289 21.3497C14.3659 21.3497 14.8011 20.9144 14.8011 20.3775C14.8011 19.8406 14.3659 19.4053 13.8289 19.4053C13.292 19.4053 12.8567 19.8406 12.8567 20.3775C12.8567 20.9144 13.292 21.3497 13.8289 21.3497Z" fill="white"/>
</svg>
