<svg width="90" height="85" viewBox="0 0 90 85" fill="none" xmlns="http://www.w3.org/2000/svg">
<path fill-rule="evenodd" clip-rule="evenodd" d="M70 15C70 11.0218 68.4196 7.20644 65.6066 4.3934C62.7936 1.58035 58.9782 0 55 0H35C31.0218 0 27.2064 1.58035 24.3934 4.3934C21.5804 7.20644 20 11.0218 20 15H15C11.0218 15 7.20644 16.5804 4.3934 19.3934C1.58035 22.2064 0 26.0218 0 30V70C0 73.9782 1.58035 77.7936 4.3934 80.6066C7.20644 83.4196 11.0218 85 15 85H75C78.9782 85 82.7936 83.4196 85.6066 80.6066C88.4196 77.7936 90 73.9782 90 70V30C90 26.0218 88.4196 22.2064 85.6066 19.3934C82.7936 16.5804 78.9782 15 75 15H70ZM55 10H35C33.6739 10 32.4021 10.5268 31.4645 11.4645C30.5268 12.4021 30 13.6739 30 15H60C60 13.6739 59.4732 12.4021 58.5355 11.4645C57.5979 10.5268 56.3261 10 55 10ZM15 25H75C76.3261 25 77.5979 25.5268 78.5355 26.4645C79.4732 27.4021 80 28.6739 80 30V70C80 71.3261 79.4732 72.5979 78.5355 73.5355C77.5979 74.4732 76.3261 75 75 75H15C13.6739 75 12.4021 74.4732 11.4645 73.5355C10.5268 72.5979 10 71.3261 10 70V30C10 28.6739 10.5268 27.4021 11.4645 26.4645C12.4021 25.5268 13.6739 25 15 25Z" fill="#003986"/>
</svg>
