<svg width="885" height="426" viewBox="0 0 885 426" fill="none" xmlns="http://www.w3.org/2000/svg">
<g clip-path="url(#clip0_66_15)">
<path d="M885 419.339C790.185 431.151 576.413 433.193 479.85 346.872C359.147 238.971 303.487 100.697 98.6472 61.7993" stroke="#FFE901" stroke-width="2.8" stroke-dasharray="20 20"/>
</g>
<path d="M5.93195 10.2478L29.4357 57.8778C31.1533 61.2281 33.7119 61.679 36.6775 59.4231L52.1873 44.2886L62.722 50.1711C63.8963 50.8553 64.876 51.4261 66.7558 51.0881L61.6511 34.9437L21.5874 14.0881C19.8487 13.1982 21.4919 12.234 23.7247 13.0376L70.9175 28.7261L87.7717 20.5224C91.4379 18.7417 90.9594 16.3553 85.7732 15.5622L9.81791 4.31293C6.30801 3.82221 3.85305 6.05146 5.93253 10.2502L5.93195 10.2478Z" fill="#FFE901"/>
<defs>
<clipPath id="clip0_66_15">
<rect width="787" height="365" fill="white" transform="translate(98 61)"/>
</clipPath>
</defs>
</svg>
