<svg width="933" height="505" viewBox="0 0 933 505" fill="none" xmlns="http://www.w3.org/2000/svg">
<path d="M932 496.026C831.522 510.167 604.984 512.612 502.655 409.264C374.743 280.077 315.759 114.528 98.6859 67.9569" stroke="#FFE901" stroke-width="2.8" stroke-dasharray="20 20"/>
<g filter="url(#filter0_i_66_12)">
<path d="M5.93195 10.2478L29.4357 57.8778C31.1533 61.2281 33.7119 61.679 36.6775 59.4231L52.1873 44.2886L62.722 50.1711C63.8963 50.8553 64.876 51.4261 66.7558 51.0881L61.6511 34.9437L21.5874 14.0881C19.8487 13.1982 21.4919 12.234 23.7247 13.0376L70.9175 28.7261L87.7717 20.5224C91.4379 18.7417 90.9594 16.3553 85.7732 15.5622L9.81791 4.31293C6.30801 3.82221 3.85305 6.05146 5.93253 10.2502L5.93195 10.2478Z" fill="#FFE901"/>
</g>
<defs>
<filter id="filter0_i_66_12" x="5.16858" y="4.24597" width="86.9886" height="58.5736" filterUnits="userSpaceOnUse" color-interpolation-filters="sRGB">
<feFlood flood-opacity="0" result="BackgroundImageFix"/>
<feBlend mode="normal" in="SourceGraphic" in2="BackgroundImageFix" result="shape"/>
<feColorMatrix in="SourceAlpha" type="matrix" values="0 0 0 0 0 0 0 0 0 0 0 0 0 0 0 0 0 0 127 0" result="hardAlpha"/>
<feOffset dx="2" dy="2"/>
<feGaussianBlur stdDeviation="4"/>
<feComposite in2="hardAlpha" operator="arithmetic" k2="-1" k3="1"/>
<feColorMatrix type="matrix" values="0 0 0 0 0 0 0 0 0 0 0 0 0 0 0 0 0 0 0.15 0"/>
<feBlend mode="normal" in2="shape" result="effect1_innerShadow_66_12"/>
</filter>
</defs>
</svg>
