<svg width="35" height="34" viewBox="0 0 25 24" fill="none" xmlns="http://www.w3.org/2000/svg">
<path d="M12.5 5C11.0418 5.00172 9.64389 5.58174 8.61282 6.61281C7.58174 7.64389 7.00173 9.04184 7.00001 10.5C6.99826 11.6916 7.3875 12.8509 8.108 13.8C8.108 13.8 8.258 13.9975 8.2825 14.026L12.5 19L16.7195 14.0235C16.7415 13.997 16.892 13.8 16.892 13.8L16.8925 13.7985C17.6126 12.8498 18.0017 11.6911 18 10.5C17.9983 9.04184 17.4183 7.64389 16.3872 6.61281C15.3561 5.58174 13.9582 5.00172 12.5 5ZM12.5 12.5C12.1044 12.5 11.7178 12.3827 11.3889 12.1629C11.06 11.9432 10.8036 11.6308 10.6522 11.2654C10.5009 10.8999 10.4613 10.4978 10.5384 10.1098C10.6156 9.72186 10.8061 9.36549 11.0858 9.08579C11.3655 8.80608 11.7219 8.6156 12.1098 8.53843C12.4978 8.46126 12.8999 8.50087 13.2654 8.65224C13.6308 8.80362 13.9432 9.05996 14.1629 9.38886C14.3827 9.71776 14.5 10.1044 14.5 10.5C14.4993 11.0302 14.2884 11.5386 13.9135 11.9135C13.5386 12.2884 13.0302 12.4993 12.5 12.5Z" fill="#FFE901"/>
</svg>
