<svg width="391" height="184" viewBox="0 0 391 184" fill="none" xmlns="http://www.w3.org/2000/svg">
<ellipse cx="195.323" cy="177.227" rx="195.323" ry="5.85716" fill="#C4C4C4"/>
<path d="M174.441 131.643V177.736H177.701L178.465 131.643H174.441Z" fill="#4F2011"/>
<path d="M163.848 131.643L152.541 177.736H155.699L168.381 131.643H163.848Z" fill="#4F2011"/>
<path d="M186.767 131.49L198.482 177.736H195.375L182.234 131.49H186.767Z" fill="#4F2011"/>
<path d="M195.731 127.823H153.152V132.203H195.731V127.823Z" fill="#3A221B"/>
<path d="M195.731 132.254C195.731 132.305 186.309 132.356 174.645 132.356C162.982 132.356 153.56 132.305 153.56 132.254C153.56 132.203 162.982 132.152 174.645 132.152C186.309 132.152 195.731 132.203 195.731 132.254Z" fill="#4F2011"/>
<path d="M221.757 141.015C221.706 141.066 221.401 140.862 221.044 140.608C220.688 140.302 220.433 140.048 220.484 139.997C220.535 139.946 220.841 140.149 221.197 140.404C221.554 140.71 221.808 140.964 221.757 141.015Z" fill="#37261F"/>
<path d="M231.384 126.601C231.435 125.277 231.486 123.851 231.078 122.578C230.671 121.304 229.652 120.133 228.328 119.827C226.8 119.522 225.272 120.489 224.457 121.763C223.591 123.036 223.337 124.615 223.082 126.143C221.35 136.584 220.739 147.229 221.198 157.822L227.36 158.688C230.009 147.636 230.875 138.01 231.384 126.601Z" fill="#5D2312"/>
<path d="M227.462 119.827C227.462 119.827 227.462 119.878 227.411 119.929C227.36 119.98 227.36 120.082 227.309 120.184C227.207 120.438 227.054 120.795 226.902 121.253C226.8 121.508 226.698 121.712 226.596 122.017C226.494 122.323 226.392 122.628 226.29 122.934C226.188 123.291 226.087 123.647 225.934 124.004C225.832 124.411 225.73 124.818 225.628 125.226C225.17 126.958 224.762 128.995 224.457 131.338C224.1 133.63 223.897 136.227 223.744 138.927C223.438 144.325 223.387 149.215 223.234 152.78C223.184 154.563 223.133 155.989 223.031 156.956C222.98 157.415 222.98 157.822 222.929 158.077C222.929 158.179 222.929 158.281 222.878 158.383C222.878 158.433 222.878 158.484 222.878 158.484C222.878 158.484 222.878 158.433 222.878 158.383C222.878 158.281 222.878 158.23 222.878 158.077C222.878 157.822 222.878 157.415 222.929 156.956C222.98 155.989 223.031 154.512 223.031 152.78C223.133 149.215 223.133 144.325 223.489 138.927C223.642 136.227 223.897 133.681 224.253 131.338C224.61 128.995 225.017 126.958 225.475 125.226C225.577 124.818 225.679 124.411 225.832 124.004C225.985 123.647 226.087 123.291 226.188 122.934C226.29 122.577 226.392 122.272 226.494 122.017C226.596 121.712 226.698 121.457 226.8 121.253C227.003 120.795 227.156 120.438 227.258 120.184C227.309 120.082 227.36 119.98 227.36 119.929C227.462 119.878 227.462 119.827 227.462 119.827Z" fill="#35221B"/>
<path d="M228.022 119.827C228.022 119.827 228.378 120.235 228.786 121.1C229.193 121.966 229.397 123.392 229.346 125.073C229.193 128.486 228.888 133.171 228.48 138.366C228.073 143.561 227.614 148.247 227.258 151.609C227.054 153.289 226.901 154.665 226.799 155.632C226.748 156.091 226.698 156.447 226.647 156.702C226.647 156.804 226.596 156.905 226.596 157.007C226.596 157.058 226.596 157.109 226.596 157.109C226.596 157.109 226.596 157.058 226.596 157.007C226.596 156.905 226.596 156.855 226.596 156.702C226.596 156.447 226.647 156.091 226.698 155.632C226.799 154.665 226.901 153.289 227.105 151.609C227.411 148.196 227.869 143.561 228.276 138.366C228.684 133.171 228.99 128.486 229.193 125.124C229.295 123.443 229.04 122.068 228.684 121.151C228.378 120.286 228.022 119.878 228.022 119.827Z" fill="#35221B"/>
<path d="M232.3 135.769C232.3 135.82 231.74 135.667 231.129 135.464C230.518 135.26 230.008 135.005 230.059 134.954C230.059 134.903 230.619 135.056 231.231 135.26C231.842 135.514 232.351 135.718 232.3 135.769Z" fill="#37261F"/>
<path d="M233.065 129.504C233.065 129.555 232.606 129.861 231.944 130.116C231.282 130.421 230.773 130.574 230.722 130.523C230.722 130.472 231.18 130.167 231.842 129.912C232.504 129.657 233.014 129.454 233.065 129.504Z" fill="#37261F"/>
<path d="M232.657 124.36C232.657 124.411 232.249 124.462 231.74 124.411C231.231 124.36 230.823 124.309 230.823 124.259C230.823 124.208 231.231 124.157 231.74 124.208C232.249 124.259 232.657 124.309 232.657 124.36Z" fill="#37261F"/>
<path d="M226.29 121.1C226.239 121.151 225.984 120.795 225.679 120.337C225.373 119.878 225.22 119.522 225.271 119.471C225.322 119.42 225.577 119.776 225.883 120.235C226.188 120.693 226.341 121.05 226.29 121.1Z" fill="#37261F"/>
<path d="M224.202 124.207C224.202 124.258 223.795 124.309 223.337 124.309C222.878 124.309 222.471 124.258 222.471 124.157C222.471 124.106 222.878 124.055 223.337 124.055C223.846 124.055 224.202 124.157 224.202 124.207Z" fill="#37261F"/>
<path d="M222.726 130.421C222.726 130.472 222.267 130.37 221.809 130.166C221.3 129.962 220.943 129.759 220.994 129.708C220.994 129.657 221.452 129.759 221.911 129.962C222.369 130.115 222.726 130.319 222.726 130.421Z" fill="#37261F"/>
<path d="M222.521 135.616C222.521 135.667 222.165 135.82 221.757 135.871C221.299 135.972 220.942 135.972 220.942 135.922C220.942 135.871 221.299 135.718 221.706 135.667C222.165 135.565 222.521 135.565 222.521 135.616Z" fill="#37261F"/>
<path d="M221.859 144.122C221.859 144.173 221.503 144.274 221.045 144.376C220.586 144.478 220.179 144.478 220.179 144.427C220.179 144.376 220.535 144.274 220.994 144.173C221.452 144.122 221.809 144.071 221.859 144.122Z" fill="#37261F"/>
<path d="M221.35 148.858C221.401 148.909 221.045 149.113 220.637 149.368C220.23 149.571 219.873 149.724 219.822 149.673C219.771 149.622 220.128 149.419 220.535 149.164C220.994 148.909 221.35 148.808 221.35 148.858Z" fill="#37261F"/>
<path d="M225.221 154.206C225.17 154.257 224.915 153.85 224.609 153.391C224.304 152.882 224.151 152.475 224.202 152.424C224.253 152.373 224.508 152.78 224.813 153.239C225.068 153.748 225.272 154.155 225.221 154.206Z" fill="#37261F"/>
<path d="M226.342 145.293C226.393 145.344 226.087 145.701 225.68 146.108C225.272 146.516 224.916 146.821 224.865 146.77C224.814 146.719 225.12 146.363 225.527 145.955C225.884 145.548 226.291 145.242 226.342 145.293Z" fill="#37261F"/>
<path d="M226.087 140.658C226.036 140.709 225.782 140.455 225.476 140.149C225.17 139.844 224.967 139.538 225.018 139.487C225.068 139.436 225.323 139.691 225.629 139.996C225.934 140.302 226.138 140.607 226.087 140.658Z" fill="#37261F"/>
<path d="M226.851 134.699C226.902 134.75 226.647 135.107 226.291 135.514C225.934 135.922 225.629 136.176 225.578 136.176C225.527 136.125 225.782 135.769 226.138 135.362C226.444 134.954 226.8 134.648 226.851 134.699Z" fill="#37261F"/>
<path d="M227.259 130.37C227.208 130.421 226.851 130.116 226.495 129.759C226.087 129.352 225.832 129.046 225.883 128.995C225.934 128.944 226.291 129.25 226.647 129.607C227.004 129.963 227.31 130.32 227.259 130.37Z" fill="#37261F"/>
<path d="M228.124 124.513C228.175 124.564 228.022 124.921 227.716 125.379C227.462 125.837 227.207 126.194 227.156 126.143C227.105 126.092 227.258 125.736 227.564 125.277C227.818 124.87 228.073 124.513 228.124 124.513Z" fill="#37261F"/>
<path d="M229.703 119.114C229.754 119.165 229.601 119.522 229.346 119.98C229.092 120.438 228.837 120.795 228.786 120.744C228.735 120.693 228.888 120.337 229.143 119.878C229.397 119.42 229.652 119.114 229.703 119.114Z" fill="#37261F"/>
<path d="M231.486 121.61C231.537 121.661 231.282 121.814 230.925 122.017C230.62 122.17 230.314 122.272 230.263 122.221C230.212 122.17 230.467 122.017 230.824 121.814C231.18 121.61 231.486 121.508 231.486 121.61Z" fill="#37261F"/>
<path d="M231.536 141.015C231.536 141.066 230.976 141.015 230.314 140.709C229.703 140.455 229.244 140.098 229.244 140.047C229.295 139.996 229.753 140.251 230.365 140.505C231.027 140.811 231.536 140.964 231.536 141.015Z" fill="#37261F"/>
<path d="M230.823 145.14C230.823 145.191 230.467 145.344 230.008 145.395C229.55 145.497 229.143 145.497 229.143 145.446C229.143 145.395 229.499 145.242 229.957 145.191C230.416 145.089 230.772 145.089 230.823 145.14Z" fill="#37261F"/>
<path d="M229.907 152.169C229.856 152.22 229.397 151.914 228.99 151.354C228.532 150.794 228.328 150.284 228.379 150.234C228.43 150.183 228.735 150.692 229.143 151.201C229.55 151.761 229.958 152.169 229.907 152.169Z" fill="#37261F"/>
<path d="M219.975 155.428C219.924 155.378 220.179 155.123 220.535 154.817C220.892 154.512 221.198 154.308 221.249 154.359C221.299 154.41 221.045 154.664 220.688 154.97C220.332 155.276 220.026 155.479 219.975 155.428Z" fill="#37261F"/>
<path d="M217.173 139.996C216.766 138.723 216.002 137.297 214.729 137.246C213.965 137.246 213.252 137.806 212.895 138.468C212.539 139.181 212.386 139.945 212.386 140.709C212.539 145.854 213.404 151.762 215.187 157.109H219.975C219.924 151.252 218.956 145.701 217.173 139.996Z" fill="#4F2011"/>
<path d="M208.464 132.153C207.802 129.453 205.764 128.027 203.473 127.875C201.333 128.231 200.518 130.319 200.264 132.458C200.009 134.598 200.671 136.737 201.333 138.774C203.422 145.395 205.561 151.965 207.649 158.586C209.635 158.383 211.622 158.128 213.608 157.924C211.723 149.113 210.654 140.913 208.464 132.153Z" fill="#4F2011"/>
<path d="M214.678 137.297C214.678 137.297 214.474 137.501 214.271 137.959C214.067 138.417 213.965 139.181 214.067 140.098C214.169 141.015 214.271 142.135 214.423 143.307C214.576 144.529 214.78 145.853 215.086 147.229C215.646 149.979 216.257 152.475 216.613 154.257C216.817 155.174 216.97 155.887 217.072 156.396C217.123 156.651 217.123 156.804 217.174 157.007C217.174 157.16 217.225 157.211 217.174 157.211C217.174 157.211 217.123 157.16 217.123 157.007C217.072 156.855 217.021 156.651 216.97 156.447C216.817 155.887 216.664 155.174 216.461 154.308C216.053 152.525 215.391 150.03 214.831 147.28C214.576 145.904 214.372 144.58 214.22 143.358C214.118 142.747 214.067 142.186 214.067 141.626C214.016 141.066 213.965 140.607 213.914 140.098C213.863 139.181 213.965 138.417 214.22 137.908C214.423 137.45 214.678 137.297 214.678 137.297Z" fill="#35221B"/>
<path d="M203.524 127.671C203.524 127.671 203.218 127.976 202.81 128.639C202.403 129.301 201.996 130.37 201.894 131.745C201.792 133.121 202.097 134.801 202.658 136.584C203.167 138.367 203.778 140.302 204.389 142.39C205.561 146.516 206.681 150.183 207.445 152.933C207.802 154.257 208.107 155.327 208.362 156.142C208.464 156.498 208.515 156.804 208.617 157.008C208.668 157.211 208.668 157.313 208.668 157.313C208.668 157.313 208.617 157.211 208.566 157.008C208.515 156.804 208.413 156.498 208.311 156.142C208.056 155.378 207.751 154.308 207.343 152.984C206.528 150.285 205.459 146.567 204.237 142.492C203.625 140.455 203.065 138.468 202.556 136.686C202.046 134.903 201.741 133.222 201.843 131.796C201.945 130.37 202.403 129.301 202.861 128.639C203.167 127.976 203.524 127.671 203.524 127.671Z" fill="#35221B"/>
<path d="M212.335 157.313C212.335 157.313 212.284 157.211 212.182 157.007C212.08 156.804 211.978 156.549 211.826 156.141C211.52 155.428 211.163 154.308 210.807 152.984C210.45 151.609 210.043 149.979 209.686 148.145C209.33 146.312 208.973 144.325 208.566 142.186C208.158 140.098 207.7 138.112 207.14 136.329C206.58 134.546 206.019 132.968 205.408 131.694C204.797 130.421 204.237 129.453 203.778 128.791C203.575 128.435 203.371 128.231 203.269 128.027C203.167 127.874 203.116 127.772 203.116 127.772C203.116 127.772 203.167 127.874 203.32 128.027C203.422 128.18 203.626 128.435 203.88 128.74C204.339 129.402 204.95 130.37 205.561 131.643C206.172 132.917 206.834 134.495 207.344 136.278C207.904 138.061 208.362 140.047 208.77 142.186C209.177 144.274 209.534 146.312 209.89 148.145C210.247 149.979 210.603 151.609 210.96 152.984C211.316 154.359 211.673 155.428 211.927 156.192C212.029 156.549 212.182 156.855 212.233 157.058C212.284 157.211 212.335 157.313 212.335 157.313Z" fill="#35221B"/>
<path d="M201.436 137.806C201.436 137.857 201.13 138.01 200.723 138.112C200.316 138.214 199.959 138.265 199.959 138.163C199.959 138.112 200.265 137.959 200.672 137.857C201.079 137.806 201.385 137.755 201.436 137.806Z" fill="#30221C"/>
<path d="M200.774 133.732C200.774 133.783 200.315 133.834 199.755 133.834C199.195 133.834 198.736 133.885 198.736 133.783C198.736 133.732 199.195 133.63 199.755 133.579C200.315 133.579 200.774 133.681 200.774 133.732Z" fill="#30221C"/>
<path d="M201.436 130.014C201.385 130.064 201.08 129.861 200.723 129.555C200.366 129.25 200.112 128.944 200.163 128.893C200.214 128.842 200.519 129.046 200.876 129.351C201.232 129.657 201.487 129.963 201.436 130.014Z" fill="#30221C"/>
<path d="M203.269 126.55C203.32 126.55 203.32 126.856 203.32 127.212C203.32 127.569 203.32 127.875 203.269 127.875C203.218 127.875 203.116 127.569 203.116 127.212C203.116 126.805 203.218 126.55 203.269 126.55Z" fill="#30221C"/>
<path d="M207.039 128.18C207.09 128.231 206.937 128.486 206.733 128.842C206.478 129.148 206.275 129.403 206.224 129.352C206.173 129.301 206.326 129.046 206.529 128.69C206.733 128.384 206.988 128.129 207.039 128.18Z" fill="#30221C"/>
<path d="M209.432 132.357C209.432 132.407 209.127 132.611 208.719 132.764C208.312 132.917 207.955 133.019 207.955 132.968C207.955 132.917 208.261 132.713 208.668 132.56C209.076 132.407 209.432 132.306 209.432 132.357Z" fill="#30221C"/>
<path d="M210.909 136.686C210.909 136.737 210.502 136.991 209.941 137.093C209.381 137.246 208.923 137.195 208.923 137.144C208.923 137.093 209.381 137.042 209.891 136.89C210.451 136.788 210.858 136.635 210.909 136.686Z" fill="#30221C"/>
<path d="M204.186 135.463C204.135 135.463 204.186 135.158 204.288 134.801C204.39 134.445 204.543 134.19 204.593 134.19C204.644 134.19 204.593 134.496 204.492 134.852C204.339 135.209 204.237 135.514 204.186 135.463Z" fill="#30221C"/>
<path d="M205.103 140.913C205.052 140.913 205.154 140.505 205.357 139.996C205.561 139.538 205.765 139.181 205.816 139.181C205.867 139.181 205.765 139.589 205.561 140.098C205.357 140.556 205.154 140.913 205.103 140.913Z" fill="#30221C"/>
<path d="M202.76 142.39C202.76 142.441 202.352 142.339 201.894 142.187C201.436 142.034 201.079 141.932 201.079 141.83C201.079 141.779 201.487 141.83 201.945 141.932C202.454 142.136 202.811 142.339 202.76 142.39Z" fill="#30221C"/>
<path d="M204.135 146.821C204.186 146.872 203.932 147.127 203.575 147.382C203.218 147.636 202.913 147.789 202.862 147.738C202.811 147.687 203.066 147.432 203.422 147.178C203.779 146.923 204.084 146.77 204.135 146.821Z" fill="#30221C"/>
<path d="M205.205 151.252C205.205 151.303 204.899 151.456 204.492 151.558C204.084 151.66 203.728 151.711 203.728 151.609C203.728 151.558 204.033 151.405 204.441 151.303C204.848 151.201 205.154 151.201 205.205 151.252Z" fill="#30221C"/>
<path d="M211.011 140.404C211.062 140.455 210.756 140.659 210.4 140.811C209.992 140.964 209.636 140.964 209.636 140.913C209.636 140.862 209.941 140.76 210.298 140.608C210.705 140.455 211.011 140.353 211.011 140.404Z" fill="#30221C"/>
<path d="M211.877 147.28C211.826 147.331 211.52 147.229 211.164 147.076C210.807 146.923 210.502 146.719 210.552 146.669C210.603 146.618 210.909 146.719 211.265 146.872C211.622 147.025 211.877 147.229 211.877 147.28Z" fill="#30221C"/>
<path d="M213.303 152.169C213.303 152.22 212.844 152.118 212.335 151.914C211.826 151.711 211.418 151.507 211.469 151.456C211.469 151.405 211.928 151.507 212.437 151.711C212.946 151.914 213.354 152.118 213.303 152.169Z" fill="#30221C"/>
<path d="M205.409 156.04C205.358 155.989 205.765 155.734 206.224 155.378C206.682 155.021 207.038 154.715 207.089 154.766C207.14 154.817 206.835 155.225 206.376 155.581C205.918 155.887 205.46 156.091 205.409 156.04Z" fill="#30221C"/>
<path d="M209.33 153.544C209.279 153.544 209.177 153.239 209.024 152.831C208.872 152.424 208.719 152.169 208.77 152.118C208.821 152.067 209.075 152.322 209.228 152.78C209.381 153.137 209.381 153.544 209.33 153.544Z" fill="#30221C"/>
<path d="M208.261 147.636C208.21 147.687 207.955 147.585 207.7 147.382C207.446 147.178 207.242 146.974 207.293 146.923C207.344 146.872 207.599 146.974 207.853 147.178C208.108 147.382 208.312 147.585 208.261 147.636Z" fill="#30221C"/>
<path d="M217.327 138.366C217.377 138.417 217.123 138.672 216.766 138.926C216.41 139.181 216.104 139.334 216.104 139.283C216.053 139.232 216.308 138.977 216.664 138.723C217.021 138.468 217.327 138.315 217.327 138.366Z" fill="#30221C"/>
<path d="M218.701 142.085C218.701 142.135 218.345 142.237 217.835 142.186C217.377 142.135 217.021 141.983 217.021 141.932C217.021 141.881 217.428 141.932 217.835 141.983C218.345 141.983 218.701 142.034 218.701 142.085Z" fill="#30221C"/>
<path d="M212.845 142.899C212.845 142.95 212.488 143.103 212.03 143.103C211.571 143.154 211.215 143.052 211.215 143.001C211.215 142.95 211.571 142.899 212.03 142.899C212.488 142.899 212.845 142.848 212.845 142.899Z" fill="#30221C"/>
<path d="M213.353 139.385C213.353 139.436 212.997 139.436 212.589 139.283C212.182 139.08 211.978 138.825 212.029 138.774C212.08 138.723 212.335 138.927 212.691 139.08C213.048 139.232 213.353 139.334 213.353 139.385Z" fill="#30221C"/>
<path d="M219.211 146.108C219.16 146.159 218.803 146.006 218.396 145.701C217.988 145.446 217.683 145.191 217.683 145.141C217.734 145.09 218.09 145.242 218.498 145.548C218.905 145.803 219.262 146.057 219.211 146.108Z" fill="#30221C"/>
<path d="M233.523 156.549H202.2V162.101H233.523V156.549Z" fill="#FCB700"/>
<path d="M204.543 161.031L208.363 177.584H227.004L231.18 161.031H204.543Z" fill="#FCB700"/>
<path d="M233.523 162.101C233.523 162.152 226.444 162.203 217.734 162.203C209.025 162.203 201.945 162.152 201.945 162.101C201.945 162.05 209.025 161.999 217.734 161.999C226.444 161.999 233.523 162.05 233.523 162.101Z" fill="#4F2011"/>
<path d="M216.104 143.052C216.053 143.103 215.849 142.848 215.646 142.492C215.442 142.135 215.289 141.83 215.34 141.83C215.391 141.779 215.595 142.033 215.798 142.39C216.002 142.696 216.155 143.001 216.104 143.052Z" fill="#30221C"/>
<path d="M216.104 147.534C216.053 147.534 216.104 147.127 216.257 146.668C216.41 146.21 216.562 145.853 216.613 145.904C216.664 145.904 216.613 146.312 216.461 146.77C216.359 147.178 216.155 147.534 216.104 147.534Z" fill="#30221C"/>
<path d="M217.632 152.22C217.581 152.271 217.327 151.863 217.123 151.405C216.868 150.896 216.766 150.488 216.817 150.488C216.868 150.437 217.123 150.845 217.327 151.303C217.53 151.762 217.683 152.169 217.632 152.22Z" fill="#30221C"/>
<path d="M214.321 155.989C214.27 155.938 214.474 155.683 214.729 155.327C214.983 155.021 215.289 154.767 215.289 154.818C215.34 154.868 215.136 155.123 214.882 155.48C214.627 155.785 214.372 155.989 214.321 155.989Z" fill="#30221C"/>
<path d="M213.66 149.113C213.66 149.164 213.354 149.164 212.998 149.113C212.641 149.062 212.336 148.96 212.386 148.909C212.386 148.858 212.692 148.858 213.049 148.909C213.354 148.96 213.66 149.062 213.66 149.113Z" fill="#30221C"/>
<path d="M291.177 154.002L281.398 167.448L297.951 179.927C299.021 178.297 292.145 168.161 292.145 168.161L298.97 159.299L291.177 154.002Z" fill="#7D3120"/>
<g opacity="0.6">
<g opacity="0.6">
<g opacity="0.6">
<g opacity="0.6">
<g opacity="0.6">
<g opacity="0.6">
<g opacity="0.6">
<path opacity="0.6" d="M288.274 164.087C287.867 163.934 287.408 164.138 287.205 164.494C287.052 164.851 287.205 165.36 287.612 165.513C288.02 165.666 288.58 165.462 288.733 165.055C288.834 164.647 288.58 164.087 288.172 164.036" fill="white"/>
</g>
</g>
</g>
</g>
</g>
</g>
</g>
<g opacity="0.6">
<g opacity="0.6">
<g opacity="0.6">
<g opacity="0.6">
<g opacity="0.6">
<g opacity="0.6">
<path opacity="0.6" d="M281.398 167.449L282.468 166.125L297.951 178.603C297.951 178.603 298.461 179.469 297.951 179.927L281.398 167.449Z" fill="white"/>
</g>
</g>
</g>
</g>
</g>
</g>
<path d="M292.297 168.518C292.247 168.62 291.788 168.314 291.228 168.263C290.617 168.212 290.158 168.416 290.107 168.314C290.056 168.263 290.515 167.856 291.228 167.907C291.941 168.009 292.348 168.467 292.297 168.518Z" fill="#441A05"/>
<path d="M293.877 170.912C293.826 171.014 293.367 170.861 292.858 171.014C292.298 171.116 291.992 171.472 291.89 171.37C291.788 171.319 292.094 170.81 292.756 170.657C293.418 170.504 293.928 170.81 293.877 170.912Z" fill="#441A05"/>
<path d="M293.316 173.611C293.214 173.56 293.418 173.102 293.978 172.796C294.539 172.491 295.048 172.643 294.997 172.694C294.997 172.796 294.59 172.847 294.131 173.102C293.673 173.356 293.418 173.662 293.316 173.611Z" fill="#441A05"/>
<path d="M293.826 166.226C293.724 166.277 293.47 165.87 292.96 165.564C292.502 165.259 291.993 165.106 292.044 165.004C292.044 164.902 292.604 164.851 293.164 165.259C293.724 165.615 293.928 166.175 293.826 166.226Z" fill="#263238"/>
<path d="M338.951 160.98L338.34 177.584L359.069 178.653C359.069 176.667 347.66 172.185 347.66 172.185L348.322 161.031L338.951 160.98Z" fill="#7D3120"/>
<g opacity="0.6">
<g opacity="0.6">
<g opacity="0.6">
<g opacity="0.6">
<g opacity="0.6">
<g opacity="0.6">
<g opacity="0.6">
<path opacity="0.6" d="M342.159 170.963C341.752 171.065 341.446 171.472 341.548 171.88C341.599 172.287 342.057 172.593 342.465 172.491C342.872 172.389 343.229 171.88 343.127 171.523C343.025 171.116 342.465 170.81 342.108 170.963" fill="white"/>
</g>
</g>
</g>
</g>
</g>
</g>
</g>
<g opacity="0.6">
<g opacity="0.6">
<g opacity="0.6">
<g opacity="0.6">
<g opacity="0.6">
<g opacity="0.6">
<path opacity="0.6" d="M338.34 177.635L338.493 175.954L358.305 177.584C358.305 177.584 359.222 178.042 359.069 178.653L338.34 177.635Z" fill="white"/>
</g>
</g>
</g>
</g>
</g>
</g>
<path d="M347.966 172.389C347.966 172.49 347.457 172.49 346.947 172.796C346.438 173.102 346.133 173.509 346.082 173.458C345.98 173.458 346.184 172.847 346.795 172.49C347.406 172.134 347.966 172.287 347.966 172.389Z" fill="#441A05"/>
<path d="M350.614 173.458C350.614 173.56 350.207 173.713 349.799 174.12C349.443 174.528 349.29 174.986 349.188 174.986C349.086 174.986 349.035 174.426 349.494 173.917C350.054 173.407 350.614 173.356 350.614 173.458Z" fill="#441A05"/>
<path d="M351.684 176.005C351.582 176.005 351.48 175.496 351.786 174.986C352.091 174.426 352.55 174.273 352.601 174.324C352.652 174.426 352.346 174.681 352.091 175.139C351.837 175.597 351.786 176.005 351.684 176.005Z" fill="#441A05"/>
<path d="M347.915 169.638C347.864 169.74 347.406 169.587 346.846 169.587C346.286 169.587 345.827 169.74 345.776 169.689C345.725 169.638 346.184 169.282 346.846 169.282C347.559 169.18 348.017 169.536 347.915 169.638Z" fill="#263238"/>
<path d="M332.585 90.2866C332.585 90.2866 357.185 124.564 357.491 128.638C357.745 132.662 350.615 170.912 350.615 170.912L336.558 170.402L339.563 133.171L313.944 104.598C313.944 104.598 308.8 101.084 309.615 91.3562L332.585 90.2866Z" fill="#441A05"/>
<path d="M308.443 93.2404C308.086 94.31 309.512 130.879 309.512 130.879C309.512 130.879 292.756 145.598 285.167 160.521L295.15 168.925C295.15 168.925 325.658 140.301 327.389 135.208C329.121 130.064 325.658 92.0181 325.658 92.0181L308.443 93.2404Z" fill="#441A05"/>
<path d="M309.563 94.667C309.563 94.667 309.563 94.7179 309.614 94.8707C309.614 95.0235 309.665 95.1763 309.665 95.431C309.665 95.5328 309.716 95.6856 309.716 95.8384C309.767 95.9912 309.767 96.144 309.818 96.3477C309.869 96.5515 309.869 96.7043 309.92 96.908C309.971 97.1117 310.022 97.3155 310.073 97.5701C310.327 98.4869 310.684 99.6074 311.295 100.83C311.906 102.052 312.772 103.376 314.045 104.599C320.004 111.22 329.274 121.559 339.715 133.171L339.766 133.222V133.273C339.766 133.579 339.715 133.884 339.715 134.241C338.544 148.502 337.474 161.439 336.761 170.504L336.659 170.403C341.039 170.606 344.503 170.708 346.947 170.81C348.17 170.861 349.087 170.912 349.749 170.912C350.054 170.912 350.309 170.963 350.462 170.963C350.614 170.963 350.716 170.963 350.716 170.963C350.716 170.963 350.614 170.963 350.462 170.963C350.309 170.963 350.054 170.963 349.749 170.963C349.087 170.963 348.17 170.912 346.947 170.861C344.503 170.759 340.988 170.657 336.659 170.504H336.557V170.403C337.27 161.286 338.289 148.4 339.41 134.139C339.46 133.834 339.46 133.477 339.511 133.171L339.562 133.273C329.172 121.61 319.903 111.271 313.995 104.65C312.721 103.427 311.855 102.052 311.244 100.83C310.633 99.6074 310.277 98.4869 310.073 97.5701C310.022 97.3155 309.971 97.1117 309.92 96.908C309.869 96.7043 309.869 96.5005 309.818 96.3477C309.767 96.144 309.767 95.9912 309.767 95.8384C309.767 95.6856 309.767 95.5328 309.716 95.431C309.716 95.1763 309.665 95.0235 309.665 94.8707C309.563 94.7179 309.563 94.667 309.563 94.667Z" fill="#2B1E19"/>
<path d="M313.689 21.987C312.721 19.8478 311.753 17.7087 311.193 15.4168C310.633 13.1249 310.429 10.7311 310.989 8.43913C311.091 8.08261 311.906 5.73975 312.262 5.73975C312.517 5.73975 312.11 7.87888 312.262 8.08261C313.689 10.018 314.3 12.5137 314.402 14.9584C314.402 17.3522 314.147 19.5932 313.689 21.987Z" fill="#263238"/>
<path d="M322.144 40.8321C318.527 41.1376 315.319 38.5401 314.911 34.924L312.467 13.1252C311.652 7.26801 314.351 1.9711 320.157 1.25806L320.718 1.20713C326.218 0.901537 331.006 4.82328 331.77 10.273C332.483 15.3152 333.196 20.9177 333.298 23.668C333.552 29.3215 327.95 30.4929 327.95 30.4929C327.95 30.4929 328.663 34.2109 328.816 35.8407C329.172 39.6097 325.862 40.4755 322.144 40.8321Z" fill="#C78976"/>
<path d="M327.95 30.4926C327.95 30.4926 324.385 30.9 320.463 28.71C320.463 28.71 322.5 32.7336 328.103 31.8677L327.95 30.4926Z" fill="#AE4F32"/>
<path d="M329.529 14.9074C329.58 15.3149 329.223 15.7223 328.816 15.7733C328.358 15.8242 328.001 15.5186 327.95 15.1111C327.899 14.7037 328.256 14.2962 328.663 14.2453C329.071 14.1944 329.478 14.5 329.529 14.9074Z" fill="#263238"/>
<path d="M330.7 12.7177C330.598 12.8196 329.987 12.4121 329.121 12.463C328.255 12.514 327.644 12.9724 327.542 12.8705C327.491 12.8196 327.593 12.6158 327.848 12.4121C328.102 12.2084 328.561 11.9537 329.121 11.9537C329.681 11.9028 330.14 12.1065 330.394 12.3102C330.649 12.463 330.751 12.6668 330.7 12.7177Z" fill="#263238"/>
<path d="M321.278 15.5694C321.329 15.9769 320.973 16.3843 320.565 16.4353C320.107 16.4862 319.75 16.1806 319.699 15.7732C319.648 15.3657 320.005 14.9583 320.412 14.9073C320.871 14.8055 321.227 15.111 321.278 15.5694Z" fill="#263238"/>
<path d="M322.246 13.5326C322.144 13.6345 321.533 13.227 320.667 13.278C319.801 13.3289 319.19 13.7873 319.088 13.6854C319.037 13.6345 319.139 13.4308 319.394 13.227C319.648 13.0233 320.107 12.7687 320.667 12.7687C321.227 12.7177 321.685 12.9215 321.94 13.1252C322.195 13.278 322.297 13.4817 322.246 13.5326Z" fill="#263238"/>
<path d="M325.709 20.0009C325.709 19.95 326.218 19.8481 327.084 19.6444C327.288 19.5934 327.492 19.5425 327.542 19.3897C327.593 19.2369 327.492 18.9823 327.339 18.7276C327.084 18.2183 326.829 17.658 326.575 17.0978C325.505 14.7549 324.741 12.8195 324.843 12.7686C324.945 12.7177 325.862 14.6021 326.931 16.945C327.186 17.5052 327.441 18.0655 327.644 18.6257C327.746 18.8804 327.899 19.1351 327.797 19.4916C327.746 19.6444 327.593 19.7972 327.441 19.8481C327.288 19.899 327.186 19.899 327.084 19.899C326.269 20.0518 325.709 20.0518 325.709 20.0009Z" fill="#263238"/>
<path d="M323.213 20.7646C323.366 20.7646 323.417 21.6814 324.232 22.2926C325.098 22.9038 326.066 22.751 326.066 22.9038C326.066 22.9547 325.862 23.1075 325.454 23.1584C325.047 23.2094 324.436 23.1075 323.926 22.7001C323.417 22.2926 323.162 21.7833 323.112 21.3758C323.061 20.9684 323.162 20.7646 323.213 20.7646Z" fill="#263238"/>
<path d="M322.194 10.5272C322.143 10.7818 321.226 10.68 320.258 10.8837C319.24 11.0365 318.425 11.393 318.272 11.1893C318.221 11.0874 318.323 10.8837 318.68 10.629C318.985 10.3744 319.494 10.1197 320.106 10.0178C320.717 9.91597 321.277 9.96691 321.634 10.1197C321.99 10.2216 322.194 10.4253 322.194 10.5272Z" fill="#263238"/>
<path d="M330.191 9.50891C330.038 9.71263 329.427 9.55984 328.714 9.55984C328 9.55984 327.389 9.76357 327.236 9.55984C327.186 9.45798 327.236 9.25425 327.491 9.05052C327.746 8.8468 328.153 8.694 328.663 8.64307C329.172 8.64307 329.579 8.79586 329.834 8.94866C330.14 9.20332 330.241 9.40704 330.191 9.50891Z" fill="#263238"/>
<path d="M313.179 17.2504C313.078 17.1995 309.258 16.3336 309.563 20.1535C309.92 24.0243 313.689 22.8529 313.689 22.751C313.74 22.6492 313.179 17.2504 313.179 17.2504Z" fill="#C78976"/>
<path d="M312.415 21.4266C312.415 21.4266 312.365 21.4776 312.263 21.5285C312.161 21.5794 311.957 21.6304 311.753 21.5794C311.346 21.4776 310.938 20.8664 310.837 20.1534C310.786 19.7968 310.837 19.4403 310.938 19.1856C311.04 18.8801 311.193 18.6763 311.397 18.6254C311.601 18.5745 311.753 18.6763 311.804 18.7782C311.855 18.8801 311.855 18.9819 311.855 18.9819C311.855 18.9819 311.957 18.931 311.906 18.7782C311.906 18.7273 311.855 18.6254 311.753 18.5745C311.651 18.5235 311.499 18.4726 311.397 18.5235C311.091 18.5745 310.837 18.8801 310.735 19.1856C310.633 19.4912 310.531 19.8987 310.582 20.2552C310.684 21.0192 311.142 21.7322 311.702 21.8341C311.957 21.885 312.212 21.7832 312.314 21.6813C312.415 21.5285 312.415 21.4266 312.415 21.4266Z" fill="#AE4F32"/>
<path d="M328.663 4.16094C329.274 3.75348 327.186 1.91994 325.607 1.35969C323.213 0.544784 319.597 0.239192 317.509 1.0541C315.013 2.0218 313.027 3.49883 311.957 5.99449C310.888 8.43921 310.684 11.2405 310.989 13.8889C311.091 14.7038 311.244 15.5187 311.753 16.1808C312.365 16.9958 313.434 17.4032 313.536 18.5746C313.587 18.9821 313.689 19.3895 313.994 19.6951C314.809 20.4591 315.624 19.6442 315.93 18.8802C316.643 17.3013 316.541 15.4678 316.439 13.7361C316.388 12.5138 316.286 11.2405 315.828 10.12C315.573 9.50878 315.217 8.8976 315.013 8.28642C314.809 7.67524 314.758 6.91126 315.115 6.35101C315.166 6.24914 315.268 6.14728 315.421 5.99449C316.439 4.92492 317.916 4.51746 319.342 4.87399C321.583 5.43424 325.352 6.19821 326.218 5.3833C326.778 4.82305 327.237 4.4156 327.491 4.16094C327.746 3.90628 328.204 3.85535 328.51 4.11001L328.663 4.16094Z" fill="#441A05"/>
<path d="M328.663 34.8726L329.885 42.2068L335.131 91.4578C329.121 98.1808 316.49 92.2218 306.559 93.9535L307.883 62.3248C307.883 62.3248 305.387 47.8092 305.54 46.2813C305.896 42.9707 310.786 34.4651 314.504 31.562L328.663 34.8726Z" fill="#FC8E01"/>
<path d="M297.696 108.571L299.275 109.845L305.234 109.182L306.558 100.32H302.127L300.599 106.84L297.696 108.571Z" fill="#C78976"/>
<path d="M320.768 35.5353C317.355 33.7017 312.975 34.7204 310.531 37.6744C309.563 38.8458 308.595 40.221 308.137 41.5452C307.169 44.1937 301.668 57.1813 299.02 63.4968C298.052 65.7888 297.594 68.2844 297.747 70.7801L299.427 100.371H307.831L309.614 71.4931L322.041 48.1154C321.99 48.0645 327.491 39.1005 320.768 35.5353Z" fill="#FC8E01"/>
<path d="M320.514 35.3824C320.514 35.3824 320.463 35.3824 320.31 35.3314C320.208 35.2805 320.004 35.2296 319.801 35.1277C319.597 35.0258 319.291 34.924 318.935 34.8731C318.578 34.7712 318.171 34.6693 317.712 34.6184C316.796 34.4656 315.573 34.4656 314.3 34.924C313.027 35.3824 311.652 36.2482 310.582 37.6743C309.614 38.8457 308.596 40.2209 308.035 41.9526C307.322 43.6333 306.609 45.4159 305.794 47.3513C304.216 51.1712 302.433 55.4495 300.498 60.0843C299.581 62.4272 298.358 64.7191 298.002 67.4185C297.798 68.7427 297.798 70.1178 297.9 71.493C298.002 72.8682 298.053 74.2943 298.155 75.6694C298.46 81.3228 298.817 87.2819 299.173 93.4446C299.326 95.7875 299.428 98.0794 299.581 100.371L299.428 100.269C302.28 100.269 305.081 100.269 307.832 100.269L307.679 100.371C308.341 89.5229 308.952 79.6421 309.461 71.493C313.129 64.6172 316.134 59.0147 318.222 55.1439C319.24 53.2085 320.055 51.7315 320.616 50.6619C320.87 50.1526 321.125 49.7961 321.227 49.4905C321.38 49.2358 321.43 49.083 321.43 49.083C321.43 49.083 321.38 49.2358 321.227 49.4905C321.074 49.7451 320.87 50.1526 320.616 50.6619C320.055 51.6805 319.291 53.2085 318.273 55.1439C316.185 59.0147 313.23 64.6172 309.563 71.5439V71.493C309.054 79.6421 308.494 89.4719 307.832 100.371V100.473H307.73C304.98 100.473 302.178 100.473 299.326 100.473H299.224V100.371C299.071 98.0794 298.97 95.7875 298.817 93.4446C298.46 87.2819 298.155 81.3228 297.798 75.6694C297.696 74.2433 297.645 72.8682 297.543 71.493C297.442 70.1178 297.442 68.7427 297.645 67.3675C297.849 66.0433 298.206 64.7191 298.715 63.5477C299.224 62.3253 299.683 61.1539 300.192 60.0334C302.127 55.3986 303.91 51.1203 305.489 47.3004C306.304 45.4159 307.017 43.5824 307.73 41.9016C308.341 40.17 309.36 38.7948 310.327 37.6234C311.397 36.1973 312.823 35.3314 314.096 34.8731C315.421 34.4147 316.643 34.4147 317.56 34.5675C318.018 34.6184 318.426 34.7203 318.782 34.8221C319.139 34.924 319.393 35.0258 319.648 35.1277C319.852 35.2296 320.055 35.2805 320.157 35.3314C320.412 35.3314 320.514 35.3824 320.514 35.3824Z" fill="#263238"/>
<path opacity="0.3" d="M308.443 93.2407C308.443 93.2407 309.462 93.2407 310.277 87.1289C311.092 81.0171 312.314 71.1363 312.314 71.1363L320.463 51.1201L309.564 71.5438L308.443 93.2407Z" fill="black"/>
<path d="M76.9068 164.444L73.3925 172.338C73.3925 172.338 82.6621 175.801 82.6621 177.839L61.5254 177.38L67.2807 163.374L76.9068 164.444Z" fill="#7D3120"/>
<g opacity="0.6">
<g opacity="0.6">
<g opacity="0.6">
<g opacity="0.6">
<g opacity="0.6">
<g opacity="0.6">
<g opacity="0.6">
<g opacity="0.6">
<path opacity="0.6" d="M65.2438 170.708C64.8364 170.81 64.5308 171.269 64.5817 171.676C64.6327 172.084 65.091 172.44 65.5494 172.338C65.9569 172.236 66.3643 171.727 66.2115 171.32C66.1097 170.912 65.5494 170.556 65.142 170.759" fill="white"/>
</g>
</g>
</g>
</g>
</g>
</g>
</g>
</g>
<g opacity="0.6">
<g opacity="0.6">
<g opacity="0.6">
<g opacity="0.6">
<g opacity="0.6">
<g opacity="0.6">
<g opacity="0.6">
<path opacity="0.6" d="M61.5254 177.431L62.0347 176.158L82 176.871C82 176.871 82.6621 177.176 82.7639 178.042L61.5254 177.431Z" fill="white"/>
</g>
</g>
</g>
</g>
</g>
</g>
</g>
<path d="M73.4438 172.236C73.4438 172.338 72.9344 172.338 72.3742 172.695C71.8139 173 71.5593 173.408 71.4574 173.357C71.3556 173.357 71.5593 172.695 72.2214 172.338C72.8835 171.982 73.4947 172.134 73.4438 172.236Z" fill="#441A05"/>
<path d="M75.2767 173.051C75.2767 173.153 74.8183 173.306 74.4618 173.713C74.0544 174.121 73.9525 174.579 73.8506 174.579C73.7488 174.579 73.6978 173.968 74.2072 173.459C74.6655 172.949 75.2767 172.949 75.2767 173.051Z" fill="#441A05"/>
<path d="M76.2444 175.649C76.1426 175.649 76.0407 175.139 76.3463 174.579C76.6519 174.019 77.1612 173.815 77.1612 173.917C77.2121 174.019 76.9066 174.273 76.6519 174.732C76.3972 175.241 76.3463 175.649 76.2444 175.649Z" fill="#441A05"/>
<path d="M73.8506 170.912C73.7487 170.963 73.3922 170.607 72.8829 170.403C72.3226 170.148 71.8643 170.097 71.8643 169.995C71.8643 169.893 72.4245 169.741 73.0357 170.046C73.6469 170.352 73.9525 170.861 73.8506 170.912Z" fill="#441A05"/>
<path d="M74.0042 168.976C74.0042 169.027 73.5967 168.925 73.0365 168.569C72.7818 168.365 72.4253 168.11 72.1197 167.805C71.9669 167.652 71.8141 167.448 71.6613 167.245C71.6104 167.143 71.5085 167.041 71.4576 166.888C71.4066 166.735 71.4576 166.481 71.6104 166.379C71.7632 166.277 71.9669 166.277 72.1197 166.328C72.2725 166.379 72.3743 166.481 72.4762 166.532C72.6799 166.684 72.8327 166.837 72.9855 166.99C73.2911 167.347 73.4948 167.652 73.6476 167.958C73.9023 168.569 73.9023 168.976 73.9023 169.027C73.8514 169.027 73.7495 168.62 73.4439 168.11C73.2911 167.856 73.0874 167.55 72.7818 167.245C72.629 167.092 72.4762 166.939 72.2725 166.837C72.0688 166.684 71.916 166.633 71.8141 166.684C71.7632 166.735 71.7632 166.735 71.7632 166.786C71.7632 166.837 71.865 166.939 71.916 167.041C72.0178 167.245 72.1706 167.397 72.3234 167.55C72.5781 167.856 72.8837 168.11 73.1383 168.314C73.6476 168.722 74.0042 168.925 74.0042 168.976Z" fill="#441A05"/>
<path d="M73.8004 169.079C73.7494 169.079 73.6985 168.671 73.9532 168.009C74.055 167.703 74.2588 167.347 74.5644 166.99C74.7171 166.838 74.8699 166.634 75.0737 166.481C75.2774 166.328 75.5321 166.124 75.9395 166.277C76.1432 166.379 76.2451 166.583 76.2451 166.736C76.2451 166.888 76.1942 167.041 76.1942 167.143C76.1432 167.398 76.0414 167.601 75.8886 167.805C75.6339 168.213 75.3283 168.467 75.0227 168.62C74.4116 168.977 73.9532 168.926 73.9532 168.875C73.9532 168.824 74.3606 168.773 74.8699 168.416C75.1246 168.213 75.3793 167.958 75.583 167.652C75.6848 167.5 75.7867 167.296 75.7867 167.092C75.8376 166.888 75.8376 166.685 75.7358 166.634C75.6339 166.583 75.4302 166.685 75.2774 166.787C75.1246 166.939 74.9209 167.041 74.819 167.194C74.5644 167.5 74.3606 167.805 74.2078 168.111C73.9022 168.671 73.8513 169.079 73.8004 169.079Z" fill="#441A05"/>
<path d="M43.699 154.359L35.1934 167.856L51.8481 178.704C52.7648 177.074 45.5325 167.856 45.5325 167.856L51.4915 158.943L43.699 154.359Z" fill="#7D3120"/>
<g opacity="0.6">
<g opacity="0.6">
<g opacity="0.6">
<g opacity="0.6">
<g opacity="0.6">
<g opacity="0.6">
<g opacity="0.6">
<path opacity="0.6" d="M41.6106 164.189C41.2541 164.087 40.7957 164.29 40.6429 164.647C40.4901 165.004 40.7448 165.513 41.1013 165.615C41.4578 165.768 42.0181 165.513 42.1199 165.105C42.2218 164.698 41.9162 164.189 41.5087 164.138" fill="white"/>
</g>
</g>
</g>
</g>
</g>
</g>
</g>
<g opacity="0.6">
<g opacity="0.6">
<g opacity="0.6">
<g opacity="0.6">
<g opacity="0.6">
<g opacity="0.6">
<path opacity="0.6" d="M35.1934 167.856L36.1101 166.532L51.7971 177.482C51.7971 177.482 52.3064 178.297 51.899 178.755L35.1934 167.856Z" fill="white"/>
</g>
</g>
</g>
</g>
</g>
</g>
<path d="M45.6854 168.212C45.6345 168.314 45.1761 168.06 44.6158 168.06C44.0556 168.06 43.5972 168.263 43.5463 168.162C43.4953 168.111 43.9028 167.703 44.6158 167.703C45.3289 167.703 45.7873 168.111 45.6854 168.212Z" fill="#441A05"/>
<path d="M47.3661 170.352C47.3152 170.453 46.9077 170.352 46.3984 170.504C45.8891 170.657 45.5835 170.963 45.4816 170.912C45.3798 170.861 45.6344 170.352 46.2966 170.148C46.9587 169.995 47.417 170.301 47.3661 170.352Z" fill="#441A05"/>
<path d="M47.061 173C46.9592 172.949 47.112 172.49 47.6213 172.185C48.1306 171.879 48.6399 171.93 48.589 172.032C48.589 172.134 48.1815 172.185 47.7741 172.49C47.3666 172.745 47.112 173.051 47.061 173Z" fill="#441A05"/>
<path d="M47.0092 165.869C46.9073 165.92 46.6017 165.564 46.1433 165.309C45.6849 165.055 45.2266 164.953 45.2266 164.851C45.2266 164.749 45.7868 164.698 46.3471 165.004C46.9073 165.309 47.111 165.819 47.0092 165.869Z" fill="#263238"/>
<path d="M76.957 88.4023C76.957 88.4023 91.116 118.197 93.4589 123.749C95.0887 127.62 96.1073 129.402 94.2738 134.139C92.4402 138.825 78.1793 168.162 78.1793 168.162L63.511 167.092L78.2812 132.866L73.9011 116.415L62.4414 94.1576L76.957 88.4023Z" fill="#441A05"/>
<path d="M53.4775 85.8049C53.4775 85.8049 51.2874 85.1937 51.2365 86.2123C50.9818 90.3378 50.5744 90.3378 51.2365 97.8248C51.3383 98.7925 52.6626 103.427 53.07 104.344L55.2092 109.488L58.2141 131.287L56.075 136.737C56.075 136.737 52.8154 138.316 51.593 139.945C50.3706 141.575 37.6377 160.726 37.6377 160.726L49.1992 167.245C49.1992 167.245 73.0862 139.385 74.5123 133.834C75.9384 128.333 75.1235 100.422 75.1235 100.422L74.1049 88.7589L53.4775 85.8049Z" fill="#441A05"/>
<path d="M74.3089 98.7417C74.3089 98.7417 74.3089 98.7926 74.3089 98.9454C74.3089 99.0982 74.3089 99.3019 74.3598 99.5057C74.4108 100.015 74.4108 100.779 74.4617 101.747C74.5635 103.682 74.6654 106.483 74.8182 109.896C74.9201 113.359 75.0729 117.434 75.1238 122.018C75.1747 124.309 75.1238 126.703 75.0729 129.199C75.0219 129.81 75.0219 130.421 74.971 131.083C74.9201 131.695 74.8691 132.357 74.7673 132.968C74.7163 133.273 74.6654 133.63 74.5636 133.936L74.4108 134.394L74.207 134.852C73.9014 135.464 73.5958 136.024 73.2393 136.584C71.8642 138.825 70.3362 140.913 68.8592 142.9C67.3822 144.886 65.9051 146.77 64.53 148.604C61.7287 152.22 59.1312 155.378 56.9412 158.026C54.7511 160.675 52.9685 162.814 51.6952 164.291C51.084 165.004 50.5747 165.564 50.2691 165.972C50.1163 166.175 49.9635 166.277 49.9126 166.43C49.8107 166.532 49.7598 166.583 49.7598 166.583C49.7598 166.583 49.8107 166.532 49.8616 166.43C49.9635 166.328 50.0654 166.175 50.2182 165.972C50.5237 165.564 51.0331 165.004 51.6442 164.24C52.8666 162.712 54.6492 160.573 56.7884 157.924C58.9784 155.225 61.525 152.067 64.3263 148.451C65.7524 146.669 67.1784 144.733 68.6555 142.747C70.1325 140.76 71.6604 138.672 73.0356 136.431C73.3921 135.871 73.6977 135.311 74.0033 134.75L74.207 134.292L74.3598 133.834C74.4108 133.528 74.4617 133.223 74.5126 132.917C74.6145 132.306 74.6145 131.644 74.7163 131.032C74.7673 130.421 74.7673 129.759 74.8182 129.148C74.9201 126.652 74.9201 124.259 74.9201 122.018C74.8691 117.434 74.7673 113.359 74.6654 109.896C74.5635 106.483 74.4617 103.682 74.4108 101.747C74.3598 100.779 74.3598 100.066 74.3598 99.5057C74.3598 99.251 74.3598 99.0473 74.3598 98.9454C74.3089 98.7926 74.3089 98.7417 74.3089 98.7417Z" fill="#260000"/>
<path d="M54.0893 20.7648C54.1402 19.9499 53.8346 19.0841 54.1402 18.3201C54.7004 17.0977 56.5849 17.0977 57.4508 16.0791C58.775 14.6021 57.3998 11.9536 58.724 10.5785C59.8955 9.30517 61.5253 9.45797 62.5439 8.08281C63.0532 7.36976 62.5439 5.79088 64.3265 5.12876C65.447 4.67038 66.9241 4.82317 68.0446 4.41572C69.6744 3.85547 70.1837 2.68404 71.8135 2.22565C73.7999 1.6654 75.5315 4.00826 77.5688 4.0592C79.3514 4.11013 81.0831 2.37845 82.7129 3.09149C84.0371 3.70267 84.2918 5.53622 85.5142 6.24926C86.5837 6.86045 88.1626 6.45299 89.0285 7.31883C89.9962 8.2356 89.4869 9.91635 90.3018 10.9859C91.1167 12.0555 92.8993 12.1574 93.3577 13.3797C93.9179 14.8058 92.0334 16.3338 92.5428 17.7598C92.7465 18.3201 93.2558 18.7275 93.6633 19.1859C94.5291 20.1536 94.8347 21.4779 94.5291 22.7002C94.2235 23.9226 93.2558 24.9412 92.0334 25.3996L70.1328 32.5301C67.6371 34.109 64.3775 34.5164 61.5253 33.5996C60.5576 33.294 59.6408 32.8357 58.9787 32.1226C58.1638 31.2568 57.7563 30.0344 56.8396 29.2195C56.0756 28.5574 55.057 28.2518 54.0893 27.8443C53.1725 27.4369 52.2048 26.7748 52.001 25.7561C51.7464 24.0245 53.9365 22.5984 54.0893 20.7648Z" fill="#441A05"/>
<path d="M69.2665 9.05064C67.9932 8.23573 67.6877 6.35125 68.3498 5.02702C69.0628 3.7028 70.4889 2.88789 72.0169 2.63323C74.156 2.2767 76.4989 3.04068 78.0268 4.61957C78.8417 5.48541 79.5038 6.55497 80.6243 6.96243C81.592 7.31895 82.7125 7.01336 83.7312 7.11523C85.1063 7.31895 86.2778 8.28666 86.9908 9.45809C87.7038 10.6805 88.0094 12.0556 88.1622 13.4308C88.315 14.7041 88.4169 16.0792 89.2827 17.0469C90.1486 17.9637 91.5237 18.1674 92.5933 18.7786C94.6306 20.001 95.2418 23.0059 93.9175 24.9414C93.5101 25.5525 92.8989 26.1128 92.848 26.8768C92.797 27.5389 93.2554 28.1501 93.4591 28.8122C93.9685 30.4929 92.5933 32.4793 90.8616 32.5811C89.9958 32.6321 89.0281 32.2755 88.2132 32.683C87.3983 33.0904 87.1436 34.0072 86.6343 34.7712C85.6156 36.1973 83.5784 36.7575 81.9995 35.9426C81.3374 35.637 80.7262 35.0768 80.0132 35.1277C79.3001 35.1786 78.7399 35.7898 78.0268 35.9426C77.11 36.1464 76.1933 35.4333 75.633 34.6693C75.0728 33.9054 74.7162 32.9886 74.0032 32.3774C73.0864 31.5625 71.7622 31.3588 70.5908 30.9513C67.9932 30.0345 65.8032 27.9973 64.7845 25.4507C63.7659 22.9041 63.8678 19.8991 65.1411 17.4544" fill="#441A05"/>
<path d="M65.9057 39.3549L64.5306 14.4493C64.4797 13.3288 65.2946 12.412 66.3641 12.2592L77.5182 9.10142C81.0834 8.64303 83.63 12.9722 83.9356 16.5884C84.2921 20.612 84.5977 25.5015 84.1903 28.5064C83.4263 34.5673 78.8424 35.4332 78.8424 35.4332C78.8424 35.4332 78.9443 40.8319 78.9952 43.022L78.5878 50.5599L65.9057 39.3549Z" fill="#FFBE9D"/>
<path d="M82.7135 21.4782C82.7644 21.8857 82.4079 22.2422 82.0004 22.2931C81.593 22.3441 81.2365 22.0385 81.1855 21.631C81.1346 21.2236 81.4911 20.867 81.8986 20.8161C82.357 20.7652 82.7135 21.0708 82.7135 21.4782Z" fill="#263238"/>
<path d="M82.9681 19.1351C82.8662 19.2369 82.255 18.8295 81.4401 18.8295C80.6252 18.8295 80.014 19.2879 79.9121 19.186C79.8612 19.1351 79.9631 18.9823 80.2177 18.7785C80.4724 18.5748 80.9308 18.3711 81.4401 18.3711C81.9494 18.3711 82.4078 18.5239 82.6625 18.7276C82.9171 18.8804 83.019 19.0841 82.9681 19.1351Z" fill="#263238"/>
<path d="M74.7682 21.4777C74.8191 21.8852 74.4626 22.2417 74.0551 22.2926C73.6477 22.3436 73.2911 22.038 73.2402 21.6305C73.1893 21.2231 73.5458 20.8665 73.9533 20.8156C74.3607 20.7647 74.7172 21.0703 74.7682 21.4777Z" fill="#263238"/>
<path d="M74.8186 19.4915C74.7168 19.5934 74.1056 19.1859 73.2907 19.1859C72.4758 19.1859 71.8646 19.6443 71.7627 19.5424C71.7118 19.4915 71.8137 19.3387 72.0683 19.135C72.323 18.9313 72.7814 18.7275 73.2907 18.7275C73.8 18.7275 74.2584 18.8803 74.5131 19.0841C74.7677 19.2878 74.8696 19.4406 74.8186 19.4915Z" fill="#263238"/>
<path d="M78.027 25.5526C78.027 25.5017 78.5363 25.3998 79.3512 25.247C79.5549 25.1961 79.7587 25.1961 79.8096 25.0433C79.8605 24.8905 79.7587 24.6868 79.6568 24.4321C79.4531 23.9228 79.1984 23.4135 78.9947 22.8532C78.0779 20.5613 77.3649 18.7277 77.4667 18.6768C77.5686 18.6259 78.3835 20.4594 79.3512 22.7004C79.5549 23.2607 79.8096 23.77 80.0133 24.3302C80.1152 24.5849 80.268 24.8396 80.1661 25.1452C80.1152 25.298 79.9624 25.3998 79.8096 25.4507C79.6568 25.5017 79.5549 25.5017 79.4531 25.5017C78.5363 25.6035 78.027 25.6035 78.027 25.5526Z" fill="#263238"/>
<path d="M78.8423 35.3822C78.8423 35.3822 74.8187 35.7387 70.7441 33.4468C70.7441 33.4468 72.8833 37.6232 78.8932 36.9101L78.8423 35.3822Z" fill="#EB996E"/>
<path d="M77.9256 27.5389C77.3653 27.1315 76.0411 26.5203 75.5318 26.4694C75.1244 26.4184 75.379 26.9277 75.1753 27.3352C74.9716 27.7427 74.9716 28.3029 75.2262 28.6594C75.5318 29.1178 76.143 29.2197 76.6014 29.1178C77.0598 29.0159 77.4672 28.6594 77.8237 28.3029C77.9256 28.201 78.0275 28.0992 78.0784 27.9973C78.0784 27.8954 78.0784 27.6917 77.9256 27.5389Z" fill="#EB996E"/>
<path d="M75.0735 16.0791C75.0225 16.2829 74.1567 16.2319 73.189 16.3847C72.2213 16.4866 71.4573 16.7922 71.3045 16.6394C71.2536 16.5375 71.3554 16.3338 71.661 16.0791C71.9666 15.8754 72.4759 15.6207 73.0362 15.5698C73.5964 15.4679 74.1567 15.5698 74.5132 15.7226C74.9207 15.7735 75.1244 15.9773 75.0735 16.0791Z" fill="#263238"/>
<path d="M82.6111 16.2828C82.4583 16.4866 81.8981 16.2828 81.185 16.2828C80.472 16.2828 79.9118 16.4356 79.759 16.2319C79.708 16.13 79.759 15.9263 80.0136 15.7735C80.2683 15.5698 80.6757 15.417 81.1341 15.417C81.5925 15.417 82 15.5698 82.2546 15.7735C82.5602 15.9772 82.6621 16.181 82.6111 16.2828Z" fill="#263238"/>
<path d="M88.0099 15.2643C87.7043 14.3475 87.195 13.4816 86.431 12.9723C85.9726 12.6667 85.5142 12.5139 85.1068 12.2083C84.2409 11.4953 84.0372 10.2729 83.4769 9.30524C82.7639 8.03194 81.4397 7.1661 80.0136 7.01331C78.8422 6.91144 77.5689 7.26796 76.4484 6.96237C75.5825 6.75864 74.8185 6.1984 73.9527 6.0456C72.2719 5.74001 70.6931 6.96237 69.4707 8.1338C69.4707 9.35617 70.4384 10.1711 71.3552 10.9351C72.272 11.699 73.5452 12.0556 74.7676 11.8518C75.6844 11.699 76.703 11.1897 77.5179 11.699C78.3838 12.2083 78.3838 13.4816 79.1477 14.1438C80.2173 15.0605 81.8981 14.1947 83.2732 14.6021C84.3428 14.9077 84.954 15.9264 85.667 16.7413C86.3801 17.6071 87.3987 18.3711 88.4683 18.0655C88.3664 17.0978 88.3155 16.181 88.0099 15.2643Z" fill="#441A05"/>
<path d="M75.3274 10.1203C74.5634 9.91661 73.0355 9.40728 72.628 8.74517C71.7622 7.31908 70.1833 6.35138 68.6044 6.40231C67.0255 6.50417 65.4976 7.72654 65.1411 9.40729C63.2057 9.40729 61.3212 10.6296 60.4044 12.4632C60.3025 12.6669 60.2007 12.9216 60.0988 13.1762C59.4876 14.2458 59.3858 15.57 59.7932 16.6905C60.0479 17.3526 60.5063 18.1166 60.1497 18.7787C59.7932 19.4409 58.8765 19.4408 58.1634 19.6955C56.941 20.103 56.1261 21.5291 56.4317 22.8024C56.5336 23.2607 56.7373 23.7191 56.6355 24.1775C56.5336 24.6359 56.1261 24.9924 55.8205 25.3489C55.0566 26.2657 54.8019 27.6409 55.2094 28.7614C55.6168 29.8819 56.6864 30.7986 57.8578 31.0024C58.4181 31.1042 58.9783 31.0533 59.4367 31.3589C59.997 31.6645 60.2007 32.3266 60.6081 32.8359C61.3212 33.8036 62.6963 34.2111 63.8678 33.8546C64.1224 33.7527 64.3262 33.6508 64.5299 33.549C64.8864 34.0583 65.4467 34.4148 66.4144 34.4148L66.2106 21.7328C66.3125 21.9874 66.5672 22.2421 66.9746 22.344C69.0119 22.8024 69.3175 18.6259 68.8591 17.4545C69.5721 16.7924 70.3361 16.1303 70.8964 15.3154C71.4566 14.5005 71.9659 12.2085 71.8131 11.1899C72.5262 11.2918 75.633 10.2222 75.3274 10.1203Z" fill="#441A05"/>
<path d="M66.7201 22.802C66.6692 21.5287 65.0903 21.2231 63.9698 21.8852C63.3586 22.2417 62.9002 22.9547 62.9511 24.3299C63.1039 27.997 66.7201 27.0802 66.7201 26.9784C66.7201 26.8765 66.771 24.279 66.7201 22.802Z" fill="#FFBE9D"/>
<path d="M65.5488 25.6035C65.5488 25.6035 65.4978 25.6544 65.396 25.7054C65.2941 25.7563 65.0904 25.8072 64.9376 25.7563C64.5301 25.6544 64.1736 25.0432 64.1736 24.3811C64.1736 24.0246 64.2245 23.719 64.3264 23.4644C64.4283 23.2097 64.5811 23.006 64.7848 22.955C64.9885 22.9041 65.1413 23.006 65.1922 23.1078C65.2432 23.2097 65.2432 23.2606 65.2432 23.3116C65.2432 23.3116 65.2941 23.2606 65.2941 23.1078C65.2941 23.0569 65.2432 22.955 65.1413 22.9041C65.0394 22.8532 64.9376 22.8022 64.7848 22.8022C64.4792 22.8532 64.2755 23.1078 64.1227 23.4134C63.9699 23.719 63.9189 24.0755 63.9189 24.4321C63.9699 25.1451 64.3773 25.8582 64.8867 25.96C65.1413 26.0109 65.345 25.9091 65.4469 25.8582C65.5488 25.7054 65.5488 25.6035 65.5488 25.6035Z" fill="#EB996E"/>
<path d="M76.3969 29.0669C76.3969 29.0669 76.295 29.016 76.1422 29.016C75.9894 28.965 75.7348 28.965 75.4801 28.8122C74.8689 28.5066 75.3273 27.5389 75.4292 26.6731C75.4292 26.6222 75.4801 26.6222 75.4292 26.6222C75.3783 26.6222 75.4292 26.6222 75.4292 26.6222H75.4801C75.4292 26.775 75.7348 26.3675 75.6329 26.3675H75.582H75.5311C75.5311 26.3166 75.3273 26.8259 75.4292 26.6222L75.582 26.6731C75.7857 26.775 75.9894 26.8259 76.1932 26.9278C76.5497 27.0806 76.9062 27.1824 77.2118 27.3352C77.7721 27.5389 78.1795 27.6917 78.1795 27.6408C78.1795 27.5899 77.8739 27.4371 77.3137 27.1315C77.0081 26.9787 76.6515 26.8259 76.346 26.6731C76.1422 26.5712 75.9385 26.5203 75.7348 26.4184L75.582 26.3675C75.6838 26.1638 75.4801 26.6731 75.4801 26.6222H75.5311H75.582V26.5712L75.6329 26.5203C75.582 26.5203 75.6329 26.4694 75.6329 26.4694C75.6838 26.3675 75.6329 26.4184 75.6329 26.3675C75.582 26.3675 75.582 26.3675 75.5311 26.3166C75.4801 26.3166 75.4801 26.2656 75.3783 26.3166C75.2255 26.3675 75.2255 26.5203 75.2255 26.5712C75.1236 27.0296 75.0727 27.488 75.0217 27.8955C74.9708 28.0992 74.9708 28.3539 75.0727 28.5067C75.1745 28.7104 75.3273 28.8632 75.4801 28.9141C75.7857 29.0669 76.0404 29.0669 76.2441 29.0669C76.295 29.1178 76.346 29.0669 76.3969 29.0669Z" fill="#263238"/>
<path d="M65.1415 34.4654L65.549 37.2666C61.8819 38.9983 56.6359 48.4207 55.1589 53.6158C53.6819 58.7599 49.5055 81.9848 49.5055 81.9848L49.1999 82.1885C47.7738 83.2071 47.5191 85.0916 48.6906 86.3649C49.7092 87.4854 51.0844 88.1475 52.6123 88.2494L75.7863 89.8283L80.1155 90.8978L78.2819 66.145C78.2819 66.145 82.5093 62.8853 81.8472 55.653C81.4907 51.8331 80.3192 44.1934 80.3192 44.1934L79.708 39.966C79.708 39.966 80.1155 37.3176 80.0646 36.5536C80.0646 36.1971 79.759 35.9424 79.4534 35.8915L66.0583 33.8542C65.5999 33.7524 65.1925 34.0579 65.1415 34.4654Z" fill="#FC8E01"/>
<path d="M68.0444 37.4198C67.9935 37.4198 67.8916 36.7067 67.8916 35.79C67.8916 34.8732 67.9935 34.1602 68.0953 34.1602C68.1463 34.1602 68.1463 34.8732 68.1463 35.79C68.0953 36.7067 68.0953 37.4198 68.0444 37.4198Z" fill="#263238"/>
<path d="M72.5268 38.1325C72.4759 38.1325 72.374 37.3685 72.374 36.4517C72.374 35.535 72.425 34.771 72.4759 34.771C72.5268 34.771 72.6287 35.535 72.6287 36.4517C72.6796 37.4195 72.6287 38.1325 72.5268 38.1325Z" fill="#263238"/>
<path d="M76.7032 38.7439C76.6523 38.7439 76.6523 38.0309 76.7032 37.2159C76.7542 36.3501 76.8051 35.688 76.856 35.688C76.907 35.688 77.0088 36.401 76.9579 37.2669C76.9579 38.0308 76.8051 38.7439 76.7032 38.7439Z" fill="#263238"/>
<path d="M72.9848 44.6007C71.2022 42.156 67.8407 39.7113 64.0208 42.4616C61.2705 44.4479 59.9462 46.7399 58.0108 53.8703C53.2742 71.238 53.8344 71.5946 54.3947 72.3076C54.9549 73.0716 75.786 93.3424 75.786 93.3424L82.509 87.0778L67.3823 68.8442C67.3823 68.8442 74.4109 50.3051 73.4941 46.7908C73.3922 46.3324 73.3413 45.11 72.9848 44.6007Z" fill="#FC8E01"/>
<path d="M68.91 41.4937C68.91 41.4937 68.961 41.4937 69.0628 41.5446C69.1647 41.5446 69.3175 41.5955 69.4703 41.6464C69.8268 41.7483 70.387 41.9011 70.9982 42.3086C71.6094 42.6651 72.3225 43.2763 72.8318 44.193C73.3411 45.1098 73.6467 46.3322 73.5957 47.7073C73.5957 49.0825 73.3411 50.5595 72.8318 52.0875C72.3225 53.6154 71.8131 55.2962 71.2529 57.0788C70.1324 60.644 68.8591 64.6167 67.4839 68.9968V68.895C72.0169 74.3447 77.161 80.5074 82.6107 87.1285L82.7125 87.2304L82.6107 87.3323C81.8976 87.9944 81.1337 88.7074 80.3697 89.4205C78.8417 90.8466 77.3138 92.2727 75.8877 93.5969L75.7858 93.6987L75.684 93.5969C70.5398 88.5546 65.6504 83.767 61.2703 79.4888C59.0802 77.3496 56.992 75.2614 55.1075 73.326C54.8528 73.0714 54.6491 72.8676 54.3945 72.613C54.1398 72.3583 54.0889 71.9509 54.0889 71.6453C54.0889 70.9832 54.1398 70.321 54.2417 69.7099C54.4454 68.4366 54.7001 67.2651 54.9547 66.1446C55.9733 61.6626 56.941 58.0974 57.6032 55.6018C57.9597 54.3794 58.2143 53.4117 58.3671 52.8005C58.469 52.4949 58.5199 52.2403 58.5709 52.0875C58.6218 51.9347 58.6727 51.8328 58.6727 51.8328C58.6727 51.8328 58.6727 51.9347 58.6218 52.0875C58.5709 52.2403 58.5199 52.4949 58.4181 52.8005C58.2653 53.4626 58.0106 54.4303 57.705 55.6527C57.0938 58.0974 56.1261 61.7136 55.1075 66.1956C54.8528 67.3161 54.5982 68.4875 54.4454 69.7608C54.3435 70.372 54.2926 71.0341 54.2926 71.6453C54.2926 71.9509 54.3435 72.3074 54.5982 72.5111C54.8019 72.7658 55.0566 72.9695 55.3112 73.2242C57.2466 75.1596 59.3348 77.1968 61.5249 79.336C65.905 83.6142 70.7945 88.4018 75.9386 93.4441H75.7349C77.161 92.1199 78.6889 90.6938 80.2169 89.2677C80.9809 88.5546 81.7448 87.8416 82.4579 87.1795V87.3832C77.0082 80.7621 71.8641 74.5993 67.3311 69.1496L67.2802 69.0987V69.0478C68.6554 64.7186 69.9287 60.6949 71.1001 57.1297C72.1697 53.5645 73.5448 50.5086 73.4939 47.8092C73.4939 46.485 73.2392 45.2626 72.7808 44.3458C72.2715 43.4291 71.6094 42.8179 70.9982 42.4614C70.387 42.1048 69.8777 41.9011 69.5212 41.7992C69.3684 41.7483 69.2156 41.6974 69.1137 41.6974C68.961 41.5446 68.91 41.4937 68.91 41.4937Z" fill="#263238"/>
<path d="M279.412 42.8184L298.053 47.7078C300.956 48.4718 302.994 51.1202 302.994 54.1252V108.571H281.653H268.513V51.0693C268.513 51.0693 269.837 43.3786 279.412 42.8184Z" fill="#003986"/>
<path d="M292.603 47.9624C292.603 47.9624 292.552 47.9624 292.45 47.9624C292.348 47.9624 292.145 47.9624 291.941 48.0133C291.483 48.0643 290.871 48.1152 290.056 48.3189C289.242 48.5227 288.274 48.8282 287.204 49.3376C286.186 49.8978 285.014 50.6618 284.148 51.8332C283.945 52.1388 283.69 52.4444 283.537 52.8009C283.333 53.1574 283.232 53.514 283.079 53.8705C282.977 54.0742 282.977 54.2779 282.926 54.4817C282.875 54.6854 282.824 54.8891 282.824 55.0929C282.773 55.5003 282.722 55.9078 282.722 56.3661C282.722 58.1488 282.722 60.0332 282.722 61.9686C282.722 65.9413 282.722 70.2705 282.722 74.8544C282.722 83.9712 282.671 92.2731 282.671 98.283C282.671 101.288 282.62 103.682 282.62 105.363C282.62 106.177 282.62 106.84 282.62 107.298C282.62 107.502 282.62 107.654 282.62 107.807C282.62 107.909 282.62 107.96 282.62 107.96C282.62 107.96 282.62 107.909 282.62 107.807C282.62 107.705 282.62 107.502 282.62 107.298C282.62 106.84 282.62 106.177 282.62 105.363C282.62 103.682 282.62 101.237 282.569 98.283C282.569 92.2731 282.569 84.0221 282.519 74.8544C282.519 70.2705 282.519 65.9413 282.519 61.9686C282.519 59.9823 282.519 58.0978 282.519 56.3661C282.519 55.9078 282.569 55.5003 282.62 55.0419C282.62 54.8382 282.722 54.6345 282.722 54.4307C282.773 54.227 282.824 54.0233 282.875 53.8196C283.028 53.4121 283.13 53.0556 283.384 52.6991C283.537 52.3425 283.792 52.037 283.996 51.7314C284.912 50.509 286.084 49.745 287.153 49.1848C288.223 48.6755 289.242 48.3699 290.056 48.2171C290.871 48.0643 291.533 48.0133 291.992 47.9624C292.196 47.9624 292.348 47.9624 292.501 47.9624C292.552 47.9624 292.603 47.9624 292.603 47.9624Z" fill="#281E1A"/>
<path d="M79.5049 108.418L82.9682 116.058H99.4192L102.424 108.418H79.5049Z" fill="#4F2011"/>
<path opacity="0.3" d="M79.5049 108.418L80.7782 111.22H101.304L102.424 108.418H79.5049Z" fill="black"/>
<path d="M271.11 108.418L274.574 116.058H291.025L294.03 108.418H271.11Z" fill="#4F2011"/>
<path opacity="0.3" d="M271.11 108.418L272.384 111.22H292.909L294.03 108.418H271.11Z" fill="black"/>
<path d="M99.4193 42.6655L80.7783 47.555C77.8752 48.319 75.8379 50.9674 75.8379 53.9724V108.418H97.1783H110.319V50.9674C110.319 50.9674 108.994 43.2258 99.4193 42.6655Z" fill="#003986"/>
<path d="M99.4189 30.0853V42.7163C99.4189 42.7163 109.198 45.7213 110.318 53.2592V64.9226L191.656 65.1773V31.4095C191.656 29.8815 190.485 28.6082 188.957 28.5064C176.02 27.6915 120.759 24.4318 102.577 26.6219C100.743 26.7747 99.4189 28.3026 99.4189 30.0853Z" fill="#003986"/>
<path d="M191.605 32.2755V65.1265L269.939 65.4321C269.939 65.4321 267.901 50.56 279.361 42.8184L279.819 24.6357C279.819 24.6357 239.634 28.201 231.943 28.9649C225.781 29.5761 203.524 28.9649 194.916 28.7103C193.184 28.6594 191.605 30.2892 191.605 32.2755Z" fill="#003986"/>
<path d="M276.204 65.4323C277.018 66.5528 282.315 70.118 282.315 70.118H96.0068L110.268 64.8721L276.204 65.4323Z" fill="#004DB5"/>
<path d="M282.315 87.1289H99.4189V108.418H282.315V87.1289Z" fill="#003986"/>
<path d="M282.264 70.0669H96.21V87.129H282.264V70.0669Z" fill="#02295E"/>
<path d="M282.315 87.1292C282.315 86.7726 282.315 81.0683 282.264 70.067L282.315 70.1179C251.145 70.1179 179.535 70.1689 96.2612 70.2198L96.414 70.067C96.414 75.9242 96.414 81.6795 96.414 87.1292L96.2612 86.9764C148.415 86.9764 194.916 87.0273 228.378 87.0273C261.84 87.1292 281.602 87.1292 282.315 87.1292C281.602 87.1292 261.891 87.1801 228.48 87.1801C195.018 87.1801 148.466 87.231 96.2612 87.231H96.1084V87.0782C96.1084 81.6285 96.1084 75.8732 96.1084 70.0161V69.8633H96.2612C179.586 69.9142 251.145 69.9142 282.315 69.9651H282.366V70.0161C282.315 81.0683 282.315 86.7726 282.315 87.1292Z" fill="#281E1A"/>
<path d="M282.315 70.0671C282.315 70.0671 282.264 70.0671 282.112 69.9652C281.959 69.9143 281.755 69.8124 281.5 69.7105C280.991 69.5068 280.227 69.1503 279.208 68.7428C277.171 67.877 274.217 66.5528 270.346 64.872H270.397C254.405 64.872 224.049 64.923 189.263 64.923C156.106 64.872 126.973 64.872 110.319 64.872C105.786 66.5018 102.221 67.8261 99.7758 68.6919C98.5534 69.1503 97.6367 69.4559 96.9745 69.7105C96.6689 69.8124 96.4143 69.9143 96.2615 69.9652C96.1087 70.0161 96.0068 70.0671 96.0068 70.0671C96.0068 70.0671 96.1087 70.0161 96.2615 69.9652C96.4143 69.9143 96.6689 69.8124 96.9745 69.7105C97.5857 69.4559 98.5534 69.1503 99.7249 68.6919C102.17 67.7751 105.735 66.4509 110.268 64.7702C126.922 64.7702 156.055 64.7192 189.212 64.7192C223.998 64.7702 254.354 64.7702 270.346 64.7702C274.166 66.4509 277.171 67.7751 279.208 68.6919C280.227 69.1503 280.991 69.5068 281.5 69.7105C281.755 69.8124 281.959 69.9143 282.061 69.9652C282.264 70.0671 282.315 70.0671 282.315 70.0671Z" fill="#003986"/>
<path d="M191.606 65.1265C191.606 65.1265 191.657 65.2283 191.657 65.483C191.708 65.7377 191.759 66.0942 191.81 66.5016C191.911 67.3675 192.115 68.5898 192.217 70.1178C192.217 72.0023 192.217 74.1923 192.217 76.6371C192.217 81.5265 192.166 85.7029 192.115 87.3327H192.013C192.013 86.8234 192.064 86.5178 192.064 86.5178C192.064 86.5178 192.115 86.7725 192.115 87.3327H192.013C191.962 85.7029 191.911 81.5265 191.911 76.6371C191.911 74.2433 191.911 72.0023 191.911 70.1178C191.809 68.6408 191.657 67.3675 191.606 66.5016C191.555 66.0942 191.555 65.7886 191.504 65.483C191.606 65.2283 191.606 65.1265 191.606 65.1265Z" fill="#281E1A"/>
<path d="M110.319 64.8721C110.319 64.8721 110.319 64.7703 110.319 64.5665C110.319 64.3628 110.319 64.0572 110.319 63.7007C110.319 62.9367 110.319 61.8672 110.319 60.5939C110.319 59.2696 110.319 57.7417 110.319 56.01C110.319 55.1442 110.268 54.2274 110.217 53.3106C110.166 52.3938 110.115 51.3752 109.963 50.4075C109.657 48.4721 108.74 46.6895 107.62 45.4671C106.397 44.2448 104.92 43.6845 103.647 43.328C102.374 42.9715 101.355 42.8696 100.591 42.8187C99.8782 42.7677 99.4707 42.7168 99.4707 42.7168C99.4707 42.7168 99.5726 42.7168 99.7763 42.7168C99.98 42.7168 100.235 42.7168 100.642 42.7168C101.355 42.7677 102.425 42.8696 103.749 43.1752C105.022 43.5317 106.55 44.041 107.824 45.3143C108.995 46.5876 109.963 48.3702 110.268 50.4075C110.421 51.4261 110.472 52.3938 110.523 53.3106C110.574 54.2783 110.574 55.1442 110.625 56.0609C110.625 57.7926 110.625 59.3715 110.574 60.6957C110.523 62.02 110.523 63.0895 110.472 63.8026C110.472 64.1591 110.421 64.4137 110.421 64.6684C110.319 64.7703 110.319 64.8721 110.319 64.8721Z" fill="#281E1A"/>
<path d="M86.2285 47.8608C86.2285 47.8608 86.2794 47.8608 86.3813 47.8608C86.4832 47.8608 86.6869 47.8608 86.8906 47.8608C87.349 47.8608 87.9602 47.9118 88.826 48.1155C89.6409 48.2683 90.6596 48.5739 91.7292 49.0832C92.7987 49.6434 93.9701 50.4074 94.8869 51.6298C95.0906 51.9354 95.3453 52.241 95.4981 52.5975C95.7018 52.954 95.8546 53.3105 96.0074 53.718C96.1093 53.9217 96.1093 54.1254 96.1602 54.3292C96.2111 54.5329 96.2621 54.7366 96.2621 54.9404C96.313 55.3478 96.3639 55.8062 96.3639 56.2646C96.3639 58.0472 96.3639 59.9317 96.3639 61.8671C96.3639 65.8398 96.3639 70.169 96.3639 74.7528C96.3639 83.8696 96.313 92.1715 96.313 98.1814C96.313 101.186 96.2621 103.58 96.2621 105.261C96.2621 106.076 96.2621 106.738 96.2621 107.196C96.2621 107.4 96.2621 107.553 96.2621 107.706C96.2621 107.808 96.2621 107.858 96.2621 107.858C96.2621 107.858 96.2621 107.808 96.2621 107.706C96.2621 107.604 96.2621 107.4 96.2621 107.196C96.2621 106.738 96.2621 106.076 96.2621 105.261C96.2621 103.58 96.2621 101.135 96.2111 98.1814C96.2111 92.1715 96.2111 83.9205 96.1602 74.7528C96.1602 70.169 96.1602 65.8398 96.1602 61.8671C96.1602 59.8807 96.1602 57.9963 96.1602 56.2646C96.1602 55.8062 96.1093 55.3987 96.0584 54.9913C96.0584 54.7876 95.9565 54.5838 95.9565 54.3801C95.9056 54.1764 95.9056 53.9727 95.8037 53.7689C95.6509 53.4124 95.549 53.005 95.3453 52.6994C95.1925 52.3428 94.9379 52.0372 94.7341 51.7317C93.8683 50.5602 92.6969 49.7453 91.6782 49.236C90.6086 48.6757 89.6409 48.4211 88.826 48.2174C88.0111 48.0646 87.349 47.9627 86.9416 47.9118C86.7378 47.9118 86.585 47.9118 86.4322 47.8608C86.2794 47.8608 86.2285 47.8608 86.2285 47.8608Z" fill="#281E1A"/>
<path d="M76.042 108.368C93.1041 108.368 265.254 108.47 282.316 108.47L76.042 108.368Z" fill="#455A64"/>
<path d="M282.316 108.419C282.316 108.469 236.121 108.52 179.179 108.52C122.186 108.47 76.042 108.419 76.042 108.317C76.042 108.266 122.186 108.215 179.179 108.215C236.121 108.266 282.316 108.368 282.316 108.419Z" fill="#281E1A"/>
<path d="M117.704 77.0445C117.653 77.0445 117.602 76.6879 117.551 76.0768C117.5 75.4656 117.5 74.5997 117.602 73.683C117.704 72.7662 117.908 71.9004 118.111 71.3401C118.315 70.7799 118.468 70.4233 118.519 70.4233C118.621 70.4743 118.06 71.8494 117.857 73.7339C117.602 75.5165 117.806 77.0445 117.704 77.0445Z" fill="#281E1A"/>
<path d="M120.607 79.9986C120.556 79.9986 120.403 79.4893 120.251 78.6235C120.047 77.7576 119.894 76.5862 119.792 75.262C119.69 73.9378 119.741 72.7154 119.792 71.8496C119.843 70.9837 119.945 70.4235 119.996 70.4744C120.047 70.4744 119.996 71.0346 119.996 71.9005C119.996 72.7663 119.996 73.9887 120.047 75.262C120.149 76.5862 120.302 77.7576 120.403 78.6235C120.556 79.4384 120.658 79.9477 120.607 79.9986Z" fill="#281E1A"/>
<path d="M191.504 65.4831C191.453 65.4831 191.352 57.7924 191.352 48.2682C191.352 38.7439 191.402 31.0532 191.504 31.0532C191.555 31.0532 191.657 38.7439 191.657 48.2682C191.657 57.7924 191.606 65.4831 191.504 65.4831Z" fill="#263238"/>
<path d="M113.069 37.5216C113.069 37.5725 112.712 37.9291 112.05 38.4893C111.439 39.1005 110.573 39.9154 109.707 40.934C108.842 41.9527 108.129 42.8695 107.619 43.5825C107.11 44.2955 106.804 44.7539 106.804 44.703C106.753 44.703 107.008 44.1937 107.466 43.4806C107.925 42.7676 108.638 41.7489 109.504 40.7303C110.37 39.7117 111.286 38.8968 111.948 38.3365C112.611 37.7763 113.069 37.4707 113.069 37.5216Z" fill="#281E1A"/>
<path d="M111.134 44.2447C111.134 44.2956 110.42 44.5503 109.555 44.8049C108.638 45.0596 107.925 45.2124 107.925 45.1105C107.925 45.0596 108.638 44.8049 109.504 44.5503C110.42 44.2956 111.134 44.1937 111.134 44.2447Z" fill="#281E1A"/>
<path d="M166.039 45.4158C166.039 45.4158 166.14 45.314 166.446 45.314C166.701 45.314 167.108 45.3649 167.465 45.6196C167.821 45.8742 168.229 46.4345 168.127 47.0456C168.076 47.6568 167.617 48.3699 166.904 48.5736C166.191 48.7773 165.427 48.4208 165.071 47.9115C164.663 47.4022 164.714 46.7401 164.867 46.3326C165.071 45.8742 165.376 45.6196 165.58 45.5177C165.784 45.4158 165.937 45.3649 165.937 45.4158C165.937 45.4158 165.835 45.4668 165.631 45.6196C165.427 45.7724 165.173 46.027 165.02 46.4345C164.867 46.8419 164.867 47.3512 165.224 47.8096C165.529 48.2171 166.191 48.5227 166.803 48.3699C167.414 48.2171 167.77 47.6059 167.872 47.0966C167.923 46.5363 167.668 46.0779 167.312 45.8233C166.955 45.5686 166.65 45.4668 166.395 45.4668C166.191 45.4158 166.039 45.4668 166.039 45.4158Z" fill="#281E1A"/>
<path d="M171.743 44.6011C171.743 44.703 170.623 44.5502 169.502 45.2123C168.331 45.8744 167.872 46.893 167.821 46.8421C167.77 46.8421 167.872 46.5365 168.127 46.18C168.382 45.8235 168.789 45.3141 169.4 45.0085C170.011 44.652 170.623 44.5502 171.081 44.4992C171.488 44.4483 171.743 44.5502 171.743 44.6011Z" fill="#281E1A"/>
<path d="M169.146 50.3055C169.095 50.3055 168.891 49.7453 168.433 49.1341C168.025 48.5229 167.516 48.1155 167.567 48.0645C167.618 48.0136 168.178 48.3192 168.637 48.9813C169.146 49.6434 169.248 50.3055 169.146 50.3055Z" fill="#281E1A"/>
<path d="M165.173 46.6892C165.122 46.6892 165.071 46.4346 164.816 46.129C164.613 45.7725 164.205 45.365 163.696 45.0594C163.186 44.7538 162.626 44.601 162.219 44.601C161.811 44.5501 161.557 44.601 161.557 44.601C161.557 44.5501 161.811 44.4482 162.219 44.4482C162.677 44.4482 163.288 44.5501 163.849 44.8557C164.409 45.2122 164.816 45.6706 165.02 46.0781C165.173 46.4346 165.173 46.6892 165.173 46.6892Z" fill="#281E1A"/>
<path d="M132.474 45.4158C132.474 45.4158 132.576 45.314 132.882 45.314C133.136 45.314 133.544 45.3649 133.9 45.6196C134.257 45.8742 134.664 46.4345 134.562 47.0456C134.511 47.6568 134.053 48.3699 133.34 48.5736C132.627 48.7773 131.863 48.4208 131.506 47.9115C131.099 47.4022 131.15 46.7401 131.303 46.3326C131.506 45.8742 131.812 45.6196 132.016 45.5177C132.219 45.4158 132.372 45.3649 132.372 45.4158C132.372 45.4158 132.27 45.4668 132.067 45.6196C131.863 45.7724 131.608 46.027 131.455 46.4345C131.303 46.8419 131.303 47.3512 131.659 47.8096C131.965 48.2171 132.627 48.5227 133.238 48.3699C133.849 48.2171 134.206 47.6059 134.308 47.0966C134.359 46.5363 134.104 46.0779 133.747 45.8233C133.391 45.5686 133.085 45.4668 132.831 45.4668C132.627 45.4158 132.474 45.4668 132.474 45.4158Z" fill="#281E1A"/>
<path d="M138.179 44.6011C138.179 44.703 137.058 44.5502 135.938 45.2123C134.766 45.8744 134.308 46.893 134.257 46.8421C134.206 46.8421 134.308 46.5365 134.562 46.18C134.817 45.8235 135.225 45.3141 135.836 45.0085C136.447 44.652 137.058 44.5502 137.517 44.4992C137.924 44.4483 138.179 44.5502 138.179 44.6011Z" fill="#281E1A"/>
<path d="M135.581 50.3055C135.531 50.3055 135.327 49.7453 134.868 49.1341C134.461 48.5229 133.952 48.1155 134.003 48.0645C134.053 48.0136 134.614 48.3192 135.072 48.9813C135.581 49.6434 135.632 50.3055 135.581 50.3055Z" fill="#281E1A"/>
<path d="M131.608 46.6892C131.557 46.6892 131.506 46.4346 131.252 46.129C131.048 45.7725 130.641 45.365 130.131 45.0594C129.622 44.7538 129.062 44.601 128.654 44.601C128.247 44.5501 127.992 44.601 127.992 44.601C127.992 44.5501 128.247 44.4482 128.654 44.4482C129.113 44.4482 129.724 44.5501 130.284 44.8557C130.844 45.2122 131.252 45.6706 131.456 46.0781C131.608 46.4346 131.608 46.6892 131.608 46.6892Z" fill="#281E1A"/>
<path d="M248.344 45.6707C248.344 45.6707 248.446 45.5688 248.752 45.5688C249.006 45.5688 249.414 45.6198 249.77 45.8744C250.127 46.1291 250.534 46.6893 250.432 47.3005C250.382 47.9117 249.923 48.6248 249.21 48.8285C248.497 49.0322 247.733 48.6757 247.377 48.1664C246.969 47.6571 247.02 46.9949 247.173 46.5875C247.377 46.1291 247.682 45.8744 247.886 45.7726C248.09 45.6707 248.242 45.6198 248.242 45.6707C248.242 45.6707 248.141 45.7216 247.937 45.8744C247.733 46.0272 247.478 46.2819 247.326 46.6893C247.173 47.0968 247.173 47.6061 247.529 48.0645C247.835 48.472 248.497 48.7776 249.108 48.6248C249.719 48.472 250.076 47.8608 250.178 47.3515C250.229 46.7912 249.974 46.3328 249.618 46.0782C249.261 45.8235 248.955 45.7216 248.701 45.7216C248.497 45.6198 248.344 45.6707 248.344 45.6707Z" fill="#281E1A"/>
<path d="M254.049 44.805C254.049 44.9069 252.928 44.7541 251.808 45.4162C250.636 46.0783 250.178 47.0969 250.127 47.046C250.076 47.046 250.178 46.7404 250.433 46.3839C250.687 46.0274 251.095 45.518 251.706 45.2124C252.317 44.8559 252.928 44.7541 253.387 44.7031C253.794 44.7031 254.049 44.805 254.049 44.805Z" fill="#281E1A"/>
<path d="M251.452 50.5604C251.401 50.5604 251.197 50.0002 250.739 49.389C250.331 48.7778 249.822 48.3704 249.873 48.3194C249.924 48.2685 250.484 48.5741 250.942 49.2362C251.452 49.8474 251.502 50.5095 251.452 50.5604Z" fill="#281E1A"/>
<path d="M247.478 46.9441C247.428 46.9441 247.377 46.6895 247.122 46.3839C246.918 46.0274 246.511 45.6199 246.001 45.3143C245.492 45.0087 244.932 44.8559 244.524 44.8559C244.117 44.805 243.862 44.8559 243.862 44.8559C243.862 44.805 244.117 44.7031 244.524 44.7031C244.983 44.7031 245.594 44.805 246.154 45.1106C246.714 45.4671 247.122 45.9255 247.326 46.3329C247.478 46.6385 247.478 46.9441 247.478 46.9441Z" fill="#281E1A"/>
<path d="M214.78 45.6707C214.78 45.6707 214.882 45.5688 215.187 45.5688C215.442 45.5688 215.849 45.6198 216.206 45.8744C216.562 46.1291 216.97 46.6893 216.868 47.3005C216.817 47.9117 216.359 48.6248 215.646 48.8285C214.933 49.0322 214.169 48.6757 213.812 48.1664C213.405 47.6571 213.456 46.9949 213.608 46.5875C213.812 46.1291 214.118 45.8744 214.321 45.7726C214.525 45.6707 214.678 45.6198 214.678 45.6707C214.678 45.6707 214.576 45.7216 214.372 45.8744C214.169 46.0272 213.914 46.2819 213.761 46.6893C213.608 47.0968 213.608 47.6061 213.965 48.0645C214.27 48.472 214.933 48.7776 215.544 48.6248C216.155 48.472 216.511 47.8608 216.613 47.3515C216.664 46.7912 216.41 46.3328 216.053 46.0782C215.697 45.8235 215.391 45.7216 215.136 45.7216C214.933 45.6198 214.78 45.6707 214.78 45.6707Z" fill="#281E1A"/>
<path d="M220.484 44.805C220.484 44.9069 219.364 44.7541 218.243 45.4162C217.072 46.0783 216.613 47.0969 216.563 47.046C216.512 47.046 216.613 46.7404 216.868 46.3839C217.123 46.0274 217.53 45.518 218.141 45.2124C218.753 44.8559 219.364 44.7541 219.822 44.7031C220.179 44.7031 220.484 44.805 220.484 44.805Z" fill="#281E1A"/>
<path d="M217.887 50.5604C217.836 50.5604 217.632 50.0002 217.174 49.389C216.767 48.7778 216.257 48.3704 216.308 48.3194C216.359 48.2685 216.919 48.5741 217.378 49.2362C217.887 49.8474 217.938 50.5095 217.887 50.5604Z" fill="#281E1A"/>
<path d="M213.863 46.9441C213.812 46.9441 213.761 46.6895 213.507 46.3839C213.303 46.0274 212.896 45.6199 212.386 45.3143C211.877 45.0087 211.317 44.8559 210.909 44.8559C210.502 44.805 210.247 44.8559 210.247 44.8559C210.247 44.805 210.502 44.7031 210.909 44.7031C211.368 44.7031 211.979 44.805 212.539 45.1106C213.099 45.4671 213.507 45.9255 213.71 46.3329C213.914 46.6385 213.914 46.9441 213.863 46.9441Z" fill="#281E1A"/>
<path d="M279.718 42.2583C279.718 42.2583 279.667 42.3092 279.514 42.462C279.361 42.6148 279.158 42.7676 278.954 42.9713C278.699 43.1751 278.394 43.4297 278.088 43.7863C277.783 44.0918 277.375 44.4484 277.019 44.9068C276.815 45.1105 276.611 45.3651 276.407 45.5689C276.204 45.8235 276 46.0782 275.796 46.3328C275.338 46.8422 274.93 47.4533 274.523 48.1155C273.657 49.3888 272.842 50.8658 272.129 52.4956C271.416 54.1254 270.958 55.7552 270.601 57.2322C270.448 57.9962 270.296 58.7093 270.194 59.3714C270.143 59.7279 270.092 60.0335 270.041 60.3391C269.99 60.6447 269.99 60.9503 269.939 61.2559C269.888 61.8161 269.888 62.3764 269.888 62.8347C269.888 63.2931 269.888 63.7006 269.888 64.0062C269.888 64.3118 269.888 64.5664 269.888 64.7702C269.888 64.9229 269.888 65.0248 269.888 65.0248C269.888 65.0248 269.888 64.9229 269.837 64.7702C269.837 64.5664 269.786 64.3118 269.786 64.0062C269.735 63.7006 269.735 63.2931 269.735 62.8347C269.735 62.3764 269.735 61.8161 269.786 61.2559C269.786 60.9503 269.837 60.6447 269.837 60.3391C269.837 60.0335 269.939 59.677 269.939 59.3714C269.99 58.7093 270.143 57.9453 270.296 57.1813C270.652 55.6534 271.161 54.0235 271.824 52.3937C272.537 50.7639 273.402 49.2869 274.268 47.9627C274.727 47.3515 275.134 46.7403 275.592 46.18C275.796 45.9254 276 45.6707 276.255 45.4161C276.458 45.1614 276.662 44.9577 276.866 44.754C277.273 44.2956 277.681 43.99 277.986 43.6335C278.343 43.3279 278.648 43.0732 278.903 42.8695C279.158 42.6658 279.311 42.513 279.514 42.4111C279.616 42.3092 279.718 42.2583 279.718 42.2583Z" fill="#281E1A"/>
<path d="M276.305 32.5812C276.254 32.5812 276.356 32.0718 276.305 31.2569C276.203 30.493 275.846 29.3725 275.032 28.5066C274.166 27.6408 273.096 27.2333 272.281 27.1315C271.466 27.0296 271.008 27.1315 270.957 27.0805C270.957 27.0805 271.059 27.0296 271.314 26.9787C271.517 26.9277 271.874 26.9277 272.281 26.9277C273.096 26.9787 274.268 27.3352 275.184 28.3029C276.101 29.2197 276.458 30.3911 276.458 31.206C276.458 31.6135 276.458 31.97 276.407 32.1737C276.356 32.4793 276.305 32.5812 276.305 32.5812Z" fill="#281E1A"/>
<path d="M276.916 38.1835C276.866 38.1835 276.764 37.3177 276.764 36.299C276.764 35.2295 276.815 34.4146 276.916 34.4146C276.967 34.4146 277.069 35.2804 277.069 36.299C277.069 37.3177 277.018 38.1835 276.916 38.1835Z" fill="#281E1A"/>
<path d="M234.337 46.4856C234.286 46.4856 234.083 45.9254 233.726 44.9577C233.37 44.0409 232.758 42.7676 232.045 41.4434C231.281 40.1192 230.517 38.9477 229.906 38.1328C229.295 37.3179 228.938 36.8086 228.938 36.8086C228.938 36.8086 229.091 36.9105 229.244 37.1142C229.448 37.3179 229.702 37.6235 230.008 38.031C230.619 38.7949 231.434 39.9664 232.198 41.3415C232.962 42.7167 233.522 43.99 233.828 44.9577C233.981 45.4161 234.134 45.8235 234.184 46.0782C234.337 46.3328 234.337 46.4856 234.337 46.4856Z" fill="#281E1A"/>
<path d="M233.777 38.7439C233.726 38.7439 233.574 37.6744 233.472 36.2992C233.37 34.9241 233.319 33.8545 233.421 33.8545C233.472 33.8545 233.624 34.9241 233.726 36.2992C233.828 37.6234 233.828 38.7439 233.777 38.7439Z" fill="#281E1A"/>
<g opacity="0.3">
<path opacity="0.3" d="M268.564 87.5364C214.118 90.5413 158.5 90.4395 104.207 87.1289L268.564 87.5364Z" fill="black"/>
</g>
<g opacity="0.3">
<path opacity="0.3" d="M195.069 66.5526C194.763 66.247 194.305 66.0942 193.847 65.9414C191.351 65.2283 188.55 65.2283 186.36 63.8023C184.679 62.7327 183.609 60.9501 182.642 59.2184C179.637 53.9215 176.988 48.4209 174.696 42.8184L172.201 47.5041C170.622 52.3935 169.297 57.3339 168.279 62.3762C168.075 63.3948 167.871 64.4644 168.33 65.3811C168.89 66.5016 170.163 67.011 171.386 67.3675C178.669 69.5576 186.512 70.0159 193.999 68.5898C194.56 68.488 195.222 68.2843 195.425 67.7749C195.629 67.3675 195.425 66.8582 195.069 66.5526Z" fill="black"/>
</g>
<path d="M203.677 68.2334C192.727 69.6595 182.439 69.1502 173.016 65.7887C170.928 54.4819 172.099 45.2123 175.461 35.1278C184.883 34.6694 195.172 35.5862 206.122 37.5725C207.242 48.2682 206.224 58.4036 203.677 68.2334Z" fill="#FCB700"/>
<path d="M201.335 47.1986C201.335 47.1986 201.182 47.4533 200.774 47.8098C200.622 48.0135 200.367 48.2682 200.112 48.5228C199.858 48.7775 199.552 49.0831 199.196 49.3887C198.483 50.0508 197.617 50.7638 196.598 51.4769C195.579 52.1899 194.408 52.9539 193.135 53.6669C191.861 54.38 190.588 54.9402 189.417 55.3986C188.245 55.857 187.176 56.2135 186.259 56.4173C185.342 56.6719 184.578 56.8247 184.069 56.9266C183.56 57.0284 183.254 57.0794 183.254 57.0284C183.254 57.0284 183.56 56.9266 184.069 56.8247C184.578 56.7229 185.342 56.5191 186.259 56.2645C187.176 56.0098 188.245 55.6533 189.417 55.1949C190.588 54.7365 191.81 54.1763 193.084 53.4632C194.357 52.7502 195.478 52.0371 196.547 51.3241C197.566 50.611 198.432 49.898 199.145 49.2868C199.501 48.9812 199.807 48.6756 200.112 48.421C200.418 48.1663 200.622 47.9626 200.825 47.7589C201.131 47.3514 201.335 47.1477 201.335 47.1986Z" fill="#263238"/>
<path d="M197.26 55.959C197.26 56.01 195.528 56.2137 193.338 56.3665C191.148 56.5193 189.416 56.6212 189.416 56.5193C189.416 56.4684 191.148 56.2646 193.338 56.1118C195.477 55.959 197.26 55.9081 197.26 55.959Z" fill="#263238"/>
<path d="M190.842 35.8916C190.893 35.9425 186.819 38.1326 181.827 40.7301C176.836 43.3276 172.71 45.4158 172.71 45.3139C172.66 45.263 176.734 43.0729 181.725 40.4754C186.717 37.8779 190.842 35.8406 190.842 35.8916Z" fill="white"/>
<path d="M206.326 39.7627C206.326 39.7627 206.224 39.8136 205.969 39.9664C205.715 40.0683 205.358 40.2211 204.951 40.4248C204.034 40.8323 202.811 41.3925 201.233 42.1056C198.126 43.5316 193.797 45.5689 189.06 47.8099C184.323 50.1018 180.096 52.241 177.04 53.8199C175.512 54.5838 174.29 55.246 173.424 55.6534C173.016 55.8571 172.66 56.0099 172.456 56.1627C172.252 56.2646 172.1 56.3155 172.1 56.3155C172.1 56.3155 172.201 56.2137 172.405 56.1118C172.66 55.959 172.965 55.8062 173.373 55.5516C174.239 55.0932 175.461 54.4311 176.989 53.6161C180.045 51.9863 184.272 49.8472 189.009 47.5553C193.746 45.2633 198.075 43.277 201.233 41.9018C202.811 41.1888 204.085 40.6285 204.951 40.272C205.358 40.1192 205.715 39.9664 205.969 39.8646C206.173 39.8136 206.275 39.7627 206.326 39.7627Z" fill="white"/>
<path d="M205.001 54.8892C205.001 54.8892 204.9 54.9401 204.696 55.042C204.492 55.1438 204.186 55.2966 203.83 55.4494C203.066 55.8059 201.945 56.3153 200.57 56.9264C197.82 58.0979 193.898 59.6767 189.569 61.1538C185.189 62.6308 181.165 63.8022 178.262 64.5153C176.785 64.8718 175.614 65.1774 174.799 65.3811C174.391 65.483 174.086 65.5339 173.831 65.5848C173.627 65.6358 173.475 65.6358 173.475 65.6358C173.475 65.6358 173.576 65.5848 173.78 65.5339C174.035 65.483 174.34 65.3811 174.697 65.2792C175.563 65.0755 176.734 64.719 178.16 64.3625C181.063 63.5476 185.087 62.3761 189.416 60.8991C193.796 59.4221 197.667 57.8941 200.468 56.7227C201.844 56.1625 202.964 55.7041 203.779 55.3475C204.136 55.1947 204.441 55.0929 204.696 54.991C204.9 54.9401 205.001 54.8892 205.001 54.8892Z" fill="white"/>
<path d="M204.747 64.7701C204.747 64.8211 204.339 65.1267 203.677 65.5341C202.964 65.9416 201.996 66.5018 200.876 67.0111C199.755 67.5205 198.686 67.877 197.871 68.1316C197.107 68.3354 196.598 68.4372 196.598 68.4372C196.598 68.3863 197.056 68.2335 197.82 67.9788C198.584 67.7242 199.603 67.3167 200.774 66.8074C201.895 66.2981 202.913 65.7888 203.575 65.3813C204.288 64.9739 204.747 64.7192 204.747 64.7701Z" fill="white"/>
<path d="M172.965 65.9416C172.965 65.9416 172.965 65.8398 173.016 65.636C173.067 65.4323 173.118 65.1267 173.22 64.7702C173.372 64.0062 173.627 62.9366 173.933 61.5615C174.493 58.8621 175.104 55.0931 175.511 50.8658C175.919 46.6894 175.97 42.8186 175.97 40.0683C175.97 38.6931 175.919 37.5726 175.868 36.8086C175.868 36.4521 175.868 36.1465 175.868 35.9428C175.868 35.7391 175.868 35.6372 175.868 35.6372C175.868 35.6372 175.868 35.7391 175.919 35.9428C175.919 36.1975 175.97 36.4521 175.97 36.8086C176.021 37.5726 176.072 38.6931 176.123 40.0683C176.224 42.8186 176.174 46.6894 175.766 50.8658C175.359 55.0931 174.697 58.8621 174.085 61.5615C173.78 62.9366 173.525 64.0062 173.321 64.7702C173.219 65.1267 173.169 65.3814 173.067 65.636C173.016 65.8398 172.965 65.9416 172.965 65.9416Z" fill="#263238"/>
<g opacity="0.3">
<path opacity="0.3" d="M200.367 48.2173C195.426 53.4123 189.824 55.2968 184.323 56.672C187.43 57.4359 190.792 57.0285 193.695 55.6024C196.547 54.1763 198.89 51.7316 200.214 48.8285" fill="black"/>
</g>
<g opacity="0.3">
<path opacity="0.3" d="M175.665 37.0122C174.341 41.4942 174.188 46.0781 173.475 50.7129C172.813 55.3477 172.252 60.288 173.169 64.7191C175.512 55.9588 176.836 46.0271 175.665 37.0122Z" fill="black"/>
</g>
</svg>
