<svg width="28" height="28" viewBox="0 0 28 28" fill="none" xmlns="http://www.w3.org/2000/svg">
<path d="M2.33325 13.9997L8.16659 18.6663V15.1663H18.6666V12.833H8.16659V9.33301L2.33325 13.9997Z" fill="white"/>
<path d="M15.1678 3.49906C13.7883 3.49524 12.4217 3.76519 11.1472 4.29329C9.87272 4.82138 8.7157 5.59712 7.74316 6.57556L9.39283 8.22523C10.9352 6.6829 12.9862 5.8324 15.1678 5.8324C17.3495 5.8324 19.4005 6.6829 20.9428 8.22523C22.4852 9.76756 23.3357 11.8186 23.3357 14.0002C23.3357 16.1819 22.4852 18.2329 20.9428 19.7752C19.4005 21.3176 17.3495 22.1681 15.1678 22.1681C12.9862 22.1681 10.9352 21.3176 9.39283 19.7752L7.74316 21.4249C9.72533 23.4082 12.362 24.5014 15.1678 24.5014C17.9737 24.5014 20.6103 23.4082 22.5925 21.4249C24.5758 19.4427 25.669 16.8061 25.669 14.0002C25.669 11.1944 24.5758 8.55773 22.5925 6.57556C21.62 5.59712 20.4629 4.82138 19.1885 4.29329C17.914 3.76519 16.5474 3.49524 15.1678 3.49906Z" fill="white"/>
</svg>
