<svg width="48" height="48" viewBox="0 0 48 48" fill="none" xmlns="http://www.w3.org/2000/svg">
<path d="M24 44C22.9391 44 21.9217 43.5786 21.1716 42.8284C20.4214 42.0783 20 41.0609 20 40H28C28 41.0609 27.5786 42.0783 26.8284 42.8284C26.0783 43.5786 25.0609 44 24 44ZM40 38H8V34L12 32V21C12 14.076 14.842 9.586 20 8.36V4H28V8.36C33.158 9.584 36 14.072 36 21V32L40 34V38ZM24 11.5C22.7989 11.4224 21.5974 11.6472 20.5056 12.1539C19.4138 12.6605 18.4663 13.4327 17.75 14.4C16.5051 16.3691 15.8943 18.6728 16 21V34H32V21C32.1056 18.6728 31.4948 16.3692 30.25 14.4C29.5337 13.4327 28.5862 12.6605 27.4944 12.1539C26.4026 11.6472 25.2011 11.4224 24 11.5Z" fill="#003986"/>
</svg>
