<svg width="26" height="26" viewBox="0 0 26 26" fill="none" xmlns="http://www.w3.org/2000/svg">
<path d="M17.9653 5.21044L20.7893 8.0331L17.9653 5.21044ZM19.7813 2.72377L12.1453 10.3598C11.7508 10.7538 11.4817 11.2557 11.372 11.8024L10.6667 15.3331L14.1973 14.6264C14.744 14.5171 15.2453 14.2491 15.64 13.8544L23.276 6.21844C23.5055 5.98897 23.6875 5.71656 23.8117 5.41675C23.9358 5.11694 23.9998 4.79561 23.9998 4.4711C23.9998 4.14659 23.9358 3.82526 23.8117 3.52545C23.6875 3.22564 23.5055 2.95323 23.276 2.72377C23.0465 2.49431 22.7741 2.31229 22.4743 2.1881C22.1745 2.06392 21.8532 2 21.5287 2C21.2041 2 20.8828 2.06392 20.583 2.1881C20.2832 2.31229 20.0108 2.49431 19.7813 2.72377V2.72377Z" stroke="white" stroke-width="2.66667" stroke-linecap="round" stroke-linejoin="round"/>
<path d="M21.3333 17.9993V21.9993C21.3333 22.7066 21.0524 23.3849 20.5523 23.885C20.0522 24.3851 19.3739 24.666 18.6666 24.666H3.99998C3.29274 24.666 2.61446 24.3851 2.11436 23.885C1.61426 23.3849 1.33331 22.7066 1.33331 21.9993V7.33268C1.33331 6.62544 1.61426 5.94716 2.11436 5.44706C2.61446 4.94697 3.29274 4.66602 3.99998 4.66602H7.99998" stroke="white" stroke-width="2.66667" stroke-linecap="round" stroke-linejoin="round"/>
</svg>
