<svg width="94" height="106" viewBox="0 0 94 106" fill="none" xmlns="http://www.w3.org/2000/svg">
<path d="M47 53C60.8071 53 72 41.8071 72 28C72 14.1929 60.8071 3 47 3C33.1929 3 22 14.1929 22 28C22 41.8071 33.1929 53 47 53Z" stroke="white" stroke-width="6"/>
<path d="M72.0003 63H73.7603C77.4157 63.001 80.9449 64.3368 83.6849 66.7564C86.4249 69.176 88.187 72.5128 88.6403 76.14L90.5953 91.76C90.7712 93.1671 90.6457 94.5956 90.2273 95.9506C89.8089 97.3055 89.1071 98.556 88.1684 99.619C87.2298 100.682 86.0758 101.533 84.7831 102.116C83.4903 102.699 82.0884 103 80.6703 103H13.3303C11.9122 103 10.5103 102.699 9.21753 102.116C7.92479 101.533 6.77081 100.682 5.83218 99.619C4.89355 98.556 4.19174 97.3055 3.77333 95.9506C3.35491 94.5956 3.22946 93.1671 3.4053 91.76L5.3553 76.14C5.80879 72.5111 7.57238 69.1729 10.3145 66.7531C13.0565 64.3333 16.5882 62.9986 20.2453 63H22.0003" stroke="white" stroke-width="6" stroke-linecap="round" stroke-linejoin="round"/>
</svg>
