<svg width="721" height="674" viewBox="0 0 721 674" fill="none" xmlns="http://www.w3.org/2000/svg">
<path d="M0.609863 510.083C0.609863 521.601 9.9628 530.954 21.4807 530.954H359.917C371.435 530.954 380.788 521.601 380.788 510.083V54.7354H0.653153V510.083H0.609863Z" fill="#E8E8E8"/>
<path d="M359.917 0.696533H21.4807C9.9628 0.696533 0.609863 10.0494 0.609863 21.5674V54.7356H380.745V21.5674C380.788 10.0494 371.435 0.696533 359.917 0.696533Z" fill="#003688"/>
<path d="M27.1098 37.3289C31.0796 37.3289 34.2977 34.1108 34.2977 30.141C34.2977 26.1712 31.0796 22.9531 27.1098 22.9531C23.14 22.9531 19.9219 26.1712 19.9219 30.141C19.9219 34.1108 23.14 37.3289 27.1098 37.3289Z" fill="#031245"/>
<path d="M47.8505 37.3289C51.8202 37.3289 55.0384 34.1108 55.0384 30.141C55.0384 26.1712 51.8202 22.9531 47.8505 22.9531C43.8807 22.9531 40.6626 26.1712 40.6626 30.141C40.6626 34.1108 43.8807 37.3289 47.8505 37.3289Z" fill="white"/>
<path d="M69.8905 37.3289C73.8603 37.3289 77.0784 34.1108 77.0784 30.141C77.0784 26.1712 73.8603 22.9531 69.8905 22.9531C65.9208 22.9531 62.7026 26.1712 62.7026 30.141C62.7026 34.1108 65.9208 37.3289 69.8905 37.3289Z" fill="white"/>
<path d="M166.407 506.447H38.1512C32.6953 506.447 28.2354 502.03 28.2354 496.531V92.0176C28.2354 86.5618 32.652 82.1018 38.1512 82.1018H166.407C171.863 82.1018 176.323 86.5185 176.323 92.0176V496.531C176.323 501.987 171.863 506.447 166.407 506.447Z" fill="white"/>
<path d="M91.1078 141.077H59.7582C56.3808 141.077 53.6528 138.349 53.6528 134.972V105.051C53.6528 101.673 56.3808 98.9456 59.7582 98.9456H91.1078C94.4852 98.9456 97.2131 101.673 97.2131 105.051V135.015C97.2131 138.349 94.4852 141.077 91.1078 141.077Z" fill="#E8E8E8"/>
<path d="M91.1078 213.562H59.7582C56.3808 213.562 53.6528 210.834 53.6528 207.457V177.493C53.6528 174.115 56.3808 171.387 59.7582 171.387H91.1078C94.4852 171.387 97.2131 174.115 97.2131 177.493V207.457C97.2131 210.834 94.4852 213.562 91.1078 213.562Z" fill="#E8E8E8"/>
<path d="M91.1078 286.09H59.7582C56.3808 286.09 53.6528 283.362 53.6528 279.985V250.021C53.6528 246.643 56.3808 243.916 59.7582 243.916H91.1078C94.4852 243.916 97.2131 246.643 97.2131 250.021V279.985C97.2131 283.319 94.4852 286.09 91.1078 286.09Z" fill="#E8E8E8"/>
<path d="M91.1078 350.868H59.7582C56.3808 350.868 53.6528 348.14 53.6528 344.762V314.799C53.6528 311.421 56.3808 308.693 59.7582 308.693H91.1078C94.4852 308.693 97.2131 311.421 97.2131 314.799V344.762C97.2131 348.14 94.4852 350.868 91.1078 350.868Z" fill="#E8E8E8"/>
<path d="M90.1122 423.353H58.7626C55.3851 423.353 52.6572 420.625 52.6572 417.248V387.284C52.6572 383.906 55.3851 381.178 58.7626 381.178H90.1122C93.4896 381.178 96.2175 383.906 96.2175 387.284V417.248C96.2175 420.625 93.4896 423.353 90.1122 423.353Z" fill="#E8E8E8"/>
<path d="M90.1122 495.838H58.7626C55.3851 495.838 52.6572 493.11 52.6572 489.732V459.768C52.6572 456.391 55.3851 453.663 58.7626 453.663H90.1122C93.4896 453.663 96.2175 456.391 96.2175 459.768V489.732C96.2175 493.11 93.4896 495.838 90.1122 495.838Z" fill="#E8E8E8"/>
<path d="M133.715 102.67L137.786 110.897C138.002 111.373 138.435 111.676 138.955 111.763L148.048 113.105C149.347 113.278 149.823 114.88 148.914 115.79L142.332 122.198C141.942 122.544 141.813 123.064 141.899 123.584L143.458 132.634C143.674 133.933 142.332 134.885 141.206 134.279L133.066 129.992C132.59 129.732 132.07 129.732 131.594 129.992L123.453 134.279C122.327 134.885 120.985 133.889 121.201 132.634L122.76 123.584C122.847 123.064 122.674 122.544 122.327 122.198L115.746 115.79C114.836 114.88 115.313 113.321 116.612 113.105L125.705 111.763C126.224 111.676 126.657 111.373 126.874 110.897L130.944 102.67C131.464 101.5 133.109 101.5 133.715 102.67Z" fill="#FFB700"/>
<path d="M133.715 174.895L137.786 183.122C138.002 183.598 138.435 183.901 138.955 183.988L148.048 185.33C149.347 185.504 149.823 187.106 148.914 188.015L142.332 194.423C141.942 194.77 141.813 195.289 141.899 195.809L143.458 204.859C143.674 206.158 142.332 207.11 141.206 206.504L133.066 202.218C132.59 201.958 132.07 201.958 131.594 202.218L123.453 206.504C122.327 207.11 120.985 206.115 121.201 204.859L122.76 195.809C122.847 195.289 122.674 194.77 122.327 194.423L115.746 188.015C114.836 187.106 115.313 185.547 116.612 185.33L125.705 183.988C126.224 183.901 126.657 183.598 126.874 183.122L130.944 174.895C131.464 173.726 133.109 173.726 133.715 174.895Z" fill="#E8E8E8"/>
<path d="M133.715 247.12L137.786 255.347C138.002 255.823 138.435 256.127 138.955 256.213L148.048 257.555C149.347 257.729 149.823 259.331 148.914 260.24L142.332 266.649C141.942 266.995 141.813 267.515 141.899 268.034L143.458 277.084C143.674 278.383 142.332 279.336 141.206 278.729L133.066 274.443C132.59 274.183 132.07 274.183 131.594 274.443L123.453 278.729C122.327 279.336 120.985 278.34 121.201 277.084L122.76 268.034C122.847 267.515 122.674 266.995 122.327 266.649L115.746 260.24C114.836 259.331 115.313 257.772 116.612 257.555L125.705 256.213C126.224 256.127 126.657 255.823 126.874 255.347L130.944 247.12C131.464 245.951 133.109 245.951 133.715 247.12Z" fill="#E8E8E8"/>
<path d="M133.715 311.898L137.786 320.125C138.002 320.601 138.435 320.904 138.955 320.991L148.048 322.333C149.347 322.506 149.823 324.108 148.914 325.018L142.332 331.426C141.942 331.773 141.813 332.292 141.899 332.812L143.458 341.862C143.674 343.161 142.332 344.113 141.206 343.507L133.066 339.22C132.59 338.96 132.07 338.96 131.594 339.22L123.453 343.507C122.327 344.113 120.985 343.117 121.201 341.862L122.76 332.812C122.847 332.292 122.674 331.773 122.327 331.426L115.746 325.018C114.836 324.108 115.313 322.549 116.612 322.333L125.705 320.991C126.224 320.904 126.657 320.601 126.874 320.125L130.944 311.898C131.464 310.728 133.109 310.728 133.715 311.898Z" fill="#E8E8E8"/>
<path d="M133.715 386.851L137.786 395.078C138.002 395.554 138.435 395.857 138.955 395.944L148.048 397.286C149.347 397.459 149.823 399.061 148.914 399.971L142.332 406.379C141.942 406.726 141.813 407.245 141.899 407.765L143.458 416.815C143.674 418.114 142.332 419.066 141.206 418.46L133.066 414.173C132.59 413.914 132.07 413.914 131.594 414.173L123.453 418.46C122.327 419.066 120.985 418.07 121.201 416.815L122.76 407.765C122.847 407.245 122.674 406.726 122.327 406.379L115.746 399.971C114.836 399.061 115.313 397.503 116.612 397.286L125.705 395.944C126.224 395.857 126.657 395.554 126.874 395.078L130.944 386.851C131.464 385.682 133.109 385.682 133.715 386.851Z" fill="#E8E8E8"/>
<path d="M133.715 456.781L137.786 465.008C138.002 465.485 138.435 465.788 138.955 465.874L148.048 467.217C149.347 467.39 149.823 468.992 148.914 469.901L142.332 476.31C141.942 476.656 141.813 477.176 141.899 477.695L143.458 486.745C143.674 488.044 142.332 488.997 141.206 488.39L133.066 484.104C132.59 483.844 132.07 483.844 131.594 484.104L123.453 488.39C122.327 488.997 120.985 488.001 121.201 486.745L122.76 477.695C122.847 477.176 122.674 476.656 122.327 476.31L115.746 469.901C114.836 468.992 115.313 467.433 116.612 467.217L125.705 465.874C126.224 465.788 126.657 465.485 126.874 465.008L130.944 456.781C131.464 455.612 133.109 455.612 133.715 456.781Z" fill="#E8E8E8"/>
<path d="M352.989 155.843H197.064C193.557 155.843 190.699 152.985 190.699 149.477V88.467C190.699 84.9596 193.557 82.1018 197.064 82.1018H352.989C356.496 82.1018 359.354 84.9596 359.354 88.467V149.477C359.311 152.985 356.496 155.843 352.989 155.843Z" fill="white"/>
<path d="M347.706 91.4983H202.346V100.072H347.706V91.4983Z" fill="#E8E8E8"/>
<path d="M347.706 106.957H202.346V115.53H347.706V106.957Z" fill="#E8E8E8"/>
<path d="M347.706 122.415H202.346V130.988H347.706V122.415Z" fill="#E8E8E8"/>
<path d="M275.004 137.873H202.346V146.447H275.004V137.873Z" fill="#E8E8E8"/>
<path d="M352.989 243.483H197.064C193.557 243.483 190.699 240.625 190.699 237.118V176.107C190.699 172.6 193.557 169.742 197.064 169.742H352.989C356.496 169.742 359.354 172.6 359.354 176.107V237.118C359.311 240.625 356.496 243.483 352.989 243.483Z" fill="white"/>
<path d="M347.706 179.181H202.346V187.755H347.706V179.181Z" fill="#E8E8E8"/>
<path d="M347.706 194.596H202.346V203.17H347.706V194.596Z" fill="#E8E8E8"/>
<path d="M347.706 210.055H202.346V218.628H347.706V210.055Z" fill="#E8E8E8"/>
<path d="M275.004 225.513H202.346V234.086H275.004V225.513Z" fill="#E8E8E8"/>
<path d="M352.989 331.122H197.064C193.557 331.122 190.699 328.265 190.699 324.757V263.79C190.699 260.283 193.557 257.425 197.064 257.425H352.989C356.496 257.425 359.354 260.283 359.354 263.79V324.801C359.311 328.308 356.496 331.122 352.989 331.122Z" fill="white"/>
<path d="M347.706 266.821H202.346V275.395H347.706V266.821Z" fill="#E8E8E8"/>
<path d="M347.706 282.28H202.346V290.853H347.706V282.28Z" fill="#E8E8E8"/>
<path d="M347.706 297.695H202.346V306.268H347.706V297.695Z" fill="#E8E8E8"/>
<path d="M275.004 313.153H202.346V321.726H275.004V313.153Z" fill="#E8E8E8"/>
<path d="M352.989 418.763H197.064C193.557 418.763 190.699 415.905 190.699 412.398V351.431C190.699 347.924 193.557 345.066 197.064 345.066H352.989C356.496 345.066 359.354 347.924 359.354 351.431V412.441C359.311 415.949 356.496 418.763 352.989 418.763Z" fill="white"/>
<path d="M347.706 354.462H202.346V363.035H347.706V354.462Z" fill="#E8E8E8"/>
<path d="M347.706 369.92H202.346V378.493H347.706V369.92Z" fill="#E8E8E8"/>
<path d="M347.706 385.378H202.346V393.952H347.706V385.378Z" fill="#E8E8E8"/>
<path d="M275.004 400.793H202.346V409.367H275.004V400.793Z" fill="#E8E8E8"/>
<path d="M352.989 506.447H197.064C193.557 506.447 190.699 503.589 190.699 500.081V439.071C190.699 435.564 193.557 432.706 197.064 432.706H352.989C356.496 432.706 359.354 435.564 359.354 439.071V500.081C359.311 503.589 356.496 506.447 352.989 506.447Z" fill="white"/>
<path d="M347.706 442.102H202.346V450.676H347.706V442.102Z" fill="#E8E8E8"/>
<path d="M347.706 457.56H202.346V466.134H347.706V457.56Z" fill="#E8E8E8"/>
<path d="M347.706 473.019H202.346V481.592H347.706V473.019Z" fill="#E8E8E8"/>
<path d="M275.004 488.477H202.346V497.051H275.004V488.477Z" fill="#E8E8E8"/>
<path d="M474.143 617.036L475.312 641.415L469.293 644.316C469.293 644.316 481.288 657.176 502.462 651.287L503.198 617.036H474.143Z" fill="#FFD1C1"/>
<path d="M471.718 634.053C471.718 634.053 491.463 632.668 506.012 625.263V615.045L469.293 614.655L471.718 634.053Z" fill="#FFB2A0"/>
<path d="M503.155 650.551V668.434H430.713C430.713 662.978 434.047 658.042 439.113 656.05L469.034 644.186C469.077 644.186 483.15 656.57 503.155 650.551Z" fill="#4D1300"/>
<path d="M465.483 645.615L467.908 650.551C468.427 651.634 467.951 652.976 466.869 653.452C465.873 653.885 464.66 653.496 464.141 652.5L461.326 647.26L465.483 645.615Z" fill="#6F3126"/>
<path d="M458.166 648.516L460.59 653.452C461.11 654.535 460.634 655.877 459.551 656.353C458.555 656.786 457.343 656.397 456.823 655.401L454.009 650.162L458.166 648.516Z" fill="#6F3126"/>
<path d="M449.895 651.807L452.32 656.743C452.84 657.826 452.363 659.168 451.281 659.644C450.285 660.077 449.072 659.688 448.553 658.692L445.738 653.452L449.895 651.807Z" fill="#6F3126"/>
<path d="M503.198 668.434H430.756V673.804H503.198V668.434Z" fill="#320300"/>
<path d="M650.939 556.762L673.369 566.418L673.326 573.13C673.326 573.13 690.17 567.977 694.153 546.37L663.67 530.739L650.939 556.762Z" fill="#FFD1C1"/>
<path d="M675.881 533.423C675.881 533.423 676.487 565.162 670.598 568.67L655.14 563.387L662.371 528.703L675.881 533.423Z" fill="#FFB2A0"/>
<path d="M693.764 545.374L709.829 553.212L678.133 618.336C673.24 615.954 670.252 610.801 670.685 605.345L673.153 573.26C673.11 573.216 690.43 565.985 693.764 545.374Z" fill="#4D1300"/>
<path d="M672.807 577.114L678.306 577.07C679.518 577.07 680.471 578.066 680.428 579.279C680.384 580.404 679.475 581.27 678.393 581.314L672.46 581.574L672.807 577.114Z" fill="#6A2E22"/>
<path d="M672.244 584.951L677.743 584.907C678.955 584.907 679.908 585.903 679.865 587.116C679.821 588.242 678.912 589.108 677.83 589.151L671.897 589.411L672.244 584.951Z" fill="#6A2E22"/>
<path d="M671.551 593.784L677.05 593.741C678.263 593.741 679.215 594.737 679.172 595.949C679.129 597.075 678.219 597.941 677.137 597.984L671.205 598.244L671.551 593.784Z" fill="#6A2E22"/>
<path d="M709.847 553.159L678.132 618.291L682.959 620.642L714.674 555.51L709.847 553.159Z" fill="#3B0D00"/>
<path d="M477.998 216.853L415.818 152.032L400.923 165.066L454.182 241.491L477.998 216.853Z" fill="#FFD1C1"/>
<path d="M429.501 215.684C429.501 215.684 457.083 216.68 476.958 208.713L483.324 216.16L451.887 246.99L429.501 215.684Z" fill="#FFB2A0"/>
<path d="M408.977 124.623L369.4 149.088L318.479 121.852C317.699 122.675 317.396 123.974 317.699 125.446L327.442 169.872C328.005 172.47 330.386 174.635 332.768 174.722L417.767 177.363C420.148 177.45 421.62 175.371 421.014 172.773L411.272 128.347C411.012 126.832 410.103 125.533 408.977 124.623Z" fill="#E8E8E8"/>
<path d="M421.058 172.73C421.058 172.73 403.607 158.528 402.871 157.532C402.135 156.536 400.014 152.942 401.919 149.738C403.824 146.533 401.919 149.738 401.919 149.738L421.187 160.693L421.058 172.73Z" fill="#D1D1D1"/>
<path d="M314.538 121.809C314.538 121.809 349.958 172.643 378.406 180.134H322.375L314.538 121.809Z" fill="#D1D1D1"/>
<path d="M408.977 124.623C408.067 123.93 407.028 123.497 405.989 123.454L320.99 120.813C319.951 120.769 319.085 121.159 318.479 121.809L369.4 149.045L408.977 124.623Z" fill="#FFB700"/>
<path d="M500.168 140.124C510.516 140.124 518.917 153.201 518.917 169.265V183.425C518.917 189.054 519.436 194.683 520.432 200.225L524.069 220.187L500.168 220.1V198.407C489.819 198.407 481.418 185.33 481.418 169.265C481.418 153.158 489.819 140.124 500.168 140.124Z" fill="#FFD1C1"/>
<path d="M501.813 149.607C501.813 149.607 497.44 179.485 478.604 183.815C478.604 183.815 473.625 159.999 479.427 152.335C485.229 144.671 501.813 149.607 501.813 149.607Z" fill="#FFB2A0"/>
<path d="M562.65 340.779H460.807L467.692 322.723C470.16 316.228 470.766 309.17 469.424 302.328L465.83 283.969L444.266 302.545L420.711 270.112L470.896 218.238C480.639 210.834 492.59 206.807 504.844 206.807H526.061C526.364 206.807 526.711 206.807 527.014 206.807C544.637 207.327 557.93 223.088 556.112 240.625L553.34 267.428C551.435 285.874 552.907 304.536 557.714 322.419L562.65 340.779Z" fill="#FFB700"/>
<path d="M465.873 283.969L481.462 269.896C481.462 269.896 479.167 305.446 489.862 316.661C500.557 327.876 524.113 345.672 524.113 345.672L448.164 345.196L463.146 311.984L465.873 283.969Z" fill="#FF8E00"/>
<path d="M486.788 204.642C486.788 204.642 482.804 239.846 514.63 252.359C546.412 264.873 560.918 261.712 560.918 261.712L562.693 239.283C562.693 239.283 527.144 240.971 519.176 232.181C511.209 223.391 505.277 201.525 505.277 201.525L486.788 204.642Z" fill="#FFA648"/>
<path d="M494.235 137.093C489.083 143.632 488.476 155.28 492.157 161.818C493.846 164.762 496.184 167.317 497.786 170.305C501.25 176.757 500.99 184.551 499.821 191.825C498.695 199.056 496.79 206.331 497.396 213.605C498.436 225.989 506.749 237.031 517.401 243.526C530.348 251.407 551.176 258.421 565.075 248.895C574.904 242.184 580.49 230.276 581.616 218.628C582.742 207.067 578.022 198.017 568.799 191.219C562.953 186.932 554.12 184.767 551.002 177.753C549.054 173.379 550.05 168.313 549.314 163.593C548.318 157.055 543.858 151.166 537.796 148.525C534.592 147.096 531.084 146.533 527.88 145.191C523.94 143.502 520.605 140.601 517.185 138.003C513.764 135.405 509.997 132.937 505.71 132.374C500.731 131.724 496.877 133.759 494.235 137.093Z" fill="#4D1300"/>
<path d="M564.815 472.283L555.333 340.779H541.217H488.823H466.307C466.307 340.779 448.51 427.986 452.494 470.334C453.317 479.038 467.129 621.973 467.129 621.973H510.43L505.277 488.78C504.931 479.471 505.97 470.204 508.438 461.241L509.174 458.556L513.937 486.096C515.02 492.288 517.315 498.22 520.692 503.502C526.494 512.595 535.198 519.437 545.417 522.944L660.683 562.261L672.85 531.258L564.815 472.283Z" fill="#4D1300"/>
<path d="M509.174 459.726C509.044 459.726 508.957 459.726 508.827 459.682C508.221 459.509 507.875 458.86 508.048 458.21L534.721 371.999C534.894 371.393 535.544 371.046 536.193 371.219C536.8 371.393 537.146 372.042 536.973 372.692L510.3 458.903C510.127 459.422 509.65 459.726 509.174 459.726Z" fill="#361811"/>
<path d="M494.495 143.719C495.015 149.954 492.373 156.362 487.61 160.389C482.847 164.416 476.049 165.975 470.03 164.416C470.507 160.822 469.511 157.142 470.896 153.764C472.412 150.127 476.179 148.005 479.946 146.75C480.552 146.533 481.202 146.317 481.548 145.84C481.808 145.494 481.851 145.018 481.938 144.585C482.198 142.549 482.328 140.428 483.28 138.652C484.579 136.314 487.177 134.885 489.819 134.366C491.897 133.976 494.322 134.106 495.707 135.708C496.79 136.92 497.006 138.696 496.573 140.211C496.097 141.77 495.621 142.636 494.495 143.719Z" fill="#320300"/>
<path d="M336.794 101.76C336.968 98.3397 337.66 96.2612 338.916 95.9581C342.64 95.0055 349.828 110.81 355.024 131.291C360.22 151.729 361.432 169.093 357.709 170.002C356.496 170.305 354.894 168.79 353.075 165.888C353.465 158.96 351.776 146.663 348.269 132.98C344.762 119.297 340.432 107.649 336.794 101.76Z" fill="#4F5285"/>
<path d="M337.011 99.4653C341.385 105.181 347.317 118.604 350.781 132.33C354.245 146.057 355.197 160.346 354.072 167.447C349.698 161.731 345.022 148.395 341.514 134.712C338.007 121.029 335.885 106.567 337.011 99.4653Z" fill="#E8E8E8"/>
<path d="M348.789 119.643C348.529 120.856 341.601 141.294 341.601 141.294L337.141 127.048L344.286 110.117L348.789 119.643Z" fill="url(#paint0_linear_79_2575)"/>
<path d="M351.387 130.988L345.238 151.383L348.226 160.779L353.379 142.419L351.387 130.988Z" fill="url(#paint1_linear_79_2575)"/>
<path d="M332.161 97.6467C328.437 98.5993 329.65 115.92 334.846 136.357C340.042 156.795 347.273 172.6 350.953 171.691L357.665 170.002C356.453 170.305 354.851 168.789 353.032 165.888C349.395 159.999 345.021 148.395 341.514 134.669C338.05 120.986 336.361 108.645 336.708 101.76C336.881 98.3395 337.574 96.2611 338.829 95.958L332.161 97.6467Z" fill="#373660"/>
<path d="M351.344 176.41L356.41 196.372C356.626 197.238 357.492 197.758 358.358 197.541L362.299 196.545C363.165 196.329 363.684 195.463 363.468 194.597L358.402 174.635C358.185 173.769 357.319 173.25 356.453 173.466L352.513 174.462C351.647 174.678 351.127 175.588 351.344 176.41Z" fill="#373660"/>
<path d="M351.413 171.609L352.17 174.588L356.703 173.437L355.946 170.457L351.413 171.609Z" fill="#4F5285"/>
<path d="M372.647 201.265C372.647 201.265 363.9 179.745 362.515 178.143C361.129 176.54 344.329 177.623 342.856 183.772C341.254 190.656 339.479 199.143 354.504 210.445L390.703 295.963C392.695 300.293 395.726 304.104 399.45 307.048C409.453 314.886 423.265 315.622 434.047 308.91L444.18 302.588L372.647 201.265Z" fill="#FFD1C1"/>
<path d="M420.754 265.913C420.754 265.913 429.76 305.706 417.506 316.618C417.506 316.618 441.365 315.232 449.895 301.592L425.127 262.016L420.754 265.913Z" fill="#FFB2A0"/>
<path d="M416.727 153.028C416.727 153.028 403.001 148.698 401.918 149.781C401.226 150.473 401.918 154.544 403.91 155.583C405.556 156.449 419.455 165.499 419.455 165.499C419.455 165.499 419.065 156.276 416.727 153.028Z" fill="#FFD1C1"/>
<path d="M566.677 102.67L650.463 99.1191L571.613 128.217L566.677 102.67Z" fill="#FFB700"/>
<path d="M572.436 88.9868L588.5 71.9697L650.463 99.1191L572.436 88.9868Z" fill="#FFB700"/>
<path d="M579.234 102.107L572.436 88.9868L650.463 99.1191L579.234 102.107Z" fill="#FF8E00"/>
<path d="M618.206 493.284H608.593V661.463H618.206V493.284Z" fill="#14265D"/>
<path d="M681.598 673.804H549.748L587.419 655.661C603.916 647.737 623.055 647.477 639.769 654.968L681.598 673.804Z" fill="#003688"/>
<path d="M554.034 489.733C575.034 489.733 594.823 479.687 607.207 462.713L693.288 344.849C699.74 336.016 710.045 330.777 721 330.777L677.613 473.105C673.283 487.308 660.163 497.007 645.311 497.007H601.837H582.222H539.528C537.536 497.007 535.891 495.362 535.891 493.37C535.891 491.378 537.536 489.733 539.528 489.733H554.034Z" fill="#003688"/>
<defs>
<linearGradient id="paint0_linear_79_2575" x1="337.807" y1="131.865" x2="351.287" y2="115.611" gradientUnits="userSpaceOnUse">
<stop stop-color="white"/>
<stop offset="1" stop-color="#E8E8E8"/>
</linearGradient>
<linearGradient id="paint1_linear_79_2575" x1="344.831" y1="151.889" x2="357.913" y2="136.116" gradientUnits="userSpaceOnUse">
<stop stop-color="white"/>
<stop offset="1" stop-color="#E8E8E8"/>
</linearGradient>
</defs>
</svg>
