<svg width="37" height="32" viewBox="0 0 37 32" fill="none" xmlns="http://www.w3.org/2000/svg">
<g clip-path="url(#clip0_103_5156)">
<path d="M25.6437 21.557L27.6437 19.557C27.9562 19.2445 28.5 19.4633 28.5 19.9133V29.0008C28.5 30.657 27.1562 32.0008 25.5 32.0008H3.5C1.84375 32.0008 0.5 30.657 0.5 29.0008V7.00078C0.5 5.34453 1.84375 4.00078 3.5 4.00078H20.5938C21.0375 4.00078 21.2625 4.53828 20.95 4.85703L18.95 6.85703C18.8563 6.95078 18.7313 7.00078 18.5938 7.00078H3.5V29.0008H25.5V21.907C25.5 21.7758 25.55 21.6508 25.6437 21.557ZM35.4313 8.94453L19.0187 25.357L13.3687 25.982C11.7312 26.1633 10.3375 24.782 10.5188 23.132L11.1438 17.482L27.5562 1.06953C28.9875 -0.361719 31.3 -0.361719 32.725 1.06953L35.425 3.76953C36.8563 5.20078 36.8563 7.51953 35.4313 8.94453ZM29.2563 10.8758L25.625 7.24453L14.0125 18.8633L13.5562 22.9445L17.6375 22.4883L29.2563 10.8758ZM33.3063 5.89453L30.6063 3.19453C30.35 2.93828 29.9312 2.93828 29.6812 3.19453L27.75 5.12578L31.3813 8.75703L33.3125 6.82578C33.5625 6.56328 33.5625 6.15078 33.3063 5.89453Z" fill="#003986"/>
</g>
<defs>
<clipPath id="clip0_103_5156">
<rect width="36" height="32" fill="white" transform="translate(0.5)"/>
</clipPath>
</defs>
</svg>
