<svg width="230" height="218" viewBox="0 0 230 218" fill="none" xmlns="http://www.w3.org/2000/svg">
<path d="M115 46.1647C101.585 46.1802 88.7238 51.3867 79.2379 60.6421C69.752 69.8975 64.4159 82.4462 64.4001 95.5353C64.384 106.232 67.965 116.638 74.5936 125.158C74.5936 125.158 75.9736 126.931 76.199 127.186L115 171.835L153.819 127.164C154.022 126.926 155.406 125.158 155.406 125.158L155.411 125.144C162.036 116.628 165.616 106.227 165.6 95.5353C165.584 82.4462 160.248 69.8975 150.762 60.6421C141.276 51.3867 128.415 46.1802 115 46.1647ZM115 113.488C111.36 113.488 107.804 112.435 104.778 110.462C101.752 108.49 99.3931 105.686 98.0002 102.406C96.6083 99.125 96.2439 95.5156 96.9533 92.0327C97.6635 88.5504 99.4161 85.3514 101.989 82.8407C104.563 80.3299 107.841 78.6201 111.41 77.9273C114.98 77.2346 118.679 77.5902 122.042 78.949C125.403 80.3078 128.277 82.6088 130.299 85.5612C132.321 88.5136 133.4 91.9842 133.4 95.5353C133.394 100.295 131.453 104.858 128.004 108.224C124.555 111.589 119.878 113.482 115 113.488Z" fill="#FFE901"/>
</svg>
